<?xml version="1.0" encoding="utf-8"?>
<!-- Generator: Adobe Illustrator 26.0.1, SVG Export Plug-In . SVG Version: 6.00 Build 0)  -->
<svg version="1.2" baseProfile="tiny" id="レイヤー_1"
	 xmlns="http://www.w3.org/2000/svg" xmlns:xlink="http://www.w3.org/1999/xlink" x="0px" y="0px" viewBox="0 0 12 635"
	 overflow="visible" xml:space="preserve">
<g>
	<path stroke="#505050" stroke-width="0.75" stroke-linecap="round" stroke-linejoin="round" stroke-miterlimit="10" d="M0.3,629.7
		v-1.8l11.4-5v2.1L9,626.2v5.4l2.7,1.2v2L0.3,629.7z M7.2,626.9l-4.5,2l4.5,1.9V626.9z"/>
	<path stroke="#505050" stroke-width="0.75" stroke-linecap="round" stroke-linejoin="round" stroke-miterlimit="10" d="M0.4,621
		v-4.5c0-2.6,1.5-4.3,3.8-4.3l0,0c2.5,0,3.9,2,3.9,4.5v2.2h3.6v2L0.4,621L0.4,621z M6.3,616.7c0-1.5-0.8-2.4-2-2.4l0,0
		c-1.3,0-2,1-2,2.4v2.3h4.1L6.3,616.7L6.3,616.7z"/>
	<path stroke="#505050" stroke-width="0.75" stroke-linecap="round" stroke-linejoin="round" stroke-miterlimit="10" d="M0.4,610.2
		v-4.5c0-2.6,1.5-4.3,3.8-4.3l0,0c2.5,0,3.9,2,3.9,4.5v2.2h3.6v2L0.4,610.2L0.4,610.2z M6.3,605.9c0-1.5-0.8-2.4-2-2.4l0,0
		c-1.3,0-2,1-2,2.4v2.3h4.1L6.3,605.9L6.3,605.9z"/>
	<path stroke="#505050" stroke-width="0.75" stroke-linecap="round" stroke-linejoin="round" stroke-miterlimit="10" d="M0.4,599.4
		V591h1.8v6.4h2.9v-5.7h1.8v5.7h3v-6.5h1.8v8.5H0.4z"/>
	<path stroke="#505050" stroke-width="0.75" stroke-linecap="round" stroke-linejoin="round" stroke-miterlimit="10" d="M0.4,588.5
		v-4.2c0-3.6,2.4-6,5.6-6l0,0c3.2,0,5.7,2.5,5.7,6v4.2H0.4z M9.9,584.3c0-2.4-1.6-3.9-3.8-3.9l0,0c-2.2,0-3.8,1.6-3.8,3.9v2.2H10
		L9.9,584.3L9.9,584.3z"/>
	<path stroke="#505050" stroke-width="0.75" stroke-linecap="round" stroke-linejoin="round" stroke-miterlimit="10" d="M6.9,576.1
		H0.4v-2h6.4c2.1,0,3.2-1.1,3.2-2.9c0-1.8-1.1-2.8-3.2-2.8H0.4v-2h6.4c3.4,0,5.1,1.9,5.1,4.9C11.9,574.2,10.2,576.1,6.9,576.1z"/>
	<path stroke="#505050" stroke-width="0.75" stroke-linecap="round" stroke-linejoin="round" stroke-miterlimit="10" d="M0.4,558.8
		v-4.2c0-3.6,2.4-6,5.6-6l0,0c3.2,0,5.7,2.5,5.7,6v4.2H0.4z M9.9,554.6c0-2.4-1.6-3.9-3.8-3.9l0,0c-2.2,0-3.8,1.6-3.8,3.9v2.2H10
		L9.9,554.6L9.9,554.6z"/>
	<path stroke="#505050" stroke-width="0.75" stroke-linecap="round" stroke-linejoin="round" stroke-miterlimit="10" d="M0.4,546.1
		v-8.4h1.8v6.4h2.9v-5.7h1.8v5.7h3v-6.5h1.8v8.5H0.4z"/>
	<path stroke="#505050" stroke-width="0.75" stroke-linecap="round" stroke-linejoin="round" stroke-miterlimit="10" d="M10,536.1
		l-1.4-1.2c0.9-1.1,1.5-2.2,1.5-3.6c0-1.2-0.6-2-1.4-2l0,0c-0.8,0-1.2,0.5-1.7,2.6c-0.6,2.4-1.3,3.8-3.4,3.8l0,0
		c-1.9,0-3.3-1.6-3.3-3.9c0-1.7,0.5-3,1.4-4.1l1.5,1.1c-0.8,1-1.2,2-1.2,3.1c0,1.2,0.6,1.8,1.3,1.8l0,0c0.9,0,1.3-0.5,1.8-2.7
		c0.6-2.4,1.4-3.6,3.3-3.6l0,0c2.1,0,3.4,1.7,3.4,4C11.9,533.1,11.3,534.7,10,536.1z"/>
	<path stroke="#505050" stroke-width="0.75" stroke-linecap="round" stroke-linejoin="round" stroke-miterlimit="10" d="M0.4,524.8
		v-2h11.3v2H0.4z"/>
	<path stroke="#505050" stroke-width="0.75" stroke-linecap="round" stroke-linejoin="round" stroke-miterlimit="10" d="M6.1,520.3
		L6.1,520.3c-3.2,0-5.9-2.4-5.9-5.8c0-2,0.5-3.2,1.5-4.4l1.5,1.3c-0.7,0.9-1.2,1.7-1.2,3.2c0,2.1,1.8,3.7,4,3.7l0,0
		c2.3,0,4-1.5,4-3.8c0-1.1-0.3-2-0.9-2.7h-2v2.9H5.4v-4.8h4.8c1,1.1,1.8,2.7,1.8,4.7C11.9,518,9.4,520.3,6.1,520.3z"/>
	<path stroke="#505050" stroke-width="0.75" stroke-linecap="round" stroke-linejoin="round" stroke-miterlimit="10" d="M0.4,507.1
		v-1.8l7.8-6.1H0.4v-2h11.3v1.7l-8.1,6.2h8.1v2L0.4,507.1L0.4,507.1z"/>
	<path stroke="#505050" stroke-width="0.75" stroke-linecap="round" stroke-linejoin="round" stroke-miterlimit="10" d="M6.1,490
		L6.1,490c-3.3,0-5.9-2.4-5.9-5.8c0-2.1,0.7-3.3,1.8-4.4l1.5,1.3c-0.8,0.9-1.4,1.9-1.4,3.2c0,2.2,1.8,3.7,4,3.7l0,0
		c2.2,0,4-1.6,4-3.7c0-1.4-0.6-2.3-1.5-3.3l1.3-1.3c1.2,1.2,2,2.5,2,4.6C11.9,487.6,9.3,490,6.1,490z"/>
	<path stroke="#505050" stroke-width="0.75" stroke-linecap="round" stroke-linejoin="round" stroke-miterlimit="10" d="M0.4,477.6
		v-2h9.5v-6h1.8v7.9H0.4V477.6z"/>
	<path stroke="#505050" stroke-width="0.75" stroke-linecap="round" stroke-linejoin="round" stroke-miterlimit="10" d="M0.3,463.6
		v-1.8l11.4-5v2.1L9,460v5.4l2.7,1.2v2L0.3,463.6z M7.2,460.7l-4.5,2l4.5,1.9V460.7z"/>
	<path stroke="#505050" stroke-width="0.75" stroke-linecap="round" stroke-linejoin="round" stroke-miterlimit="10" d="M10,455.8
		l-1.4-1.2c0.9-1.1,1.5-2.2,1.5-3.6c0-1.2-0.6-2-1.4-2l0,0c-0.8,0-1.2,0.5-1.7,2.6c-0.6,2.4-1.3,3.8-3.4,3.8l0,0
		c-1.9,0-3.3-1.6-3.3-3.9c0-1.7,0.5-3,1.4-4.1l1.5,1.1c-0.8,1-1.2,2-1.2,3.1c0,1.2,0.6,1.8,1.3,1.8l0,0c0.9,0,1.3-0.5,1.8-2.7
		c0.6-2.4,1.4-3.6,3.3-3.6l0,0c2.1,0,3.4,1.7,3.4,4C11.9,452.8,11.3,454.4,10,455.8z"/>
	<path stroke="#505050" stroke-width="0.75" stroke-linecap="round" stroke-linejoin="round" stroke-miterlimit="10" d="M10,445.6
		l-1.4-1.2c0.9-1.1,1.5-2.2,1.5-3.6c0-1.2-0.6-2-1.4-2l0,0c-0.8,0-1.2,0.5-1.7,2.6c-0.6,2.4-1.3,3.8-3.4,3.8l0,0
		c-1.9,0-3.3-1.6-3.3-3.9c0-1.7,0.5-3,1.4-4.1l1.5,1.1c-0.8,1-1.2,2-1.2,3.1c0,1.2,0.6,1.8,1.3,1.8l0,0c0.9,0,1.3-0.5,1.8-2.7
		c0.6-2.4,1.4-3.6,3.3-3.6l0,0c2.1,0,3.4,1.7,3.4,4C11.9,442.6,11.3,444.2,10,445.6z"/>
	<path stroke="#505050" stroke-width="0.75" stroke-linecap="round" stroke-linejoin="round" stroke-miterlimit="10" d="M0.3,411.7
		v-1.8l11.4-5v2.1L9,408.1v5.4l2.7,1.2v2L0.3,411.7z M7.2,408.8l-4.5,2l4.5,1.9V408.8z"/>
	<path stroke="#505050" stroke-width="0.75" stroke-linecap="round" stroke-linejoin="round" stroke-miterlimit="10" d="M0.4,402.9
		v-4.5c0-2.6,1.5-4.3,3.8-4.3l0,0c2.5,0,3.9,2,3.9,4.5v2.2h3.6v2L0.4,402.9L0.4,402.9z M6.3,398.6c0-1.5-0.8-2.4-2-2.4l0,0
		c-1.3,0-2,1-2,2.4v2.3h4.1L6.3,398.6L6.3,398.6z"/>
	<path stroke="#505050" stroke-width="0.75" stroke-linecap="round" stroke-linejoin="round" stroke-miterlimit="10" d="M0.4,392.1
		v-4.5c0-2.6,1.5-4.3,3.8-4.3l0,0c2.5,0,3.9,2,3.9,4.5v2.2h3.6v2L0.4,392.1L0.4,392.1z M6.3,387.8c0-1.5-0.8-2.4-2-2.4l0,0
		c-1.3,0-2,1-2,2.4v2.3h4.1L6.3,387.8L6.3,387.8z"/>
	<path stroke="#505050" stroke-width="0.75" stroke-linecap="round" stroke-linejoin="round" stroke-miterlimit="10" d="M0.4,381.3
		v-8.4h1.8v6.4h2.9v-5.7h1.8v5.7h3v-6.5h1.8v8.5H0.4z"/>
	<path stroke="#505050" stroke-width="0.75" stroke-linecap="round" stroke-linejoin="round" stroke-miterlimit="10" d="M0.4,370.4
		v-4.2c0-3.6,2.4-6,5.6-6l0,0c3.2,0,5.7,2.5,5.7,6v4.2H0.4z M9.9,366.2c0-2.4-1.6-3.9-3.8-3.9l0,0c-2.2,0-3.8,1.6-3.8,3.9v2.2H10
		L9.9,366.2L9.9,366.2z"/>
	<path stroke="#505050" stroke-width="0.75" stroke-linecap="round" stroke-linejoin="round" stroke-miterlimit="10" d="M6.9,358
		H0.4v-2h6.4c2.1,0,3.2-1.1,3.2-2.9s-1.1-2.8-3.2-2.8H0.4v-2h6.4c3.4,0,5.1,1.9,5.1,4.9C11.9,356.1,10.2,358,6.9,358z"/>
	<path stroke="#505050" stroke-width="0.75" stroke-linecap="round" stroke-linejoin="round" stroke-miterlimit="10" d="M0.4,340.7
		v-4.2c0-3.6,2.4-6,5.6-6l0,0c3.2,0,5.7,2.5,5.7,6v4.2H0.4z M9.9,336.5c0-2.4-1.6-3.9-3.8-3.9l0,0c-2.2,0-3.8,1.6-3.8,3.9v2.2H10
		L9.9,336.5L9.9,336.5z"/>
	<path stroke="#505050" stroke-width="0.75" stroke-linecap="round" stroke-linejoin="round" stroke-miterlimit="10" d="M0.4,328.1
		v-8.4h1.8v6.4h2.9v-5.7h1.8v5.7h3v-6.5h1.8v8.5H0.4z"/>
	<path stroke="#505050" stroke-width="0.75" stroke-linecap="round" stroke-linejoin="round" stroke-miterlimit="10" d="M10,318
		l-1.4-1.2c0.9-1.1,1.5-2.2,1.5-3.6c0-1.2-0.6-2-1.4-2l0,0c-0.8,0-1.2,0.5-1.7,2.6c-0.6,2.4-1.3,3.8-3.4,3.8l0,0
		c-1.9,0-3.3-1.6-3.3-3.9c0-1.6,0.5-3,1.4-4.1l1.5,1.1c-0.8,1-1.2,2-1.2,3.1c0,1.2,0.6,1.8,1.3,1.8l0,0c0.9,0,1.3-0.5,1.8-2.7
		c0.6-2.4,1.4-3.6,3.3-3.6l0,0c2.1,0,3.4,1.7,3.4,4C11.9,315,11.3,316.6,10,318z"/>
	<path stroke="#505050" stroke-width="0.75" stroke-linecap="round" stroke-linejoin="round" stroke-miterlimit="10" d="M0.4,306.8
		v-2h11.3v2H0.4z"/>
	<path stroke="#505050" stroke-width="0.75" stroke-linecap="round" stroke-linejoin="round" stroke-miterlimit="10" d="M6.1,302.3
		L6.1,302.3c-3.2,0-5.9-2.4-5.9-5.8c0-2,0.5-3.2,1.5-4.4l1.5,1.3c-0.7,0.9-1.2,1.7-1.2,3.2c0,2.1,1.8,3.7,4,3.7l0,0
		c2.3,0,4-1.5,4-3.8c0-1.1-0.3-2-0.9-2.7h-2v2.9H5.4v-4.8h4.8c1,1.1,1.8,2.7,1.8,4.7C11.9,299.9,9.4,302.3,6.1,302.3z"/>
	<path stroke="#505050" stroke-width="0.75" stroke-linecap="round" stroke-linejoin="round" stroke-miterlimit="10" d="M0.4,289.1
		v-1.8l7.8-6.1H0.4v-2h11.3v1.7l-8.1,6.2h8.1v2L0.4,289.1L0.4,289.1z"/>
	<path stroke="#505050" stroke-width="0.75" stroke-linecap="round" stroke-linejoin="round" stroke-miterlimit="10" d="M6.1,271.9
		L6.1,271.9c-3.3,0-5.9-2.4-5.9-5.8c0-2.1,0.7-3.3,1.8-4.4l1.5,1.3c-0.8,0.9-1.4,1.9-1.4,3.2c0,2.2,1.8,3.7,4,3.7l0,0
		c2.2,0,4-1.6,4-3.7c0-1.4-0.6-2.3-1.5-3.3l1.3-1.3c1.2,1.2,2,2.5,2,4.6C11.9,269.5,9.3,271.9,6.1,271.9z"/>
	<path stroke="#505050" stroke-width="0.75" stroke-linecap="round" stroke-linejoin="round" stroke-miterlimit="10" d="M0.4,259.5
		v-2h9.5v-6h1.8v7.9H0.4V259.5z"/>
	<path stroke="#505050" stroke-width="0.75" stroke-linecap="round" stroke-linejoin="round" stroke-miterlimit="10" d="M0.3,245.5
		v-1.8l11.4-5v2.1L9,241.9v5.4l2.7,1.2v2L0.3,245.5z M7.2,242.6l-4.5,2l4.5,1.9V242.6z"/>
	<path stroke="#505050" stroke-width="0.75" stroke-linecap="round" stroke-linejoin="round" stroke-miterlimit="10" d="M10,237.7
		l-1.4-1.2c0.9-1.1,1.5-2.2,1.5-3.6c0-1.2-0.6-2-1.4-2l0,0c-0.8,0-1.2,0.5-1.7,2.6c-0.6,2.4-1.3,3.8-3.4,3.8l0,0
		c-1.9,0-3.3-1.6-3.3-3.9c0-1.6,0.5-3,1.4-4.1l1.5,1.1c-0.8,1-1.2,2-1.2,3.1c0,1.2,0.6,1.8,1.3,1.8l0,0c0.9,0,1.3-0.5,1.8-2.7
		c0.6-2.4,1.4-3.6,3.3-3.6l0,0c2.1,0,3.4,1.7,3.4,4C11.9,234.7,11.3,236.3,10,237.7z"/>
	<path stroke="#505050" stroke-width="0.75" stroke-linecap="round" stroke-linejoin="round" stroke-miterlimit="10" d="M10,227.5
		l-1.4-1.2c0.9-1.1,1.5-2.2,1.5-3.6c0-1.2-0.6-2-1.4-2l0,0c-0.8,0-1.2,0.5-1.7,2.6c-0.6,2.4-1.3,3.8-3.4,3.8l0,0
		c-1.9,0-3.3-1.6-3.3-3.9c0-1.6,0.5-3,1.4-4.1l1.5,1.1c-0.8,1-1.2,2-1.2,3.1c0,1.2,0.6,1.8,1.3,1.8l0,0c0.9,0,1.3-0.5,1.8-2.7
		c0.6-2.4,1.4-3.6,3.3-3.6l0,0c2.1,0,3.4,1.7,3.4,4C11.9,224.5,11.3,226.1,10,227.5z"/>
	<path stroke="#505050" stroke-width="0.75" stroke-linecap="round" stroke-linejoin="round" stroke-miterlimit="10" d="M5.9,209.3
		l-3.6,3.1v-1.8l2.6-2.2l-2.6-2.2v-1.8l3.5,3l3.7-3.2v1.8l-2.7,2.3l2.7,2.3v1.8L5.9,209.3z"/>
	<path stroke="#505050" stroke-width="0.75" stroke-linecap="round" stroke-linejoin="round" stroke-miterlimit="10" d="M0.3,193.6
		v-1.8l11.4-5v2.1L9,190v5.4l2.7,1.2v2L0.3,193.6z M7.2,190.7l-4.5,2l4.5,1.9V190.7z"/>
	<path stroke="#505050" stroke-width="0.75" stroke-linecap="round" stroke-linejoin="round" stroke-miterlimit="10" d="M0.4,184.8
		v-4.5c0-2.6,1.5-4.3,3.8-4.3l0,0c2.5,0,3.9,2,3.9,4.5v2.2h3.6v2H0.4V184.8z M6.3,180.5c0-1.5-0.8-2.4-2-2.4l0,0c-1.3,0-2,1-2,2.4
		v2.3h4.1L6.3,180.5L6.3,180.5z"/>
	<path stroke="#505050" stroke-width="0.75" stroke-linecap="round" stroke-linejoin="round" stroke-miterlimit="10" d="M0.4,174
		v-4.5c0-2.6,1.5-4.3,3.8-4.3l0,0c2.5,0,3.9,2,3.9,4.5v2.2h3.6v2H0.4V174z M6.3,169.7c0-1.5-0.8-2.4-2-2.4l0,0c-1.3,0-2,1-2,2.4v2.3
		h4.1L6.3,169.7L6.3,169.7z"/>
	<path stroke="#505050" stroke-width="0.75" stroke-linecap="round" stroke-linejoin="round" stroke-miterlimit="10" d="M0.4,163.2
		v-8.4h1.8v6.4h2.9v-5.7h1.8v5.7h3v-6.5h1.8v8.5H0.4z"/>
	<path stroke="#505050" stroke-width="0.75" stroke-linecap="round" stroke-linejoin="round" stroke-miterlimit="10" d="M0.4,152.4
		v-4.2c0-3.6,2.4-6,5.6-6l0,0c3.2,0,5.7,2.5,5.7,6v4.2H0.4z M9.9,148.2c0-2.4-1.6-3.9-3.8-3.9l0,0c-2.2,0-3.8,1.6-3.8,3.9v2.2H10
		L9.9,148.2L9.9,148.2z"/>
	<path stroke="#505050" stroke-width="0.75" stroke-linecap="round" stroke-linejoin="round" stroke-miterlimit="10" d="M6.9,139.9
		H0.4v-2h6.4c2.1,0,3.2-1.1,3.2-2.9c0-1.8-1.1-2.8-3.2-2.8H0.4v-2h6.4c3.4,0,5.1,1.9,5.1,4.9C11.9,138,10.2,139.9,6.9,139.9z"/>
	<path stroke="#505050" stroke-width="0.75" stroke-linecap="round" stroke-linejoin="round" stroke-miterlimit="10" d="M0.4,122.6
		v-4.2c0-3.6,2.4-6,5.6-6l0,0c3.2,0,5.7,2.5,5.7,6v4.2H0.4z M9.9,118.4c0-2.4-1.6-3.9-3.8-3.9l0,0c-2.2,0-3.8,1.6-3.8,3.9v2.2H10
		L9.9,118.4L9.9,118.4z"/>
	<path stroke="#505050" stroke-width="0.75" stroke-linecap="round" stroke-linejoin="round" stroke-miterlimit="10" d="M0.4,110
		v-8.4h1.8v6.4h2.9v-5.7h1.8v5.7h3v-6.5h1.8v8.5H0.4z"/>
	<path stroke="#505050" stroke-width="0.75" stroke-linecap="round" stroke-linejoin="round" stroke-miterlimit="10" d="M10,99.9
		l-1.4-1.2c0.9-1.1,1.5-2.2,1.5-3.6c0-1.2-0.6-2-1.4-2l0,0c-0.8,0-1.2,0.5-1.7,2.6c-0.6,2.4-1.3,3.8-3.4,3.8l0,0
		c-1.9,0-3.3-1.6-3.3-3.9c0-1.6,0.5-3,1.4-4.1l1.5,1.1c-0.8,1-1.2,2-1.2,3.1c0,1.2,0.6,1.8,1.3,1.8l0,0c0.9,0,1.3-0.5,1.8-2.7
		c0.6-2.4,1.4-3.6,3.3-3.6l0,0c2.1,0,3.4,1.7,3.4,4C11.9,96.9,11.3,98.6,10,99.9z"/>
	<path stroke="#505050" stroke-width="0.75" stroke-linecap="round" stroke-linejoin="round" stroke-miterlimit="10" d="M0.4,88.7
		v-2h11.3v2H0.4z"/>
	<path stroke="#505050" stroke-width="0.75" stroke-linecap="round" stroke-linejoin="round" stroke-miterlimit="10" d="M6.1,84.2
		L6.1,84.2c-3.2,0-5.9-2.4-5.9-5.8c0-2,0.5-3.2,1.5-4.4l1.5,1.3C2.5,76.1,2,77,2,78.4c0,2.1,1.8,3.7,4,3.7l0,0c2.3,0,4-1.5,4-3.8
		c0-1.1-0.3-2-0.9-2.7h-2v2.9H5.4v-4.8h4.8c1,1.1,1.8,2.7,1.8,4.7C11.9,81.8,9.4,84.2,6.1,84.2z"/>
	<path stroke="#505050" stroke-width="0.75" stroke-linecap="round" stroke-linejoin="round" stroke-miterlimit="10" d="M0.4,71
		v-1.8l7.8-6.1H0.4v-2h11.3v1.7L3.6,69h8.1v2H0.4z"/>
	<path stroke="#505050" stroke-width="0.75" stroke-linecap="round" stroke-linejoin="round" stroke-miterlimit="10" d="M6.1,53.9
		L6.1,53.9c-3.3,0-5.9-2.4-5.9-5.8c0-2.1,0.7-3.3,1.8-4.4L3.5,45C2.6,45.8,2,46.8,2,48c0,2.2,1.8,3.7,4,3.7l0,0c2.2,0,4-1.6,4-3.7
		c0-1.4-0.6-2.3-1.5-3.3l1.3-1.3c1.2,1.2,2,2.5,2,4.6C11.9,51.4,9.3,53.9,6.1,53.9z"/>
	<path stroke="#505050" stroke-width="0.75" stroke-linecap="round" stroke-linejoin="round" stroke-miterlimit="10" d="M0.4,41.4
		v-2h9.5v-6h1.8v7.9L0.4,41.4L0.4,41.4z"/>
	<path stroke="#505050" stroke-width="0.75" stroke-linecap="round" stroke-linejoin="round" stroke-miterlimit="10" d="M0.3,27.4
		v-1.8l11.4-5v2.1L9,23.8v5.4l2.7,1.2v2L0.3,27.4z M7.2,24.6l-4.5,2l4.5,1.9V24.6z"/>
	<path stroke="#505050" stroke-width="0.75" stroke-linecap="round" stroke-linejoin="round" stroke-miterlimit="10" d="M10,19.6
		l-1.4-1.2c0.9-1.1,1.5-2.2,1.5-3.6c0-1.2-0.6-2-1.4-2l0,0c-0.8,0-1.2,0.5-1.7,2.6c-0.6,2.4-1.3,3.8-3.4,3.8l0,0
		c-1.9,0-3.3-1.6-3.3-3.9c0-1.6,0.5-3,1.4-4.1l1.5,1.1c-0.8,1-1.2,2-1.2,3.1c0,1.2,0.6,1.8,1.3,1.8l0,0c0.9,0,1.3-0.5,1.8-2.7
		c0.6-2.4,1.4-3.6,3.3-3.6l0,0c2.1,0,3.4,1.7,3.4,4C11.9,16.6,11.3,18.2,10,19.6z"/>
	<path stroke="#505050" stroke-width="0.75" stroke-linecap="round" stroke-linejoin="round" stroke-miterlimit="10" d="M10,9.4
		L8.6,8.2c0.9-1.1,1.5-2.2,1.5-3.6c0-1.2-0.6-2-1.4-2l0,0C7.9,2.6,7.5,3.1,7,5.2C6.3,7.6,5.6,9,3.5,9l0,0C1.6,9,0.2,7.3,0.2,5.1
		c0-1.6,0.5-3,1.4-4.1l1.5,1C2.4,3.1,2,4.1,2,5.1C2,6.3,2.6,7,3.3,7l0,0c0.9,0,1.3-0.5,1.8-2.7c0.6-2.4,1.4-3.6,3.3-3.6l0,0
		c2.1,0,3.4,1.7,3.4,4C11.9,6.4,11.3,8.1,10,9.4z"/>
	<path stroke="#505050" stroke-width="0.75" stroke-linecap="round" stroke-linejoin="round" stroke-miterlimit="10" d="M5.9,427.4
		l-3.6,3.1v-1.8l2.6-2.2l-2.6-2.2v-1.8l3.5,3l3.7-3.2v1.8l-2.7,2.3l2.7,2.3v1.8L5.9,427.4z"/>
</g>
</svg>
