<svg width="1145" height="491" viewBox="0 0 1145 491" fill="none" xmlns="http://www.w3.org/2000/svg">
<path d="M1112.68 3.25H32.07C16.0206 3.25 3.01001 16.2606 3.01001 32.31V458.74C3.01001 474.789 16.0206 487.8 32.07 487.8H1112.68C1128.73 487.8 1141.74 474.789 1141.74 458.74V32.31C1141.74 16.2606 1128.73 3.25 1112.68 3.25Z" fill="white" stroke="#007282" stroke-width="5.01" stroke-miterlimit="10"/>
<path d="M1112.91 12.3799H34.57C23.0218 12.3799 13.66 21.7416 13.66 33.2899V457.77C13.66 469.318 23.0218 478.68 34.57 478.68H1112.91C1124.46 478.68 1133.82 469.318 1133.82 457.77V33.2899C1133.82 21.7416 1124.46 12.3799 1112.91 12.3799Z" stroke="#007282" stroke-miterlimit="10"/>
<path d="M34.5199 36.4703C37.806 36.4703 40.4699 33.8064 40.4699 30.5203C40.4699 27.2342 37.806 24.5703 34.5199 24.5703C31.2339 24.5703 28.5699 27.2342 28.5699 30.5203C28.5699 33.8064 31.2339 36.4703 34.5199 36.4703Z" stroke="#007282" stroke-miterlimit="10"/>
<path d="M34.5199 466.48C37.806 466.48 40.4699 463.816 40.4699 460.53C40.4699 457.244 37.806 454.58 34.5199 454.58C31.2339 454.58 28.5699 457.244 28.5699 460.53C28.5699 463.816 31.2339 466.48 34.5199 466.48Z" stroke="#007282" stroke-miterlimit="10"/>
<path d="M1110.23 36.4703C1113.52 36.4703 1116.18 33.8064 1116.18 30.5203C1116.18 27.2342 1113.52 24.5703 1110.23 24.5703C1106.94 24.5703 1104.28 27.2342 1104.28 30.5203C1104.28 33.8064 1106.94 36.4703 1110.23 36.4703Z" stroke="#007282" stroke-miterlimit="10"/>
<path d="M1110.23 466.48C1113.52 466.48 1116.18 463.816 1116.18 460.53C1116.18 457.244 1113.52 454.58 1110.23 454.58C1106.94 454.58 1104.28 457.244 1104.28 460.53C1104.28 463.816 1106.94 466.48 1110.23 466.48Z" stroke="#007282" stroke-miterlimit="10"/>
</svg>
