<svg width="27" height="24" viewBox="0 0 27 24" fill="none" xmlns="http://www.w3.org/2000/svg">
<path d="M26.86 7.1199C26.66 7.9799 26.45 8.8299 26.25 9.6799C25.82 11.5299 25.4 13.3899 24.97 15.2399C24.8861 15.6898 24.6427 16.0943 24.2844 16.379C23.9262 16.6638 23.4772 16.8097 23.02 16.7899C19.85 16.7899 16.67 16.7899 13.5 16.7899H8.31995C8.18287 16.7728 8.04368 16.7893 7.91443 16.838C7.78518 16.8868 7.66984 16.9663 7.57825 17.0697C7.48665 17.1732 7.42159 17.2973 7.38879 17.4315C7.356 17.5657 7.35644 17.7059 7.39001 17.8399C7.4238 18.0114 7.5122 18.1674 7.64197 18.2846C7.77174 18.4017 7.9359 18.4738 8.10999 18.4899C8.23979 18.4999 8.37019 18.4999 8.5 18.4899H23.4C23.4766 18.4849 23.5534 18.4849 23.63 18.4899C23.8001 18.4898 23.9654 18.546 24.1002 18.6497C24.235 18.7535 24.3316 18.899 24.375 19.0634C24.4184 19.2279 24.4061 19.4021 24.3401 19.5588C24.274 19.7156 24.158 19.8461 24.01 19.9299L23.91 19.9899C24.0717 20.3305 24.1614 20.7008 24.1735 21.0776C24.1855 21.4544 24.1196 21.8297 23.98 22.1799C23.7817 22.6833 23.4323 23.113 22.98 23.4099C22.5375 23.7104 22.0149 23.8711 21.48 23.8711C20.9451 23.8711 20.4225 23.7104 19.98 23.4099C18.98 22.6799 18.65 21.6699 19.05 20.0699H14.26C14.5339 20.6568 14.5834 21.3237 14.3992 21.9446C14.2149 22.5655 13.8097 23.0974 13.26 23.4399C12.8349 23.7511 12.3219 23.9189 11.795 23.9189C11.2682 23.9189 10.755 23.7511 10.33 23.4399C9.77387 23.0933 9.3647 22.5542 9.1803 21.9254C8.9959 21.2966 9.04915 20.622 9.32996 20.0299H8.27002C7.63748 20.0737 7.0135 19.8644 6.53528 19.448C6.05706 19.0317 5.76373 18.4424 5.71997 17.8099C5.67621 17.1774 5.88555 16.5533 6.30188 16.0751C6.71821 15.5969 7.3074 15.3037 7.93994 15.2599H8.14001L8.07996 14.9799C6.94662 10.7999 5.81995 6.6199 4.69995 2.4399C4.60995 2.1099 4.54995 2.0599 4.19995 2.0599H1.62C1.40922 2.09486 1.19285 2.0537 1.00964 1.94378C0.826435 1.83385 0.688334 1.66233 0.619995 1.4599V1.0599C0.672604 0.887705 0.780366 0.737615 0.926758 0.632791C1.07315 0.527967 1.25009 0.474236 1.43005 0.479898H4.30005C4.71866 0.473841 5.12667 0.611502 5.45605 0.869916C5.78544 1.12833 6.01623 1.49187 6.10999 1.8999C6.38999 2.8999 6.66994 3.8999 6.93994 4.9799C6.98994 5.1599 7.06 5.2299 7.25 5.2299H17.72H25.22C25.5825 5.21162 25.9399 5.32199 26.229 5.54155C26.5181 5.76112 26.7204 6.07574 26.8 6.4299V6.5199L26.86 7.1199ZM11.36 10.2899C11.3673 10.1834 11.3673 10.0764 11.36 9.9699C11.23 8.9699 11.09 8.0499 10.98 7.0799C10.98 6.8399 10.86 6.7999 10.65 6.7999H7.46997C7.74997 7.7999 8.02003 8.7999 8.28003 9.7999C8.42003 10.2999 8.42004 10.2999 8.92004 10.2999L11.36 10.2899ZM17.36 10.2899H17.47H20.1C20.27 10.2899 20.2899 10.1999 20.3099 10.0699C20.3999 9.3199 20.51 8.5699 20.6 7.8099C20.6 7.4999 20.68 7.1799 20.72 6.8099H17.36V10.2899ZM12.36 6.8599L12.8199 10.2999H15.74V6.8299L12.36 6.8599ZM21.78 10.3099H24.3199C24.3523 10.3016 24.382 10.2854 24.4065 10.2627C24.4309 10.24 24.4493 10.2115 24.46 10.1799C24.72 9.0899 24.97 8.0099 25.22 6.9099H25.11H22.4C22.25 6.9099 22.22 6.9699 22.2 7.0999C22.11 7.8499 22 8.5899 21.91 9.3299C21.96 9.5999 21.93 9.9299 21.88 10.2799L21.78 10.3099ZM8.78003 11.8499C8.77342 11.9097 8.77342 11.9701 8.78003 12.0299C9.04003 13.0299 9.30005 13.9499 9.55005 14.9099C9.57198 15.0256 9.63651 15.1289 9.73096 15.1993C9.82541 15.2696 9.94278 15.302 10.0599 15.2899H11.9399V15.0599C11.7999 14.0599 11.67 12.9999 11.52 11.9799C11.502 11.9401 11.4742 11.9055 11.4392 11.8793C11.4043 11.8531 11.3632 11.8361 11.3199 11.8299H8.76001L8.78003 11.8499ZM17.35 15.2899H19.49C19.49 15.2899 19.63 15.1899 19.64 15.1399C19.78 14.1399 19.91 13.0799 20.05 12.0499C20.0557 11.9967 20.0557 11.9431 20.05 11.8899H17.36L17.35 15.2899ZM13.08 11.8599C13.23 12.9699 13.37 14.0399 13.51 15.1099C13.51 15.2599 13.59 15.2899 13.73 15.2899C14.31 15.2899 14.89 15.2899 15.47 15.2899H15.78V11.8299L13.08 11.8599ZM21.17 15.2799C21.82 15.2799 22.42 15.2799 23.03 15.2799C23.1295 15.2804 23.2256 15.2438 23.2996 15.1772C23.3735 15.1107 23.4201 15.0189 23.4301 14.9199C23.5301 14.4599 23.63 14.0099 23.74 13.5499C23.85 13.0899 23.99 12.4399 24.12 11.8899H24.03H21.78C21.61 11.8899 21.61 11.9899 21.59 12.0999C21.53 12.5999 21.46 13.0999 21.39 13.5999C21.32 14.0999 21.3 14.6599 21.22 15.2499L21.17 15.2799ZM11.72 22.3799C12.0259 22.3799 12.3195 22.2591 12.5367 22.0437C12.754 21.8283 12.8774 21.5358 12.88 21.2299C12.8748 20.9231 12.7491 20.6306 12.5303 20.4155C12.3114 20.2004 12.0168 20.0799 11.71 20.0799C11.405 20.0799 11.1125 20.2011 10.8969 20.4167C10.6812 20.6324 10.5599 20.9249 10.5599 21.2299C10.5599 21.5349 10.6812 21.8274 10.8969 22.0431C11.1125 22.2587 11.405 22.3799 11.71 22.3799H11.72ZM21.4301 22.3799C21.5819 22.3812 21.7325 22.3525 21.8732 22.2953C22.0138 22.2381 22.1418 22.1536 22.2496 22.0466C22.3575 21.9397 22.443 21.8125 22.5015 21.6723C22.5599 21.5321 22.59 21.3818 22.59 21.2299C22.5874 20.9231 22.4643 20.6295 22.2473 20.4125C22.0303 20.1956 21.7369 20.0725 21.4301 20.0699C21.1268 20.0725 20.8368 20.1949 20.6233 20.4102C20.4098 20.6256 20.29 20.9166 20.29 21.2199C20.2912 21.3731 20.3233 21.5244 20.3843 21.6649C20.4453 21.8054 20.5339 21.9322 20.645 22.0377C20.7561 22.1431 20.8872 22.2252 21.0306 22.2788C21.1741 22.3324 21.327 22.3566 21.48 22.3499L21.4301 22.3799Z" fill="white"/>
</svg>
