<svg width="99" height="26" viewBox="0 0 99 26" fill="none" xmlns="http://www.w3.org/2000/svg">
<path d="M12.63 25.0598C9.32427 25.0493 6.15714 23.7308 3.82056 21.3923C1.48398 19.0539 0.167945 15.8856 0.160034 12.5798C0.17323 9.27849 1.49189 6.11648 3.82819 3.78394C6.16448 1.45139 9.32864 0.13778 12.63 0.129883H86.04C89.3449 0.137805 92.512 1.45415 94.8489 3.79102C97.1857 6.12788 98.5021 9.29504 98.51 12.5999C98.5021 15.9056 97.1861 19.0739 94.8495 21.4124C92.5129 23.7508 89.3458 25.0693 86.04 25.0798" fill="#007282"/>
<path d="M12.74 24.1301C9.69152 24.1196 6.77107 22.9031 4.61639 20.7466C2.46172 18.59 1.2479 15.6686 1.23999 12.6201V12.6201C1.24791 9.57256 2.46205 6.65202 4.617 4.49707C6.77196 2.34212 9.69244 1.12804 12.74 1.12012H85.93C88.9785 1.12802 91.9 2.34191 94.0565 4.49658C96.2131 6.65125 97.4294 9.57165 97.4399 12.6201C97.432 15.6703 96.2168 18.5934 94.06 20.7502C91.9032 22.9071 88.9802 24.1222 85.93 24.1301" stroke="white" stroke-width="0.15" stroke-miterlimit="10"/>
<path d="M21.11 16.8999C20.6578 17.8923 20.076 18.8203 19.38 19.6599C18.9729 19.2895 18.5346 18.9549 18.07 18.6599C18.6809 17.9983 19.1747 17.2374 19.53 16.4099L21.11 16.8999ZM27.05 12.5198H18.05V11.1299H21.65C21.57 10.9499 21.5101 10.7899 21.4301 10.6499L22.67 10.3899H18.77V5.7998H26.45V10.3899H23.4C23.5451 10.6251 23.6689 10.8727 23.77 11.1299H27.1L27.05 12.5198ZM23.5 16.3599V18.46C23.5 19.24 23.39 19.6299 22.84 19.8699C22.1952 20.0787 21.5159 20.1602 20.84 20.1099C20.7344 19.5812 20.556 19.0696 20.31 18.5898H21.4C21.56 18.5898 21.61 18.5899 21.61 18.3999V16.3499H19.03V13.0498H26.2401V16.3499L23.5 16.3599ZM20.62 7.48999H24.62V6.8999H20.62V7.48999ZM20.62 9.18994H24.62V8.57983H20.62V9.18994ZM20.83 15.1299H24.4V14.2998H20.82L20.83 15.1299ZM32.83 14.9199C31.5955 17.0573 29.801 18.8171 27.64 20.0098C27.2854 19.4703 26.8618 18.9795 26.38 18.5498L26.52 18.9099L25.11 19.5798C24.7503 18.6733 24.312 17.8001 23.8 16.97L25.15 16.4099C25.5858 17.0888 25.9864 17.7896 26.35 18.5098C28.3152 17.6003 29.9602 16.1191 31.07 14.2598L32.83 14.9199ZM32.17 6.19995C31.0249 7.74534 29.5962 9.05858 27.96 10.0698C27.5725 9.57065 27.1221 9.12379 26.62 8.73999C28.1017 7.93992 29.3862 6.81934 30.38 5.45996L32.17 6.19995ZM32.52 10.5198C31.2724 12.1546 29.7332 13.5448 27.98 14.6199C27.6114 14.1143 27.1699 13.6661 26.67 13.2898C28.2782 12.4314 29.6805 11.2337 30.78 9.77979L32.52 10.5198Z" fill="white"/>
<path d="M39.21 15.45C38.94 15.05 38.49 14.4499 38.04 13.9099V20.1299H36.17V14.2598C35.6063 14.7869 34.9935 15.2592 34.34 15.6699C34.1788 14.9967 33.937 14.3454 33.62 13.73C35.3354 12.7344 36.7569 11.3024 37.7401 9.57983H34.09V7.86987H36.81C36.4757 7.2574 36.084 6.67815 35.64 6.13989L37.1 5.25C37.6585 5.85193 38.1359 6.52429 38.52 7.25L37.63 7.85986H38.76L39.1 7.77979L40.1 8.51978C39.6159 9.69956 38.9986 10.8202 38.26 11.8599C38.9 12.4199 40.06 13.5599 40.37 13.8599L39.21 15.45ZM47.05 18.45C47.33 18.45 47.37 18.2399 47.42 16.6399C47.8863 16.9718 48.4128 17.2095 48.97 17.3398C48.81 19.5198 48.37 20.0999 47.28 20.0999H46.22C44.81 20.0999 44.51 19.55 44.51 17.97V14.8298H43.61C43.39 17.4398 42.76 19.1999 39.69 20.1899C39.4595 19.6757 39.1414 19.2053 38.75 18.7998C41.31 18.0698 41.75 16.7998 41.92 14.7998H40.86V5.7998H47.95V14.7998H46.27V17.9399C46.27 18.3699 46.27 18.4199 46.53 18.4199L47.05 18.45ZM42.59 8.44995H46.13V7.44995H42.59V8.44995ZM42.59 10.8899H46.13V9.88989H42.59V10.8899ZM42.59 13.3499H46.13V12.3499H42.59V13.3499Z" fill="white"/>
<path d="M55.93 14.7L54.39 15.0999V20.0999H52.59V15.5L50.47 16.0498L50.0099 14.1099L52.59 13.5999V10.1299H51.66C51.523 10.854 51.3291 11.5661 51.08 12.2598C50.76 12.1098 50.08 11.86 49.74 11.74C50.3058 10.0218 50.6421 8.23626 50.74 6.42993L52.18 6.6499C52.18 7.2099 52.06 7.75982 51.98 8.31982H52.6299V5.20996H54.4V8.31982H55.78V10.1299H54.4V13.25L55.73 12.95L55.93 14.7ZM64.67 14.7H63.1299V18.0498C63.1299 18.9898 62.9599 19.4898 62.3199 19.7898C61.4588 20.0834 60.5471 20.1991 59.64 20.1299C59.5254 19.4796 59.334 18.8452 59.0699 18.24C59.8199 18.24 60.6799 18.24 60.9399 18.24C61.1999 18.24 61.24 18.18 61.24 17.97V14.6699H56.15V12.9299H61.24V11.8098H63.1299V12.9299H64.67V14.7ZM59.23 8.37988H56.23V6.6499H59.23V5.22998H61.1199V6.6499H64.3199V8.37988H61.1199V9.73999H63.77V11.5H56.77V9.73999H59.1899L59.23 8.37988ZM58.3 14.75C59.0232 15.4797 59.6668 16.2841 60.22 17.1499L58.72 18.1499C58.205 17.2479 57.5912 16.4061 56.89 15.6399L58.3 14.75Z" fill="white"/>
<path d="M79.9 9.72998C79.6367 11.8701 79.0112 13.9497 78.05 15.8799C78.7928 17.0034 79.7809 17.9437 80.9399 18.6299C80.4382 19.0766 79.9977 19.5877 79.6299 20.1499C78.5723 19.4574 77.6644 18.5595 76.96 17.5098C76.0139 18.6381 74.8465 19.5606 73.53 20.22C73.1342 19.7136 72.6959 19.2417 72.22 18.8098C73.724 18.206 75.0224 17.1819 75.96 15.8599C75.5056 14.9423 75.118 13.9931 74.8 13.0198C74.59 13.3498 74.3599 13.6998 74.1199 14.0198C73.8144 13.4838 73.4451 12.9868 73.02 12.5398L72.3 12.96C72.23 12.75 72.14 12.5298 72.03 12.2698C71.7976 13.1136 71.5034 13.9393 71.15 14.74C71.8859 15.5653 72.5547 16.448 73.15 17.3799L71.6299 18.5798C71.2194 17.8526 70.7548 17.1575 70.24 16.5C69.4415 17.8299 68.359 18.9669 67.0699 19.8298C66.6956 19.324 66.2701 18.8583 65.8 18.4399C67.1721 17.6229 68.2956 16.4473 69.05 15.0398C68.51 14.4298 67.9599 13.8298 67.4399 13.2798L66.99 13.9099C66.588 13.4742 66.1534 13.0697 65.6899 12.7C66.5842 11.6282 67.3001 10.4193 67.8099 9.11987L69.42 9.62988C68.9047 10.8264 68.2892 11.9771 67.58 13.0698L68.77 12.1899C69.12 12.5399 69.49 12.9098 69.84 13.2998C70.0434 12.7523 70.2071 12.1909 70.33 11.6199L71.85 11.8999C71.4479 11.1486 70.9829 10.4325 70.46 9.75977L71.6299 9.09985H66.14V7.38989H69.3099C69.082 6.80713 68.8043 6.24512 68.48 5.70996L70.09 5.12988C70.5083 5.70026 70.8449 6.32642 71.09 6.98999L70.09 7.38989H73.77V9.12988H71.9399C72.5709 9.89976 73.1236 10.7305 73.59 11.6099C74.5805 9.57721 75.1938 7.38163 75.4 5.12988L77.14 5.41992C77.0223 6.26414 76.8622 7.10188 76.66 7.92993H80.66V9.68994L79.9 9.72998ZM76.2 9.72998C76.09 10.09 75.98 10.42 75.85 10.73C76.1226 11.8545 76.5044 12.9497 76.99 14C77.5342 12.6256 77.9004 11.1872 78.08 9.71997L76.2 9.72998Z" fill="white"/>
</svg>
