<svg width="99" height="26" viewBox="0 0 99 26" fill="none" xmlns="http://www.w3.org/2000/svg">
<path d="M12.51 25.0598C9.20428 25.0493 6.03714 23.7308 3.70056 21.3923C1.36398 19.0539 0.0479496 15.8856 0.0400391 12.5798C0.0479611 9.27502 1.36431 6.10786 3.70117 3.771C6.03804 1.43413 9.2052 0.117785 12.51 0.109863H85.92C89.2249 0.117785 92.392 1.43413 94.7289 3.771C97.0657 6.10786 98.3821 9.27502 98.39 12.5798C98.3821 15.8856 97.0661 19.0539 94.7295 21.3923C92.3929 23.7308 89.2258 25.0493 85.92 25.0598" fill="#007282"/>
<path d="M12.62 24.1301C9.56979 24.1222 6.64682 22.9071 4.48999 20.7502C2.33316 18.5934 1.11797 15.6703 1.11005 12.6201C1.1206 9.57165 2.33699 6.65125 4.49353 4.49658C6.65008 2.34191 9.57151 1.12802 12.62 1.12012H85.8101C88.8576 1.12804 91.778 2.34212 93.933 4.49707C96.0879 6.65202 97.3021 9.57256 97.3101 12.6201C97.3022 15.6686 96.0883 18.59 93.9336 20.7466C91.7789 22.9031 88.8585 24.1196 85.8101 24.1301" stroke="white" stroke-width="0.15" stroke-miterlimit="10"/>
<path d="M32.4 10.1299V11.8298H18.05V10.1299H21.55C21.3963 9.55538 21.1817 8.999 20.91 8.46997L22.4601 8.16992H18.9401V6.47998H24.34C24.2056 6.0834 24.0384 5.69858 23.84 5.32983L25.84 5.00977C26.121 5.47271 26.3492 5.96603 26.52 6.47998H31.67V8.12988H28.36L29.8301 8.43994C29.5601 9.03994 29.29 9.59984 29.03 10.0898L32.4 10.1299ZM20.03 12.8098H30.5801V20.1299H28.5801V19.5898H21.9301V20.1499H20.03V12.8098ZM21.9301 14.3899V15.45H28.5801V14.3899H21.9301ZM28.5801 18.0398V16.8899H21.9301V18.0398H28.5801ZM22.8201 8.16992C23.2025 8.78532 23.4765 9.46181 23.63 10.1699H26.9301C27.2115 9.51893 27.452 8.85096 27.65 8.16992H22.8201Z" fill="white"/>
<path d="M39.7101 16.6001C38.4183 18.0878 36.7123 19.1567 34.8101 19.6702C34.4592 19.1034 34.0431 18.5798 33.5701 18.1101C35.2554 17.8136 36.8381 17.0944 38.17 16.02L39.7101 16.6001ZM37.63 13.3801C37.63 13.1901 37.63 12.9702 37.55 12.7302C36.5014 12.7931 35.4641 12.9809 34.4601 13.29C34.3212 12.8217 34.1575 12.3612 33.97 11.9102C34.3782 11.729 34.7254 11.4337 34.97 11.0601C35.13 10.8701 35.48 10.4401 35.88 9.88013C35.3977 9.90933 34.9224 10.0105 34.47 10.1802C34.3348 9.71261 34.1678 9.25475 33.97 8.81006C34.21 8.81006 34.42 8.52018 34.65 8.18018C35.1886 7.30216 35.6184 6.36188 35.9301 5.38013L37.4 5.89014C36.9824 6.84814 36.4769 7.76539 35.89 8.63013L36.73 8.57007C36.98 8.12007 37.2501 7.65019 37.4601 7.19019L38.8101 7.92017C38.018 9.26821 37.0898 10.5315 36.04 11.6902L37.3 11.5601C37.24 11.1901 37.1601 10.8401 37.0801 10.5601L38.28 10.29C38.5373 11.2225 38.731 12.1714 38.86 13.1301L37.63 13.3801ZM42.22 15.54V20.1301H40.3201V15.5801H33.98V14.02H40.3201V13.2502H42.22V14.02H48.42V15.5801L42.22 15.54ZM43.49 6.54004V12.8201H38.99V6.54004H40.27C40.4014 6.04838 40.4917 5.54665 40.54 5.04004L42.27 5.32007L41.76 6.54004H43.49ZM41.8101 7.93018H40.61V9.01001H41.8101V7.93018ZM41.8101 10.3H40.61V11.4202H41.8101V10.3ZM44.16 15.79C45.6588 16.5377 47.0937 17.4074 48.4501 18.3901L47.23 19.7502C45.9227 18.6983 44.52 17.771 43.04 16.9802L44.16 15.79ZM47.91 10.3801C48.1858 11.2967 48.4096 12.2283 48.5801 13.1702L47.3 13.5002C47.3 13.3102 47.25 13.1001 47.22 12.8801C44.83 13.1301 44.37 13.2301 44.1 13.3801C43.9659 12.8862 43.7989 12.4018 43.6 11.9302C44.005 11.7535 44.3517 11.4656 44.6 11.1001C44.9602 10.7127 45.2943 10.3018 45.6 9.87012C45.0482 9.90132 44.5049 10.0195 43.99 10.2202C43.857 9.73894 43.6899 9.2676 43.49 8.81006C43.7776 8.67981 44.011 8.45364 44.15 8.17017C44.7006 7.27951 45.1343 6.32153 45.4401 5.32007L46.98 5.76001C46.574 6.75407 46.0647 7.7027 45.4601 8.59009L46.53 8.49023C46.75 8.09023 46.9901 7.66022 47.2001 7.23022L48.5801 8.01001C47.755 9.36473 46.7933 10.6314 45.7101 11.79L46.9601 11.6802C46.8801 11.3302 46.8 10.9902 46.72 10.6802L47.91 10.3801Z" fill="white"/>
<path d="M63.88 16.1301C63.096 16.6458 62.2774 17.1068 61.4301 17.51C62.4574 18.0126 63.5576 18.3501 64.6901 18.51C64.2935 18.9648 63.9573 19.469 63.6901 20.01C60.4501 19.39 58.45 17.9402 57.25 15.4802C56.5482 16.0353 55.7746 16.4927 54.9501 16.8401V18.27L57.9501 17.6602C57.8737 18.1297 57.8336 18.6044 57.8301 19.0801C54.0201 19.9501 53.46 20.0801 53.14 20.3101V20.1702C53.0165 19.753 52.8275 19.3581 52.5801 19.0002C52.8074 18.8374 52.9903 18.6203 53.1125 18.3689C53.2348 18.1174 53.2924 17.8394 53.28 17.5601C52.4849 17.8162 51.6729 18.0168 50.85 18.1602C50.5685 17.6647 50.2331 17.2018 49.85 16.78C51.5511 16.5766 53.2126 16.1218 54.78 15.4302H50.11V13.9302H56.59C56.4806 13.6507 56.3572 13.377 56.22 13.1101H55.73C55.6166 12.7327 55.4659 12.3675 55.28 12.02C55.65 12.02 56.02 12.02 56.13 12.02C56.24 12.02 56.3201 11.9701 56.3201 11.8401V11.1702H55.01V13.53H53.39V11.1702H52.16V13.1702H50.72V10.03H53.39V9.47021H50.0801V8.19019H51.0801C50.7601 8.00019 50.3401 7.76013 50.0801 7.63013C50.6474 6.95599 51.0785 6.17829 51.35 5.34009L52.74 5.69019C52.66 5.92019 52.58 6.11008 52.48 6.33008H53.41V5.33008H55.03V6.33008H57.67V7.55005H55.03V8.19019H58.1V9.47021H55.03V10.03H57.86V11.8501C57.8976 12.1497 57.8228 12.4526 57.65 12.7002L58.02 12.6101C58.2685 13.0257 58.4762 13.4645 58.64 13.9202H64.4V15.4202H62.78L63.88 16.1301ZM53.3101 8.13013V7.49023H51.77C51.6474 7.71224 51.5104 7.92592 51.36 8.13013H53.3101ZM60.61 11.3101H58.91V6.03003H60.61V11.3101ZM58.9401 15.3601C59.2674 15.8429 59.6574 16.2802 60.1 16.6602C60.8401 16.2782 61.5519 15.8437 62.23 15.3601H58.9401ZM63.75 11.76C63.75 12.58 63.59 12.9602 63.01 13.2202C62.2161 13.456 61.3858 13.5441 60.5601 13.4802C60.435 12.9561 60.2469 12.4491 60 11.9702C60.72 11.9702 61.4901 11.9702 61.7101 11.9702C61.9301 11.9702 62.02 11.9002 62.02 11.6902V5.36011H63.75V11.76Z" fill="white"/>
<path d="M71.1 5.83008C70.6745 6.97699 70.1631 8.09023 69.5701 9.16016V20.1602H67.65V12.1602C67.31 12.5602 66.97 12.9601 66.65 13.3101C66.3743 12.6161 66.0397 11.947 65.65 11.3101C67.2785 9.59157 68.5227 7.5463 69.3 5.31006L71.1 5.83008ZM76.1801 9.61011V11.29H80.3201V13.02H76.1801V14.8201H80.53V16.5801H76.1801V20.1301H74.1801V9.6001H73.5801C72.9909 10.7043 72.287 11.7435 71.48 12.7002C71.0266 12.2216 70.5387 11.777 70.02 11.3701C71.58 9.64391 72.7408 7.59542 73.42 5.37012L75.26 5.83008C75.0335 6.51071 74.7697 7.17838 74.47 7.83008H80.6801V9.64014L76.1801 9.61011Z" fill="white"/>
</svg>
