<svg width="100" height="26" viewBox="0 0 100 26" fill="none" xmlns="http://www.w3.org/2000/svg">
<path d="M13.4 25.0598C10.0934 25.0493 6.92521 23.731 4.58704 21.3928C2.24886 19.0547 0.930592 15.8865 0.920044 12.5798C0.935873 9.27757 2.25672 6.11547 4.5946 3.7832C6.93249 1.45094 10.0977 0.137764 13.4 0.129883H86.8C90.1058 0.137793 93.274 1.4537 95.6124 3.79028C97.9509 6.12686 99.2695 9.29412 99.28 12.5999C99.2695 15.9065 97.9512 19.0747 95.613 21.4128C93.2749 23.751 90.1067 25.0693 86.8 25.0798" fill="#007282"/>
<path d="M13.49 24.1301C10.4415 24.1196 7.52113 22.9031 5.36646 20.7466C3.21178 18.59 1.9979 15.6686 1.98999 12.6201V12.6201C1.99791 9.57256 3.21211 6.65202 5.36707 4.49707C7.52202 2.34212 10.4424 1.12804 13.49 1.12012H86.6901C89.7376 1.12804 92.658 2.34212 94.813 4.49707C96.9679 6.65202 98.1821 9.57256 98.1901 12.6201V12.6201C98.1822 15.6686 96.9683 18.59 94.8136 20.7466C92.6589 22.9031 89.7385 24.1196 86.6901 24.1301" stroke="white" stroke-width="0.15" stroke-miterlimit="10"/>
<path d="M33.23 18.0298V19.71H19.05V18.0298H25.05V16.6499H20.4V15.0198H25.0601V13.7998H27.0601V15.0198H31.9601V16.6499H27.0601V18.0298H33.23ZM20.88 9.52979H19.1V6.46997H25.24C25.1291 6.12362 24.9851 5.78874 24.8101 5.46997L26.67 4.91992C26.9483 5.4041 27.189 5.90893 27.39 6.42993H33.09V9.48999H31.4V10.7698H29.51C30.475 11.5192 31.3719 12.3524 32.1901 13.2598L30.6801 14.2598C30.4181 13.9088 30.1342 13.5748 29.8301 13.2598C22.6801 13.8398 21.83 13.8999 21.17 14.1599C21.0221 13.5999 20.8417 13.0489 20.63 12.5098C21.0506 12.4094 21.4413 12.2108 21.77 11.9299C22.2794 11.5614 22.77 11.1677 23.24 10.75H20.89L20.88 9.52979ZM20.9601 8.19995V9.19995H31.15V8.19995H20.9601ZM28.48 12.0398C28.19 11.7798 27.9 11.5598 27.65 11.3298L28.4301 10.8098H25.66C25.0673 11.3521 24.4464 11.8628 23.8 12.3398L28.48 12.0398Z" fill="white"/>
<path d="M48.61 17.9102C48.61 18.9102 48.4001 19.48 47.7101 19.8C46.7168 20.103 45.6744 20.2117 44.64 20.1201C44.5306 19.4514 44.3181 18.8038 44.01 18.2002C44.89 18.2002 46.01 18.2002 46.27 18.2002C46.53 18.2002 46.65 18.1101 46.65 17.8501V14.9902C46.2578 15.418 45.9 15.8759 45.5801 16.3601C43.957 15.3741 42.7376 13.8427 42.14 12.04C41.5569 13.9412 40.2445 15.5342 38.49 16.4702C38.233 16.0719 37.9454 15.694 37.63 15.3401V20.1301H35.6901V8.73022H41.4C41.4 8.33022 41.32 7.91024 41.28 7.50024H38.5801V5.83008H42.9301C42.963 6.80163 43.0566 7.77032 43.2101 8.73022H48.65L48.61 17.9102ZM37.61 14.78C38.3841 14.3311 39.0585 13.729 39.5916 13.0103C40.1246 12.2915 40.5053 11.4712 40.7101 10.6001H37.61V14.78ZM43.61 10.6001C44.0477 12.2748 45.1248 13.711 46.61 14.6001V10.6001H43.61Z" fill="white"/>
<path d="M56.97 9.33008H50.73V7.83008H53.4C53.1137 7.14091 52.7796 6.47261 52.4 5.83008L53.89 5.14014C54.3347 5.81695 54.7228 6.52926 55.05 7.27002L53.98 7.8501H56.98L56.97 9.33008ZM56.3201 10.4202C56.8887 10.1649 57.3638 9.73881 57.6792 9.20117C57.9946 8.66354 58.1347 8.04109 58.0801 7.42017V5.71021H63.47V9.2002C63.47 9.6602 63.4701 9.86011 63.7001 9.86011H64.34C64.6041 9.85463 64.8664 9.81441 65.12 9.74023C65.12 10.2202 65.2 10.8801 65.25 11.3301C64.9582 11.4165 64.654 11.4538 64.35 11.4402H63.52C62.01 11.4402 61.73 10.7702 61.73 9.18018V7.47021H59.8101C59.8718 8.36348 59.6732 9.25537 59.2384 10.0381C58.8036 10.8208 58.1511 11.4607 57.36 11.8801C57.0728 11.4499 56.7373 11.054 56.36 10.7002V11.4802H51.4V10.04H56.3L56.3201 10.4202ZM56.3201 13.6401H51.4V12.2002H56.4L56.3201 13.6401ZM64.88 12.53C64.4496 14.2808 63.5669 15.8879 62.3201 17.1902C63.3618 17.7343 64.4766 18.1249 65.63 18.3501C65.1638 18.8619 64.7731 19.4377 64.47 20.0601C63.1489 19.7545 61.8905 19.2236 60.75 18.4902C59.6046 19.2189 58.3531 19.7653 57.04 20.1101C56.835 19.613 56.5874 19.1347 56.3 18.6802V19.26H53.02V19.9302H51.4V14.4102H56.3V18.3601C57.3527 18.1367 58.3646 17.7523 59.3 17.2202C58.4412 16.3414 57.7318 15.328 57.2001 14.2202L58.2001 13.8501H56.7101V12.1301H63.4L63.72 12.05L64.88 12.53ZM54.65 15.9302H53.02V17.7202H54.65V15.9302ZM58.86 13.8801C59.3411 14.7493 59.9824 15.5195 60.75 16.1501C61.4617 15.5114 62.0425 14.7404 62.4601 13.8801H58.86Z" fill="white"/>
<path d="M73.77 9.33008H67.03V7.83008H69.8201C69.5338 7.14091 69.1996 6.47261 68.8201 5.83008L70.3 5.14014C70.7515 5.81462 71.1429 6.52722 71.47 7.27002L70.47 7.8501H73.84L73.77 9.33008ZM67.77 11.4902V10.05H73.13V11.4902H67.77ZM73.1 13.6401H67.77V12.2002H73.1V13.6401ZM73.16 19.26H69.4V19.9302H67.8V14.4102H73.13L73.16 19.26ZM69.4301 15.9302V17.7202H71.51V15.9302H69.4301ZM81.49 12.3701H78.49V20.1301H76.49V12.3601H73.6901V10.4902H76.49V5.49023H78.49V10.4902H81.49V12.3701Z" fill="white"/>
</svg>
