<svg width="99" height="26" viewBox="0 0 99 26" fill="none" xmlns="http://www.w3.org/2000/svg">
<path d="M12.51 25.3796C9.2052 25.3717 6.03804 24.0554 3.70117 21.7185C1.36431 19.3816 0.0479611 16.2145 0.0400391 12.9097C0.0479496 9.60393 1.36398 6.43562 3.70056 4.09717C6.03714 1.75871 9.20428 0.440248 12.51 0.429688H85.92C89.2258 0.440248 92.3929 1.75871 94.7295 4.09717C97.0661 6.43562 98.3821 9.60393 98.39 12.9097C98.3821 16.2145 97.0657 19.3816 94.7289 21.7185C92.392 24.0554 89.2249 25.3717 85.92 25.3796" fill="#007282"/>
<path d="M12.62 24.4104C9.57151 24.4025 6.65008 23.1886 4.49353 21.0339C2.33699 18.8793 1.1206 15.9589 1.11005 12.9104V12.9104C1.11797 9.86019 2.33316 6.9371 4.48999 4.78027C6.64682 2.62344 9.56979 1.40831 12.62 1.40039H85.8101C88.8585 1.41095 91.7789 2.62739 93.9336 4.78394C96.0883 6.94048 97.3022 9.86192 97.3101 12.9104V12.9104C97.3021 15.958 96.0879 18.8785 93.933 21.0334C91.778 23.1884 88.8576 24.4025 85.8101 24.4104" stroke="white" stroke-width="0.15" stroke-miterlimit="10"/>
<path d="M16.9301 7.38968C16.9039 7.10673 16.9638 6.82257 17.102 6.57425C17.2401 6.32594 17.45 6.125 17.7042 5.99808C17.9585 5.87117 18.2451 5.82401 18.5266 5.86283C18.8081 5.90165 19.0714 6.02461 19.2818 6.21561C19.4922 6.40661 19.6399 6.6567 19.7057 6.93314C19.7715 7.20958 19.7522 7.49963 19.6504 7.76493C19.5486 8.03023 19.369 8.2585 19.1352 8.41996C18.9013 8.58142 18.6241 8.6685 18.34 8.66971C18.1625 8.68191 17.9846 8.65799 17.8166 8.59965C17.6485 8.5413 17.494 8.44967 17.3623 8.33011C17.2306 8.21056 17.1245 8.0657 17.0502 7.90409C16.9759 7.74248 16.935 7.56748 16.9301 7.38968ZM17.1601 10.1097H19.49V19.1097H17.1601V10.1097Z" fill="white"/>
<path d="M22.2101 7.23047H26.1C28.73 7.23047 30.75 8.14043 30.75 10.9404C30.75 13.7404 28.75 14.8604 26.17 14.8604H24.5801V19.0703H22.2101V7.23047ZM26.01 12.9905C27.64 12.9905 28.42 12.3004 28.42 10.9404C28.42 9.58043 27.5601 9.10034 25.9301 9.10034H24.5801V12.9905H26.01Z" fill="white"/>
<path d="M31.59 16.6399C31.59 14.7199 33.14 13.7098 36.74 13.3298C36.74 12.4398 36.33 11.7698 35.22 11.7698C34.3398 11.8333 33.4917 12.1265 32.76 12.6199L31.9101 11.0698C33.0213 10.3321 34.3168 9.91993 35.6501 9.87988C37.9301 9.87988 39.1 11.2399 39.1 13.8799V19.1099H37.1801L37 18.1099C36.2725 18.8185 35.314 19.2409 34.3001 19.2998C33.9425 19.3226 33.5841 19.2699 33.2483 19.145C32.9125 19.0201 32.6069 18.8259 32.3512 18.575C32.0955 18.324 31.8956 18.0219 31.7644 17.6885C31.6333 17.3551 31.5738 16.9978 31.59 16.6399ZM36.74 16.5698V14.7698C34.57 15.0498 33.8301 15.65 33.8301 16.45C33.8301 17.25 34.33 17.45 35.01 17.45C35.3442 17.4337 35.6711 17.3467 35.9693 17.1951C36.2675 17.0434 36.5301 16.8303 36.74 16.5698Z" fill="white"/>
<path d="M40.98 14.6104C40.98 11.6804 42.81 9.88037 44.74 9.88037C45.1684 9.88102 45.5922 9.97025 45.9845 10.1423C46.3768 10.3144 46.7294 10.5656 47.02 10.8804L46.92 9.47046V6.32031H49.27V19.0903H47.4L47.2101 18.1604C46.5603 18.8475 45.6738 19.262 44.73 19.3203C42.4 19.3003 40.98 17.5304 40.98 14.6104ZM46.92 16.4304V12.4905C46.4719 12.0581 45.8727 11.8176 45.25 11.8203C44.25 11.8203 43.4 12.8203 43.4 14.5703C43.4 16.3203 44.07 17.3604 45.25 17.3604C45.5839 17.3571 45.9117 17.2704 46.2034 17.1079C46.4951 16.9455 46.7414 16.7125 46.92 16.4304Z" fill="white"/>
<path d="M55.98 14.1299L54.5701 14.5598V18.2898C54.5701 19.1698 54.4201 19.6299 53.9401 19.9399C53.2666 20.2551 52.5186 20.3762 51.78 20.2898C51.7053 19.6896 51.5437 19.1034 51.3 18.5498C51.85 18.5498 52.3701 18.5498 52.5701 18.5498C52.7701 18.5498 52.8201 18.4798 52.8201 18.2898V15.0698L51.38 15.49L50.9601 13.6599C51.4901 13.5499 52.1201 13.39 52.8201 13.2V10.3499H51.22V8.58984H52.8201V5.58984H54.5701V8.58984H55.8201V10.3499H54.5701V12.73L55.73 12.4099L55.98 14.1299ZM63.91 18.1299V16.4299H62.4601V14.8599H63.91V13.3899H62.4V11.7698H65.66V20.5598H63.9V19.7898H58.4V20.5498H56.5701V12.1299C57.418 11.9068 58.2319 11.5704 58.99 11.1299L60.24 12.2698V10.4299H56.24V8.75H60.24V7.63989H56.9401V5.95996H65.3101V7.63989H62.03V8.75H66.03V10.4299H62.03V18.0298L63.91 18.1299ZM58.38 18.1299H60.22V12.49C59.6199 12.7426 59.0056 12.9595 58.38 13.1399V14.8999H59.75V16.45H58.4L58.38 18.1299Z" fill="white"/>
<path d="M67.29 18.7795H81.8201V20.0295H67.29V18.7795ZM81.84 12.7197V13.8896H67.3V12.7197H73.48V12.1296H68.48V11.1296H73.48V10.5696H68.9301V9.56958H73.48V8.98975H67.4V7.98975H73.53V7.46973H69.0601V6.46973H73.53V5.51953H75.4V6.46973H80.12V7.99976H81.72V8.99976H80.12V10.5696H75.4V11.1296H80.75V12.1296H75.4V12.6897L81.84 12.7197ZM80.14 14.4097V18.2695H69.14V14.4097H80.14ZM70.97 15.8896H73.61V15.3296H70.97V15.8896ZM70.97 17.3596H73.61V16.7695H70.97V17.3596ZM78.2001 15.3596H75.4V15.9197H78.25L78.2001 15.3596ZM78.2001 16.7996H75.4V17.3896H78.25L78.2001 16.7996ZM75.4 8.01953H78.22V7.49976H75.4V8.01953ZM75.4 9.62964H78.22V9.04956H75.4V9.62964Z" fill="white"/>
</svg>
