<svg width="99" height="26" viewBox="0 0 99 26" fill="none" xmlns="http://www.w3.org/2000/svg">
<path d="M12.63 25.3796C9.32519 25.3717 6.15803 24.0554 3.82117 21.7185C1.4843 19.3816 0.167956 16.2145 0.160034 12.9097C0.167945 9.60393 1.48398 6.43562 3.82056 4.09717C6.15714 1.75871 9.32427 0.440248 12.63 0.429688H86.04C89.3458 0.440248 92.5129 1.75871 94.8495 4.09717C97.1861 6.43562 98.5021 9.60393 98.51 12.9097C98.5021 16.2145 97.1857 19.3816 94.8489 21.7185C92.512 24.0554 89.3449 25.3717 86.04 25.3796" fill="#007282"/>
<path d="M12.74 24.4104C9.69244 24.4025 6.77196 23.1884 4.617 21.0334C2.46205 18.8785 1.24791 15.958 1.23999 12.9104C1.2479 9.86192 2.46172 6.94048 4.61639 4.78394C6.77107 2.62739 9.69152 1.41095 12.74 1.40039H85.93C88.9733 1.41884 91.886 2.63874 94.0342 4.79443C96.1824 6.95013 97.3921 9.86709 97.4 12.9104C97.3894 15.9589 96.173 18.8793 94.0165 21.0339C91.8599 23.1886 88.9384 24.4025 85.89 24.4104" stroke="white" stroke-width="0.15" stroke-miterlimit="10"/>
<path d="M32.6201 15.1799H26.3301V20.46H24.3301V15.1799H18.1001V13.24H24.4001V8.3999H19.0001V6.50977H31.7401V8.3999H26.3801V13.24H32.6701L32.6201 15.1799ZM21.6201 8.90991C22.1793 9.93973 22.6093 11.0347 22.9001 12.1699L21.0501 12.75C20.7832 11.6005 20.3909 10.4837 19.8801 9.41992L21.6201 8.90991ZM27.5601 12.24C28.1315 11.1609 28.597 10.0288 28.9501 8.85986L30.9501 9.36987C30.4291 10.5198 29.8414 11.6385 29.1901 12.72L27.5601 12.24Z" fill="white"/>
<path d="M42.19 8.21973C42.04 8.71973 41.88 9.21967 41.76 9.65967H47.84V20.4597H45.9V19.6497H36.67V20.4597H34.82V9.65967H39.75C39.85 9.19967 39.95 8.65973 40.01 8.21973H34.17V6.42969H48.57V8.21973H42.19ZM36.67 17.8997H38.3V11.4197H36.67V17.8997ZM42.46 11.4197H40.01V12.5195H42.46V11.4197ZM42.46 14.0095H40.01V15.2297H42.46V14.0095ZM40.01 17.8997H42.46V16.7197H40.01V17.8997ZM45.9 11.4197H44.17V17.8997H45.9V11.4197Z" fill="white"/>
<path d="M56.22 9.65942H49.98V8.12939H52.6199C52.3358 7.43924 52.0016 6.7708 51.6199 6.12939L53.11 5.43945C53.5577 6.1162 53.949 6.82848 54.28 7.56934L53.21 8.1394H56.21L56.22 9.65942ZM55.5599 10.7495C56.1286 10.4943 56.6037 10.0682 56.9191 9.53052C57.2345 8.99288 57.3746 8.37044 57.3199 7.74951V6.03931H62.72V9.5293C62.72 9.9893 62.7199 10.1794 62.9399 10.1794H63.58C63.8467 10.1737 64.1118 10.1367 64.3699 10.0693C64.3699 10.5493 64.45 11.2094 64.49 11.6494C64.2035 11.7451 63.9016 11.7856 63.6 11.7693H62.77C61.26 11.7693 60.97 11.0893 60.97 9.50928V7.79932H59.05C59.1138 8.69422 58.9162 9.58836 58.4812 10.373C58.0463 11.1577 57.3927 11.7993 56.6 12.2195C56.3189 11.7847 55.9828 11.3878 55.6 11.0393V11.8193H50.7V10.3794H55.6L55.5599 10.7495ZM55.5599 13.9695H50.6299V12.5193H55.5599V13.9695ZM64.1299 12.8594C63.6996 14.6102 62.8168 16.217 61.5699 17.5193C62.6115 18.0616 63.7265 18.4492 64.8799 18.6694C64.416 19.1852 64.0226 19.7601 63.71 20.3794C62.3912 20.0815 61.1353 19.5534 59.9999 18.8193C58.8531 19.543 57.6018 20.0861 56.29 20.4294C56.0807 19.9375 55.8333 19.4626 55.55 19.0093V19.5793H52.3V20.2593H50.68V14.7295H55.58V18.7295C56.6096 18.4927 57.5998 18.1086 58.52 17.5894C57.6628 16.7113 56.9567 15.6976 56.43 14.5894L57.43 14.2295H55.9399V12.4495H62.61L62.93 12.3694L64.1299 12.8594ZM53.9 16.2495H52.3V18.0493H53.93L53.9 16.2495ZM58.11 14.2495C58.5874 15.1212 59.2292 15.8919 59.9999 16.5193C60.7087 15.8779 61.289 15.1077 61.71 14.2495H58.11Z" fill="white"/>
<path d="M73.02 9.65942H66.28V8.12939H69.07C68.7859 7.43924 68.4516 6.7708 68.07 6.12939L69.56 5.43945C70.0077 6.1162 70.3991 6.82848 70.73 7.56934L69.67 8.1394H73.05L73.02 9.65942ZM67.02 11.8193V10.3794H72.4V11.8193H67.02ZM72.36 13.9695H67.02V12.5193H72.36V13.9695ZM72.42 19.5793H68.69V20.2593H67.09V14.7295H72.4L72.42 19.5793ZM68.69 16.2495V18.0493H70.77V16.2495H68.69ZM80.69 12.6995H77.69V20.4595H75.69V12.6995H72.89V10.8293H75.69V5.82935H77.69V10.8293H80.69V12.6995Z" fill="white"/>
</svg>
