<svg width="100" height="26" viewBox="0 0 100 26" fill="none" xmlns="http://www.w3.org/2000/svg">
<path d="M13.4 25.3796C10.0943 25.3717 6.9261 24.0558 4.58765 21.7192C2.24919 19.3827 0.930604 16.2154 0.920044 12.9097C0.930592 9.60301 2.24886 6.43485 4.58704 4.09668C6.92521 1.75851 10.0934 0.440235 13.4 0.429688H86.8C90.1067 0.440235 93.2749 1.75851 95.613 4.09668C97.9512 6.43485 99.2695 9.60301 99.28 12.9097C99.2695 16.2154 97.9509 19.3827 95.6124 21.7192C93.274 24.0558 90.1058 25.3717 86.8 25.3796" fill="#007282"/>
<path d="M13.49 24.4104C10.4424 24.4025 7.52202 23.1884 5.36707 21.0334C3.21211 18.8785 1.99791 15.958 1.98999 12.9104V12.9104C1.9979 9.86192 3.21178 6.94048 5.36646 4.78394C7.52113 2.62739 10.4415 1.41095 13.49 1.40039H86.6901C89.7385 1.41095 92.6589 2.62739 94.8136 4.78394C96.9683 6.94048 98.1822 9.86192 98.1901 12.9104V12.9104C98.1821 15.958 96.9679 18.8785 94.813 21.0334C92.658 23.1884 89.7376 24.4025 86.6901 24.4104" stroke="white" stroke-width="0.15" stroke-miterlimit="10"/>
<path d="M33.23 8.65039H28.54L30.05 8.96045C29.73 9.53045 29.37 10.0903 29.05 10.5903H32.5V18.6904C32.5 19.5404 32.2901 19.9004 31.7001 20.1304C30.8085 20.3544 29.8869 20.4354 28.97 20.3704C28.8735 19.8833 28.7015 19.4144 28.4601 18.9805C29.2301 18.9805 30.14 18.9805 30.38 18.9805C30.62 18.9805 30.73 18.9004 30.73 18.6604V12.1304H28.25V12.5503C28.25 12.8503 28.2501 13.0005 28.5601 13.0005H29.34C29.6528 13.0036 29.965 12.97 30.27 12.9004C30.27 13.3404 30.32 13.7404 30.38 14.1704C30.0534 14.2534 29.7168 14.2903 29.38 14.2803H28.1C26.81 14.2803 26.5801 13.6703 26.5801 12.5303V12.1304H25.4C25.348 12.7055 25.1205 13.2509 24.7485 13.6926C24.3765 14.1344 23.878 14.4512 23.3201 14.6003H29.11V18.5103H24.48V19.1604H22.9V14.7405L22.29 14.8904C22.1196 14.4488 21.8648 14.0447 21.54 13.7004V20.4304H19.7101V10.6003H23.01C22.7982 10.0532 22.5544 9.51909 22.28 9.00049L23.28 8.6604H18.91V7.0603H25.22C25.1175 6.65417 24.994 6.25368 24.85 5.86035L26.6901 5.40039C26.8801 5.91039 27.11 6.5303 27.25 7.0603H33.14L33.23 8.65039ZM21.5801 13.5803C23.0701 13.3303 23.58 12.8904 23.77 12.1204H21.5801V13.5803ZM27.28 10.5803C27.6118 9.95862 27.8894 9.30963 28.11 8.64038H24.11C24.39 9.17038 24.73 9.79045 24.91 10.2104L23.91 10.5803H27.28ZM24.52 15.8904V17.1704H27.63V15.8904H24.52Z" fill="white"/>
<path d="M40.75 17.97C39.3603 18.9939 37.7736 19.719 36.09 20.0999C35.7724 19.5973 35.3965 19.1341 34.97 18.72C36.5148 18.5292 38.0142 18.0687 39.4 17.3599L40.75 17.97ZM49.23 15.2598V16.8298H43.02V20.48H41.13V16.8298H35.03V15.2598H41.13V14.5598H36.52V13.1799H41.13V12.46H35.72V11.0198H38.72C38.5474 10.6181 38.3504 10.2274 38.13 9.84985L39.2001 9.60986H35.12V8.12988H37.29C37.0093 7.43817 36.675 6.76947 36.29 6.12988L37.92 5.57983C38.4129 6.27623 38.8223 7.02802 39.14 7.81982L38.37 8.10986H39.84V5.5H41.6V8.12988H42.8V5.51978H44.6V8.12988H46.02L45.4401 7.95996C45.8401 7.2206 46.1747 6.4476 46.4401 5.6499L48.4401 6.11987C47.9901 6.84987 47.56 7.56987 47.16 8.11987H49.22V9.60986H45L46.5 10C46.15 10.38 45.81 10.73 45.5 11H48.59V12.4399H43.03V13.1599H47.8301V14.5398H43.03V15.24L49.23 15.2598ZM40 9.60986C40.2453 9.99197 40.4593 10.3932 40.64 10.8098L39.77 11.0198H44.14L43.5701 10.8398C43.8201 10.4798 44.16 9.99986 44.38 9.60986H40ZM45 17.2598C46.3 17.7398 48.1901 18.5398 49.2101 19.0598L47.87 20.0598C46.94 19.5298 45.06 18.6799 43.72 18.1199L45 17.2598Z" fill="white"/>
<path d="M55.28 12.8396H60.17V14.1296H59.76V20.4697H58.3301V18.8796L55.2101 19.2197L55.02 17.8696H55.77V14.1296H55.28V13.2498L54.04 13.9197V18.3196C54.04 19.1996 53.88 19.6697 53.4 19.9897C52.7258 20.3024 51.9785 20.4233 51.24 20.3396C51.1692 19.7257 51.0074 19.1258 50.76 18.5596C51.32 18.5596 51.85 18.5596 52.03 18.5596C52.21 18.5596 52.3 18.4895 52.3 18.2795V14.8296L51.1 15.4297L50.55 13.6396C51.05 13.4496 51.64 13.1596 52.3 12.8396V10.2795H50.76V8.51953H52.3V5.51953H54.04V8.51953H55.16V10.2795H54.04V11.9397L54.8101 11.5396L55.28 13.1396V12.8396ZM61.61 12.0095H55.4V10.6797H57.1901V7.23975H55.8101V5.97974H65.11V7.23975H63.4V10.6797H65.5V12.0095H63.4V12.5896H61.62L61.61 12.0095ZM58.3301 14.1096H57.16V14.6497H58.3301V14.1096ZM58.3301 15.6296H57.16V16.2097H58.3301V15.6296ZM58.3301 17.6797V17.1797H57.16V17.7397L58.3301 17.6797ZM58.9401 7.23975V7.74976H61.61V7.23975H58.9401ZM58.9401 9.23975H61.61V8.70972H58.9401V9.23975ZM61.61 10.7097V10.1296H58.9401V10.6697L61.61 10.7097ZM65.61 18.9597H64.9401V20.4797H63.52V18.9597H60.24V17.6897H60.9401V14.1296H60.4V12.8596H65.49V14.1296H64.91V17.6797H65.5801L65.61 18.9597ZM62.35 14.1396V14.6697H63.52V14.1296L62.35 14.1396ZM62.35 16.1396H63.52V15.5996H62.35V16.1396ZM63.52 17.6597V17.1296H62.35V17.6897L63.52 17.6597Z" fill="white"/>
<path d="M69.87 17.2302C69.4164 18.2188 68.8348 19.1434 68.14 19.9802C67.7265 19.6176 67.2889 19.2835 66.8301 18.9802C67.4377 18.3218 67.9281 17.5642 68.28 16.7402L69.87 17.2302ZM75.8101 12.8401H66.8101V11.4001H70.41C70.33 11.2301 70.2701 11.0702 70.1901 10.9202L71.4401 10.6702H67.53V6.07007H75.22V10.6702H72.0801C72.2212 10.904 72.3449 11.148 72.4501 11.4001H75.78L75.8101 12.8401ZM72.25 16.6902V18.78C72.25 19.57 72.14 19.9502 71.6 20.1902C70.9559 20.4024 70.276 20.4839 69.6 20.4302C69.499 19.9002 69.3205 19.388 69.0701 18.9102C69.5501 18.9102 70.0701 18.9102 70.2101 18.9102C70.3501 18.9102 70.42 18.8602 70.42 18.7202V16.6702H67.84V13.3701H75.04V16.6702L72.25 16.6902ZM69.37 7.82007H73.37V7.23022H69.37V7.82007ZM69.37 9.52002H73.37V8.91016H69.37V9.52002ZM69.5801 15.4502H73.16V14.6201H69.5801V15.4502ZM81.5801 15.2502C80.3463 17.3848 78.5558 19.1439 76.4 20.3401C76.0474 19.7962 75.6198 19.3047 75.13 18.8801C75.13 19.0101 75.23 19.1202 75.28 19.2302L73.87 19.9001C73.5085 18.9926 73.0668 18.119 72.55 17.29L73.9 16.7302C74.3353 17.4095 74.7358 18.1102 75.1 18.8301C77.0682 17.9302 78.715 16.451 79.8201 14.5901L81.5801 15.2502ZM80.9301 6.52002C79.7852 8.06835 78.3564 9.38517 76.72 10.4001C76.3261 9.90326 75.8727 9.45651 75.37 9.07007C76.8536 8.27281 78.1387 7.15173 79.13 5.79004L80.9301 6.52002ZM81.28 10.8401C80.0343 12.4803 78.4907 13.8714 76.73 14.9402C76.3587 14.4368 75.9177 13.9889 75.42 13.6101C77.0314 12.7608 78.4349 11.5656 79.53 10.1101L81.28 10.8401Z" fill="white"/>
</svg>
