<svg width="151" height="46" viewBox="0 0 151 46" fill="none" xmlns="http://www.w3.org/2000/svg">
<path d="M144.8 0H6.65002C3.33632 0 0.650024 2.68629 0.650024 6V39.02C0.650024 42.3337 3.33632 45.02 6.65002 45.02H144.8C148.114 45.02 150.8 42.3337 150.8 39.02V6C150.8 2.68629 148.114 0 144.8 0Z" fill="#FF855E"/>
<path d="M144.71 2.7002H6.74005C4.70212 2.7002 3.05005 4.35226 3.05005 6.3902V38.6202C3.05005 40.6581 4.70212 42.3102 6.74005 42.3102H144.71C146.748 42.3102 148.4 40.6581 148.4 38.6202V6.3902C148.4 4.35226 146.748 2.7002 144.71 2.7002Z" stroke="white" stroke-width="0.53" stroke-miterlimit="10"/>
<path d="M6.65002 7.3698C7.29067 7.3698 7.81 6.85045 7.81 6.2098C7.81 5.56915 7.29067 5.0498 6.65002 5.0498C6.00937 5.0498 5.48999 5.56915 5.48999 6.2098C5.48999 6.85045 6.00937 7.3698 6.65002 7.3698Z" fill="white"/>
<path d="M6.65002 39.9704C7.29067 39.9704 7.81 39.451 7.81 38.8104C7.81 38.1697 7.29067 37.6504 6.65002 37.6504C6.00937 37.6504 5.48999 38.1697 5.48999 38.8104C5.48999 39.451 6.00937 39.9704 6.65002 39.9704Z" fill="white"/>
<path d="M144.79 7.3698C145.431 7.3698 145.95 6.85045 145.95 6.2098C145.95 5.56915 145.431 5.0498 144.79 5.0498C144.149 5.0498 143.63 5.56915 143.63 6.2098C143.63 6.85045 144.149 7.3698 144.79 7.3698Z" fill="white"/>
<path d="M144.79 39.9704C145.431 39.9704 145.95 39.451 145.95 38.8104C145.95 38.1697 145.431 37.6504 144.79 37.6504C144.149 37.6504 143.63 38.1697 143.63 38.8104C143.63 39.451 144.149 39.9704 144.79 39.9704Z" fill="white"/>
<path d="M30.19 17.7002H21.61V15.6301H25.24C24.8443 14.6708 24.3728 13.7446 23.83 12.8601L25.88 11.9102C26.4958 12.8395 27.0311 13.8196 27.48 14.8401L26.01 15.6301H30.19V17.7002ZM29.29 19.1902C30.0686 18.8336 30.7186 18.2458 31.1516 17.5068C31.5846 16.7679 31.7796 15.9137 31.71 15.0601V12.7002H39.12V17.5C39.12 18.14 39.17 18.4001 39.43 18.4001H40.31C40.6745 18.3909 41.0368 18.3404 41.39 18.25C41.39 18.91 41.5 19.8102 41.56 20.4202C41.1639 20.5512 40.7465 20.6055 40.33 20.5801H39.19C37.12 20.5801 36.72 19.65 36.72 17.48V15.0901H34.08C34.1673 16.3198 33.8963 17.5484 33.3 18.6274C32.7038 19.7064 31.8076 20.5897 30.72 21.1702C30.314 20.5687 29.8335 20.0209 29.29 19.54V20.6201H22.55V18.6201H29.29V19.1902ZM29.29 23.6201H22.51V21.6201H29.29V23.6201ZM41.06 22.1001C40.4736 24.5073 39.259 26.7157 37.54 28.5C38.9753 29.2449 40.5114 29.7772 42.1 30.0801C41.4558 30.7877 40.9139 31.5822 40.49 32.4402C38.6759 32.0267 36.9493 31.2953 35.39 30.28C33.8142 31.2846 32.0896 32.0338 30.28 32.5C30.006 31.8212 29.6713 31.1686 29.28 30.55V31.3401H24.81V32.26H22.59V24.6702H29.32V30.0901C30.7218 29.7614 32.0689 29.2326 33.32 28.52C32.1406 27.3252 31.1674 25.9433 30.44 24.4302L31.87 23.9202H29.82V21.48H38.99L39.43 21.3701L41.06 22.1001ZM27 26.76H24.81V29.23H27.05L27 26.76ZM32.79 23.9402C33.447 25.1412 34.3299 26.2039 35.39 27.0701C36.366 26.1864 37.1637 25.124 37.74 23.9402H32.79Z" fill="white"/>
<path d="M53.29 17.7002H44.02V15.6301H47.81C47.4143 14.6708 46.9428 13.7446 46.4 12.8601L48.4 11.9102C49.0188 12.8394 49.5574 13.8195 50.01 14.8401L48.55 15.6301H53.2L53.29 17.7002ZM44.99 20.7002V18.7002H52.36V20.7002H44.99ZM52.32 23.7002H44.99V21.7002H52.32V23.7002ZM52.41 31.4202H47.28V32.3401H45.08V24.75H52.41V31.4202ZM47.28 26.8401V29.3101H50.14V26.8401H47.28ZM63.85 21.9602H59.81V32.6301H57.08V21.9602H53.23V19.3801H57.08V12.47H59.81V19.3801H63.81L63.85 21.9602Z" fill="white"/>
<path d="M77.7501 20.5996C79.2001 24.8896 81.86 28.3495 85.98 30.0195C85.2143 30.7382 84.5604 31.5673 84.04 32.4795C80.04 30.6095 77.51 27.3997 75.79 23.1497C75.1616 25.2036 74.1025 27.0999 72.6833 28.7122C71.2642 30.3244 69.5176 31.6155 67.5601 32.4995C67.0415 31.6384 66.3625 30.8848 65.5601 30.2795C67.593 29.4581 69.3892 28.143 70.786 26.4529C72.1828 24.7627 73.1362 22.7509 73.5601 20.5996H65.9901V17.8896H73.9901C74.2101 15.8296 74.1901 13.8195 74.2101 12.0195H77.0701C77.0701 13.8195 77.0701 15.8496 76.8101 17.8896H85.4501V20.5996H77.7501Z" fill="white"/>
<path d="M102.43 17.0903V18.6304H107.27V29.9404C107.27 31.0004 107.09 31.6203 106.41 32.0303C105.575 32.3996 104.658 32.5446 103.75 32.4504C103.63 31.6715 103.408 30.9116 103.09 30.1904C103.66 30.1904 104.28 30.1904 104.5 30.1904C104.72 30.1904 104.78 30.1204 104.78 29.9004V27.9004H102.43V32.3604H99.92V27.9004H97.72V32.5203H95.28V21.2903C94.71 21.9303 94.2001 22.6204 93.7401 23.1604C94.2701 23.8004 94.7401 24.4404 94.9301 24.6804L93.54 26.4204C93.25 25.8904 92.8101 25.1504 92.3301 24.4204V32.4204H89.98V25.0903C89.4866 25.7502 88.9557 26.3811 88.3901 26.9802C88.069 26.1922 87.6307 25.4574 87.0901 24.8003C88.9973 22.8529 90.5026 20.5491 91.5201 18.0203H87.86V15.7603H90.72C90.2638 14.8358 89.7285 13.9526 89.1201 13.1204L91.2101 12.1704C91.8995 13.0004 92.5026 13.8983 93.0101 14.8503L91.2501 15.7603H92.66L93.0801 15.6704L94.4401 16.4802C93.8831 18.1696 93.177 19.8061 92.3301 21.3704V21.4504L92.7701 21.9604C93.1646 21.3336 93.5251 20.6858 93.85 20.0203L95.28 21.0203V18.6604H99.92V17.0903H94.8101V14.7202H99.9401V11.9702H102.45V14.7202H105.24C104.573 14.1734 103.852 13.6944 103.09 13.2903L104.54 11.9004C105.65 12.4176 106.681 13.0911 107.6 13.9004L106.81 14.6704H107.97V17.0903H102.43ZM97.72 20.8303V22.3103H99.92V20.8303H97.72ZM99.92 25.8303V24.3103H97.72V25.8303H99.92ZM102.43 20.8303V22.3103H104.81V20.8303H102.43ZM104.78 25.8303V24.3103H102.43V25.8303H104.78Z" fill="white"/>
<path d="M118.51 25.6199C118.57 25.9746 118.549 26.3381 118.451 26.6841C118.352 27.0301 118.178 27.3498 117.94 27.6199C117.377 28.0012 116.695 28.1647 116.02 28.0798C115.968 27.2973 115.782 26.5295 115.47 25.8098H116.35C116.51 25.8098 116.55 25.8098 116.55 25.5898V18.3699H115.38V32.5898H112.96V18.3699H111.86V28.0898H109.86V16.0898H112.94V12.0898H115.36V16.0898H118.49L118.51 25.6199ZM125.04 18.0498V21.2998H129.04V32.3899H126.55V31.2698H121.91V32.4199H119.53V21.2998H122.53V12.0898H125.06V15.6799H129.97V18.0898L125.04 18.0498ZM126.58 23.6799H121.94V28.8999H126.58V23.6799Z" fill="white"/>
</svg>
