<svg width="151" height="46" viewBox="0 0 151 46" fill="none" xmlns="http://www.w3.org/2000/svg">
<path d="M144.62 0H6.46997C3.15626 0 0.469971 2.68629 0.469971 6V39.02C0.469971 42.3337 3.15626 45.02 6.46997 45.02H144.62C147.934 45.02 150.62 42.3337 150.62 39.02V6C150.62 2.68629 147.934 0 144.62 0Z" fill="#FF855E"/>
<path d="M144.53 2.7002H6.56C4.52207 2.7002 2.87 4.35226 2.87 6.3902V38.6202C2.87 40.6581 4.52207 42.3102 6.56 42.3102H144.53C146.568 42.3102 148.22 40.6581 148.22 38.6202V6.3902C148.22 4.35226 146.568 2.7002 144.53 2.7002Z" stroke="white" stroke-width="0.53" stroke-miterlimit="10"/>
<path d="M6.47003 7.3698C7.11068 7.3698 7.63007 6.85045 7.63007 6.2098C7.63007 5.56915 7.11068 5.0498 6.47003 5.0498C5.82938 5.0498 5.31006 5.56915 5.31006 6.2098C5.31006 6.85045 5.82938 7.3698 6.47003 7.3698Z" fill="white"/>
<path d="M6.47003 39.9704C7.11068 39.9704 7.63007 39.451 7.63007 38.8104C7.63007 38.1697 7.11068 37.6504 6.47003 37.6504C5.82938 37.6504 5.31006 38.1697 5.31006 38.8104C5.31006 39.451 5.82938 39.9704 6.47003 39.9704Z" fill="white"/>
<path d="M144.61 7.3698C145.251 7.3698 145.77 6.85045 145.77 6.2098C145.77 5.56915 145.251 5.0498 144.61 5.0498C143.969 5.0498 143.45 5.56915 143.45 6.2098C143.45 6.85045 143.969 7.3698 144.61 7.3698Z" fill="white"/>
<path d="M144.61 39.9704C145.251 39.9704 145.77 39.451 145.77 38.8104C145.77 38.1697 145.251 37.6504 144.61 37.6504C143.969 37.6504 143.45 38.1697 143.45 38.8104C143.45 39.451 143.969 39.9704 144.61 39.9704Z" fill="white"/>
<path d="M51.64 23.5706C50.71 23.8406 49.74 24.1006 48.8 24.3606V29.6907C48.8 30.9607 48.55 31.6005 47.8 32.0005C46.7395 32.4052 45.6006 32.5627 44.4701 32.4607C44.3432 31.631 44.1007 30.8231 43.75 30.0605C44.61 30.1105 45.51 30.1106 45.75 30.1106C45.99 30.1106 46.17 30.0007 46.17 29.6907V25.0906C45.31 25.3006 44.5 25.5007 43.75 25.7007L43.1101 23.1907C43.9901 23.0207 45.05 22.8005 46.17 22.5105V18.5906H43.4901V16.0906H46.17V11.9805H48.8101V16.0906H51.4901V18.5105H48.8101V21.7905L51.3401 21.1306L51.64 23.5706ZM63.8 21.7905H60.6101V32.4607H58.02V21.7905H54.9601C54.8901 25.4605 54.3901 29.2506 52.2301 32.5906C51.6035 31.9376 50.8942 31.3695 50.1201 30.9006C52.1201 27.5306 52.38 23.9006 52.38 20.6006V14.0906C55.4592 13.7261 58.5008 13.0938 61.4701 12.2007L63.03 14.4006C60.4075 15.1372 57.7333 15.6753 55.03 16.0105V19.3506H63.8101L63.8 21.7905Z" fill="white"/>
<path d="M71.63 12.7502C71.1518 14.1998 70.5944 15.6219 69.9601 17.0103V32.5303H67.4701V21.5303C67.0548 22.1613 66.6006 22.7659 66.1101 23.3403C65.7717 22.366 65.3501 21.4224 64.8501 20.5203C66.8455 18.0032 68.3269 15.1185 69.2101 12.0303L71.63 12.7502ZM81.4901 29.2903C83.0726 29.8129 84.622 30.4308 86.13 31.1404L83.89 32.6104C82.3778 31.7636 80.7912 31.0572 79.15 30.5002L80.5601 29.2903H76.25L77.7001 30.2903C75.9856 31.365 74.0923 32.1237 72.1101 32.5303C71.7251 31.8824 71.2616 31.2845 70.7301 30.7502C72.3412 30.4515 73.9072 29.9473 75.39 29.2502H72.29V21.0903H84.7401V29.3003L81.4901 29.2903ZM81.1801 14.8604V15.8003H84.9601V20.3403H71.9601V15.8003H75.5701V14.8604H71.5701V12.9702H85.63V14.8604H81.1801ZM74.2301 18.8604H75.5701V17.3604H74.2301V18.8604ZM74.7101 23.4104H82.1901V22.6204H74.7101V23.4104ZM74.7101 25.6104H82.1901V24.8203H74.7101V25.6104ZM74.7101 27.8604H82.1901V27.0203H74.7101V27.8604ZM79.0701 14.8604H77.64V15.8003H79.0701V14.8604ZM77.64 18.8604H79.0701V17.3604H77.64V18.8604ZM81.1801 17.3604V18.8604H82.5901V17.3604H81.1801Z" fill="white"/>
<path d="M102.81 21.4602C104.366 22.7647 106.194 23.7044 108.16 24.2102C107.494 24.8244 106.924 25.5357 106.47 26.3201C104.965 25.831 103.552 25.0943 102.29 24.1401C102.11 26.5201 101.87 27.6601 101.38 28.1401C100.941 28.5522 100.362 28.7811 99.7599 28.78C98.8445 28.8483 97.9253 28.8483 97.0099 28.78C96.9362 28.0792 96.7255 27.3997 96.3899 26.78C97.2899 26.87 98.1299 26.8901 98.4999 26.8901C98.6209 26.9084 98.7446 26.8998 98.8621 26.8652C98.9795 26.8307 99.088 26.7711 99.1799 26.6902C99.3599 26.5402 99.49 26.1201 99.58 25.3501H94.23V28.8701C94.23 29.7301 94.54 29.8701 96.23 29.8701H101.46C102.87 29.8701 103.09 29.5201 103.27 27.3401C104.016 27.7671 104.827 28.0709 105.67 28.24C105.29 31.39 104.5 32.24 101.6 32.24H96.1C92.66 32.24 91.6499 31.5402 91.6499 28.9602V24.78C90.723 25.3969 89.7424 25.9292 88.72 26.3701C88.3456 25.5502 87.8079 24.8153 87.1399 24.2102C88.8204 23.5444 90.3809 22.6087 91.7599 21.4402H87.7599V19.1301H93.9199C94.2857 18.5935 94.6196 18.036 94.9199 17.4602H89.0499V15.2102H92.11C91.7044 14.556 91.2532 13.931 90.7599 13.3401L92.7599 12.24C93.4596 13.0193 94.0795 13.8669 94.61 14.77L93.8199 15.2102H95.8199C96.1668 14.1209 96.4178 13.0032 96.5699 11.8701L99.3199 12.1101C99.144 13.1582 98.9002 14.1938 98.59 15.2102H100.59C101.175 14.3045 101.69 13.3549 102.13 12.3701L104.58 13.1201C104.11 13.8501 103.65 14.5502 103.17 15.2102H105.81V17.4602H97.8099C97.5399 18.0302 97.28 18.5801 96.95 19.1301H107.22V21.4402L102.81 21.4602ZM101.21 23.2002C100.653 22.6659 100.145 22.0836 99.6899 21.4602H95.4199C94.9229 22.0882 94.3706 22.6705 93.7699 23.2002H101.21Z" fill="white"/>
</svg>
