<svg width="151" height="46" viewBox="0 0 151 46" fill="none" xmlns="http://www.w3.org/2000/svg">
<path d="M144.15 0H6C2.68629 0 0 2.68629 0 6V39.02C0 42.3337 2.68629 45.02 6 45.02H144.15C147.464 45.02 150.15 42.3337 150.15 39.02V6C150.15 2.68629 147.464 0 144.15 0Z" fill="#FF855E"/>
<path d="M144.06 2.7002H6.09002C4.05209 2.7002 2.40002 4.35226 2.40002 6.3902V38.6202C2.40002 40.6581 4.05209 42.3102 6.09002 42.3102H144.06C146.098 42.3102 147.75 40.6581 147.75 38.6202V6.3902C147.75 4.35226 146.098 2.7002 144.06 2.7002Z" stroke="white" stroke-width="0.53" stroke-miterlimit="10"/>
<path d="M6.00998 7.3698C6.65063 7.3698 7.16998 6.85045 7.16998 6.2098C7.16998 5.56915 6.65063 5.0498 6.00998 5.0498C5.36933 5.0498 4.84998 5.56915 4.84998 6.2098C4.84998 6.85045 5.36933 7.3698 6.00998 7.3698Z" fill="white"/>
<path d="M6.00998 39.9704C6.65063 39.9704 7.16998 39.451 7.16998 38.8104C7.16998 38.1697 6.65063 37.6504 6.00998 37.6504C5.36933 37.6504 4.84998 38.1697 4.84998 38.8104C4.84998 39.451 5.36933 39.9704 6.00998 39.9704Z" fill="white"/>
<path d="M144.14 7.3698C144.781 7.3698 145.3 6.85045 145.3 6.2098C145.3 5.56915 144.781 5.0498 144.14 5.0498C143.499 5.0498 142.98 5.56915 142.98 6.2098C142.98 6.85045 143.499 7.3698 144.14 7.3698Z" fill="white"/>
<path d="M144.14 39.9704C144.781 39.9704 145.3 39.451 145.3 38.8104C145.3 38.1697 144.781 37.6504 144.14 37.6504C143.499 37.6504 142.98 38.1697 142.98 38.8104C142.98 39.451 143.499 39.9704 144.14 39.9704Z" fill="white"/>
<path d="M40.08 13.7102C39.4748 14.6225 38.8065 15.4912 38.08 16.3101C39.1816 18.643 39.6834 21.2141 39.54 23.79C39.54 26.79 39.27 29.71 38.24 31.05C37.895 31.5115 37.3937 31.8315 36.83 31.9502C35.8445 32.1596 34.8333 32.2202 33.83 32.1301C33.8149 31.2137 33.5598 30.3171 33.09 29.53C33.9321 29.5935 34.7778 29.5935 35.62 29.53C35.758 29.5156 35.8915 29.4727 36.0121 29.4038C36.1326 29.3349 36.2374 29.2417 36.32 29.1301C36.76 28.5101 36.96 26.49 36.98 23.98C35.9667 25.2514 34.7975 26.3905 33.5 27.3701C33.1009 26.5738 32.6073 25.8284 32.03 25.1501C33.9805 23.9848 35.607 22.348 36.76 20.3901C36.6357 19.6641 36.4449 18.951 36.19 18.26C35.2915 19.1171 34.336 19.9124 33.33 20.6401C32.9299 19.8096 32.4259 19.0334 31.83 18.3301C32.9619 17.6691 34.024 16.8951 35 16.02C34.3768 15.1521 33.6364 14.3749 32.8 13.7102L34.69 12.25C35.4552 12.8341 36.1499 13.5053 36.76 14.25C37.291 13.6722 37.7758 13.0538 38.21 12.4001L40.08 13.7102ZM52.23 29.1602V31.6501H39.4V29.1602H44.81V23.53H40.72V21.0901H44.81V16.0901H40.41V13.6101H51.9V16.0901H47.47V21.0901H51.7V23.5601H47.47V29.1902L52.23 29.1602Z" fill="white"/>
<path d="M70.3101 25.3799C71.6461 25.9978 73.0394 26.4834 74.4701 26.8298C73.9035 27.3731 73.4064 27.9845 72.9901 28.6499C70.7738 27.9638 68.7122 26.8532 66.92 25.3799H61.4401C59.677 26.9788 57.5793 28.1643 55.3 28.8499C54.87 28.2099 54.3703 27.6196 53.8101 27.0898C55.3162 26.7122 56.7704 26.1514 58.14 25.4199H54.3801V23.3499H59.3801V22.3499H55.3801V20.3499H59.3801V19.4299H56.5201V12.7598H71.5201V19.4299H68.61V20.3499H72.6601V22.3499H68.61V23.3499H73.8101V25.4199L70.3101 25.3799ZM65.9701 28.5898C68.0014 29.1236 70.004 29.761 71.9701 30.4998L70.7801 32.1699C68.9682 31.4249 67.1191 30.7739 65.2401 30.2197V30.4399C65.2401 31.4899 65.0401 31.9798 64.2401 32.2798C63.209 32.5644 62.1367 32.6694 61.0701 32.5898C60.9717 32.0049 60.7934 31.4363 60.5401 30.8999C59.2201 31.3599 57.9201 31.7799 56.8501 32.1299L55.7501 30.2197C57.3701 29.8197 59.7501 29.14 62.1001 28.46L62.4301 30.2397L61.2001 30.6799C61.7501 30.6799 62.2601 30.6799 62.4301 30.6799C62.6001 30.6799 62.7901 30.6099 62.7901 30.3899V25.8599H65.2101V29.5298L65.9701 28.5898ZM59.9701 29.0698C59.6274 28.4688 59.1882 27.9282 58.67 27.4697L60.61 26.4697C61.1337 26.9164 61.5916 27.4349 61.9701 28.0098L59.9701 29.0698ZM59.05 15.2498H68.9501V14.3999H59.05V15.2498ZM59.05 17.7H68.9501V16.8198H59.05V17.7ZM61.9501 20.3098H66.0901V19.3899H61.9501V20.3098ZM61.9501 23.3098H66.0901V22.3098H61.9501V23.3098ZM69.83 27.3999C69.15 28.0399 68.51 28.6298 68.0201 29.0498L66.2201 28.1299C66.7492 27.5951 67.2279 27.0126 67.6501 26.3899L69.83 27.3999Z" fill="white"/>
<path d="M84.23 29.0901C82.3222 30.5261 80.1355 31.5479 77.81 32.0901C77.3727 31.4018 76.8558 30.7675 76.27 30.2002C78.3927 29.9329 80.4531 29.3001 82.36 28.3301L84.23 29.0901ZM95.89 25.3701V27.52H87.35V32.52H84.81V27.52H76.42V25.3701H84.81V24.3701H78.47V22.48H84.81V21.48H77.37V19.48H81.42C81.1883 18.9249 80.9176 18.387 80.61 17.8701L82.08 17.54H76.47V15.49H79.47C79.0717 14.5479 78.6003 13.6385 78.06 12.77L80.31 12.02C80.9912 12.9741 81.5521 14.0087 81.98 15.1001L80.92 15.49H82.92V11.9102H85.34V15.49H86.99V11.9102H89.45V15.49H91.45L90.66 15.25C91.2214 14.2364 91.6932 13.1758 92.07 12.0801L94.82 12.72C94.2 13.72 93.61 14.72 93.06 15.49H95.81V17.54H90.01L92.07 18.0701C91.59 18.6001 91.13 19.07 90.73 19.48H94.98V21.48H87.34V22.48H93.94V24.3701H87.34V25.3701H95.89ZM83.19 17.6001C83.5372 18.1213 83.8351 18.6736 84.08 19.25L82.89 19.54H88.89L88.1 19.29C88.45 18.79 88.92 18.1301 89.22 17.6001H83.19ZM90.06 28.1201C91.84 28.7801 94.44 29.8801 95.85 30.5801L94 32.01C92.72 31.29 90.15 30.1201 88.3 29.3501L90.06 28.1201Z" fill="white"/>
<path d="M101.03 23.3101H105.9V30.3901H101.03V31.76H98.72V15.23H100.55C100.828 14.1683 101.035 13.0893 101.17 12L104.07 12.24C103.72 13.24 103.3 14.35 102.9 15.24H105.68V21.8901H101.03V23.3101ZM103.37 17.4302H101.03V19.6802H103.37V17.4302ZM101.03 25.51V28.1902H103.59V25.51H101.03ZM113.47 15.3901V17.3401H117.62V26.8501C117.62 27.8501 117.47 28.5001 116.83 28.8501C116.048 29.2194 115.179 29.3614 114.32 29.26C114.238 28.4794 114.015 27.7202 113.66 27.02C114.21 27.02 114.76 27.02 114.94 27.02C115.12 27.02 115.2 26.96 115.2 26.74V19.6301H113.47V32.4602H111.02V19.6301H109.39V29.0901H107.02V17.27H111.02V15.3201H106.27V12.9402H118.17V15.3201L113.47 15.3901Z" fill="white"/>
</svg>
