<svg width="151" height="46" viewBox="0 0 151 46" fill="none" xmlns="http://www.w3.org/2000/svg">
<path d="M144.97 0H6.82007C3.50636 0 0.820068 2.68629 0.820068 6V39.02C0.820068 42.3337 3.50636 45.02 6.82007 45.02H144.97C148.284 45.02 150.97 42.3337 150.97 39.02V6C150.97 2.68629 148.284 0 144.97 0Z" fill="#FF855E"/>
<path d="M144.89 2.7002H6.91998C4.88205 2.7002 3.22998 4.35226 3.22998 6.3902V38.6202C3.22998 40.6581 4.88205 42.3102 6.91998 42.3102H144.89C146.928 42.3102 148.58 40.6581 148.58 38.6202V6.3902C148.58 4.35226 146.928 2.7002 144.89 2.7002Z" stroke="white" stroke-width="0.53" stroke-miterlimit="10"/>
<path d="M6.83002 7.3698C7.47067 7.3698 7.99002 6.85045 7.99002 6.2098C7.99002 5.56915 7.47067 5.0498 6.83002 5.0498C6.18937 5.0498 5.67004 5.56915 5.67004 6.2098C5.67004 6.85045 6.18937 7.3698 6.83002 7.3698Z" fill="white"/>
<path d="M6.83002 39.9704C7.47067 39.9704 7.99002 39.451 7.99002 38.8104C7.99002 38.1697 7.47067 37.6504 6.83002 37.6504C6.18937 37.6504 5.67004 38.1697 5.67004 38.8104C5.67004 39.451 6.18937 39.9704 6.83002 39.9704Z" fill="white"/>
<path d="M144.97 7.3698C145.611 7.3698 146.13 6.85045 146.13 6.2098C146.13 5.56915 145.611 5.0498 144.97 5.0498C144.329 5.0498 143.81 5.56915 143.81 6.2098C143.81 6.85045 144.329 7.3698 144.97 7.3698Z" fill="white"/>
<path d="M144.97 39.9704C145.611 39.9704 146.13 39.451 146.13 38.8104C146.13 38.1697 145.611 37.6504 144.97 37.6504C144.329 37.6504 143.81 38.1697 143.81 38.8104C143.81 39.451 144.329 39.9704 144.97 39.9704Z" fill="white"/>
<path d="M22.93 20.5996C24.39 24.8896 27.05 28.3495 31.16 30.0195C30.3945 30.7359 29.7436 31.5655 29.23 32.4795C25.23 30.6095 22.69 27.3997 20.97 23.1497C20.3438 25.2032 19.2867 27.0995 17.8691 28.7119C16.4516 30.3243 14.7064 31.6154 12.75 32.4995C12.2314 31.6384 11.5525 30.8848 10.75 30.2795C12.7845 29.4604 14.582 28.1459 15.9791 26.4553C17.3763 24.7648 18.3287 22.7519 18.75 20.5996H11.21V17.8896H19.21C19.43 15.8296 19.41 13.8195 19.43 12.0195H22.29C22.29 13.8195 22.29 15.8496 22.03 17.8896H30.68V20.5996H22.93Z" fill="white"/>
<path d="M35.86 23.3101H40.73V30.3901H35.86V31.76H33.55V15.23H35.3801C35.6584 14.1683 35.8655 13.0893 36.0001 12L38.9001 12.24C38.5501 13.24 38.13 14.35 37.73 15.24H40.5101V21.8901H35.86V23.3101ZM38.2001 17.4302H35.86V19.6802H38.2001V17.4302ZM35.86 25.51V28.1902H38.42V25.51H35.86ZM48.3 15.3901V17.3401H52.4501V26.8501C52.4501 27.8501 52.3 28.5001 51.66 28.8501C50.8784 29.2194 50.0086 29.3614 49.1501 29.26C49.0684 28.4794 48.8447 27.7202 48.4901 27.02C49.0401 27.02 49.5901 27.02 49.7701 27.02C49.9501 27.02 50.03 26.96 50.03 26.74V19.6301H48.3V32.4602H45.8101V19.6301H44.1901V29.0901H41.8101V17.27H45.8101V15.3201H41.0601V12.9402H53.0101V15.3201L48.3 15.3901Z" fill="white"/>
<path d="M58.72 22.6003C57.4741 21.6338 56.1056 20.8367 54.65 20.2302L56.01 18.2302C57.4878 18.7765 58.8866 19.5165 60.17 20.4304L58.72 22.6003ZM61.12 25.3503C59.95 27.6403 58.57 30.1503 57.27 32.2803L55.05 30.5203C56.5746 28.2979 57.9606 25.9835 59.2 23.5903L61.12 25.3503ZM59.47 16.7302C58.2945 15.6762 56.9661 14.8065 55.53 14.1504L57 12.2402C58.4456 12.8362 59.7939 13.6453 61 14.6404L59.47 16.7302ZM62.83 22.5803H65.19V24.7104C65.19 27.1604 64.84 30.2404 61.93 32.4604C61.4133 31.7882 60.7881 31.2066 60.08 30.7402C61.0211 30.0406 61.7678 29.1121 62.2491 28.0427C62.7304 26.9734 62.9304 25.7988 62.83 24.6304V22.5803ZM73.09 22.6704C72.85 22.3004 72.52 21.7903 72.14 21.2603C63.98 21.8303 62.79 21.9403 61.98 22.2603C61.7543 21.4448 61.4805 20.6435 61.16 19.8604C61.8384 19.5716 62.4186 19.0921 62.83 18.4802C63.2615 18.0089 63.6592 17.5076 64.02 16.9802H61.14V14.6504H65.54C66.05 13.7704 66.54 12.8404 67.02 11.9004L69.57 12.9004C69.26 13.4904 68.91 14.0604 68.57 14.6604H74.81V16.9902H71.81C72.95 18.3802 74.49 20.2003 75.28 21.3503L73.09 22.6704ZM66.93 16.9702C66.27 17.8702 65.58 18.7102 64.93 19.5002L70.63 19.1904C70.26 18.7304 69.91 18.2704 69.63 17.8704L71.17 16.9702H66.93ZM66.53 22.7803H68.81V31.5803H66.52L66.53 22.7803ZM73.81 30.0903C74.1674 30.0927 74.5237 30.0491 74.87 29.9604C74.87 30.5704 74.98 31.3904 75.07 31.9604C74.6717 32.081 74.2556 32.1316 73.84 32.1104H72.74C70.67 32.1104 70.27 31.2304 70.27 29.1104V22.6204H72.67V29.0903C72.67 29.8003 72.67 30.0403 72.98 30.0403L73.81 30.0903Z" fill="white"/>
<path d="M94.3799 25.9004H97.1799V27.9004H94.3799V30.1704C94.3799 31.3404 94.1599 31.9303 93.2999 32.2603C92.1338 32.5718 90.9233 32.6834 89.7199 32.5903C89.5708 31.8354 89.3255 31.1029 88.9899 30.4104C89.9899 30.4104 91.1199 30.4104 91.4299 30.4104C91.7399 30.4104 91.8699 30.3003 91.8699 30.0503V27.8503H86.9699C87.7641 28.5833 88.4905 29.3864 89.14 30.2502L87.08 31.5703C86.338 30.4746 85.4723 29.4679 84.4999 28.5703L85.6199 27.8604H82.5599V25.8604H91.8699V24.9204C88.6799 25.0104 85.5799 25.0704 83.2499 25.1204L83.0299 23.1204C84.5899 23.1204 86.59 23.1203 88.77 23.0703V22.1904H83.9099V16.1904H88.8099V15.3604H83.0699V14.3604C82.6299 15.3604 82.0699 16.3604 81.5699 17.3604V32.4702H79.08V21.2302C78.6166 21.8443 78.1192 22.4319 77.59 22.9902C77.2109 22.0461 76.7455 21.139 76.2 20.2803C78.4199 17.9062 80.1225 15.0968 81.2 12.0303L83.6799 12.8303L83.4399 13.4604H88.8099V12.1204H91.34V13.4604H96.9999V15.3604H91.34V16.1904H96.34V22.1904H95.34C96.1037 22.8897 96.8032 23.6559 97.4299 24.4802L95.5599 25.4802C95.4299 25.2702 95.2299 25.0203 95.0299 24.7603H94.3699L94.3799 25.9004ZM86.3099 18.5503H88.8099V17.6504H86.3099V18.5503ZM88.77 20.8203V19.9204H86.3099V20.8203H88.77ZM91.2999 17.6504V18.5503H93.8099V17.6504H91.2999ZM93.8099 19.9204H91.2999V20.8203H93.8099V19.9204ZM91.2999 23.1104H93.4099C93.1499 22.8404 92.88 22.6004 92.64 22.3804L92.8199 22.2903H91.2999V23.1104Z" fill="white"/>
<path d="M106.21 28.7402C104.515 30.2148 102.602 31.419 100.54 32.3103C99.9272 31.6561 99.258 31.0571 98.54 30.5203C100.42 29.9291 102.183 29.0155 103.75 27.8203L106.21 28.7402ZM119.02 20.6204H108.68L109.18 21.0403C108.35 21.4603 107.47 21.8802 106.56 22.2502L111.01 22.0703C111.93 21.6303 112.84 21.1902 113.65 20.7302L115.45 22.3003C112.825 23.6031 110.112 24.7193 107.33 25.6404L113.67 25.3804C113.36 25.1304 113.03 24.8904 112.75 24.6704L114.75 23.4802C116.244 24.5295 117.649 25.7001 118.95 26.9802L116.86 28.2803C116.55 27.9103 116.11 27.4902 115.63 27.0002L110.63 27.2703V29.9104C110.63 31.1004 110.39 31.7604 109.44 32.1304C108.223 32.4635 106.959 32.5884 105.7 32.5002C105.517 31.6644 105.214 30.8596 104.8 30.1104C105.92 30.1104 107.27 30.1704 107.64 30.1104C108.01 30.0504 108.1 30.0203 108.1 29.7803V27.3804C102.16 27.7104 101.19 27.8203 100.47 28.0603C100.4 27.6503 100.09 26.5504 99.92 25.9504C101.021 25.8012 102.104 25.5363 103.15 25.1604C103.81 24.9404 105.15 24.4803 106.78 23.8403C103.08 24.0603 102.4 24.1703 101.94 24.3403C101.83 23.9003 101.52 22.8703 101.3 22.2803C101.866 22.1881 102.42 22.0304 102.95 21.8103C103.922 21.4614 104.871 21.0506 105.79 20.5803H98.9001V18.5803H107.57V17.7202H101.13V15.8503H107.57V15.0903H99.9601V13.2004H107.57V11.9902H110.21V13.2004H117.98V15.0903H110.21V15.9204H116.81V17.7903H110.16V18.6504H119.01L119.02 20.6204ZM113.56 27.7703C115.403 28.6526 117.175 29.6757 118.86 30.8303L116.86 32.3503C115.23 31.1311 113.501 30.0507 111.69 29.1204L113.56 27.7703Z" fill="white"/>
<path d="M128.81 25.2397C128.37 24.5397 127.66 23.5298 126.94 22.5798V32.5798H124.3V24.0598C123.644 25.8236 122.738 27.4839 121.61 28.9897C121.264 28.0685 120.814 27.1897 120.27 26.3699C121.991 24.2159 123.25 21.7311 123.97 19.0698H120.91V16.5798H124.3V12.0498H126.94V16.5798H129.71V19.0698H126.94V19.6599C127.82 20.3899 129.84 22.4998 130.33 23.0498L128.81 25.2397ZM141.06 19.0198H139.01V29.3098C139.01 30.8298 138.68 31.5099 137.78 31.9299C136.436 32.3837 135.014 32.5573 133.6 32.4399C133.43 31.5236 133.133 30.6351 132.72 29.7998C133.93 29.7998 135.29 29.7998 135.72 29.7998C136.15 29.7998 136.27 29.6698 136.27 29.2698V22.5898C134.721 25.1324 132.742 27.3859 130.42 29.2498C129.892 28.4462 129.253 27.7223 128.52 27.0999C131.509 25.0359 133.919 22.2402 135.52 18.9797H130.46V16.4897H136.31V12.0898H139.1V16.5798H141.19L141.06 19.0198Z" fill="white"/>
</svg>
