<svg width="181" height="47" viewBox="0 0 181 47" fill="none" xmlns="http://www.w3.org/2000/svg">
<path d="M173.66 1H18.49C15.3696 1 12.84 3.52959 12.84 6.65V35.3C12.84 38.4204 15.3696 40.95 18.49 40.95H173.66C176.78 40.95 179.31 38.4204 179.31 35.3V6.65C179.31 3.52959 176.78 1 173.66 1Z" fill="#00C7C3" stroke="#603813" stroke-width="1.43" stroke-miterlimit="10"/>
<path d="M168.82 5.83984H13.65C10.5296 5.83984 8 8.36944 8 11.4898V40.1398C8 43.2603 10.5296 45.7898 13.65 45.7898H168.82C171.94 45.7898 174.47 43.2603 174.47 40.1398V11.4898C174.47 8.36944 171.94 5.83984 168.82 5.83984Z" fill="white" stroke="#603813" stroke-width="1.43" stroke-miterlimit="10"/>
<path d="M49.1839 16.1423V18.2103H66.6299V16.1423H49.1839ZM48.0179 25.4923V27.5823H67.8839V25.4923H48.0179ZM50.6139 19.6843C51.4059 21.2463 52.1979 23.2923 52.4619 24.5463L54.4639 23.8863C54.1779 22.6323 53.3419 20.6303 52.5059 19.1123L50.6139 19.6843ZM63.2859 19.0243C62.8019 20.5643 61.8779 22.6763 61.1079 24.0183L62.9119 24.5683C63.7259 23.3363 64.6939 21.3563 65.5079 19.6183L63.2859 19.0243ZM56.8179 16.9783V35.1283H58.9739V16.9783H56.8179ZM76.7939 24.4583V26.1303H82.6679V24.4583H76.7939ZM76.7939 28.2423V29.9143H82.7119V28.2423H76.7939ZM72.3939 32.0703V34.0063H87.6179V32.0703H72.3939ZM71.0959 20.4983V35.1503H73.0979V22.4123H86.6499V35.1503H88.7619V20.4983H71.0959ZM75.8699 21.7303V32.9503H77.7399V21.7303H75.8699ZM81.8539 21.7303V32.9063H83.7459V21.7303H81.8539ZM78.5759 17.0003C78.4439 18.3203 78.0479 20.1683 77.7179 21.3783L79.6099 21.8843C80.0499 20.7843 80.5339 19.0903 81.0179 17.5283L78.5759 17.0003ZM70.1279 16.0983V18.0783H89.7959V16.0983H70.1279ZM92.8099 21.4003V23.0063H99.4319V21.4003H92.8099ZM92.8099 24.3263V25.9323H99.4759V24.3263H92.8099ZM91.8859 18.4083V20.1023H100.378V18.4083H91.8859ZM93.7339 27.3183V29.0123H97.6279V32.1583H93.7339V33.8523H99.4539V27.3183H93.7339ZM92.8099 27.3183V34.8423H94.6139V27.3183H92.8099ZM94.1959 15.4163C94.7899 16.3403 95.4939 17.6383 95.8019 18.4523L97.4959 17.5063C97.1439 16.7143 96.4399 15.5263 95.8239 14.6243L94.1959 15.4163ZM102.468 15.4823V17.4183H108.254V15.4823H102.468ZM100.07 24.3703V26.3063H109.772V24.3703H100.07ZM109.024 24.3703V24.7003C107.682 29.3423 103.81 32.2023 99.2559 33.2583C99.6299 33.7203 100.092 34.5783 100.312 35.1283C105.306 33.6983 109.42 30.6183 111.07 24.8323L109.772 24.2823L109.42 24.3703H109.024ZM102.644 26.1083L100.862 26.7243C102.82 30.9703 106.186 33.8523 110.982 35.0843C111.246 34.5123 111.818 33.6323 112.28 33.1923C107.682 32.2243 104.272 29.6503 102.644 26.1083ZM102.094 15.4823V17.8803C102.094 19.3983 101.764 21.1143 99.3659 22.4123C99.7399 22.7203 100.466 23.5123 100.708 23.9303C103.414 22.4123 104.008 19.9923 104.008 17.9463V15.4823H102.094ZM107.22 15.4823V20.4323C107.22 22.3463 107.572 23.0943 109.288 23.0943C109.574 23.0943 110.322 23.0943 110.608 23.0943C111.048 23.0943 111.488 23.0723 111.774 22.9403C111.686 22.4783 111.642 21.7083 111.62 21.2023C111.334 21.2683 110.894 21.3123 110.608 21.3123C110.388 21.3123 109.684 21.3123 109.464 21.3123C109.178 21.3123 109.156 21.0923 109.156 20.4543V15.4823H107.22ZM115.228 21.4003V23.0063H122.532V21.4003H115.228ZM115.228 24.3263V25.9323H122.488V24.3263H115.228ZM114.26 18.4083V20.1023H123.456V18.4083H114.26ZM116.262 27.3183V29.0123H120.728V32.1583H116.262V33.8523H122.532V27.3183H116.262ZM115.36 27.3183V34.8423H117.142V27.3183H115.36ZM116.79 15.4163C117.384 16.3403 118.088 17.6383 118.418 18.4523L120.068 17.5063C119.716 16.7143 119.034 15.5263 118.418 14.6243L116.79 15.4163ZM123.412 22.2143V24.2603H134.016V22.2143H123.412ZM127.526 15.1083V35.1283H129.682V15.1083H127.526Z" fill="#007282"/>
<path d="M8.39 32.2107C11.9191 32.2107 14.78 29.3498 14.78 25.8207C14.78 22.2916 11.9191 19.4307 8.39 19.4307C4.8609 19.4307 2 22.2916 2 25.8207C2 29.3498 4.8609 32.2107 8.39 32.2107Z" fill="#FF855E" stroke="#603813" stroke-width="2.11" stroke-miterlimit="10"/>
</svg>
