<svg width="180" height="47" viewBox="0 0 180 47" fill="none" xmlns="http://www.w3.org/2000/svg">
<path d="M172.92 1H17.7499C14.6295 1 12.0999 3.52959 12.0999 6.65V35.3C12.0999 38.4204 14.6295 40.95 17.7499 40.95H172.92C176.04 40.95 178.57 38.4204 178.57 35.3V6.65C178.57 3.52959 176.04 1 172.92 1Z" fill="#00C7C3" stroke="#603813" stroke-width="1.43" stroke-miterlimit="10"/>
<path d="M168.08 5.83984H12.91C9.78956 5.83984 7.26001 8.36944 7.26001 11.4898V40.1398C7.26001 43.2603 9.78956 45.7898 12.91 45.7898H168.08C171.2 45.7898 173.73 43.2603 173.73 40.1398V11.4898C173.73 8.36944 171.2 5.83984 168.08 5.83984Z" fill="white" stroke="#603813" stroke-width="1.43" stroke-miterlimit="10"/>
<path d="M50.3379 16.6263V18.4743H67.7399V16.6263H50.3379ZM49.0839 21.7303V23.6003H68.7959V21.7303H49.0839ZM53.3079 28.9683V30.5743H64.6599V28.9683H53.3079ZM53.3299 32.6203V34.3803H64.6819V32.6203H53.3299ZM51.9879 25.2943V35.1723H54.0779V27.0323H63.9339V35.1283H66.1119V25.2943H51.9879ZM62.7019 18.4303C62.3719 19.4863 61.7559 21.0043 61.2499 21.9723L63.2079 22.4563C63.7579 21.5543 64.3959 20.1903 64.9899 18.9363L62.7019 18.4303ZM53.1979 18.9363C53.7699 19.9263 54.2759 21.2903 54.4079 22.1703L56.5639 21.6643C56.3879 20.7843 55.8599 19.4863 55.2219 18.5183L53.1979 18.9363ZM57.2899 14.8883C57.7519 15.7023 58.2139 16.8463 58.3239 17.5943L60.5679 17.1323C60.3919 16.3843 59.9519 15.3063 59.4019 14.5143L57.2899 14.8883ZM71.0179 26.9883V28.7263H90.8179V26.9883H71.0179ZM79.9279 25.7783V35.0843H82.0179V25.7783H79.9279ZM79.7739 21.7083H82.0839V23.6663H79.7739V21.7083ZM79.7739 18.2983H82.0839V20.2343H79.7739V18.2983ZM77.9699 16.7363V25.2283H83.9319V16.7363H77.9699ZM80.1699 14.6023C80.1039 15.3503 79.8619 16.4943 79.6199 17.2643L81.0279 17.5943C81.3359 16.9343 81.7099 15.9003 82.0839 14.9323L80.1699 14.6023ZM88.5739 22.4563C88.9479 23.6003 89.3219 25.0963 89.4759 26.1083L90.9059 25.6683C90.7299 24.7223 90.3339 23.2263 89.9379 22.0823L88.5739 22.4563ZM75.5279 22.0823C75.8139 23.2923 76.1439 24.8543 76.2539 25.9103L77.7059 25.5363C77.5739 24.5243 77.2439 22.9623 76.8919 21.7523L75.5279 22.0823ZM71.7439 21.3783C71.7439 21.0263 72.7779 20.5203 72.7779 20.5203V20.4763C73.7459 19.2223 74.8459 17.3083 75.5939 15.4823L73.9659 14.9103C73.4379 16.6483 72.4259 18.4743 72.1179 18.9363C71.8099 19.4203 71.5019 19.7503 71.2159 19.8163C71.3919 20.2343 71.6559 21.0483 71.7439 21.3783ZM71.7439 21.3783C72.0739 21.2023 72.6459 21.0923 75.4839 20.7403C75.4839 20.4103 75.5279 19.8163 75.6159 19.3763L72.4919 19.6623L71.7219 20.1683L71.7439 21.3783ZM71.6999 25.7123C71.6999 25.3823 72.6459 24.8763 72.6459 24.8763V24.8323C74.3839 23.1163 76.1879 20.6743 77.5519 18.2543L76.0559 17.4183C74.9559 19.7943 73.0859 22.3023 72.5359 22.9403C72.0079 23.5783 71.5899 24.0403 71.1719 24.1283C71.3699 24.5683 71.6339 25.3603 71.6999 25.7123ZM71.6999 25.7123C72.0959 25.5143 72.7559 25.3603 76.8919 24.7883C76.8919 24.4583 76.9139 23.8423 76.9799 23.4463L72.4479 23.9743L71.6559 24.4803L71.6999 25.7123ZM84.6579 21.5543C84.6579 21.2023 85.6919 20.6743 85.6919 20.6743V20.6303C86.7039 19.3323 87.8259 17.3303 88.5959 15.4163L86.9019 14.8883C86.3519 16.6703 85.3399 18.5623 85.0099 19.0463C84.7019 19.5303 84.4159 19.9043 84.1079 19.9483C84.3059 20.3883 84.5699 21.2023 84.6579 21.5543ZM84.6579 21.5543C85.0099 21.4003 85.6039 21.2463 88.8379 20.8503C88.8599 20.4983 88.9039 19.8603 88.9699 19.4203L85.4059 19.7943L84.6139 20.2783L84.6579 21.5543ZM84.8559 25.9103C84.8559 25.5583 85.8239 25.0523 85.8239 25.0523V24.9863C87.5839 23.3143 89.4099 20.8503 90.8179 18.4743L89.2559 17.6163C88.1559 19.9923 86.2639 22.4563 85.6919 23.0943C85.1639 23.7543 84.7239 24.1723 84.3059 24.2823C84.5039 24.7223 84.7679 25.5583 84.8559 25.9103ZM84.8559 25.9103C85.2519 25.7123 85.9339 25.5803 90.1139 25.0963C90.1139 24.7663 90.1799 24.1503 90.2459 23.7103L85.6479 24.1723L84.8119 24.6563L84.8559 25.9103ZM77.1999 29.4303C75.7919 30.8823 73.0419 32.1583 70.5119 32.7303C70.9739 33.1263 71.5899 33.9183 71.8979 34.4463C74.5159 33.6763 77.3319 32.0043 78.9159 30.0903L77.1999 29.4303ZM83.2939 30.5523C85.4279 31.6963 88.1779 33.4343 89.4979 34.6003L90.8399 33.0823C89.4319 31.9383 86.6159 30.2883 84.5259 29.2323L83.2939 30.5523ZM101.84 27.3183C99.9259 28.9463 96.1419 30.2223 92.7099 30.7723C93.1059 31.1683 93.6119 31.8503 93.8539 32.3123C97.3739 31.6083 101.246 30.0463 103.468 28.0443L101.84 27.3183ZM104.216 27.1203L102.522 27.5163C104.128 31.5203 107.142 33.9183 111.982 34.8643C112.224 34.3583 112.73 33.6103 113.126 33.1923C108.572 32.4883 105.558 30.4423 104.216 27.1203ZM110.354 28.3523C109.254 29.1663 107.362 30.2663 105.976 30.9043L107.252 31.9383C108.66 31.3223 110.464 30.3983 111.85 29.4303L110.354 28.3523ZM93.0839 26.6803V28.3523H112.796V26.6803H93.0839ZM105.602 15.8343V23.0943H107.472V15.8343H105.602ZM109.848 14.9103V23.8643C109.848 24.1503 109.738 24.2383 109.43 24.2383C109.1 24.2603 108.044 24.2603 106.922 24.2163C107.186 24.7003 107.472 25.4043 107.56 25.9103C109.1 25.9103 110.134 25.8883 110.838 25.6023C111.52 25.3383 111.718 24.8763 111.718 23.9083V14.9103H109.848ZM97.8139 14.7123V25.9763H99.6179V14.7123H97.8139ZM101.928 21.2023V23.8203C101.928 23.9963 101.862 24.0623 101.686 24.0623C101.51 24.0843 100.96 24.0843 100.344 24.0623C100.52 24.4143 100.784 24.8983 100.85 25.3163C101.818 25.3163 102.5 25.3163 103.006 25.0963C103.512 24.8763 103.622 24.5243 103.622 23.8203V21.2023H101.928ZM94.0299 21.2023V25.4263H95.6579V22.5223H102.632V21.2023H94.0299ZM93.0179 18.7603V20.2123H104.084V18.7603H93.0179ZM95.3499 16.2303L94.7999 17.6163H103.402V16.2303H95.3499ZM94.9319 14.7783C94.5579 15.9443 93.9419 17.1763 93.1939 18.0343C93.5679 18.2323 94.2719 18.6063 94.6019 18.8483C95.3279 17.9243 96.0539 16.4943 96.5159 15.1523L94.9319 14.7783ZM97.1979 35.2163C97.6379 34.9303 98.3419 34.7323 103.93 33.4343C103.908 33.0603 103.974 32.3563 104.018 31.8723L97.8799 33.1703L97.1099 33.7863L97.1979 35.2163ZM97.2199 35.1943C97.2199 34.4463 99.3759 33.1043 99.3759 33.1043V29.9803H97.4619V31.8943C97.4619 32.9723 96.8899 33.4563 96.5159 33.7203C96.7579 34.0283 97.1099 34.7543 97.2199 35.1943ZM101.642 25.4043C102.038 26.1523 102.478 27.1863 102.61 27.8023L104.656 27.1643C104.48 26.5483 104.018 25.5803 103.578 24.8763L101.642 25.4043ZM124.698 18.3643L123.73 20.3443H135.192V18.3643H124.698ZM127.514 23.1603V25.0523H134.664V23.1603H127.514ZM127.492 28.0223V29.9803H134.95V28.0223H127.492ZM126.458 19.0243V35.1283H128.592V19.0243H126.458ZM125.402 14.9543C124.346 18.1663 122.586 21.3563 120.606 23.3803C121.068 23.7103 121.882 24.4583 122.212 24.8323C124.236 22.5443 126.172 19.0023 127.404 15.4823L125.402 14.9543ZM119.88 14.8003C118.692 18.0563 116.69 21.2903 114.578 23.3583C114.952 23.8643 115.568 25.0303 115.766 25.5143C118.164 23.0503 120.452 19.1783 121.882 15.4383L119.88 14.8003ZM117.592 20.6523V35.1063H119.682V18.5843L119.66 18.5623L117.592 20.6523Z" fill="#007282"/>
<path d="M7.65002 32.2107C11.1791 32.2107 14.04 29.3498 14.04 25.8207C14.04 22.2916 11.1791 19.4307 7.65002 19.4307C4.12092 19.4307 1.26001 22.2916 1.26001 25.8207C1.26001 29.3498 4.12092 32.2107 7.65002 32.2107Z" fill="#FF855E" stroke="#603813" stroke-width="2.11" stroke-miterlimit="10"/>
</svg>
