<svg width="180" height="47" viewBox="0 0 180 47" fill="none" xmlns="http://www.w3.org/2000/svg">
<path d="M172.74 1H17.5699C14.4495 1 11.9199 3.52959 11.9199 6.65V35.3C11.9199 38.4204 14.4495 40.95 17.5699 40.95H172.74C175.86 40.95 178.39 38.4204 178.39 35.3V6.65C178.39 3.52959 175.86 1 172.74 1Z" fill="#00C7C3" stroke="#603813" stroke-width="1.43" stroke-miterlimit="10"/>
<path d="M167.89 5.83984H12.72C9.59956 5.83984 7.06995 8.36944 7.06995 11.4898V40.1398C7.06995 43.2603 9.59956 45.7898 12.72 45.7898H167.89C171.01 45.7898 173.54 43.2603 173.54 40.1398V11.4898C173.54 8.36944 171.01 5.83984 167.89 5.83984Z" fill="white" stroke="#603813" stroke-width="1.43" stroke-miterlimit="10"/>
<path d="M55.8399 26.3503V33.5443H57.9739V26.3503H55.8399ZM49.7239 20.1903V21.9723H64.2659V20.1903H49.7239ZM47.2159 32.6863V34.5343H66.7519V32.6863H47.2159ZM49.1739 28.3963V30.2003H64.8819V28.3963H49.1739ZM59.2059 22.8963C60.7459 24.1283 62.5939 25.8883 63.4519 27.0323L65.0799 25.9103C64.1559 24.7443 62.2419 23.0723 60.7239 21.9063L59.2059 22.8963ZM47.3919 16.5823V20.6303H49.4159V18.4743H64.3759V20.6303H66.4879V16.5823H47.3919ZM50.1199 26.8123C50.1199 26.4383 51.3299 25.9103 51.3299 25.9103V25.8663C53.1999 24.7663 55.1359 23.1823 56.7639 21.5323L55.0919 20.4103C53.6839 22.1263 51.6819 23.7543 51.0439 24.1723C50.4499 24.6123 49.9659 24.8983 49.5039 24.9643C49.7239 25.4923 50.0099 26.4383 50.1199 26.8123ZM50.1199 26.8123C50.8899 26.5263 52.0339 26.4383 62.8799 25.5803C62.7699 25.2283 62.6159 24.5243 62.5499 24.0623L51.2199 24.8323L50.0759 25.4703L50.1199 26.8123ZM55.3559 15.0423C55.7959 15.8563 56.2579 16.9563 56.4339 17.6383L58.5459 17.0003C58.3699 16.2963 57.8419 15.2403 57.3579 14.4483L55.3559 15.0423ZM70.2279 19.6403V35.1503H72.3399V21.6863H86.7059V19.6403H70.2279ZM85.6499 19.6403V32.5763C85.6499 32.9063 85.5399 33.0383 85.1439 33.0383C84.7259 33.0603 83.2959 33.0603 81.9319 33.0163C82.2399 33.5883 82.5699 34.5343 82.6579 35.1283C84.5279 35.1283 85.8479 35.1063 86.7059 34.7763C87.5199 34.4243 87.7619 33.8083 87.7619 32.5983V19.6403H85.6499ZM74.1219 15.6583V17.5063H78.9179V15.6583H74.1219ZM77.5319 15.6583V16.6483H77.9279C78.2359 22.7863 79.8199 27.6043 84.1979 29.9583C84.5279 29.4083 85.2319 28.5723 85.6939 28.1543C81.4699 26.2403 80.0399 21.7083 79.7979 15.6583H77.5319ZM77.7299 20.1463C77.1579 24.1283 75.3979 26.9003 72.2079 28.4403C72.6479 28.7923 73.3299 29.6063 73.6159 30.0903C77.1139 28.2643 78.9179 25.0523 79.6659 20.4763L77.7299 20.1463ZM91.8099 21.4003V23.0063H98.4319V21.4003H91.8099ZM91.8099 24.3263V25.9323H98.4759V24.3263H91.8099ZM90.8859 18.4083V20.1023H99.3779V18.4083H90.8859ZM92.7339 27.3183V29.0123H96.6279V32.1583H92.7339V33.8523H98.4539V27.3183H92.7339ZM91.8099 27.3183V34.8423H93.6139V27.3183H91.8099ZM93.1959 15.4163C93.7899 16.3403 94.4939 17.6383 94.8019 18.4523L96.4959 17.5063C96.1439 16.7143 95.4399 15.5263 94.8239 14.6243L93.1959 15.4163ZM101.468 15.4823V17.4183H107.254V15.4823H101.468ZM99.0699 24.3703V26.3063H108.772V24.3703H99.0699ZM108.024 24.3703V24.7003C106.682 29.3423 102.81 32.2023 98.2559 33.2583C98.6299 33.7203 99.0919 34.5783 99.3119 35.1283C104.306 33.6983 108.42 30.6183 110.07 24.8323L108.772 24.2823L108.42 24.3703H108.024ZM101.644 26.1083L99.8619 26.7243C101.82 30.9703 105.186 33.8523 109.982 35.0843C110.246 34.5123 110.818 33.6323 111.28 33.1923C106.682 32.2243 103.272 29.6503 101.644 26.1083ZM101.094 15.4823V17.8803C101.094 19.3983 100.764 21.1143 98.3659 22.4123C98.7399 22.7203 99.4659 23.5123 99.7079 23.9303C102.414 22.4123 103.008 19.9923 103.008 17.9463V15.4823H101.094ZM106.22 15.4823V20.4323C106.22 22.3463 106.572 23.0943 108.288 23.0943C108.574 23.0943 109.322 23.0943 109.608 23.0943C110.048 23.0943 110.488 23.0723 110.774 22.9403C110.686 22.4783 110.642 21.7083 110.62 21.2023C110.334 21.2683 109.894 21.3123 109.608 21.3123C109.388 21.3123 108.684 21.3123 108.464 21.3123C108.178 21.3123 108.156 21.0923 108.156 20.4543V15.4823H106.22ZM114.228 21.4003V23.0063H121.532V21.4003H114.228ZM114.228 24.3263V25.9323H121.488V24.3263H114.228ZM113.26 18.4083V20.1023H122.456V18.4083H113.26ZM115.262 27.3183V29.0123H119.728V32.1583H115.262V33.8523H121.532V27.3183H115.262ZM114.36 27.3183V34.8423H116.142V27.3183H114.36ZM115.79 15.4163C116.384 16.3403 117.088 17.6383 117.418 18.4523L119.068 17.5063C118.716 16.7143 118.034 15.5263 117.418 14.6243L115.79 15.4163ZM122.412 22.2143V24.2603H133.016V22.2143H122.412ZM126.526 15.1083V35.1283H128.682V15.1083H126.526Z" fill="#007282"/>
<path d="M7.45996 32.2107C10.9891 32.2107 13.8499 29.3498 13.8499 25.8207C13.8499 22.2916 10.9891 19.4307 7.45996 19.4307C3.93086 19.4307 1.06995 22.2916 1.06995 25.8207C1.06995 29.3498 3.93086 32.2107 7.45996 32.2107Z" fill="#FF855E" stroke="#603813" stroke-width="2.11" stroke-miterlimit="10"/>
</svg>
