<svg width="180" height="47" viewBox="0 0 180 47" fill="none" xmlns="http://www.w3.org/2000/svg">
<path d="M173.47 1H18.2999C15.1795 1 12.6499 3.52959 12.6499 6.65V35.3C12.6499 38.4204 15.1795 40.95 18.2999 40.95H173.47C176.59 40.95 179.12 38.4204 179.12 35.3V6.65C179.12 3.52959 176.59 1 173.47 1Z" fill="#00C7C3" stroke="#603813" stroke-width="1.43" stroke-miterlimit="10"/>
<path d="M168.76 5.83984H13.59C10.4695 5.83984 7.93994 8.36944 7.93994 11.4898V40.1398C7.93994 43.2603 10.4695 45.7898 13.59 45.7898H168.76C171.88 45.7898 174.41 43.2603 174.41 40.1398V11.4898C174.41 8.36944 171.88 5.83984 168.76 5.83984Z" fill="white" stroke="#603813" stroke-width="1.43" stroke-miterlimit="10"/>
<path d="M48.3114 33.2803H50.8634V21.1803H48.3114V33.2803ZM49.5874 18.9143C50.5114 18.9143 51.1714 18.3203 51.1714 17.3963C51.1714 16.4943 50.5114 15.9003 49.5874 15.9003C48.6414 15.9003 48.0254 16.4943 48.0254 17.3963C48.0254 18.3203 48.6414 18.9143 49.5874 18.9143ZM54.8693 33.2803H57.4433V27.1423H59.8853C63.4053 27.1423 65.9793 25.5363 65.9793 21.9943C65.9793 18.3203 63.4053 17.0883 59.7973 17.0883H54.8693V33.2803ZM57.4433 25.0963V19.1563H59.5333C62.1293 19.1563 63.4493 19.8383 63.4493 21.9943C63.4493 24.1063 62.2173 25.0963 59.6433 25.0963H57.4433ZM70.7007 33.5883C72.1527 33.5883 73.4507 32.8623 74.5507 31.9163H74.6387L74.8367 33.2803H76.9267V26.0203C76.9267 22.7863 75.5407 20.8723 72.5267 20.8723C70.5907 20.8723 68.8747 21.6863 67.6427 22.4563L68.5887 24.1943C69.6007 23.5343 70.8107 22.9403 72.0867 22.9403C73.8467 22.9403 74.3527 24.1723 74.3747 25.5803C69.3587 26.1303 67.1587 27.4723 67.1587 30.0683C67.1587 32.2023 68.6327 33.5883 70.7007 33.5883ZM71.4927 31.5643C70.4147 31.5643 69.6007 31.0803 69.6007 29.8923C69.6007 28.5283 70.7887 27.6263 74.3747 27.2083V30.1563C73.3847 31.0803 72.5487 31.5643 71.4927 31.5643ZM84.675 33.5883C86.039 33.5883 87.293 32.8623 88.217 31.9383H88.283L88.481 33.2803H90.571V15.7683H88.019V20.2343L88.129 22.2363C87.161 21.4003 86.259 20.8723 84.873 20.8723C82.189 20.8723 79.703 23.3143 79.703 27.2523C79.703 31.2563 81.639 33.5883 84.675 33.5883ZM85.291 31.4763C83.399 31.4763 82.321 29.9583 82.321 27.2083C82.321 24.6123 83.685 22.9843 85.379 22.9843C86.281 22.9843 87.139 23.2923 88.019 24.1063V30.0023C87.161 31.0143 86.281 31.4763 85.291 31.4763ZM93.1204 26.1743L93.6044 28.1983C95.4304 27.6483 97.7184 26.9443 99.8524 26.2403L99.5884 24.3483C97.2124 25.0743 94.7704 25.7783 93.1204 26.1743ZM93.4504 19.0463V20.9603H99.6104V19.0463H93.4504ZM95.8044 14.7343V32.6643C95.8044 32.9283 95.7164 33.0163 95.4744 33.0163C95.2104 33.0383 94.4624 33.0383 93.6484 33.0163C93.9124 33.5443 94.1324 34.4243 94.1984 34.9303C95.5184 34.9303 96.3764 34.8643 96.9484 34.5343C97.5424 34.2263 97.7184 33.6763 97.7184 32.6643V14.7343H95.8044ZM106.056 16.4063V33.0603H108.014V16.4063H106.056ZM100.402 19.3103V21.1803H113.58V19.3103H100.402ZM100.886 23.8203V35.1723H102.888V24.4803L100.886 23.8203ZM104.318 22.5003C103.526 23.0063 102.14 23.5123 100.886 23.8203C101.106 24.2163 101.392 24.8543 101.48 25.2283C102.866 24.9423 104.56 24.4803 105.836 23.8423L104.318 22.5003ZM108.652 23.2703V25.0523H111.226V35.1503H113.162V23.2703H108.652ZM101.81 27.6483V29.3863H105.264V27.6483H101.81ZM108.762 27.6263V29.3643H112.326V27.6263H108.762ZM101.788 32.2683V34.0943H112.436V32.2683H101.788ZM101.392 15.5043V17.3303H112.59V15.5043H101.392ZM124.404 27.3183V31.7403H126.34V27.3183H124.404ZM115.516 33.1043V34.5343H135.426V33.1043H115.516ZM115.582 18.1883V19.3983H135.338V18.1883H115.582ZM115.516 24.7663V26.1303H135.448V24.7663H115.516ZM117.166 22.5883V23.7763H133.886V22.5883H117.166ZM117.914 16.0543V17.2423H130.916V20.4323H117.782V21.6203H133.028V16.0543H117.914ZM124.294 14.6903V25.3603H126.406V14.6903H124.294ZM120.07 30.1123H130.938V31.1243H120.07V30.1123ZM120.07 28.0883H130.938V29.0563H120.07V28.0883ZM118.024 26.9663V32.2243H133.05V26.9663H118.024Z" fill="#007282"/>
<path d="M8.19994 32.2107C11.729 32.2107 14.5899 29.3498 14.5899 25.8207C14.5899 22.2916 11.729 19.4307 8.19994 19.4307C4.67084 19.4307 1.80994 22.2916 1.80994 25.8207C1.80994 29.3498 4.67084 32.2107 8.19994 32.2107Z" fill="#FF855E" stroke="#603813" stroke-width="2.11" stroke-miterlimit="10"/>
</svg>
