<svg width="180" height="47" viewBox="0 0 180 47" fill="none" xmlns="http://www.w3.org/2000/svg">
<path d="M173.29 1H18.12C14.9996 1 12.47 3.52959 12.47 6.65V35.3C12.47 38.4204 14.9996 40.95 18.12 40.95H173.29C176.41 40.95 178.94 38.4204 178.94 35.3V6.65C178.94 3.52959 176.41 1 173.29 1Z" fill="#00C7C3" stroke="#603813" stroke-width="1.43" stroke-miterlimit="10"/>
<path d="M168.45 5.83984H13.2799C10.1595 5.83984 7.62988 8.36944 7.62988 11.4898V40.1398C7.62988 43.2603 10.1595 45.7898 13.2799 45.7898H168.45C171.57 45.7898 174.1 43.2603 174.1 40.1398V11.4898C174.1 8.36944 171.57 5.83984 168.45 5.83984Z" fill="white" stroke="#603813" stroke-width="1.43" stroke-miterlimit="10"/>
<path d="M51.3819 21.7083V35.0843H53.3619V23.4243H67.7059V21.7083H51.3819ZM66.6499 21.7083V33.0383C66.6499 33.3463 66.5179 33.4563 66.1439 33.4563C65.8139 33.4783 64.5379 33.5003 63.3059 33.4563C63.5479 33.8963 63.8119 34.5563 63.8999 35.0183C65.7259 35.0183 66.8919 34.9963 67.5959 34.7543C68.3219 34.4903 68.5639 34.0283 68.5639 33.0383V21.7083H66.6499ZM56.8159 27.1643V28.6603H62.3159V30.8823H56.8159V32.3563H64.0319V27.1643H56.8159ZM55.7159 27.1643V33.3463H57.4759V27.1643H55.7159ZM50.2159 16.9783V18.7603H69.6859V16.9783H50.2159ZM54.8579 19.2443C55.3199 20.0583 55.8699 21.1583 56.1339 21.8183L57.9819 21.1143C57.6959 20.4763 57.1019 19.4423 56.6399 18.6723L54.8579 19.2443ZM63.1299 18.7823C62.7779 19.7723 62.0519 21.1803 61.4799 22.0823L63.0859 22.5223C63.7239 21.7083 64.5159 20.4103 65.2199 19.2443L63.1299 18.7823ZM58.5099 15.0863C58.8619 15.9883 59.2579 17.2203 59.4339 17.9903L61.5019 17.3963C61.2819 16.6483 60.8639 15.4823 60.4899 14.5803L58.5099 15.0863ZM56.9479 22.6103C56.7939 24.5903 56.1779 25.5143 53.3399 26.0203C53.6919 26.3503 54.1539 27.0323 54.2859 27.4503C57.6959 26.7023 58.5539 25.2723 58.7739 22.6103H56.9479ZM60.7759 22.6323V24.4363C60.7759 25.8883 61.0619 26.5703 62.6019 26.5703C62.9759 26.5703 64.2739 26.5703 64.6919 26.5703C65.1539 26.5703 65.7259 26.5483 66.0119 26.4383C65.9459 25.9983 65.9239 25.4923 65.8799 25.0083C65.5719 25.0963 64.9779 25.1183 64.6479 25.1183C64.3399 25.1183 63.3279 25.1183 63.0419 25.1183C62.6679 25.1183 62.6239 24.9423 62.6239 24.4583V22.6323H60.7759ZM72.2599 28.2423V29.9803H91.6859V28.2423H72.2599ZM72.3259 18.4963V20.1683H91.5979V18.4963H72.3259ZM73.2279 22.3903V24.0183H90.7839V22.3903H73.2279ZM74.3279 25.3603V26.9003H89.7279V25.3603H74.3279ZM80.8619 23.1603V35.1503H82.9299V23.1603H80.8619ZM78.9259 14.6903V19.3323H80.8619V14.6903H78.9259ZM83.0399 14.6903V19.2223H85.0199V14.6903H83.0399ZM88.1439 14.9323C87.7919 15.9223 87.1319 17.3303 86.5599 18.2323L88.2539 18.7823C88.8479 17.9243 89.6179 16.6923 90.2999 15.4823L88.1439 14.9323ZM85.3499 20.0583C85.0639 20.6523 84.4919 21.5543 84.0739 22.1703L85.8119 22.6983C86.3179 22.1703 86.9339 21.4223 87.5279 20.6303L85.3499 20.0583ZM74.0419 15.5043C74.7239 16.5163 75.4499 17.9023 75.7359 18.7823L77.6059 18.0783C77.3199 17.1983 76.5499 15.8563 75.8239 14.8883L74.0419 15.5043ZM76.7039 20.4763C77.1439 21.1583 77.6059 22.0823 77.7819 22.6543L79.8059 22.1483C79.5859 21.5543 79.1019 20.6743 78.6619 20.0363L76.7039 20.4763ZM78.5079 30.9263C77.1219 31.8283 74.4159 32.6423 72.1499 32.9943C72.5679 33.3683 73.1399 34.0503 73.4039 34.5123C75.6919 34.0063 78.4859 32.8623 80.0259 31.6303L78.5079 30.9263ZM84.1399 31.8503C86.1419 32.6203 88.8699 33.7863 90.2339 34.4903L91.6419 33.2803C90.1679 32.5763 87.4399 31.4983 85.4819 30.7943L84.1399 31.8503ZM93.6659 26.2183L94.3039 28.1763C95.9759 27.2523 97.9999 26.0643 99.8479 24.9423L99.2979 23.1163C97.2519 24.3263 95.0739 25.5143 93.6659 26.2183ZM93.9079 19.0463V20.9603H99.8479V19.0463H93.9079ZM96.1959 14.7123V32.6643C96.1959 32.9503 96.0859 33.0383 95.8219 33.0383C95.5799 33.0383 94.8319 33.0383 93.9959 33.0163C94.2599 33.5663 94.5019 34.4463 94.5459 34.9523C95.8659 34.9743 96.7459 34.8863 97.3399 34.5783C97.9119 34.2263 98.1099 33.6983 98.1099 32.6643V14.7123H96.1959ZM100.838 15.4383V16.8903H113.488V15.4383H100.838ZM100.046 24.7663V26.2183H106.756V24.7663H100.046ZM102.84 15.9883V22.8963L104.776 22.8303V15.9883H102.84ZM100.882 25.3603V32.5103L102.466 32.3783V25.3603H100.882ZM99.6719 31.7623L99.8919 33.2803C101.564 33.1043 103.632 32.9063 105.722 32.6863V31.3663C103.456 31.5423 101.256 31.6743 99.6719 31.7623ZM109.176 16.0103V24.3263H111.134V16.0103H109.176ZM104.006 17.7923V18.8923H109.946V17.7923H104.006ZM101.608 27.1863V28.3303H105.172V27.1863H101.608ZM101.608 29.3643V30.5303H105.238V29.3643H101.608ZM107.108 24.7663V26.2183H114.06V24.7663H107.108ZM107.922 25.3603V32.5103L109.506 32.3343V25.3603H107.922ZM104.006 19.8603V20.9603H109.858V19.8603H104.006ZM104.49 25.3603V35.1283H106.074V25.3603H104.49ZM108.802 27.1643V28.3083H112.212V27.1643H108.802ZM108.802 29.2983V30.4643H112.256V29.2983H108.802ZM111.552 25.3603V35.1283H113.158V25.3603H111.552ZM100.244 21.9283V23.4463H114.016V21.9283H100.244ZM106.866 31.4983V32.9503H114.148V31.4983H106.866ZM133.178 15.1303C131.968 16.8903 129.724 18.7163 127.81 19.7723C128.36 20.1463 128.976 20.7623 129.306 21.2023C131.396 19.9263 133.618 17.9903 135.136 15.9223L133.178 15.1303ZM133.816 21.0923C132.496 22.9843 129.988 24.8983 127.854 25.9983C128.382 26.3723 128.976 27.0103 129.306 27.4723C131.594 26.1303 134.102 24.0843 135.73 21.8843L133.816 21.0923ZM134.234 27.3623C132.804 29.8703 130.054 32.1143 127.282 33.3903C127.788 33.8083 128.382 34.4903 128.712 34.9963C131.704 33.4343 134.476 30.9923 136.148 28.0883L134.234 27.3623ZM116.084 22.8743V24.5023H128.118V22.8743H116.084ZM119.318 26.8783H125.038V28.4183H119.318V26.8783ZM117.382 25.4483V29.8263H127.062V25.4483H117.382ZM123.96 30.7503C124.686 31.8283 125.5 33.2803 125.852 34.2043L127.414 33.4123C127.04 32.5323 126.16 31.1463 125.434 30.0903L123.96 30.7503ZM119.098 19.2003H125.302V20.3223H119.098V19.2003ZM119.098 16.8243H125.302V17.9243H119.098V16.8243ZM117.14 15.4823V21.6423H127.348V15.4823H117.14ZM121.122 29.0563V33.1043C121.122 33.3023 121.078 33.3683 120.814 33.3683C120.594 33.3903 119.868 33.3903 119.076 33.3683C119.318 33.8523 119.582 34.5343 119.67 35.0623C120.88 35.0623 121.76 35.0623 122.376 34.7763C123.014 34.5123 123.168 34.0503 123.168 33.1483V29.0563H121.122ZM118.13 30.1343C117.646 31.2563 116.876 32.4223 116.04 33.2583C116.458 33.5223 117.162 34.0723 117.492 34.3583C118.35 33.4563 119.296 31.9603 119.868 30.6403L118.13 30.1343ZM120.748 22.0383C121.056 22.5883 121.386 23.3803 121.518 23.8643L123.564 23.4023C123.432 22.8743 123.058 22.1263 122.706 21.6203L120.748 22.0383Z" fill="#007282"/>
<path d="M8.01987 32.2107C11.549 32.2107 14.4099 29.3498 14.4099 25.8207C14.4099 22.2916 11.549 19.4307 8.01987 19.4307C4.49077 19.4307 1.62988 22.2916 1.62988 25.8207C1.62988 29.3498 4.49077 32.2107 8.01987 32.2107Z" fill="#FF855E" stroke="#603813" stroke-width="2.11" stroke-miterlimit="10"/>
</svg>
