<svg width="180" height="47" viewBox="0 0 180 47" fill="none" xmlns="http://www.w3.org/2000/svg">
<path d="M173.11 1H17.9399C14.8195 1 12.2899 3.52959 12.2899 6.65V35.3C12.2899 38.4204 14.8195 40.95 17.9399 40.95H173.11C176.23 40.95 178.76 38.4204 178.76 35.3V6.65C178.76 3.52959 176.23 1 173.11 1Z" fill="#00C7C3" stroke="#603813" stroke-width="1.43" stroke-miterlimit="10"/>
<path d="M168.26 5.83984H13.09C9.96956 5.83984 7.43994 8.36944 7.43994 11.4898V40.1398C7.43994 43.2603 9.96956 45.7898 13.09 45.7898H168.26C171.38 45.7898 173.91 43.2603 173.91 40.1398V11.4898C173.91 8.36944 171.38 5.83984 168.26 5.83984Z" fill="white" stroke="#603813" stroke-width="1.43" stroke-miterlimit="10"/>
<path d="M67.1779 15.1303C65.9679 16.8903 63.7239 18.7163 61.8099 19.7723C62.3599 20.1463 62.9759 20.7623 63.3059 21.2023C65.3959 19.9263 67.6179 17.9903 69.1359 15.9223L67.1779 15.1303ZM67.8159 21.0923C66.4959 22.9843 63.9879 24.8983 61.8539 25.9983C62.3819 26.3723 62.9759 27.0103 63.3059 27.4723C65.5939 26.1303 68.1019 24.0843 69.7299 21.8843L67.8159 21.0923ZM68.2339 27.3623C66.8039 29.8703 64.0539 32.1143 61.2819 33.3903C61.7879 33.8083 62.3819 34.4903 62.7119 34.9963C65.7039 33.4343 68.4759 30.9923 70.1479 28.0883L68.2339 27.3623ZM50.0839 22.8743V24.5023H62.1179V22.8743H50.0839ZM53.3179 26.8783H59.0379V28.4183H53.3179V26.8783ZM51.3819 25.4483V29.8263H61.0619V25.4483H51.3819ZM57.9599 30.7503C58.6859 31.8283 59.4999 33.2803 59.8519 34.2043L61.4139 33.4123C61.0399 32.5323 60.1599 31.1463 59.4339 30.0903L57.9599 30.7503ZM53.0979 19.2003H59.3019V20.3223H53.0979V19.2003ZM53.0979 16.8243H59.3019V17.9243H53.0979V16.8243ZM51.1399 15.4823V21.6423H61.3479V15.4823H51.1399ZM55.1219 29.0563V33.1043C55.1219 33.3023 55.0779 33.3683 54.8139 33.3683C54.5939 33.3903 53.8679 33.3903 53.0759 33.3683C53.3179 33.8523 53.5819 34.5343 53.6699 35.0623C54.8799 35.0623 55.7599 35.0623 56.3759 34.7763C57.0139 34.5123 57.1679 34.0503 57.1679 33.1483V29.0563H55.1219ZM52.1299 30.1343C51.6459 31.2563 50.8759 32.4223 50.0399 33.2583C50.4579 33.5223 51.1619 34.0723 51.4919 34.3583C52.3499 33.4563 53.2959 31.9603 53.8679 30.6403L52.1299 30.1343ZM54.7479 22.0383C55.0559 22.5883 55.3859 23.3803 55.5179 23.8643L57.5639 23.4023C57.4319 22.8743 57.0579 22.1263 56.7059 21.6203L54.7479 22.0383ZM83.1939 20.7623H88.9579V22.6323H83.1939V20.7623ZM83.1939 24.2163H88.9579V26.0863H83.1939V24.2163ZM83.1939 17.3303H88.9579V19.1783H83.1939V17.3303ZM81.3019 15.6583V27.7803H90.9599V15.6583H81.3019ZM86.5379 27.2303V32.6203C86.5379 34.4683 86.9119 35.0403 88.6059 35.0403C88.9359 35.0403 89.9479 35.0403 90.2779 35.0403C91.6639 35.0403 92.1699 34.2923 92.3459 31.3663C91.8179 31.2343 90.9819 30.9043 90.6079 30.5743C90.5419 32.9283 90.4759 33.2143 90.0579 33.2143C89.8379 33.2143 89.0899 33.2143 88.9139 33.2143C88.5399 33.2143 88.4739 33.1483 88.4739 32.5983V27.2303H86.5379ZM83.0619 27.5603C82.7979 30.5963 82.1379 32.5763 78.5299 33.6543C78.9259 34.0063 79.4319 34.7323 79.6079 35.1943C83.7219 33.8083 84.6459 31.3223 84.9539 27.5603H83.0619ZM72.0179 18.4523V20.3443H78.8159V18.4523H72.0179ZM75.0979 25.3603V35.1283H77.1219V22.9403L75.0979 25.3603ZM77.0339 23.5343L75.8459 24.5683C76.6599 25.4263 78.4199 27.4943 79.1239 28.5063L80.4219 26.7903C79.8939 26.2403 77.6939 24.0623 77.0339 23.5343ZM78.1999 18.4523V18.8483C77.0119 21.9503 74.1959 25.0963 71.4019 26.7023C71.6879 27.0983 72.1059 28.1983 72.2599 28.7923C75.3179 26.8123 78.5299 23.1383 80.0919 19.1783L78.9919 18.3863L78.6179 18.4523H78.1999ZM74.2839 15.7683C75.0319 16.6483 75.8679 17.8803 76.2419 18.6723L77.8699 17.5723C77.4959 16.7583 76.6379 15.6143 75.8459 14.7783L74.2839 15.7683ZM93.8859 27.1863L94.4139 29.2983C96.5259 28.7703 99.2759 28.0663 101.828 27.3623L101.608 25.4483C98.7919 26.1303 95.8439 26.8123 93.8859 27.1863ZM97.5599 14.7343V35.1283H99.5619V14.7343H97.5599ZM95.0079 16.3623C94.7659 19.0903 94.3039 21.9283 93.5119 23.7763C93.9079 23.9083 94.6779 24.1943 95.0299 24.3703C95.7779 22.4563 96.3059 19.5303 96.6139 16.6043L95.0079 16.3623ZM95.3379 19.1343L94.9199 21.1363H101.652V19.1343H95.3379ZM102.378 16.9123V18.8263H113.51V16.9123H102.378ZM103.258 21.2023V23.1383H112.806V21.2023H103.258ZM102.202 25.5363V27.4503H113.972V25.5363H102.202ZM106.822 14.6903V22.2583H108.868V14.6903H106.822ZM109.572 23.6883V32.6643C109.572 32.9503 109.484 33.0383 109.154 33.0383C108.802 33.0603 107.636 33.0603 106.47 33.0163C106.756 33.6103 107.064 34.4683 107.152 35.0623C108.736 35.0623 109.88 35.0403 110.628 34.7103C111.42 34.3803 111.64 33.8083 111.64 32.7083V23.6883H109.572ZM103.434 28.7923C104.402 29.8703 105.568 31.3883 106.074 32.3563L107.746 31.2783C107.196 30.3323 105.986 28.8803 104.996 27.8463L103.434 28.7923ZM116.084 17.8583V19.7283H126.336V17.8583H116.084ZM118.482 20.0583C117.778 21.7963 116.656 23.6443 115.534 24.8983C115.952 25.2063 116.678 25.8663 116.986 26.1963C118.13 24.7883 119.428 22.5883 120.264 20.6083L118.482 20.0583ZM122.178 23.6003C121.1 27.8243 118.922 31.1463 115.644 33.1263C116.062 33.4783 116.788 34.2483 117.074 34.6443C120.462 32.3563 122.838 28.7043 124.136 23.9523L122.178 23.6003ZM122.112 20.7623C123.124 22.0383 124.224 23.7763 124.62 24.8983L126.27 23.9523C125.83 22.8303 124.686 21.1583 123.652 19.9483L122.112 20.7623ZM117.822 25.5143C120.066 27.7363 122.662 30.8823 123.74 32.9283L125.412 31.6083C124.246 29.5623 121.584 26.5703 119.362 24.3923L117.822 25.5143ZM128.646 18.6503V20.5863H135.972V18.6503H128.646ZM128.976 14.6903C128.382 18.6283 127.326 22.4123 125.5 24.7883C125.918 25.1623 126.6 25.9983 126.842 26.4163C128.888 23.6663 130.164 19.4423 130.934 14.9983L128.976 14.6903ZM132.892 19.9483C132.012 26.9003 129.79 31.3003 124.51 33.6763C124.95 34.0503 125.676 34.8423 125.94 35.2383C131.352 32.4663 133.794 27.7363 134.872 20.1903L132.892 19.9483ZM129.042 21.7963L127.282 22.1923C128.58 27.9563 130.89 32.7303 134.85 35.1503C135.18 34.6223 135.84 33.8743 136.302 33.4783C132.518 31.4323 130.164 26.9003 129.042 21.7963ZM119.274 15.3283C119.868 16.1643 120.484 17.3083 120.748 18.0783L122.596 17.3083C122.31 16.5603 121.672 15.4823 121.034 14.6683L119.274 15.3283Z" fill="#007282"/>
<path d="M7.82996 32.2107C11.3591 32.2107 14.22 29.3498 14.22 25.8207C14.22 22.2916 11.3591 19.4307 7.82996 19.4307C4.30086 19.4307 1.43994 22.2916 1.43994 25.8207C1.43994 29.3498 4.30086 32.2107 7.82996 32.2107Z" fill="#FF855E" stroke="#603813" stroke-width="2.11" stroke-miterlimit="10"/>
</svg>
