<svg width="113" height="27" viewBox="0 0 113 27" fill="none" xmlns="http://www.w3.org/2000/svg">
<path d="M1.272 11H5.964V10.388H1.98V2.252H1.272V11ZM10.3206 11.168C12.4446 11.168 13.9566 9.38 13.9566 6.608C13.9566 3.836 12.4446 2.096 10.3206 2.096C8.19656 2.096 6.69656 3.824 6.69656 6.608C6.69656 9.38 8.19656 11.168 10.3206 11.168ZM10.3206 10.52C8.59256 10.52 7.44056 8.984 7.44056 6.608C7.44056 4.232 8.59256 2.744 10.3206 2.744C12.0486 2.744 13.2126 4.232 13.2126 6.608C13.2126 8.984 12.0486 10.52 10.3206 10.52ZM19.1956 11.168C20.3476 11.168 21.2596 10.748 21.8236 10.172V6.656H19.0876V7.268H21.1156V9.896C20.7316 10.28 20.0116 10.52 19.2676 10.52C17.2876 10.52 16.1476 8.984 16.1476 6.608C16.1476 4.232 17.3716 2.744 19.3156 2.744C20.2516 2.744 20.8516 3.152 21.2956 3.62L21.7156 3.152C21.2476 2.648 20.4916 2.096 19.3036 2.096C16.9876 2.096 15.4036 3.836 15.4036 6.62C15.4036 9.416 16.9396 11.168 19.1956 11.168ZM27.1018 11.168C29.2258 11.168 30.7378 9.38 30.7378 6.608C30.7378 3.836 29.2258 2.096 27.1018 2.096C24.9778 2.096 23.4778 3.824 23.4778 6.608C23.4778 9.38 24.9778 11.168 27.1018 11.168ZM27.1018 10.52C25.3738 10.52 24.2218 8.984 24.2218 6.608C24.2218 4.232 25.3738 2.744 27.1018 2.744C28.8298 2.744 29.9938 4.232 29.9938 6.608C29.9938 8.984 28.8298 10.52 27.1018 10.52ZM33.6608 5.612V6.176H40.7528V5.612H33.6608ZM40.5368 5.612V5.732C40.3568 9.428 40.1528 10.808 39.8048 11.144C39.6848 11.264 39.5288 11.288 39.2768 11.288C39.0008 11.288 38.1968 11.276 37.3328 11.204C37.4408 11.372 37.5128 11.6 37.5248 11.792C38.3048 11.84 39.0968 11.852 39.4808 11.828C39.8768 11.816 40.1048 11.744 40.3088 11.504C40.7408 11.06 40.9208 9.704 41.1128 5.936C41.1248 5.852 41.1368 5.612 41.1368 5.612H40.5368ZM36.4088 5.768C36.1568 8.108 35.5568 10.436 32.4488 11.468C32.5808 11.588 32.7488 11.804 32.8208 11.936C36.0368 10.808 36.7208 8.348 37.0328 5.768H36.4088ZM35.1848 1.376C34.5848 3.308 33.4688 4.904 32.0048 5.912C32.1488 6.008 32.4008 6.212 32.4968 6.332C33.9368 5.24 35.1128 3.584 35.7728 1.52L35.1848 1.376ZM36.9248 1.208V1.772H39.4688V1.208H36.9248ZM38.9288 1.208V1.568H39.1328C39.7928 3.56 41.1248 5.36 42.6008 6.32C42.6968 6.164 42.8888 5.936 43.0208 5.816C41.5808 4.952 40.2368 3.176 39.6008 1.208H38.9288ZM49.5608 5.144V5.696H54.8528V5.144H49.5608ZM53.6168 1.136C52.6328 1.568 50.8328 2.012 49.2728 2.312C49.3568 2.432 49.4408 2.648 49.4768 2.78C51.0728 2.504 52.9208 2.072 54.1208 1.58L53.6168 1.136ZM52.3928 5.336V11.9H52.9688V5.336H52.3928ZM44.2448 3.62V4.184H48.5768V3.62H44.2448ZM46.1648 0.991999V11.876H46.7288V0.991999H46.1648ZM46.1528 3.932C45.7568 5.768 44.8088 7.952 43.9328 9.056C44.0408 9.176 44.1968 9.404 44.2808 9.548C45.2048 8.36 46.1528 5.996 46.5848 4.064L46.1528 3.932ZM46.6448 4.82L46.3088 5.108C46.6808 5.564 47.7128 7.088 48.0128 7.652L48.4328 7.172C48.1688 6.776 46.9688 5.18 46.6448 4.82ZM49.2728 2.312V6.092C49.2728 7.76 49.1648 9.968 48.0728 11.564C48.2168 11.624 48.4568 11.78 48.5648 11.876C49.6808 10.232 49.8368 7.832 49.8368 6.092V2.312H49.2728ZM55.5728 13.136H56.1488L60.0968 1.568H59.5328L55.5728 13.136ZM61.3155 4.604V5.096H64.7955V4.604H61.3155ZM61.3155 6.152V6.644H64.7955V6.152H61.3155ZM60.8115 3.056V3.572H65.2995V3.056H60.8115ZM61.5555 7.712V8.24H64.2555V10.616H61.5555V11.132H64.7955V7.712H61.5555ZM61.3035 7.712V11.732H61.8315V7.712H61.3035ZM62.1795 1.196C62.5155 1.676 62.9115 2.336 63.1035 2.756L63.5835 2.456C63.3915 2.048 62.9955 1.424 62.6355 0.943999L62.1795 1.196ZM66.5715 1.46V2.012H69.6315V1.46H66.5715ZM65.2155 6.344V6.896H70.5195V6.344H65.2155ZM70.3035 6.344V6.464C69.4515 9.068 67.1115 10.748 64.7715 11.396C64.8915 11.528 65.0355 11.768 65.1075 11.924C67.5435 11.156 69.9555 9.428 70.9035 6.488L70.5315 6.32L70.4235 6.344H70.3035ZM66.3195 6.848L65.8155 7.028C66.7875 9.44 68.7195 11.192 71.3115 11.888C71.3955 11.732 71.5635 11.492 71.6955 11.372C69.1275 10.76 67.1955 9.08 66.3195 6.848ZM66.4515 1.46V2.792C66.4515 3.68 66.2235 4.736 64.9395 5.528C65.0475 5.624 65.2515 5.84 65.3235 5.96C66.7035 5.084 67.0155 3.824 67.0155 2.804V1.46H66.4515ZM69.3435 1.46V4.316C69.3435 5.06 69.4755 5.3 70.0755 5.3C70.1955 5.3 70.8075 5.3 70.9635 5.3C71.1675 5.3 71.3835 5.288 71.5035 5.252C71.4795 5.12 71.4555 4.868 71.4435 4.724C71.2995 4.748 71.0955 4.772 70.9635 4.772C70.8195 4.772 70.2315 4.772 70.0875 4.772C69.9315 4.772 69.9075 4.676 69.9075 4.34V1.46H69.3435ZM73.5315 4.604V5.096H77.3835V4.604H73.5315ZM73.5315 6.152V6.644H77.3595V6.152H73.5315ZM73.0035 3.056V3.572H77.8995V3.056H73.0035ZM73.8915 7.712V8.24H76.8435V10.616H73.8915V11.132H77.3715V7.712H73.8915ZM73.6515 7.712V11.732H74.1795V7.712H73.6515ZM74.4675 1.196C74.8155 1.676 75.2115 2.336 75.4155 2.756L75.8835 2.456C75.6915 2.048 75.2955 1.424 74.9355 0.943999L74.4675 1.196ZM77.8995 5.24V5.816H83.5995V5.24H77.8995ZM80.3955 1.22V11.888H80.9835V1.22H80.3955ZM85.0275 3.08V3.62H89.2155V3.08H85.0275ZM84.7395 5.852V6.404H89.4795V5.852H84.7395ZM86.8635 1.124V5.168C86.8635 7.052 86.7915 9.776 84.7155 11.336C84.8595 11.444 85.0395 11.636 85.1235 11.768C87.2835 10.028 87.4275 7.208 87.4275 5.156V1.124H86.8635ZM87.2235 7.244L86.8635 7.544C87.3315 8 88.6395 9.548 89.0355 10.112L89.4315 9.656C89.1075 9.272 87.6315 7.616 87.2235 7.244ZM90.5115 4.016H94.4235V5.48H90.5115V4.016ZM90.5115 5.996H94.4235V7.496H90.5115V5.996ZM90.5115 2.036H94.4235V3.488H90.5115V2.036ZM89.9475 1.496V8.036H94.9875V1.496H89.9475ZM92.9235 7.724V10.856C92.9235 11.528 93.0915 11.708 93.7635 11.708C93.9075 11.708 94.7115 11.708 94.8555 11.708C95.4915 11.708 95.6355 11.312 95.6955 9.716C95.5395 9.668 95.2995 9.584 95.1795 9.476C95.1435 10.976 95.0955 11.168 94.7955 11.168C94.6155 11.168 93.9555 11.168 93.8235 11.168C93.5235 11.168 93.4755 11.12 93.4755 10.868V7.724H92.9235ZM91.0635 7.844C90.8715 9.56 90.3075 10.808 88.3515 11.432C88.4715 11.54 88.6395 11.744 88.7115 11.864C90.7635 11.156 91.3995 9.788 91.6275 7.844H91.0635ZM97.0995 4.568V5.048H102.536V4.568H97.0995ZM96.7875 9.68V10.172H102.62V9.68H96.7875ZM103.352 4.364V4.892H106.448V4.364H103.352ZM99.5955 3.788V11.888H100.136V3.788H99.5955ZM103.088 4.364V10.508C103.088 11.384 103.364 11.588 104.3 11.588C104.516 11.588 106.244 11.588 106.472 11.588C107.36 11.588 107.54 11.144 107.612 9.584C107.456 9.548 107.228 9.464 107.072 9.356C107.036 10.76 106.952 11.048 106.448 11.048C106.076 11.048 104.6 11.048 104.336 11.048C103.76 11.048 103.652 10.94 103.652 10.52V4.364H103.088ZM106.112 4.364V8.036C106.112 8.18 106.076 8.216 105.908 8.228C105.704 8.24 105.152 8.24 104.384 8.228C104.468 8.396 104.564 8.624 104.6 8.792C105.476 8.792 106.016 8.78 106.304 8.684C106.604 8.576 106.688 8.384 106.688 8.036V4.364H106.112ZM98.0835 7.544H101.612V8.468H98.0835V7.544ZM98.0835 6.2H101.612V7.1H98.0835V6.2ZM97.5795 5.744V8.936H102.128V5.744H97.5795ZM98.2635 1.916V2.42H102.152V1.916H98.2635ZM103.268 1.916V2.432H107.6V1.916H103.268ZM98.6595 0.908C98.2395 1.94 97.5675 2.936 96.7995 3.62C96.9435 3.716 97.1595 3.908 97.2555 4.004C97.9875 3.272 98.7315 2.18 99.1875 1.052L98.6595 0.908ZM103.58 0.92C103.243 1.94 102.632 2.876 101.9 3.512C102.044 3.584 102.272 3.764 102.368 3.86C103.088 3.176 103.76 2.144 104.132 1.04L103.58 0.92ZM99.2355 2.756C99.6675 3.128 100.196 3.644 100.472 3.98L100.868 3.632C100.604 3.332 100.052 2.816 99.6195 2.468L99.2355 2.756ZM104.468 2.84C104.888 3.188 105.38 3.68 105.644 4.004L106.04 3.644C105.788 3.332 105.272 2.876 104.864 2.54L104.468 2.84ZM108.296 13.136H108.872L112.82 1.568H112.256L108.296 13.136ZM4.416 26.168C5.544 26.168 6.348 25.7 7.032 24.92L6.612 24.452C5.988 25.148 5.328 25.52 4.452 25.52C2.616 25.52 1.464 23.984 1.464 21.608C1.464 19.232 2.628 17.744 4.488 17.744C5.28 17.744 5.904 18.104 6.372 18.62L6.78 18.152C6.312 17.612 5.52 17.096 4.488 17.096C2.268 17.096 0.72 18.836 0.72 21.62C0.72 24.416 2.244 26.168 4.416 26.168ZM8.79544 26H9.50344V17.252H8.79544V26ZM14.369 26.168C16.097 26.168 17.201 25.136 17.201 23.78C17.201 22.448 16.373 21.896 15.365 21.452L14.069 20.876C13.433 20.6 12.581 20.24 12.581 19.232C12.581 18.332 13.313 17.744 14.441 17.744C15.293 17.744 15.977 18.104 16.493 18.62L16.901 18.152C16.349 17.564 15.485 17.096 14.441 17.096C12.941 17.096 11.849 17.996 11.849 19.292C11.849 20.588 12.845 21.14 13.625 21.488L14.921 22.064C15.785 22.448 16.481 22.772 16.481 23.84C16.481 24.836 15.677 25.52 14.381 25.52C13.385 25.52 12.473 25.064 11.849 24.356L11.393 24.848C12.101 25.628 13.109 26.168 14.369 26.168ZM19.2779 19.796V26.876H19.8419V20.324H28.0379V19.796H19.2779ZM27.7139 19.796V26.096C27.7139 26.288 27.6419 26.336 27.4379 26.348C27.2339 26.36 26.5379 26.36 25.6979 26.336C25.7819 26.48 25.8659 26.684 25.8899 26.828C26.9699 26.828 27.5459 26.816 27.8459 26.744C28.1579 26.648 28.2539 26.468 28.2539 26.096V19.796H27.7139ZM21.8699 22.7V23.18H25.3379V24.848H21.8699V25.316H25.8659V22.7H21.8699ZM21.6059 22.7V25.928H22.1219V22.7H21.6059ZM18.5339 17.372V17.9H28.9859V17.372H18.5339ZM21.1259 18.2C21.4139 18.644 21.7619 19.256 21.9419 19.628L22.4219 19.376C22.2659 19.04 21.8939 18.452 21.6059 18.02L21.1259 18.2ZM25.8659 18.068C25.6019 18.632 25.0979 19.46 24.7019 19.952L25.1699 20.108C25.5659 19.64 26.0699 18.872 26.4659 18.236L25.8659 18.068ZM23.1539 16.1C23.3699 16.604 23.6339 17.264 23.7539 17.684L24.3059 17.516C24.1739 17.108 23.9099 16.46 23.6699 15.956L23.1539 16.1ZM22.2059 20.024C22.0979 21.368 21.6059 21.98 19.9379 22.304C20.0459 22.4 20.1899 22.604 20.2379 22.724C22.0379 22.316 22.6019 21.572 22.7459 20.024H22.2059ZM24.3899 20.06V21.344C24.3899 21.992 24.5099 22.22 25.1219 22.22C25.2779 22.22 26.3219 22.22 26.5619 22.22C26.8139 22.22 27.0899 22.208 27.2339 22.172C27.2099 22.052 27.1979 21.848 27.1739 21.704C27.0059 21.74 26.7299 21.74 26.5499 21.74C26.3339 21.74 25.3739 21.74 25.1819 21.74C24.9539 21.74 24.9179 21.656 24.9179 21.356V20.06H24.3899ZM30.5579 23.432V23.96H40.9619V23.432H30.5579ZM30.6179 18.236V18.752H40.9139V18.236H30.6179ZM31.0979 20.252V20.768H40.4939V20.252H31.0979ZM31.7099 21.848V22.34H39.8939V21.848H31.7099ZM35.4419 20.456V26.9H36.0179V20.456H35.4419ZM34.3019 15.992V18.488H34.8659V15.992H34.3019ZM36.6059 15.992V18.476H37.1699V15.992H36.6059ZM39.4019 16.172C39.1739 16.724 38.7299 17.552 38.3819 18.068L38.8619 18.236C39.2099 17.756 39.6419 17.012 39.9779 16.352L39.4019 16.172ZM37.8059 18.752C37.6379 19.148 37.2899 19.748 37.0379 20.132L37.5059 20.288C37.7819 19.928 38.1059 19.412 38.3819 18.92L37.8059 18.752ZM31.6499 16.328C32.0819 16.904 32.5499 17.696 32.7299 18.188L33.2459 17.984C33.0659 17.48 32.5979 16.7 32.1419 16.148L31.6499 16.328ZM33.2219 18.908C33.5339 19.34 33.8339 19.916 33.9419 20.3L34.4819 20.132C34.3619 19.76 34.0619 19.184 33.7499 18.764L33.2219 18.908ZM34.2179 24.68C33.3899 25.244 31.7699 25.76 30.4859 25.988C30.6179 26.096 30.7859 26.288 30.8579 26.432C32.1299 26.168 33.7979 25.556 34.6859 24.92L34.2179 24.68ZM36.9539 25.016C38.1899 25.412 39.7979 26.024 40.6499 26.408L40.9499 25.964C40.0859 25.592 38.4779 25.028 37.2539 24.632L36.9539 25.016ZM47.5859 20.036V20.456H52.3619V20.036H47.5859ZM47.5859 21.248V21.668H52.4099V21.248H47.5859ZM47.4659 22.508V22.964H52.9259V22.508H47.4659ZM46.0499 17.696C45.4979 18.872 44.5979 20.048 43.6859 20.828C43.8059 20.9 44.0219 21.104 44.1059 21.188C45.0059 20.36 45.9419 19.112 46.5659 17.852L46.0499 17.696ZM47.9459 17.684C47.4779 18.764 46.7219 19.844 45.9299 20.576C46.0739 20.672 46.2899 20.828 46.3859 20.924C47.1419 20.156 47.9339 18.992 48.4619 17.828L47.9459 17.684ZM49.9259 19.004V22.712H50.4539V19.004H49.9259ZM46.6739 24.068V25.976C46.6739 26.648 46.9139 26.792 47.8619 26.792C48.0779 26.792 49.8419 26.792 50.0579 26.792C50.8139 26.792 51.0179 26.516 51.0659 25.364C50.9219 25.328 50.6939 25.244 50.5619 25.136C50.5259 26.156 50.4419 26.276 49.9979 26.276C49.6379 26.276 48.1619 26.276 47.8859 26.276C47.3099 26.276 47.2139 26.228 47.2139 25.976V24.068H46.6739ZM47.7059 23.672C48.4499 24.008 49.3139 24.536 49.7699 24.932L50.1299 24.524C49.6859 24.152 48.7859 23.648 48.0659 23.324L47.7059 23.672ZM50.7779 24.2C51.5099 24.896 52.2659 25.868 52.6019 26.528L53.0819 26.252C52.7459 25.604 51.9539 24.644 51.2219 23.96L50.7779 24.2ZM45.3059 24.092C45.0299 24.86 44.5259 25.76 43.8179 26.276L44.2739 26.564C45.0059 26.012 45.4619 25.088 45.7859 24.272L45.3059 24.092ZM47.8259 18.8L47.4779 19.256H52.6979V18.8H47.8259ZM47.2979 19.328V23.324H47.8139V18.848L47.2979 19.328ZM43.4339 16.976V17.504H53.1419V16.976H43.4339ZM43.1219 16.976V20.648C43.1219 22.4 43.0499 24.812 42.1739 26.564C42.3059 26.624 42.5339 26.804 42.6299 26.9C43.5419 25.076 43.6739 22.472 43.6739 20.648V16.976H43.1219ZM45.2219 19.568V23.336H45.7619V19.052H45.7499L45.2219 19.568ZM47.4059 15.944C47.7659 16.376 48.1259 16.976 48.2939 17.396L48.7859 17.144C48.6299 16.76 48.2459 16.172 47.8859 15.74L47.4059 15.944ZM49.3259 17.828C49.6499 18.14 49.9739 18.596 50.1299 18.92L50.5739 18.656C50.4059 18.356 50.0579 17.924 49.7339 17.6L49.3259 17.828ZM55.9979 16.856V17.42H63.9899V16.856H55.9979ZM55.9979 19.676V20.24H63.9419V19.676H55.9979ZM55.9019 22.568V23.12H63.9539V22.568H55.9019ZM55.6739 16.856V21.236C55.6739 22.928 55.5299 25.04 54.1979 26.564C54.3299 26.636 54.5579 26.828 54.6419 26.96C56.0459 25.364 56.2379 23.012 56.2379 21.236V16.856H55.6739ZM63.7139 16.856V25.952C63.7139 26.192 63.6299 26.264 63.3899 26.264C63.1619 26.276 62.3219 26.288 61.3859 26.264C61.4699 26.42 61.5779 26.684 61.6019 26.828C62.7659 26.84 63.4499 26.84 63.7979 26.744C64.1579 26.636 64.2899 26.432 64.2899 25.952V16.856H63.7139ZM59.4779 17.06V26.804H60.0659V17.06H59.4779Z" fill="#007282"/>
</svg>
