<svg width="162" height="14" viewBox="0 0 162 14" fill="none" xmlns="http://www.w3.org/2000/svg">
<path d="M4.92 4.352C4.728 6.14 4.38 8.72 4.08 10.172H4.668C4.908 8.756 5.268 6.188 5.484 4.352H4.92ZM6.636 5.252C7.2 5.672 7.824 6.308 8.1 6.74L8.484 6.464C8.196 6.02 7.56 5.408 6.996 5L6.636 5.252ZM6.324 7.844C6.9 8.312 7.548 8.996 7.836 9.464L8.232 9.188C7.932 8.72 7.284 8.06 6.708 7.616L6.324 7.844ZM4.968 2.444V2.984H11.208V2.444H4.968ZM5.232 4.352V4.88H10.236V4.352H5.232ZM3.384 6.896V7.448H11.484V6.896H3.384ZM4.392 9.644V10.172H11.136V9.644H4.392ZM5.388 0.991999C4.932 2.42 4.176 3.836 3.3 4.772C3.432 4.844 3.696 5.012 3.816 5.096C4.656 4.124 5.448 2.648 5.94 1.124L5.388 0.991999ZM10.044 4.352V4.484C9.852 9.092 9.648 10.736 9.288 11.12C9.18 11.264 9.06 11.288 8.832 11.288C8.604 11.288 7.992 11.276 7.32 11.216C7.416 11.36 7.464 11.588 7.488 11.744C8.076 11.792 8.676 11.816 9.012 11.792C9.348 11.768 9.576 11.696 9.78 11.432C10.188 10.952 10.38 9.392 10.584 4.688C10.584 4.592 10.584 4.352 10.584 4.352H10.044ZM1.152 1.544C1.896 1.88 2.784 2.408 3.228 2.792L3.576 2.336C3.12 1.952 2.232 1.448 1.5 1.148L1.152 1.544ZM0.552 5.084C1.236 5.408 2.088 5.936 2.508 6.296L2.844 5.84C2.412 5.48 1.572 4.988 0.876 4.676L0.552 5.084ZM0.924 11.36L1.428 11.696C1.944 10.604 2.58 9.02 3.024 7.748L2.58 7.424C2.1 8.78 1.416 10.412 0.924 11.36ZM18.6 5.624V6.128H22.68V5.624H18.6ZM18.312 1.58V11.876H18.864V2.12H22.5V1.58H18.312ZM22.272 1.58V3.932C22.272 4.064 22.224 4.1 22.032 4.112C21.828 4.136 21.228 4.136 20.376 4.112C20.472 4.28 20.556 4.484 20.592 4.64C21.54 4.64 22.116 4.64 22.428 4.544C22.74 4.448 22.812 4.268 22.812 3.92V1.58H22.272ZM19.572 5.84L19.08 5.972C19.812 8.528 21.228 10.784 23.124 11.828C23.232 11.672 23.424 11.444 23.556 11.324C21.684 10.424 20.244 8.24 19.572 5.84ZM22.5 5.624V5.78C22.056 7.988 20.76 10.34 18.756 11.528C18.9 11.636 19.068 11.78 19.164 11.912C21.252 10.64 22.584 8.252 23.1 5.732L22.716 5.588L22.608 5.624H22.5ZM12.996 2.324V2.852H17.46V2.324H12.996ZM12.624 8.768V9.284H17.796V8.768H12.624ZM12.636 4.28V4.82H17.772V4.28H12.636ZM12.864 6.704V7.232H17.568V6.704H12.864ZM14.976 0.991999V4.448H15.528V0.991999H14.976ZM14.976 6.908V11.852H15.528V6.908H14.976ZM16.536 4.892C16.296 5.468 15.84 6.32 15.468 6.848L15.924 7.004C16.308 6.488 16.716 5.708 17.076 5.048L16.536 4.892ZM13.5 5.084C13.776 5.576 14.052 6.224 14.136 6.644L14.616 6.464C14.52 6.068 14.232 5.42 13.944 4.952L13.5 5.084ZM30.408 0.991999V6.056C30.408 8.276 30.144 10.16 28.032 11.516C28.164 11.624 28.344 11.792 28.44 11.912C30.66 10.46 30.96 8.444 30.96 6.056V0.991999H30.408ZM32.448 0.991999V11.876H33V0.991999H32.448ZM28.32 3.092V3.644H30.66V3.092H28.32ZM32.736 3.092V3.644H35.232V3.092H32.736ZM32.748 5.6V6.14H35.124V5.6H32.748ZM32.736 8.228V8.78H35.448V8.228H32.736ZM28.392 5.6V6.14H30.672V5.6H28.392ZM27.756 8.744L27.984 9.26C28.74 8.996 29.628 8.684 30.504 8.372L30.42 7.916C29.424 8.24 28.452 8.552 27.756 8.744ZM24.384 7.328L24.564 7.904C25.56 7.556 26.88 7.1 28.14 6.656L28.056 6.104C26.688 6.572 25.296 7.04 24.384 7.328ZM24.528 3.5V4.052H28.152V3.5H24.528ZM26.172 1.004V11.132C26.172 11.312 26.112 11.36 25.968 11.36C25.824 11.372 25.332 11.372 24.756 11.36C24.84 11.516 24.924 11.768 24.948 11.9C25.704 11.9 26.124 11.888 26.364 11.792C26.628 11.696 26.736 11.528 26.736 11.132V1.004H26.172ZM42.192 4.664V5.216H46.68V4.664H42.192ZM37.608 6.92V7.46H39.864V11.9H40.416V6.92H37.608ZM37.356 1.004V5.996C37.356 7.904 37.272 10.016 36.6 11.672C36.744 11.732 36.96 11.888 37.056 11.996C37.788 10.268 37.896 8.096 37.896 5.996V1.004H37.356ZM46.5 4.664V4.796C45.948 8.252 44.136 10.508 42.084 11.444C42.216 11.552 42.372 11.768 42.456 11.912C44.628 10.832 46.452 8.54 47.076 4.76L46.716 4.652L46.608 4.664H46.5ZM43.32 5L42.828 5.108C43.452 8.348 44.76 10.796 47.16 11.888C47.268 11.744 47.448 11.528 47.58 11.408C45.216 10.46 43.908 8.06 43.32 5ZM41.844 1.928V6.128C41.844 7.916 41.736 9.992 40.896 11.588C41.052 11.66 41.256 11.816 41.364 11.9C42.264 10.232 42.408 8.072 42.408 6.128V1.928H41.844ZM39.876 1.304V4.712H37.62V5.276H40.428V1.304H39.876ZM41.844 1.724V2.276H47.088V1.724H41.844ZM48.108 13.136H48.684L52.632 1.568H52.068L48.108 13.136ZM53.9947 11H54.7027V7.304H56.3107C58.2547 7.304 59.4547 6.476 59.4547 4.724C59.4547 2.9 58.2307 2.252 56.2627 2.252H53.9947V11ZM54.7027 6.704V2.864H56.1067C57.8587 2.864 58.7107 3.296 58.7107 4.724C58.7107 6.116 57.8827 6.704 56.1547 6.704H54.7027ZM63.5057 11.168C65.2337 11.168 66.3377 10.136 66.3377 8.78C66.3377 7.448 65.5097 6.896 64.5017 6.452L63.2057 5.876C62.5697 5.6 61.7177 5.24 61.7177 4.232C61.7177 3.332 62.4497 2.744 63.5777 2.744C64.4297 2.744 65.1137 3.104 65.6297 3.62L66.0377 3.152C65.4857 2.564 64.6217 2.096 63.5777 2.096C62.0777 2.096 60.9857 2.996 60.9857 4.292C60.9857 5.588 61.9817 6.14 62.7617 6.488L64.0577 7.064C64.9217 7.448 65.6177 7.772 65.6177 8.84C65.6177 9.836 64.8137 10.52 63.5177 10.52C62.5217 10.52 61.6097 10.064 60.9857 9.356L60.5297 9.848C61.2377 10.628 62.2457 11.168 63.5057 11.168ZM69.8426 4.94V5.492H75.9266V4.94H69.8426ZM69.5906 10.556V11.12H76.1666V10.556H69.5906ZM69.3146 7.172V11.864H69.8906V7.712H75.9746V11.828H76.5746V7.172H69.3146ZM73.1426 0.98C71.9546 2.828 69.7706 4.508 67.4426 5.42C67.5986 5.54 67.7666 5.756 67.8626 5.9C70.1906 4.916 72.3866 3.164 73.6466 1.22L73.1426 0.98ZM73.1426 1.604L72.6386 1.844C74.0666 3.56 75.8306 4.772 78.0146 5.84C78.0986 5.66 78.2786 5.444 78.4346 5.312C76.2746 4.34 74.4746 3.2 73.1426 1.604ZM80.8586 5.48V6.032H83.9666V5.48H80.8586ZM83.7266 5.48V5.588C83.6786 8.336 83.6066 9.284 83.4146 9.512C83.3306 9.608 83.2106 9.62 83.0306 9.62C82.8266 9.62 82.2386 9.62 81.6146 9.56C81.7106 9.716 81.7706 9.944 81.7826 10.112C82.3826 10.148 82.9466 10.16 83.2586 10.136C83.5706 10.112 83.7506 10.04 83.9186 9.872C84.1466 9.56 84.2186 8.588 84.2906 5.78C84.2906 5.684 84.2906 5.48 84.2906 5.48H83.7266ZM86.9666 1.508C87.7826 1.904 88.7426 2.54 89.2346 2.96L89.5946 2.552C89.1026 2.132 88.1186 1.532 87.3146 1.136L86.9666 1.508ZM88.8746 4.856C87.9146 7.82 86.1746 10.028 83.6666 11.36C83.7986 11.468 84.0146 11.708 84.0986 11.828C86.6066 10.376 88.4066 8.132 89.4386 5L88.8746 4.856ZM80.9186 3.176V3.74H90.2306V3.176H80.9186ZM80.5586 3.176V6.452C80.5586 8.024 80.4386 10.076 79.4066 11.564C79.5506 11.648 79.7786 11.828 79.8866 11.948C80.9906 10.388 81.1586 8.108 81.1586 6.464V3.176H80.5586ZM85.6226 1.016C85.6706 6.92 86.8226 11.804 89.1506 11.804C89.9426 11.804 90.1946 11.18 90.3266 9.236C90.1706 9.188 89.9426 9.068 89.7986 8.936C89.7386 10.58 89.5826 11.216 89.1986 11.216C87.4466 11.216 86.2226 6.908 86.2106 1.016H85.6226ZM90.9986 13.136H91.5746L95.5226 1.568H94.9586L90.9986 13.136ZM96.8853 11H97.5453V5.456C97.5453 4.736 97.4973 3.776 97.4493 3.044H97.4973L98.1813 5L100.029 10.064H100.617L102.453 5L103.125 3.044H103.185C103.137 3.776 103.089 4.736 103.089 5.456V11H103.785V2.252H102.813L101.025 7.292C100.809 7.916 100.593 8.564 100.365 9.2H100.317C100.089 8.564 99.8613 7.916 99.6333 7.292L97.8453 2.252H96.8853V11ZM108.623 11.168C110.171 11.168 111.515 9.932 111.515 7.82C111.515 5.672 110.171 4.448 108.623 4.448C107.075 4.448 105.719 5.672 105.719 7.82C105.719 9.932 107.075 11.168 108.623 11.168ZM108.623 10.556C107.363 10.556 106.451 9.452 106.451 7.82C106.451 6.176 107.363 5.048 108.623 5.048C109.871 5.048 110.795 6.176 110.795 7.82C110.795 9.452 109.871 10.556 108.623 10.556ZM115.772 11.168C116.576 11.168 117.272 10.82 117.824 10.328L117.488 9.848C117.056 10.244 116.468 10.556 115.82 10.556C114.476 10.556 113.576 9.452 113.576 7.82C113.576 6.176 114.548 5.048 115.832 5.048C116.42 5.048 116.888 5.336 117.296 5.708L117.68 5.228C117.248 4.82 116.672 4.448 115.808 4.448C114.224 4.448 112.844 5.672 112.844 7.82C112.844 9.932 114.116 11.168 115.772 11.168ZM119.36 11H120.056V9.272L121.436 7.652L123.512 11H124.268L121.844 7.148L123.944 4.604H123.14L120.092 8.372H120.056V1.472H119.36V11ZM127.302 11.168C128.178 11.168 128.838 10.676 129.462 9.944H129.486L129.558 11H130.146V4.604H129.438V9.284C128.73 10.16 128.19 10.544 127.458 10.544C126.474 10.544 126.054 9.932 126.054 8.612V4.604H125.358V8.696C125.358 10.352 125.97 11.168 127.302 11.168ZM132.52 13.856H133.228V11.552L133.216 10.388C133.852 10.88 134.5 11.168 135.088 11.168C136.6 11.168 137.908 9.896 137.908 7.712C137.908 5.732 137.044 4.448 135.352 4.448C134.572 4.448 133.828 4.904 133.216 5.396H133.192L133.108 4.604H132.52V13.856ZM135.04 10.556C134.572 10.556 133.9 10.34 133.228 9.776V6.068C133.96 5.42 134.608 5.06 135.22 5.06C136.636 5.06 137.176 6.176 137.176 7.712C137.176 9.416 136.276 10.556 135.04 10.556ZM144.43 5.036V5.456H149.206V5.036H144.43ZM144.43 6.248V6.668H149.254V6.248H144.43ZM144.31 7.508V7.964H149.77V7.508H144.31ZM142.894 2.696C142.342 3.872 141.442 5.048 140.53 5.828C140.65 5.9 140.866 6.104 140.95 6.188C141.85 5.36 142.786 4.112 143.41 2.852L142.894 2.696ZM144.79 2.684C144.322 3.764 143.566 4.844 142.774 5.576C142.918 5.672 143.134 5.828 143.23 5.924C143.986 5.156 144.778 3.992 145.306 2.828L144.79 2.684ZM146.77 4.004V7.712H147.298V4.004H146.77ZM143.518 9.068V10.976C143.518 11.648 143.758 11.792 144.706 11.792C144.922 11.792 146.686 11.792 146.902 11.792C147.658 11.792 147.862 11.516 147.91 10.364C147.766 10.328 147.538 10.244 147.406 10.136C147.37 11.156 147.286 11.276 146.842 11.276C146.482 11.276 145.006 11.276 144.73 11.276C144.154 11.276 144.058 11.228 144.058 10.976V9.068H143.518ZM144.55 8.672C145.294 9.008 146.158 9.536 146.614 9.932L146.974 9.524C146.53 9.152 145.63 8.648 144.91 8.324L144.55 8.672ZM147.622 9.2C148.354 9.896 149.11 10.868 149.446 11.528L149.926 11.252C149.59 10.604 148.798 9.644 148.066 8.96L147.622 9.2ZM142.15 9.092C141.874 9.86 141.37 10.76 140.662 11.276L141.118 11.564C141.85 11.012 142.306 10.088 142.63 9.272L142.15 9.092ZM144.67 3.8L144.322 4.256H149.542V3.8H144.67ZM144.142 4.328V8.324H144.658V3.848L144.142 4.328ZM140.278 1.976V2.504H149.986V1.976H140.278ZM139.966 1.976V5.648C139.966 7.4 139.894 9.812 139.018 11.564C139.15 11.624 139.378 11.804 139.474 11.9C140.386 10.076 140.518 7.472 140.518 5.648V1.976H139.966ZM142.066 4.568V8.336H142.606V4.052H142.594L142.066 4.568ZM144.25 0.943999C144.61 1.376 144.97 1.976 145.138 2.396L145.63 2.144C145.474 1.76 145.09 1.172 144.73 0.74L144.25 0.943999ZM146.17 2.828C146.494 3.14 146.818 3.596 146.974 3.92L147.418 3.656C147.25 3.356 146.902 2.924 146.578 2.6L146.17 2.828ZM152.842 1.856V2.42H160.834V1.856H152.842ZM152.842 4.676V5.24H160.786V4.676H152.842ZM152.746 7.568V8.12H160.798V7.568H152.746ZM152.518 1.856V6.236C152.518 7.928 152.374 10.04 151.042 11.564C151.174 11.636 151.402 11.828 151.486 11.96C152.89 10.364 153.082 8.012 153.082 6.236V1.856H152.518ZM160.558 1.856V10.952C160.558 11.192 160.474 11.264 160.234 11.264C160.006 11.276 159.166 11.288 158.23 11.264C158.314 11.42 158.422 11.684 158.446 11.828C159.61 11.84 160.294 11.84 160.642 11.744C161.002 11.636 161.134 11.432 161.134 10.952V1.856H160.558ZM156.322 2.06V11.804H156.91V2.06H156.322Z" fill="#007282"/>
</svg>
