<svg width="177" height="14" viewBox="0 0 177 14" fill="none" xmlns="http://www.w3.org/2000/svg">
<path d="M0.272 11H4.964V10.388H0.98V2.252H0.272V11ZM9.32056 11.168C11.4446 11.168 12.9566 9.38 12.9566 6.608C12.9566 3.836 11.4446 2.096 9.32056 2.096C7.19656 2.096 5.69656 3.824 5.69656 6.608C5.69656 9.38 7.19656 11.168 9.32056 11.168ZM9.32056 10.52C7.59256 10.52 6.44056 8.984 6.44056 6.608C6.44056 4.232 7.59256 2.744 9.32056 2.744C11.0486 2.744 12.2126 4.232 12.2126 6.608C12.2126 8.984 11.0486 10.52 9.32056 10.52ZM18.1956 11.168C19.3476 11.168 20.2596 10.748 20.8236 10.172V6.656H18.0876V7.268H20.1156V9.896C19.7316 10.28 19.0116 10.52 18.2676 10.52C16.2876 10.52 15.1476 8.984 15.1476 6.608C15.1476 4.232 16.3716 2.744 18.3156 2.744C19.2516 2.744 19.8516 3.152 20.2956 3.62L20.7156 3.152C20.2476 2.648 19.4916 2.096 18.3036 2.096C15.9876 2.096 14.4036 3.836 14.4036 6.62C14.4036 9.416 15.9396 11.168 18.1956 11.168ZM26.1018 11.168C28.2258 11.168 29.7378 9.38 29.7378 6.608C29.7378 3.836 28.2258 2.096 26.1018 2.096C23.9778 2.096 22.4778 3.824 22.4778 6.608C22.4778 9.38 23.9778 11.168 26.1018 11.168ZM26.1018 10.52C24.3738 10.52 23.2218 8.984 23.2218 6.608C23.2218 4.232 24.3738 2.744 26.1018 2.744C27.8298 2.744 28.9938 4.232 28.9938 6.608C28.9938 8.984 27.8298 10.52 26.1018 10.52ZM32.6608 5.612V6.176H39.7528V5.612H32.6608ZM39.5368 5.612V5.732C39.3568 9.428 39.1528 10.808 38.8048 11.144C38.6848 11.264 38.5288 11.288 38.2768 11.288C38.0008 11.288 37.1968 11.276 36.3328 11.204C36.4408 11.372 36.5128 11.6 36.5248 11.792C37.3048 11.84 38.0968 11.852 38.4808 11.828C38.8768 11.816 39.1048 11.744 39.3088 11.504C39.7408 11.06 39.9208 9.704 40.1128 5.936C40.1248 5.852 40.1368 5.612 40.1368 5.612H39.5368ZM35.4088 5.768C35.1568 8.108 34.5568 10.436 31.4488 11.468C31.5808 11.588 31.7488 11.804 31.8208 11.936C35.0368 10.808 35.7208 8.348 36.0328 5.768H35.4088ZM34.1848 1.376C33.5848 3.308 32.4688 4.904 31.0048 5.912C31.1488 6.008 31.4008 6.212 31.4968 6.332C32.9368 5.24 34.1128 3.584 34.7728 1.52L34.1848 1.376ZM35.9248 1.208V1.772H38.4688V1.208H35.9248ZM37.9288 1.208V1.568H38.1328C38.7928 3.56 40.1248 5.36 41.6008 6.32C41.6968 6.164 41.8888 5.936 42.0208 5.816C40.5808 4.952 39.2368 3.176 38.6008 1.208H37.9288ZM48.5608 5.144V5.696H53.8528V5.144H48.5608ZM52.6168 1.136C51.6328 1.568 49.8328 2.012 48.2728 2.312C48.3568 2.432 48.4408 2.648 48.4768 2.78C50.0728 2.504 51.9208 2.072 53.1208 1.58L52.6168 1.136ZM51.3928 5.336V11.9H51.9688V5.336H51.3928ZM43.2448 3.62V4.184H47.5768V3.62H43.2448ZM45.1648 0.991999V11.876H45.7288V0.991999H45.1648ZM45.1528 3.932C44.7568 5.768 43.8088 7.952 42.9328 9.056C43.0408 9.176 43.1968 9.404 43.2808 9.548C44.2048 8.36 45.1528 5.996 45.5848 4.064L45.1528 3.932ZM45.6448 4.82L45.3088 5.108C45.6808 5.564 46.7128 7.088 47.0128 7.652L47.4328 7.172C47.1688 6.776 45.9688 5.18 45.6448 4.82ZM48.2728 2.312V6.092C48.2728 7.76 48.1648 9.968 47.0728 11.564C47.2168 11.624 47.4568 11.78 47.5648 11.876C48.6808 10.232 48.8368 7.832 48.8368 6.092V2.312H48.2728ZM54.5728 13.136H55.1488L59.0968 1.568H58.5328L54.5728 13.136ZM60.3155 4.604V5.096H63.7955V4.604H60.3155ZM60.3155 6.152V6.644H63.7955V6.152H60.3155ZM59.8115 3.056V3.572H64.2995V3.056H59.8115ZM60.5555 7.712V8.24H63.2555V10.616H60.5555V11.132H63.7955V7.712H60.5555ZM60.3035 7.712V11.732H60.8315V7.712H60.3035ZM61.1795 1.196C61.5155 1.676 61.9115 2.336 62.1035 2.756L62.5835 2.456C62.3915 2.048 61.9955 1.424 61.6355 0.943999L61.1795 1.196ZM65.5715 1.46V2.012H68.6315V1.46H65.5715ZM64.2155 6.344V6.896H69.5195V6.344H64.2155ZM69.3035 6.344V6.464C68.4515 9.068 66.1115 10.748 63.7715 11.396C63.8915 11.528 64.0355 11.768 64.1075 11.924C66.5435 11.156 68.9555 9.428 69.9035 6.488L69.5315 6.32L69.4235 6.344H69.3035ZM65.3195 6.848L64.8155 7.028C65.7875 9.44 67.7195 11.192 70.3115 11.888C70.3955 11.732 70.5635 11.492 70.6955 11.372C68.1275 10.76 66.1955 9.08 65.3195 6.848ZM65.4515 1.46V2.792C65.4515 3.68 65.2235 4.736 63.9395 5.528C64.0475 5.624 64.2515 5.84 64.3235 5.96C65.7035 5.084 66.0155 3.824 66.0155 2.804V1.46H65.4515ZM68.3435 1.46V4.316C68.3435 5.06 68.4755 5.3 69.0755 5.3C69.1955 5.3 69.8075 5.3 69.9635 5.3C70.1675 5.3 70.3835 5.288 70.5035 5.252C70.4795 5.12 70.4555 4.868 70.4435 4.724C70.2995 4.748 70.0955 4.772 69.9635 4.772C69.8195 4.772 69.2315 4.772 69.0875 4.772C68.9315 4.772 68.9075 4.676 68.9075 4.34V1.46H68.3435ZM72.5315 4.604V5.096H76.3835V4.604H72.5315ZM72.5315 6.152V6.644H76.3595V6.152H72.5315ZM72.0035 3.056V3.572H76.8995V3.056H72.0035ZM72.8915 7.712V8.24H75.8435V10.616H72.8915V11.132H76.3715V7.712H72.8915ZM72.6515 7.712V11.732H73.1795V7.712H72.6515ZM73.4675 1.196C73.8155 1.676 74.2115 2.336 74.4155 2.756L74.8835 2.456C74.6915 2.048 74.2955 1.424 73.9355 0.943999L73.4675 1.196ZM76.8995 5.24V5.816H82.5995V5.24H76.8995ZM79.3955 1.22V11.888H79.9835V1.22H79.3955ZM84.0275 3.08V3.62H88.2155V3.08H84.0275ZM83.7395 5.852V6.404H88.4795V5.852H83.7395ZM85.8635 1.124V5.168C85.8635 7.052 85.7915 9.776 83.7155 11.336C83.8595 11.444 84.0395 11.636 84.1235 11.768C86.2835 10.028 86.4275 7.208 86.4275 5.156V1.124H85.8635ZM86.2235 7.244L85.8635 7.544C86.3315 8 87.6395 9.548 88.0355 10.112L88.4315 9.656C88.1075 9.272 86.6315 7.616 86.2235 7.244ZM89.5115 4.016H93.4235V5.48H89.5115V4.016ZM89.5115 5.996H93.4235V7.496H89.5115V5.996ZM89.5115 2.036H93.4235V3.488H89.5115V2.036ZM88.9475 1.496V8.036H93.9875V1.496H88.9475ZM91.9235 7.724V10.856C91.9235 11.528 92.0915 11.708 92.7635 11.708C92.9075 11.708 93.7115 11.708 93.8555 11.708C94.4915 11.708 94.6355 11.312 94.6955 9.716C94.5395 9.668 94.2995 9.584 94.1795 9.476C94.1435 10.976 94.0955 11.168 93.7955 11.168C93.6155 11.168 92.9555 11.168 92.8235 11.168C92.5235 11.168 92.4755 11.12 92.4755 10.868V7.724H91.9235ZM90.0635 7.844C89.8715 9.56 89.3075 10.808 87.3515 11.432C87.4715 11.54 87.6395 11.744 87.7115 11.864C89.7635 11.156 90.3995 9.788 90.6275 7.844H90.0635ZM96.0995 4.568V5.048H101.536V4.568H96.0995ZM95.7875 9.68V10.172H101.62V9.68H95.7875ZM102.352 4.364V4.892H105.448V4.364H102.352ZM98.5955 3.788V11.888H99.1355V3.788H98.5955ZM102.088 4.364V10.508C102.088 11.384 102.364 11.588 103.3 11.588C103.516 11.588 105.244 11.588 105.472 11.588C106.36 11.588 106.54 11.144 106.612 9.584C106.456 9.548 106.228 9.464 106.072 9.356C106.036 10.76 105.952 11.048 105.448 11.048C105.076 11.048 103.6 11.048 103.336 11.048C102.76 11.048 102.652 10.94 102.652 10.52V4.364H102.088ZM105.112 4.364V8.036C105.112 8.18 105.076 8.216 104.908 8.228C104.704 8.24 104.152 8.24 103.384 8.228C103.468 8.396 103.564 8.624 103.6 8.792C104.476 8.792 105.016 8.78 105.304 8.684C105.604 8.576 105.688 8.384 105.688 8.036V4.364H105.112ZM97.0835 7.544H100.612V8.468H97.0835V7.544ZM97.0835 6.2H100.612V7.1H97.0835V6.2ZM96.5795 5.744V8.936H101.128V5.744H96.5795ZM97.2635 1.916V2.42H101.152V1.916H97.2635ZM102.268 1.916V2.432H106.6V1.916H102.268ZM97.6595 0.908C97.2395 1.94 96.5675 2.936 95.7995 3.62C95.9435 3.716 96.1595 3.908 96.2555 4.004C96.9875 3.272 97.7315 2.18 98.1875 1.052L97.6595 0.908ZM102.58 0.92C102.243 1.94 101.632 2.876 100.9 3.512C101.044 3.584 101.272 3.764 101.368 3.86C102.088 3.176 102.76 2.144 103.132 1.04L102.58 0.92ZM98.2355 2.756C98.6675 3.128 99.1955 3.644 99.4715 3.98L99.8675 3.632C99.6035 3.332 99.0515 2.816 98.6195 2.468L98.2355 2.756ZM103.468 2.84C103.888 3.188 104.38 3.68 104.644 4.004L105.04 3.644C104.788 3.332 104.272 2.876 103.864 2.54L103.468 2.84ZM107.296 13.136H107.872L111.82 1.568H111.256L107.296 13.136ZM116.186 11.168C117.314 11.168 118.118 10.7 118.802 9.92L118.382 9.452C117.758 10.148 117.098 10.52 116.222 10.52C114.386 10.52 113.234 8.984 113.234 6.608C113.234 4.232 114.398 2.744 116.258 2.744C117.05 2.744 117.674 3.104 118.142 3.62L118.55 3.152C118.082 2.612 117.29 2.096 116.258 2.096C114.038 2.096 112.49 3.836 112.49 6.62C112.49 9.416 114.014 11.168 116.186 11.168ZM120.565 11H121.273V2.252H120.565V11ZM126.139 11.168C127.867 11.168 128.971 10.136 128.971 8.78C128.971 7.448 128.143 6.896 127.135 6.452L125.839 5.876C125.203 5.6 124.351 5.24 124.351 4.232C124.351 3.332 125.083 2.744 126.211 2.744C127.063 2.744 127.747 3.104 128.263 3.62L128.671 3.152C128.119 2.564 127.255 2.096 126.211 2.096C124.711 2.096 123.619 2.996 123.619 4.292C123.619 5.588 124.615 6.14 125.395 6.488L126.691 7.064C127.555 7.448 128.251 7.772 128.251 8.84C128.251 9.836 127.447 10.52 126.151 10.52C125.155 10.52 124.243 10.064 123.619 9.356L123.163 9.848C123.871 10.628 124.879 11.168 126.139 11.168ZM131.047 4.796V11.876H131.611V5.324H139.807V4.796H131.047ZM139.483 4.796V11.096C139.483 11.288 139.411 11.336 139.207 11.348C139.003 11.36 138.307 11.36 137.467 11.336C137.551 11.48 137.635 11.684 137.659 11.828C138.739 11.828 139.315 11.816 139.615 11.744C139.927 11.648 140.023 11.468 140.023 11.096V4.796H139.483ZM133.639 7.7V8.18H137.107V9.848H133.639V10.316H137.635V7.7H133.639ZM133.375 7.7V10.928H133.891V7.7H133.375ZM130.303 2.372V2.9H140.755V2.372H130.303ZM132.895 3.2C133.183 3.644 133.531 4.256 133.711 4.628L134.191 4.376C134.035 4.04 133.663 3.452 133.375 3.02L132.895 3.2ZM137.635 3.068C137.371 3.632 136.867 4.46 136.471 4.952L136.939 5.108C137.335 4.64 137.839 3.872 138.235 3.236L137.635 3.068ZM134.923 1.1C135.139 1.604 135.403 2.264 135.523 2.684L136.075 2.516C135.943 2.108 135.679 1.46 135.439 0.956L134.923 1.1ZM133.975 5.024C133.867 6.368 133.375 6.98 131.707 7.304C131.815 7.4 131.959 7.604 132.007 7.724C133.807 7.316 134.371 6.572 134.515 5.024H133.975ZM136.159 5.06V6.344C136.159 6.992 136.279 7.22 136.891 7.22C137.047 7.22 138.091 7.22 138.331 7.22C138.583 7.22 138.859 7.208 139.003 7.172C138.979 7.052 138.967 6.848 138.943 6.704C138.775 6.74 138.499 6.74 138.319 6.74C138.103 6.74 137.143 6.74 136.951 6.74C136.723 6.74 136.687 6.656 136.687 6.356V5.06H136.159ZM142.327 8.432V8.96H152.731V8.432H142.327ZM142.387 3.236V3.752H152.683V3.236H142.387ZM142.867 5.252V5.768H152.263V5.252H142.867ZM143.479 6.848V7.34H151.663V6.848H143.479ZM147.211 5.456V11.9H147.787V5.456H147.211ZM146.071 0.991999V3.488H146.635V0.991999H146.071ZM148.375 0.991999V3.476H148.939V0.991999H148.375ZM151.171 1.172C150.943 1.724 150.499 2.552 150.151 3.068L150.631 3.236C150.979 2.756 151.411 2.012 151.747 1.352L151.171 1.172ZM149.575 3.752C149.407 4.148 149.059 4.748 148.807 5.132L149.275 5.288C149.551 4.928 149.875 4.412 150.151 3.92L149.575 3.752ZM143.419 1.328C143.851 1.904 144.319 2.696 144.499 3.188L145.015 2.984C144.835 2.48 144.367 1.7 143.911 1.148L143.419 1.328ZM144.991 3.908C145.303 4.34 145.603 4.916 145.711 5.3L146.251 5.132C146.131 4.76 145.831 4.184 145.519 3.764L144.991 3.908ZM145.987 9.68C145.159 10.244 143.539 10.76 142.255 10.988C142.387 11.096 142.555 11.288 142.627 11.432C143.899 11.168 145.567 10.556 146.455 9.92L145.987 9.68ZM148.723 10.016C149.959 10.412 151.567 11.024 152.419 11.408L152.719 10.964C151.855 10.592 150.247 10.028 149.023 9.632L148.723 10.016ZM159.355 5.036V5.456H164.131V5.036H159.355ZM159.355 6.248V6.668H164.179V6.248H159.355ZM159.235 7.508V7.964H164.695V7.508H159.235ZM157.819 2.696C157.267 3.872 156.367 5.048 155.455 5.828C155.575 5.9 155.791 6.104 155.875 6.188C156.775 5.36 157.711 4.112 158.335 2.852L157.819 2.696ZM159.715 2.684C159.247 3.764 158.491 4.844 157.699 5.576C157.843 5.672 158.059 5.828 158.155 5.924C158.911 5.156 159.703 3.992 160.231 2.828L159.715 2.684ZM161.695 4.004V7.712H162.223V4.004H161.695ZM158.443 9.068V10.976C158.443 11.648 158.683 11.792 159.631 11.792C159.847 11.792 161.611 11.792 161.827 11.792C162.583 11.792 162.787 11.516 162.835 10.364C162.691 10.328 162.463 10.244 162.331 10.136C162.295 11.156 162.211 11.276 161.767 11.276C161.407 11.276 159.931 11.276 159.655 11.276C159.079 11.276 158.983 11.228 158.983 10.976V9.068H158.443ZM159.475 8.672C160.219 9.008 161.083 9.536 161.539 9.932L161.899 9.524C161.455 9.152 160.555 8.648 159.835 8.324L159.475 8.672ZM162.547 9.2C163.279 9.896 164.035 10.868 164.371 11.528L164.851 11.252C164.515 10.604 163.723 9.644 162.991 8.96L162.547 9.2ZM157.075 9.092C156.799 9.86 156.295 10.76 155.587 11.276L156.043 11.564C156.775 11.012 157.231 10.088 157.555 9.272L157.075 9.092ZM159.595 3.8L159.247 4.256H164.467V3.8H159.595ZM159.067 4.328V8.324H159.583V3.848L159.067 4.328ZM155.203 1.976V2.504H164.911V1.976H155.203ZM154.891 1.976V5.648C154.891 7.4 154.819 9.812 153.943 11.564C154.075 11.624 154.303 11.804 154.399 11.9C155.311 10.076 155.443 7.472 155.443 5.648V1.976H154.891ZM156.991 4.568V8.336H157.531V4.052H157.519L156.991 4.568ZM159.175 0.943999C159.535 1.376 159.895 1.976 160.063 2.396L160.555 2.144C160.399 1.76 160.015 1.172 159.655 0.74L159.175 0.943999ZM161.095 2.828C161.419 3.14 161.743 3.596 161.899 3.92L162.343 3.656C162.175 3.356 161.827 2.924 161.503 2.6L161.095 2.828ZM167.767 1.856V2.42H175.759V1.856H167.767ZM167.767 4.676V5.24H175.711V4.676H167.767ZM167.671 7.568V8.12H175.723V7.568H167.671ZM167.443 1.856V6.236C167.443 7.928 167.299 10.04 165.967 11.564C166.099 11.636 166.327 11.828 166.411 11.96C167.815 10.364 168.007 8.012 168.007 6.236V1.856H167.443ZM175.483 1.856V10.952C175.483 11.192 175.399 11.264 175.159 11.264C174.931 11.276 174.091 11.288 173.155 11.264C173.239 11.42 173.347 11.684 173.371 11.828C174.535 11.84 175.219 11.84 175.567 11.744C175.927 11.636 176.059 11.432 176.059 10.952V1.856H175.483ZM171.247 2.06V11.804H171.835V2.06H171.247Z" fill="#007282"/>
</svg>
