<svg width="96" height="28" viewBox="0 0 96 28" fill="none" xmlns="http://www.w3.org/2000/svg">
<path d="M4.92 4.352C4.728 6.14 4.38 8.72 4.08 10.172H4.668C4.908 8.756 5.268 6.188 5.484 4.352H4.92ZM6.636 5.252C7.2 5.672 7.824 6.308 8.1 6.74L8.484 6.464C8.196 6.02 7.56 5.408 6.996 5L6.636 5.252ZM6.324 7.844C6.9 8.312 7.548 8.996 7.836 9.464L8.232 9.188C7.932 8.72 7.284 8.06 6.708 7.616L6.324 7.844ZM4.968 2.444V2.984H11.208V2.444H4.968ZM5.232 4.352V4.88H10.236V4.352H5.232ZM3.384 6.896V7.448H11.484V6.896H3.384ZM4.392 9.644V10.172H11.136V9.644H4.392ZM5.388 0.991999C4.932 2.42 4.176 3.836 3.3 4.772C3.432 4.844 3.696 5.012 3.816 5.096C4.656 4.124 5.448 2.648 5.94 1.124L5.388 0.991999ZM10.044 4.352V4.484C9.852 9.092 9.648 10.736 9.288 11.12C9.18 11.264 9.06 11.288 8.832 11.288C8.604 11.288 7.992 11.276 7.32 11.216C7.416 11.36 7.464 11.588 7.488 11.744C8.076 11.792 8.676 11.816 9.012 11.792C9.348 11.768 9.576 11.696 9.78 11.432C10.188 10.952 10.38 9.392 10.584 4.688C10.584 4.592 10.584 4.352 10.584 4.352H10.044ZM1.152 1.544C1.896 1.88 2.784 2.408 3.228 2.792L3.576 2.336C3.12 1.952 2.232 1.448 1.5 1.148L1.152 1.544ZM0.552 5.084C1.236 5.408 2.088 5.936 2.508 6.296L2.844 5.84C2.412 5.48 1.572 4.988 0.876 4.676L0.552 5.084ZM0.924 11.36L1.428 11.696C1.944 10.604 2.58 9.02 3.024 7.748L2.58 7.424C2.1 8.78 1.416 10.412 0.924 11.36ZM18.6 5.624V6.128H22.68V5.624H18.6ZM18.312 1.58V11.876H18.864V2.12H22.5V1.58H18.312ZM22.272 1.58V3.932C22.272 4.064 22.224 4.1 22.032 4.112C21.828 4.136 21.228 4.136 20.376 4.112C20.472 4.28 20.556 4.484 20.592 4.64C21.54 4.64 22.116 4.64 22.428 4.544C22.74 4.448 22.812 4.268 22.812 3.92V1.58H22.272ZM19.572 5.84L19.08 5.972C19.812 8.528 21.228 10.784 23.124 11.828C23.232 11.672 23.424 11.444 23.556 11.324C21.684 10.424 20.244 8.24 19.572 5.84ZM22.5 5.624V5.78C22.056 7.988 20.76 10.34 18.756 11.528C18.9 11.636 19.068 11.78 19.164 11.912C21.252 10.64 22.584 8.252 23.1 5.732L22.716 5.588L22.608 5.624H22.5ZM12.996 2.324V2.852H17.46V2.324H12.996ZM12.624 8.768V9.284H17.796V8.768H12.624ZM12.636 4.28V4.82H17.772V4.28H12.636ZM12.864 6.704V7.232H17.568V6.704H12.864ZM14.976 0.991999V4.448H15.528V0.991999H14.976ZM14.976 6.908V11.852H15.528V6.908H14.976ZM16.536 4.892C16.296 5.468 15.84 6.32 15.468 6.848L15.924 7.004C16.308 6.488 16.716 5.708 17.076 5.048L16.536 4.892ZM13.5 5.084C13.776 5.576 14.052 6.224 14.136 6.644L14.616 6.464C14.52 6.068 14.232 5.42 13.944 4.952L13.5 5.084ZM30.408 0.991999V6.056C30.408 8.276 30.144 10.16 28.032 11.516C28.164 11.624 28.344 11.792 28.44 11.912C30.66 10.46 30.96 8.444 30.96 6.056V0.991999H30.408ZM32.448 0.991999V11.876H33V0.991999H32.448ZM28.32 3.092V3.644H30.66V3.092H28.32ZM32.736 3.092V3.644H35.232V3.092H32.736ZM32.748 5.6V6.14H35.124V5.6H32.748ZM32.736 8.228V8.78H35.448V8.228H32.736ZM28.392 5.6V6.14H30.672V5.6H28.392ZM27.756 8.744L27.984 9.26C28.74 8.996 29.628 8.684 30.504 8.372L30.42 7.916C29.424 8.24 28.452 8.552 27.756 8.744ZM24.384 7.328L24.564 7.904C25.56 7.556 26.88 7.1 28.14 6.656L28.056 6.104C26.688 6.572 25.296 7.04 24.384 7.328ZM24.528 3.5V4.052H28.152V3.5H24.528ZM26.172 1.004V11.132C26.172 11.312 26.112 11.36 25.968 11.36C25.824 11.372 25.332 11.372 24.756 11.36C24.84 11.516 24.924 11.768 24.948 11.9C25.704 11.9 26.124 11.888 26.364 11.792C26.628 11.696 26.736 11.528 26.736 11.132V1.004H26.172ZM42.192 4.664V5.216H46.68V4.664H42.192ZM37.608 6.92V7.46H39.864V11.9H40.416V6.92H37.608ZM37.356 1.004V5.996C37.356 7.904 37.272 10.016 36.6 11.672C36.744 11.732 36.96 11.888 37.056 11.996C37.788 10.268 37.896 8.096 37.896 5.996V1.004H37.356ZM46.5 4.664V4.796C45.948 8.252 44.136 10.508 42.084 11.444C42.216 11.552 42.372 11.768 42.456 11.912C44.628 10.832 46.452 8.54 47.076 4.76L46.716 4.652L46.608 4.664H46.5ZM43.32 5L42.828 5.108C43.452 8.348 44.76 10.796 47.16 11.888C47.268 11.744 47.448 11.528 47.58 11.408C45.216 10.46 43.908 8.06 43.32 5ZM41.844 1.928V6.128C41.844 7.916 41.736 9.992 40.896 11.588C41.052 11.66 41.256 11.816 41.364 11.9C42.264 10.232 42.408 8.072 42.408 6.128V1.928H41.844ZM39.876 1.304V4.712H37.62V5.276H40.428V1.304H39.876ZM41.844 1.724V2.276H47.088V1.724H41.844ZM48.108 13.136H48.684L52.632 1.568H52.068L48.108 13.136ZM53.9947 11H54.7027V7.304H56.3107C58.2547 7.304 59.4547 6.476 59.4547 4.724C59.4547 2.9 58.2307 2.252 56.2627 2.252H53.9947V11ZM54.7027 6.704V2.864H56.1067C57.8587 2.864 58.7107 3.296 58.7107 4.724C58.7107 6.116 57.8827 6.704 56.1547 6.704H54.7027ZM63.5057 11.168C65.2337 11.168 66.3377 10.136 66.3377 8.78C66.3377 7.448 65.5097 6.896 64.5017 6.452L63.2057 5.876C62.5697 5.6 61.7177 5.24 61.7177 4.232C61.7177 3.332 62.4497 2.744 63.5777 2.744C64.4297 2.744 65.1137 3.104 65.6297 3.62L66.0377 3.152C65.4857 2.564 64.6217 2.096 63.5777 2.096C62.0777 2.096 60.9857 2.996 60.9857 4.292C60.9857 5.588 61.9817 6.14 62.7617 6.488L64.0577 7.064C64.9217 7.448 65.6177 7.772 65.6177 8.84C65.6177 9.836 64.8137 10.52 63.5177 10.52C62.5217 10.52 61.6097 10.064 60.9857 9.356L60.5297 9.848C61.2377 10.628 62.2457 11.168 63.5057 11.168ZM69.8426 4.94V5.492H75.9266V4.94H69.8426ZM69.5906 10.556V11.12H76.1666V10.556H69.5906ZM69.3146 7.172V11.864H69.8906V7.712H75.9746V11.828H76.5746V7.172H69.3146ZM73.1426 0.98C71.9546 2.828 69.7706 4.508 67.4426 5.42C67.5986 5.54 67.7666 5.756 67.8626 5.9C70.1906 4.916 72.3866 3.164 73.6466 1.22L73.1426 0.98ZM73.1426 1.604L72.6386 1.844C74.0666 3.56 75.8306 4.772 78.0146 5.84C78.0986 5.66 78.2786 5.444 78.4346 5.312C76.2746 4.34 74.4746 3.2 73.1426 1.604ZM80.8586 5.48V6.032H83.9666V5.48H80.8586ZM83.7266 5.48V5.588C83.6786 8.336 83.6066 9.284 83.4146 9.512C83.3306 9.608 83.2106 9.62 83.0306 9.62C82.8266 9.62 82.2386 9.62 81.6146 9.56C81.7106 9.716 81.7706 9.944 81.7826 10.112C82.3826 10.148 82.9466 10.16 83.2586 10.136C83.5706 10.112 83.7506 10.04 83.9186 9.872C84.1466 9.56 84.2186 8.588 84.2906 5.78C84.2906 5.684 84.2906 5.48 84.2906 5.48H83.7266ZM86.9666 1.508C87.7826 1.904 88.7426 2.54 89.2346 2.96L89.5946 2.552C89.1026 2.132 88.1186 1.532 87.3146 1.136L86.9666 1.508ZM88.8746 4.856C87.9146 7.82 86.1746 10.028 83.6666 11.36C83.7986 11.468 84.0146 11.708 84.0986 11.828C86.6066 10.376 88.4066 8.132 89.4386 5L88.8746 4.856ZM80.9186 3.176V3.74H90.2306V3.176H80.9186ZM80.5586 3.176V6.452C80.5586 8.024 80.4386 10.076 79.4066 11.564C79.5506 11.648 79.7786 11.828 79.8866 11.948C80.9906 10.388 81.1586 8.108 81.1586 6.464V3.176H80.5586ZM85.6226 1.016C85.6706 6.92 86.8226 11.804 89.1506 11.804C89.9426 11.804 90.1946 11.18 90.3266 9.236C90.1706 9.188 89.9426 9.068 89.7986 8.936C89.7386 10.58 89.5826 11.216 89.1986 11.216C87.4466 11.216 86.2226 6.908 86.2106 1.016H85.6226ZM90.9986 13.136H91.5746L95.5226 1.568H94.9586L90.9986 13.136ZM1.272 25H1.932V19.456C1.932 18.736 1.884 17.776 1.836 17.044H1.884L2.568 19L4.416 24.064H5.004L6.84 19L7.512 17.044H7.572C7.524 17.776 7.476 18.736 7.476 19.456V25H8.172V16.252H7.2L5.412 21.292C5.196 21.916 4.98 22.564 4.752 23.2H4.704C4.476 22.564 4.248 21.916 4.02 21.292L2.232 16.252H1.272V25ZM13.0093 25.168C14.5573 25.168 15.9013 23.932 15.9013 21.82C15.9013 19.672 14.5573 18.448 13.0093 18.448C11.4613 18.448 10.1053 19.672 10.1053 21.82C10.1053 23.932 11.4613 25.168 13.0093 25.168ZM13.0093 24.556C11.7493 24.556 10.8373 23.452 10.8373 21.82C10.8373 20.176 11.7493 19.048 13.0093 19.048C14.2573 19.048 15.1813 20.176 15.1813 21.82C15.1813 23.452 14.2573 24.556 13.0093 24.556ZM20.1583 25.168C20.9623 25.168 21.6583 24.82 22.2103 24.328L21.8743 23.848C21.4423 24.244 20.8543 24.556 20.2063 24.556C18.8623 24.556 17.9623 23.452 17.9623 21.82C17.9623 20.176 18.9343 19.048 20.2183 19.048C20.8063 19.048 21.2743 19.336 21.6823 19.708L22.0663 19.228C21.6343 18.82 21.0583 18.448 20.1943 18.448C18.6103 18.448 17.2303 19.672 17.2303 21.82C17.2303 23.932 18.5023 25.168 20.1583 25.168ZM23.7466 25H24.4426V23.272L25.8226 21.652L27.8986 25H28.6546L26.2306 21.148L28.3306 18.604H27.5266L24.4786 22.372H24.4426V15.472H23.7466V25ZM31.6883 25.168C32.5643 25.168 33.2243 24.676 33.8483 23.944H33.8723L33.9443 25H34.5323V18.604H33.8243V23.284C33.1163 24.16 32.5763 24.544 31.8443 24.544C30.8603 24.544 30.4403 23.932 30.4403 22.612V18.604H29.7443V22.696C29.7443 24.352 30.3563 25.168 31.6883 25.168ZM36.9068 27.856H37.6148V25.552L37.6028 24.388C38.2388 24.88 38.8867 25.168 39.4748 25.168C40.9868 25.168 42.2948 23.896 42.2948 21.712C42.2948 19.732 41.4308 18.448 39.7388 18.448C38.9588 18.448 38.2148 18.904 37.6028 19.396H37.5788L37.4948 18.604H36.9068V27.856ZM39.4268 24.556C38.9588 24.556 38.2868 24.34 37.6148 23.776V20.068C38.3468 19.42 38.9948 19.06 39.6068 19.06C41.0228 19.06 41.5628 20.176 41.5628 21.712C41.5628 23.416 40.6628 24.556 39.4268 24.556ZM48.8164 19.036V19.456H53.5924V19.036H48.8164ZM48.8164 20.248V20.668H53.6404V20.248H48.8164ZM48.6964 21.508V21.964H54.1564V21.508H48.6964ZM47.2804 16.696C46.7284 17.872 45.8284 19.048 44.9164 19.828C45.0364 19.9 45.2524 20.104 45.3364 20.188C46.2364 19.36 47.1724 18.112 47.7964 16.852L47.2804 16.696ZM49.1764 16.684C48.7084 17.764 47.9524 18.844 47.1604 19.576C47.3044 19.672 47.5204 19.828 47.6164 19.924C48.3724 19.156 49.1644 17.992 49.6924 16.828L49.1764 16.684ZM51.1564 18.004V21.712H51.6844V18.004H51.1564ZM47.9044 23.068V24.976C47.9044 25.648 48.1444 25.792 49.0924 25.792C49.3084 25.792 51.0724 25.792 51.2884 25.792C52.0444 25.792 52.2484 25.516 52.2964 24.364C52.1524 24.328 51.9244 24.244 51.7924 24.136C51.7564 25.156 51.6724 25.276 51.2284 25.276C50.8684 25.276 49.3924 25.276 49.1164 25.276C48.5404 25.276 48.4444 25.228 48.4444 24.976V23.068H47.9044ZM48.9364 22.672C49.6804 23.008 50.5444 23.536 51.0004 23.932L51.3604 23.524C50.9164 23.152 50.0164 22.648 49.2964 22.324L48.9364 22.672ZM52.0084 23.2C52.7404 23.896 53.4964 24.868 53.8324 25.528L54.3124 25.252C53.9764 24.604 53.1844 23.644 52.4524 22.96L52.0084 23.2ZM46.5364 23.092C46.2604 23.86 45.7564 24.76 45.0484 25.276L45.5044 25.564C46.2364 25.012 46.6924 24.088 47.0164 23.272L46.5364 23.092ZM49.0564 17.8L48.7084 18.256H53.9284V17.8H49.0564ZM48.5284 18.328V22.324H49.0444V17.848L48.5284 18.328ZM44.6644 15.976V16.504H54.3724V15.976H44.6644ZM44.3524 15.976V19.648C44.3524 21.4 44.2804 23.812 43.4044 25.564C43.5364 25.624 43.7644 25.804 43.8604 25.9C44.7724 24.076 44.9044 21.472 44.9044 19.648V15.976H44.3524ZM46.4524 18.568V22.336H46.9924V18.052H46.9804L46.4524 18.568ZM48.6364 14.944C48.9964 15.376 49.3564 15.976 49.5244 16.396L50.0164 16.144C49.8604 15.76 49.4764 15.172 49.1164 14.74L48.6364 14.944ZM50.5564 16.828C50.8804 17.14 51.2044 17.596 51.3604 17.92L51.8044 17.656C51.6364 17.356 51.2884 16.924 50.9644 16.6L50.5564 16.828ZM57.2284 15.856V16.42H65.2204V15.856H57.2284ZM57.2284 18.676V19.24H65.1724V18.676H57.2284ZM57.1324 21.568V22.12H65.1844V21.568H57.1324ZM56.9044 15.856V20.236C56.9044 21.928 56.7604 24.04 55.4284 25.564C55.5604 25.636 55.7884 25.828 55.8724 25.96C57.2764 24.364 57.4684 22.012 57.4684 20.236V15.856H56.9044ZM64.9444 15.856V24.952C64.9444 25.192 64.8604 25.264 64.6204 25.264C64.3924 25.276 63.5524 25.288 62.6164 25.264C62.7004 25.42 62.8084 25.684 62.8324 25.828C63.9964 25.84 64.6804 25.84 65.0284 25.744C65.3884 25.636 65.5204 25.432 65.5204 24.952V15.856H64.9444ZM60.7084 16.06V25.804H61.2964V16.06H60.7084Z" fill="#007282"/>
</svg>
