<svg width="153" height="14" viewBox="0 0 153 14" fill="none" xmlns="http://www.w3.org/2000/svg">
<path d="M0.576 8.624V9.128H11.424V8.624H0.576ZM0.936 2.012V2.516H10.896V2.012H0.936ZM7.872 7.796V11.168C7.872 11.324 7.824 11.384 7.62 11.396C7.428 11.408 6.768 11.408 5.952 11.384C6.036 11.54 6.132 11.756 6.156 11.888C7.152 11.888 7.728 11.9 8.04 11.804C8.352 11.72 8.436 11.54 8.436 11.18V7.796H7.872ZM5.688 1.016V7.436H6.264V1.016H5.688ZM2.496 9.692C3.252 10.124 4.128 10.784 4.56 11.264L4.98 10.844C4.536 10.388 3.636 9.752 2.904 9.344L2.496 9.692ZM2.4 5.144H9.6V6.068H2.4V5.144ZM2.4 3.8H9.6V4.7H2.4V3.8ZM1.848 3.344V6.524H10.176V3.344H1.848ZM7.824 6.812C8.82 7.088 10.008 7.7 10.608 8.18L10.956 7.796C10.344 7.34 9.144 6.752 8.16 6.464L7.824 6.812ZM1.032 7.364L1.068 7.868C3.324 7.832 6.708 7.76 9.912 7.676L9.936 7.232C6.672 7.304 3.204 7.352 1.032 7.364ZM17.676 7.172V11.888H18.264V7.172H17.676ZM13.02 1.94V3.608H13.572V2.468H22.476V3.608H23.04V1.94H13.02ZM12.828 4.028V4.532H23.22V4.028H12.828ZM12.672 8.276V8.804H23.34V8.276H12.672ZM20.676 3.128C19.824 5.684 17.52 6.704 12.852 6.944C12.948 7.088 13.032 7.292 13.08 7.472C17.832 7.16 20.34 6.044 21.24 3.308L20.676 3.128ZM14.412 5.828C17.664 6.332 20.628 6.98 22.392 7.604L22.98 7.208C21.084 6.584 17.988 5.9 14.916 5.444L14.412 5.828ZM17.34 1.124C17.604 1.472 17.928 1.964 18.072 2.288L18.612 2.06C18.468 1.772 18.144 1.292 17.868 0.956L17.34 1.124ZM14.412 5.828H15.12C15.912 5.144 17.076 3.956 17.772 2.936L17.172 2.744C16.5 3.752 15.312 5.024 14.412 5.828ZM15.912 9.212C15.228 9.944 14.028 10.604 12.936 11.024C13.068 11.132 13.296 11.324 13.392 11.444C14.46 10.964 15.72 10.208 16.476 9.404L15.912 9.212ZM19.416 9.512C20.556 10.028 21.936 10.844 22.632 11.444L23.028 11C22.32 10.424 20.916 9.62 19.776 9.128L19.416 9.512ZM26.196 5.612V6.176H33.288V5.612H26.196ZM33.072 5.612V5.732C32.892 9.428 32.688 10.808 32.34 11.144C32.22 11.264 32.064 11.288 31.812 11.288C31.536 11.288 30.732 11.276 29.868 11.204C29.976 11.372 30.048 11.6 30.06 11.792C30.84 11.84 31.632 11.852 32.016 11.828C32.412 11.816 32.64 11.744 32.844 11.504C33.276 11.06 33.456 9.704 33.648 5.936C33.66 5.852 33.672 5.612 33.672 5.612H33.072ZM28.944 5.768C28.692 8.108 28.092 10.436 24.984 11.468C25.116 11.588 25.284 11.804 25.356 11.936C28.572 10.808 29.256 8.348 29.568 5.768H28.944ZM27.72 1.376C27.12 3.308 26.004 4.904 24.54 5.912C24.684 6.008 24.936 6.212 25.032 6.332C26.472 5.24 27.648 3.584 28.308 1.52L27.72 1.376ZM29.46 1.208V1.772H32.004V1.208H29.46ZM31.464 1.208V1.568H31.668C32.328 3.56 33.66 5.36 35.136 6.32C35.232 6.164 35.424 5.936 35.556 5.816C34.116 4.952 32.772 3.176 32.136 1.208H31.464ZM36.684 8.96V9.5H47.328V8.96H36.684ZM37.788 6.728V7.244H45.588V6.728H37.788ZM41.676 8.132V11.204C41.676 11.384 41.628 11.432 41.412 11.444C41.196 11.444 40.452 11.456 39.564 11.432C39.648 11.588 39.732 11.768 39.78 11.924C40.872 11.924 41.496 11.936 41.832 11.84C42.168 11.756 42.276 11.6 42.276 11.216V8.132H41.676ZM45.456 6.728V6.86C44.592 7.364 43.02 7.856 41.676 8.132C41.784 8.228 41.94 8.384 42.012 8.504C43.416 8.204 45.072 7.688 46.164 7.052L45.744 6.704L45.612 6.728H45.456ZM38.928 4.052H45.096V5.372H38.928V4.052ZM38.364 3.56V5.864H45.696V3.56H38.364ZM36.768 2.132V2.66H47.208V2.132H36.768ZM41.316 1.04C41.592 1.496 41.88 2.108 42.012 2.492L42.588 2.336C42.468 1.952 42.168 1.352 41.88 0.908L41.316 1.04ZM48.108 13.136H48.684L52.632 1.568H52.068L48.108 13.136ZM54.9187 5.612V6.176H62.0107V5.612H54.9187ZM61.7947 5.612V5.732C61.6147 9.428 61.4107 10.808 61.0627 11.144C60.9427 11.264 60.7867 11.288 60.5347 11.288C60.2587 11.288 59.4547 11.276 58.5907 11.204C58.6987 11.372 58.7707 11.6 58.7827 11.792C59.5627 11.84 60.3547 11.852 60.7387 11.828C61.1347 11.816 61.3627 11.744 61.5667 11.504C61.9987 11.06 62.1787 9.704 62.3707 5.936C62.3827 5.852 62.3947 5.612 62.3947 5.612H61.7947ZM57.6667 5.768C57.4147 8.108 56.8147 10.436 53.7067 11.468C53.8387 11.588 54.0067 11.804 54.0787 11.936C57.2947 10.808 57.9787 8.348 58.2907 5.768H57.6667ZM56.4427 1.376C55.8427 3.308 54.7267 4.904 53.2627 5.912C53.4067 6.008 53.6587 6.212 53.7547 6.332C55.1947 5.24 56.3707 3.584 57.0307 1.52L56.4427 1.376ZM58.1827 1.208V1.772H60.7267V1.208H58.1827ZM60.1867 1.208V1.568H60.3907C61.0507 3.56 62.3827 5.36 63.8587 6.32C63.9547 6.164 64.1467 5.936 64.2787 5.816C62.8387 4.952 61.4947 3.176 60.8587 1.208H60.1867ZM70.0387 1.976V2.468H75.9307V1.976H70.0387ZM69.6787 4.148V4.664H76.1827V4.148H69.6787ZM71.1427 2.768C71.3827 3.272 71.6227 3.944 71.7067 4.376L72.2347 4.22C72.1387 3.8 71.8867 3.14 71.6347 2.648L71.1427 2.768ZM74.2507 2.684C74.1067 3.14 73.8307 3.836 73.5907 4.268L74.0707 4.412C74.2987 4.004 74.5747 3.392 74.8027 2.852L74.2507 2.684ZM70.9027 7.304H75.0187V8.276H70.9027V7.304ZM70.9027 5.9H75.0187V6.86H70.9027V5.9ZM70.3747 5.432V8.744H75.5587V5.432H70.3747ZM71.6347 8.612C71.5387 10.436 71.0347 11.072 68.8987 11.48C69.0187 11.588 69.1747 11.804 69.2347 11.936C71.4907 11.468 72.0907 10.664 72.1987 8.612H71.6347ZM66.0667 3.956V4.484H69.3907V3.956H66.0667ZM65.3947 5.996V6.536H69.7987V5.996H65.3947ZM65.7427 7.388C66.0187 8.156 66.2107 9.128 66.2227 9.788L66.7147 9.668C66.6787 9.02 66.4747 8.048 66.1987 7.28L65.7427 7.388ZM65.2867 10.904L65.4187 11.456C66.6547 11.192 68.3107 10.82 69.9067 10.46L69.8707 9.956C68.1787 10.328 66.4387 10.688 65.2867 10.904ZM69.0907 7.172C68.9827 7.832 68.7307 8.852 68.5387 9.452L68.9587 9.596C69.1747 8.996 69.4027 8.06 69.5947 7.304L69.0907 7.172ZM67.4107 4.136V10.784L67.9507 10.712V4.136H67.4107ZM73.4467 8.612V10.808C73.4467 11.408 73.5067 11.564 73.6867 11.684C73.8547 11.804 74.1427 11.84 74.3707 11.84C74.5027 11.84 74.9707 11.84 75.1147 11.84C75.3187 11.84 75.6067 11.816 75.7507 11.768C75.9187 11.696 76.0627 11.588 76.1227 11.396C76.1947 11.216 76.2307 10.688 76.2547 10.196C76.0747 10.148 75.8707 10.052 75.7387 9.956C75.7387 10.46 75.7267 10.856 75.6907 11.036C75.6547 11.18 75.5827 11.276 75.4867 11.312C75.4027 11.348 75.2227 11.36 75.0667 11.36C74.8747 11.36 74.5987 11.36 74.4547 11.36C74.2987 11.36 74.1787 11.348 74.1067 11.312C74.0227 11.264 74.0107 11.144 74.0107 10.916V8.612H73.4467ZM67.6867 0.931999C67.0987 2.156 66.0907 3.308 65.1067 4.04C65.2027 4.172 65.3707 4.472 65.4187 4.604C66.4507 3.764 67.5307 2.48 68.1787 1.136L67.6867 0.931999ZM67.2907 1.904C68.1787 2.456 69.1387 3.2 69.6907 3.824L70.0147 3.356C69.4507 2.732 68.5027 2.012 67.5667 1.484L67.2907 1.904ZM72.1867 1.112C72.4987 1.484 72.8347 2.012 72.9787 2.36L73.5067 2.156C73.3507 1.808 73.0147 1.304 72.6907 0.943999L72.1867 1.112ZM83.0107 3.356V3.824H86.3587V3.356H83.0107ZM82.4467 9.572V10.028H86.8867V9.572H82.4467ZM82.4467 11.06V11.516H86.8867V11.06H82.4467ZM82.2907 5.084H87.1387V6.992H82.2907V5.084ZM81.7867 4.628V7.46H87.6547V4.628H81.7867ZM82.1587 8.132V11.936H82.6867V8.588H86.7307V11.864H87.2827V8.132H82.1587ZM84.4147 4.88V7.16H84.9187V4.88H84.4147ZM82.8187 5.48C83.0707 5.864 83.3107 6.368 83.4067 6.716L83.7547 6.548C83.6827 6.224 83.4307 5.732 83.1667 5.36L82.8187 5.48ZM86.1427 5.36C86.0107 5.72 85.7467 6.284 85.5427 6.62L85.8667 6.764C86.0707 6.44 86.3227 5.972 86.5387 5.528L86.1427 5.36ZM80.0947 5.636C80.3947 6.476 80.6827 7.592 80.7667 8.252L81.2707 8.108C81.1747 7.472 80.8747 6.38 80.5627 5.54L80.0947 5.636ZM79.0027 8.612C79.1707 9.536 79.3147 10.724 79.3507 11.528L79.8307 11.444C79.7947 10.652 79.6267 9.464 79.4707 8.54L79.0027 8.612ZM77.8267 8.6C77.6827 9.632 77.4787 10.784 77.1787 11.588C77.3227 11.624 77.5627 11.72 77.6707 11.78C77.9347 10.988 78.1747 9.776 78.3547 8.684L77.8267 8.6ZM77.4307 5.324C77.4307 5.18 77.8507 5 77.8507 5V4.976C78.6787 4.004 79.5067 2.612 80.1787 1.22L79.6387 0.98C79.0867 2.312 78.1747 3.728 77.8987 4.076C77.6467 4.46 77.4307 4.712 77.2387 4.76C77.2987 4.916 77.3947 5.192 77.4307 5.324ZM77.4307 5.324C77.5987 5.24 77.8987 5.192 79.8547 4.952C79.8427 4.832 79.8547 4.616 79.8787 4.472L77.7547 4.664L77.4187 4.856L77.4307 5.324ZM77.5027 7.988C77.5027 7.844 77.9227 7.664 77.9227 7.664V7.652C79.0387 6.512 80.1787 4.868 81.1147 3.248L80.5987 2.96C79.7947 4.544 78.5467 6.212 78.1627 6.632C77.8027 7.064 77.5267 7.376 77.3107 7.424C77.3827 7.58 77.4667 7.856 77.5027 7.988ZM77.5027 7.988C77.6947 7.88 78.0307 7.808 80.7307 7.4C80.7187 7.28 80.7067 7.064 80.7307 6.92L77.8267 7.316L77.4907 7.52L77.5027 7.988ZM80.1067 8.396C80.3827 9.164 80.6947 10.172 80.8267 10.832L81.2827 10.688C81.1627 10.052 80.8387 9.044 80.5387 8.288L80.1067 8.396ZM84.5227 0.883999C83.7547 1.964 82.3387 3.02 80.9947 3.608C81.1387 3.716 81.2827 3.896 81.3667 4.028C82.7467 3.38 84.1747 2.264 85.0027 1.076L84.5227 0.883999ZM84.6907 1.34L84.2227 1.544C85.2907 2.648 86.5507 3.344 87.9427 3.92C88.0267 3.764 88.1947 3.572 88.3387 3.452C86.9707 2.96 85.6867 2.348 84.6907 1.34ZM94.4227 7.748C93.2827 8.72 91.0387 9.584 89.2267 9.968C89.3467 10.076 89.5027 10.28 89.5867 10.424C91.3867 10.004 93.6787 9.056 94.9027 7.988L94.4227 7.748ZM95.1067 7.724L94.6147 7.868C95.4787 9.92 97.3147 11.228 99.7987 11.744C99.8827 11.588 100.027 11.372 100.147 11.252C97.7107 10.82 95.8867 9.596 95.1067 7.724ZM98.8747 8.336C98.2267 8.804 97.1107 9.416 96.2827 9.8L96.6667 10.1C97.5067 9.728 98.5507 9.188 99.3187 8.648L98.8747 8.336ZM89.4307 7.58V8.096H100.027V7.58H89.4307ZM96.5107 1.616V5.54H97.0507V1.616H96.5107ZM98.7547 1.124V6.2C98.7547 6.356 98.7067 6.404 98.5267 6.404C98.3587 6.416 97.7707 6.428 97.0507 6.404C97.1347 6.56 97.2187 6.764 97.2547 6.92C98.1067 6.92 98.6347 6.92 98.9227 6.824C99.2107 6.728 99.2947 6.572 99.2947 6.212V1.124H98.7547ZM92.2267 0.991999V7.016H92.7547V0.991999H92.2267ZM94.5307 4.496V6.02C94.5307 6.116 94.5067 6.152 94.3987 6.164C94.2907 6.176 93.9667 6.176 93.4987 6.164C93.5707 6.296 93.6667 6.464 93.6787 6.596C94.2307 6.596 94.5787 6.596 94.7827 6.5C95.0107 6.428 95.0467 6.284 95.0467 6.02V4.496H94.5307ZM90.0787 4.496V6.68H90.5707V4.952H94.7947V4.496H90.0787ZM89.3707 3.26V3.728H95.4427V3.26H89.3707ZM90.5707 1.892L90.3787 2.372H94.9747V1.892H90.5707ZM90.6307 1.04C90.4027 1.724 90.0787 2.42 89.6467 2.936C89.7787 2.984 90.0187 3.092 90.1147 3.164C90.4987 2.66 90.8827 1.88 91.1347 1.16L90.6307 1.04ZM91.5547 11.876C91.7707 11.744 92.1187 11.648 95.4787 10.832C95.4667 10.724 95.4667 10.532 95.4787 10.376L91.8547 11.168L91.5427 11.42L91.5547 11.876ZM91.5667 11.864C91.5667 11.624 92.3707 11.156 92.3707 11.156V9.296H91.7947V10.58C91.7947 11.072 91.4827 11.276 91.3027 11.384C91.3987 11.492 91.5187 11.732 91.5667 11.864ZM94.2307 6.752C94.4467 7.112 94.7107 7.616 94.8067 7.916L95.3587 7.724C95.2507 7.436 94.9987 6.944 94.7587 6.596L94.2307 6.752ZM100.831 13.136H101.407L105.355 1.568H104.791L100.831 13.136ZM106.345 8.876V9.368H111.745V8.876H106.345ZM105.997 3.056V3.548H111.985V3.056H105.997ZM108.721 1.82V10.784H109.273V1.82H108.721ZM106.021 10.904L106.117 11.444C107.629 11.264 109.789 11 111.829 10.736L111.817 10.256C109.681 10.52 107.461 10.76 106.021 10.904ZM106.885 6.452H111.205V7.532H106.885V6.452ZM106.885 4.94H111.205V5.996H106.885V4.94ZM106.369 4.472V7.988H111.733V4.472H106.369ZM111.385 1.148C110.197 1.436 107.953 1.652 106.177 1.736C106.237 1.88 106.309 2.072 106.333 2.204C108.133 2.132 110.389 1.916 111.733 1.616L111.385 1.148ZM111.841 3.848V4.4H116.281V3.848H111.841ZM116.065 3.848V4.004C115.921 8.996 115.753 10.748 115.441 11.132C115.333 11.276 115.213 11.3 115.021 11.3C114.793 11.3 114.205 11.3 113.581 11.252C113.677 11.396 113.737 11.648 113.749 11.816C114.301 11.84 114.877 11.852 115.201 11.828C115.537 11.816 115.753 11.732 115.933 11.468C116.341 10.976 116.473 9.332 116.617 4.196C116.617 4.112 116.629 3.848 116.629 3.848H116.065ZM113.473 1.112C113.461 5.504 113.473 9.572 110.605 11.552C110.761 11.636 110.977 11.816 111.085 11.936C114.013 9.824 114.013 5.672 114.037 1.112H113.473ZM120.865 9.236V10.856C120.865 11.576 121.177 11.72 122.317 11.72C122.557 11.72 124.873 11.72 125.137 11.72C126.073 11.72 126.265 11.42 126.349 10.148C126.193 10.112 125.965 10.04 125.821 9.932C125.773 11.06 125.677 11.204 125.077 11.204C124.609 11.204 122.653 11.204 122.305 11.204C121.561 11.204 121.441 11.144 121.441 10.856V9.236H120.865ZM122.809 8.876C123.277 9.344 123.853 10.004 124.153 10.4L124.549 10.076C124.261 9.704 123.673 9.068 123.205 8.612L122.809 8.876ZM126.877 9.224C127.273 9.92 127.705 10.868 127.885 11.432L128.425 11.24C128.233 10.688 127.789 9.764 127.393 9.068L126.877 9.224ZM119.221 9.128C119.017 9.8 118.645 10.712 118.237 11.264L118.729 11.516C119.137 10.94 119.485 10.016 119.701 9.332L119.221 9.128ZM124.393 4.976V7.604C124.393 8.3 124.645 8.444 125.557 8.444C125.749 8.444 127.405 8.444 127.609 8.444C128.329 8.444 128.509 8.204 128.581 7.184C128.425 7.148 128.197 7.088 128.077 6.992C128.029 7.82 127.957 7.94 127.561 7.94C127.213 7.94 125.821 7.94 125.569 7.94C125.041 7.94 124.957 7.88 124.957 7.604V4.976H124.393ZM121.573 1.88C122.197 2.468 122.905 3.296 123.229 3.824L123.685 3.536C123.337 3.02 122.617 2.216 122.005 1.652L121.573 1.88ZM122.305 4.1V8C122.305 8.12 122.269 8.156 122.125 8.168C121.981 8.168 121.513 8.168 120.925 8.168C120.997 8.3 121.093 8.48 121.117 8.624C121.837 8.624 122.281 8.624 122.533 8.54C122.773 8.444 122.845 8.3 122.845 8V4.1H122.305ZM119.269 4.1V4.592H122.557V4.1H119.269ZM118.405 3.644C118.405 3.512 118.825 3.344 118.825 3.344V3.332C119.569 2.804 120.361 2.012 121.081 1.148L120.541 0.931999C119.965 1.724 119.101 2.54 118.849 2.732C118.609 2.936 118.393 3.068 118.225 3.08C118.297 3.236 118.369 3.524 118.405 3.644ZM118.405 3.644C118.633 3.56 119.053 3.512 123.001 3.2C122.965 3.092 122.917 2.888 122.893 2.744L118.765 3.02L118.393 3.224L118.405 3.644ZM124.705 2.072V2.576H127.933V2.072H124.705ZM124.693 6.056V6.56H127.921V6.056H124.693ZM118.921 4.1V6.056C118.921 6.824 118.861 7.76 118.321 8.492C118.429 8.552 118.633 8.744 118.717 8.852C119.341 8.06 119.449 6.932 119.449 6.068V4.1H118.921ZM119.497 7.04L119.713 7.52C120.541 7.292 121.525 7.016 122.497 6.728L122.461 6.344C121.345 6.608 120.265 6.884 119.497 7.04ZM119.737 5.396C120.457 5.624 121.381 5.996 121.885 6.236L122.113 5.864C121.609 5.624 120.685 5.288 119.977 5.072L119.737 5.396ZM124.405 1.088V3.332C124.405 4.052 124.597 4.292 125.329 4.292C125.533 4.292 127.177 4.292 127.501 4.292C127.861 4.292 128.221 4.292 128.389 4.244C128.365 4.124 128.341 3.896 128.329 3.752C128.125 3.788 127.717 3.8 127.489 3.8C127.189 3.8 125.641 3.8 125.341 3.8C125.029 3.8 124.969 3.692 124.969 3.344V1.088H124.405ZM130.477 2.096V3.896H131.029V2.6H139.873V3.896H140.437V2.096H130.477ZM135.277 3.476C135.241 4.208 135.157 5.144 135.061 5.756H135.589C135.673 5.168 135.745 4.232 135.805 3.476H135.277ZM132.277 8.048H138.685V8.708H132.277V8.048ZM132.277 9.128H138.685V9.812H132.277V9.128ZM132.277 6.98H138.685V7.628H132.277V6.98ZM131.713 6.548V10.232H139.273V6.548H131.713ZM136.357 10.736C137.773 11.132 139.177 11.588 140.065 11.912L140.449 11.504C139.501 11.168 138.061 10.736 136.657 10.376L136.357 10.736ZM132.673 3.692H138.457L138.325 5.516H132.433L132.673 3.692ZM132.193 3.272L131.845 5.948H138.829L139.057 3.272H132.193ZM134.017 10.364C133.273 10.796 131.641 11.24 130.381 11.468C130.489 11.588 130.645 11.792 130.717 11.9C132.001 11.672 133.585 11.216 134.569 10.676L134.017 10.364ZM130.057 4.34V4.832H132.529V4.796H138.373V4.832H140.857V4.34H138.373V4.364H132.529V4.34H130.057ZM134.641 1.1C134.989 1.508 135.337 2.084 135.469 2.468L136.009 2.264C135.853 1.88 135.493 1.316 135.145 0.908L134.641 1.1ZM147.253 3.032L146.977 3.596H152.905V3.032H147.253ZM148.693 5.612V6.152H152.653V5.612H148.693ZM148.693 8.252V8.816H152.821V8.252H148.693ZM148.417 3.212V11.888H149.005V3.212H148.417ZM147.817 1.16C147.205 2.936 146.221 4.688 145.117 5.84C145.249 5.936 145.489 6.128 145.573 6.224C146.677 5 147.697 3.188 148.381 1.292L147.817 1.16ZM145.105 1.04C144.385 2.924 143.221 4.784 141.973 5.984C142.093 6.104 142.273 6.404 142.345 6.524C143.641 5.204 144.853 3.236 145.657 1.208L145.105 1.04ZM143.785 3.992V11.876H144.373V3.44L144.349 3.416L143.785 3.992Z" fill="#007282"/>
</svg>
