<svg width="153" height="14" viewBox="0 0 153 14" fill="none" xmlns="http://www.w3.org/2000/svg">
<path d="M1.524 4.796V11.876H2.088V5.324H10.284V4.796H1.524ZM9.96 4.796V11.096C9.96 11.288 9.888 11.336 9.684 11.348C9.48 11.36 8.784 11.36 7.944 11.336C8.028 11.48 8.112 11.684 8.136 11.828C9.216 11.828 9.792 11.816 10.092 11.744C10.404 11.648 10.5 11.468 10.5 11.096V4.796H9.96ZM4.116 7.7V8.18H7.584V9.848H4.116V10.316H8.112V7.7H4.116ZM3.852 7.7V10.928H4.368V7.7H3.852ZM0.78 2.372V2.9H11.232V2.372H0.78ZM3.372 3.2C3.66 3.644 4.008 4.256 4.188 4.628L4.668 4.376C4.512 4.04 4.14 3.452 3.852 3.02L3.372 3.2ZM8.112 3.068C7.848 3.632 7.344 4.46 6.948 4.952L7.416 5.108C7.812 4.64 8.316 3.872 8.712 3.236L8.112 3.068ZM5.4 1.1C5.616 1.604 5.88 2.264 6 2.684L6.552 2.516C6.42 2.108 6.156 1.46 5.916 0.956L5.4 1.1ZM4.452 5.024C4.344 6.368 3.852 6.98 2.184 7.304C2.292 7.4 2.436 7.604 2.484 7.724C4.284 7.316 4.848 6.572 4.992 5.024H4.452ZM6.636 5.06V6.344C6.636 6.992 6.756 7.22 7.368 7.22C7.524 7.22 8.568 7.22 8.808 7.22C9.06 7.22 9.336 7.208 9.48 7.172C9.456 7.052 9.444 6.848 9.42 6.704C9.252 6.74 8.976 6.74 8.796 6.74C8.58 6.74 7.62 6.74 7.428 6.74C7.2 6.74 7.164 6.656 7.164 6.356V5.06H6.636ZM12.804 8.432V8.96H23.208V8.432H12.804ZM12.864 3.236V3.752H23.16V3.236H12.864ZM13.344 5.252V5.768H22.74V5.252H13.344ZM13.956 6.848V7.34H22.14V6.848H13.956ZM17.688 5.456V11.9H18.264V5.456H17.688ZM16.548 0.991999V3.488H17.112V0.991999H16.548ZM18.852 0.991999V3.476H19.416V0.991999H18.852ZM21.648 1.172C21.42 1.724 20.976 2.552 20.628 3.068L21.108 3.236C21.456 2.756 21.888 2.012 22.224 1.352L21.648 1.172ZM20.052 3.752C19.884 4.148 19.536 4.748 19.284 5.132L19.752 5.288C20.028 4.928 20.352 4.412 20.628 3.92L20.052 3.752ZM13.896 1.328C14.328 1.904 14.796 2.696 14.976 3.188L15.492 2.984C15.312 2.48 14.844 1.7 14.388 1.148L13.896 1.328ZM15.468 3.908C15.78 4.34 16.08 4.916 16.188 5.3L16.728 5.132C16.608 4.76 16.308 4.184 15.996 3.764L15.468 3.908ZM16.464 9.68C15.636 10.244 14.016 10.76 12.732 10.988C12.864 11.096 13.032 11.288 13.104 11.432C14.376 11.168 16.044 10.556 16.932 9.92L16.464 9.68ZM19.2 10.016C20.436 10.412 22.044 11.024 22.896 11.408L23.196 10.964C22.332 10.592 20.724 10.028 19.5 9.632L19.2 10.016ZM29.832 5.036V5.456H34.608V5.036H29.832ZM29.832 6.248V6.668H34.656V6.248H29.832ZM29.712 7.508V7.964H35.172V7.508H29.712ZM28.296 2.696C27.744 3.872 26.844 5.048 25.932 5.828C26.052 5.9 26.268 6.104 26.352 6.188C27.252 5.36 28.188 4.112 28.812 2.852L28.296 2.696ZM30.192 2.684C29.724 3.764 28.968 4.844 28.176 5.576C28.32 5.672 28.536 5.828 28.632 5.924C29.388 5.156 30.18 3.992 30.708 2.828L30.192 2.684ZM32.172 4.004V7.712H32.7V4.004H32.172ZM28.92 9.068V10.976C28.92 11.648 29.16 11.792 30.108 11.792C30.324 11.792 32.088 11.792 32.304 11.792C33.06 11.792 33.264 11.516 33.312 10.364C33.168 10.328 32.94 10.244 32.808 10.136C32.772 11.156 32.688 11.276 32.244 11.276C31.884 11.276 30.408 11.276 30.132 11.276C29.556 11.276 29.46 11.228 29.46 10.976V9.068H28.92ZM29.952 8.672C30.696 9.008 31.56 9.536 32.016 9.932L32.376 9.524C31.932 9.152 31.032 8.648 30.312 8.324L29.952 8.672ZM33.024 9.2C33.756 9.896 34.512 10.868 34.848 11.528L35.328 11.252C34.992 10.604 34.2 9.644 33.468 8.96L33.024 9.2ZM27.552 9.092C27.276 9.86 26.772 10.76 26.064 11.276L26.52 11.564C27.252 11.012 27.708 10.088 28.032 9.272L27.552 9.092ZM30.072 3.8L29.724 4.256H34.944V3.8H30.072ZM29.544 4.328V8.324H30.06V3.848L29.544 4.328ZM25.68 1.976V2.504H35.388V1.976H25.68ZM25.368 1.976V5.648C25.368 7.4 25.296 9.812 24.42 11.564C24.552 11.624 24.78 11.804 24.876 11.9C25.788 10.076 25.92 7.472 25.92 5.648V1.976H25.368ZM27.468 4.568V8.336H28.008V4.052H27.996L27.468 4.568ZM29.652 0.943999C30.012 1.376 30.372 1.976 30.54 2.396L31.032 2.144C30.876 1.76 30.492 1.172 30.132 0.74L29.652 0.943999ZM31.572 2.828C31.896 3.14 32.22 3.596 32.376 3.92L32.82 3.656C32.652 3.356 32.304 2.924 31.98 2.6L31.572 2.828ZM38.244 1.856V2.42H46.236V1.856H38.244ZM38.244 4.676V5.24H46.188V4.676H38.244ZM38.148 7.568V8.12H46.2V7.568H38.148ZM37.92 1.856V6.236C37.92 7.928 37.776 10.04 36.444 11.564C36.576 11.636 36.804 11.828 36.888 11.96C38.292 10.364 38.484 8.012 38.484 6.236V1.856H37.92ZM45.96 1.856V10.952C45.96 11.192 45.876 11.264 45.636 11.264C45.408 11.276 44.568 11.288 43.632 11.264C43.716 11.42 43.824 11.684 43.848 11.828C45.012 11.84 45.696 11.84 46.044 11.744C46.404 11.636 46.536 11.432 46.536 10.952V1.856H45.96ZM41.724 2.06V11.804H42.312V2.06H41.724ZM48.108 13.136H48.684L52.632 1.568H52.068L48.108 13.136ZM53.3467 5.684V6.164H64.1107V5.684H53.3467ZM54.3187 8.516V9.008H63.1507V8.516H54.3187ZM53.5267 9.956V10.46H63.9307V9.956H53.5267ZM54.7867 4.316V4.796H62.2267V7.136H54.7027V7.628H62.8027V4.316H54.7867ZM58.3867 3.596V11.888H58.9747V3.596H58.3867ZM54.8467 1.736V2.24H58.6867V1.736H54.8467ZM59.6707 1.736V2.252H64.1467V1.736H59.6707ZM55.1947 0.908C54.7747 1.808 54.0787 2.672 53.3107 3.26C53.4547 3.356 53.6707 3.548 53.7547 3.644C54.4867 3.008 55.2547 2.048 55.7227 1.052L55.1947 0.908ZM59.9347 0.92C59.6107 1.736 58.9987 2.492 58.3267 3.008C58.4587 3.092 58.6867 3.284 58.7827 3.38C59.4547 2.816 60.1267 1.964 60.4867 1.052L59.9347 0.92ZM55.7587 2.684C56.1187 3.044 56.5747 3.536 56.8027 3.848L57.2227 3.524C56.9947 3.236 56.5267 2.768 56.1667 2.42L55.7587 2.684ZM61.0027 2.708C61.3867 3.056 61.8427 3.548 62.0587 3.848L62.4787 3.524C62.2507 3.224 61.7827 2.768 61.4107 2.432L61.0027 2.708ZM72.6307 2.3V8.912H73.1827V2.3H72.6307ZM75.0547 1.22V11C75.0547 11.204 75.0067 11.252 74.8147 11.264C74.5867 11.276 73.8907 11.288 73.1347 11.264C73.2307 11.444 73.3147 11.72 73.3507 11.888C74.2267 11.888 74.8627 11.876 75.1867 11.78C75.4867 11.672 75.6307 11.48 75.6307 10.988V1.22H75.0547ZM68.9947 4.592V11.864H69.5227V4.592H68.9947ZM71.1067 6.02V9.764C71.1067 9.872 71.0827 9.908 70.9387 9.92C70.8187 9.932 70.4227 9.932 69.8707 9.92C69.9547 10.064 70.0387 10.268 70.0627 10.424C70.6987 10.424 71.1067 10.424 71.3467 10.328C71.5747 10.232 71.6227 10.052 71.6227 9.752V6.02H71.1067ZM66.1147 1.712V5.816C66.1147 7.484 66.0427 9.728 65.1427 11.324C65.2867 11.384 65.5147 11.564 65.5987 11.672C66.5347 9.992 66.6547 7.556 66.6547 5.816V1.712H66.1147ZM66.4387 1.712V2.252H71.0467V4.1H66.4387V4.652H71.6107V1.712H66.4387ZM67.0387 6.02V10.544H67.5307V6.548H71.3587V6.02H67.0387ZM82.4467 3.632V4.196H88.1707V3.632H82.4467ZM86.2747 1.016V11C86.2747 11.216 86.2027 11.288 85.9747 11.288C85.7467 11.3 84.9427 11.312 84.1027 11.288C84.1747 11.468 84.2827 11.744 84.3187 11.9C85.3387 11.9 86.0107 11.9 86.3707 11.792C86.7187 11.696 86.8627 11.504 86.8627 10.976V1.016H86.2747ZM86.1907 3.872C85.3267 5.948 83.5507 8.288 81.9547 9.428C82.0867 9.548 82.2667 9.752 82.3507 9.908C83.9827 8.648 85.7467 6.284 86.6467 4.148L86.1907 3.872ZM77.5387 3.62V4.196H81.9427V3.62H77.5387ZM79.6387 0.991999V11.876H80.2147V0.991999H79.6387ZM79.6027 3.932C79.1467 5.804 78.0907 7.964 77.0947 9.056C77.2027 9.188 77.3707 9.416 77.4547 9.572C78.4747 8.384 79.5427 6.032 80.0467 4.076L79.6027 3.932ZM80.1547 4.46L79.8187 4.76C80.2267 5.252 81.4507 6.884 81.8107 7.496L82.2307 6.992C81.9067 6.56 80.5267 4.844 80.1547 4.46ZM93.8707 1.04C93.0787 1.268 91.5787 1.46 90.3307 1.58C90.3907 1.688 90.4747 1.868 90.4987 1.988C91.7827 1.904 93.3187 1.712 94.3027 1.424L93.8707 1.04ZM98.9707 1.064C98.1307 1.292 96.5347 1.472 95.1907 1.556C95.2627 1.688 95.3347 1.868 95.3707 1.976C96.7387 1.904 98.3827 1.736 99.4147 1.436L98.9707 1.064ZM90.5467 2.768V3.26H94.5187V2.768H90.5467ZM95.4427 2.768V3.26H100.075V2.768H95.4427ZM92.5267 2.9V4.856H93.0667V2.9H92.5267ZM97.5547 2.9V4.892H98.0947V2.9H97.5547ZM91.5907 7.04H97.8187V8.072H91.5907V7.04ZM91.5907 8.516H97.8187V9.572H91.5907V8.516ZM91.5907 5.564H97.8187V6.584H91.5907V5.564ZM91.0147 5.108V10.04H98.4067V5.108H91.0147ZM95.9707 10.628C97.3267 11.024 98.7187 11.504 99.5947 11.876L99.8827 11.444C98.9947 11.072 97.5787 10.592 96.2227 10.232L95.9707 10.628ZM93.0067 10.232C92.1187 10.712 90.6307 11.156 89.4547 11.432C89.5627 11.552 89.7307 11.828 89.7787 11.948C90.9667 11.6 92.5267 11.036 93.4867 10.484L93.0067 10.232ZM90.3307 1.58V2.648C90.3307 3.32 90.1987 4.136 89.3827 4.772C89.5027 4.844 89.7067 5.048 89.7787 5.168C90.6667 4.448 90.8707 3.44 90.8707 2.648V1.58H90.3307ZM95.1907 1.556V2.456C95.1907 3.104 95.0707 3.956 94.3867 4.64C94.5067 4.688 94.7227 4.844 94.8187 4.952C95.5627 4.22 95.7307 3.2 95.7307 2.456V1.556H95.1907ZM100.831 13.136H101.407L105.355 1.568H104.791L100.831 13.136ZM107.917 5.36V5.924H115.153V5.36H107.917ZM107.917 8V8.552H115.153V8H107.917ZM107.917 10.64V11.204H115.153V10.64H107.917ZM107.533 2.684V11.924H108.109V3.236H114.961V11.84H115.549V2.684H107.533ZM111.097 0.968C110.953 1.532 110.665 2.384 110.425 2.924L110.929 3.032C111.205 2.528 111.481 1.748 111.733 1.076L111.097 0.968ZM123.145 7.748C122.005 8.72 119.761 9.584 117.949 9.968C118.069 10.076 118.225 10.28 118.309 10.424C120.109 10.004 122.401 9.056 123.625 7.988L123.145 7.748ZM123.829 7.724L123.337 7.868C124.201 9.92 126.037 11.228 128.521 11.744C128.605 11.588 128.749 11.372 128.869 11.252C126.433 10.82 124.609 9.596 123.829 7.724ZM127.597 8.336C126.949 8.804 125.833 9.416 125.005 9.8L125.389 10.1C126.229 9.728 127.273 9.188 128.041 8.648L127.597 8.336ZM118.153 7.58V8.096H128.749V7.58H118.153ZM125.233 1.616V5.54H125.773V1.616H125.233ZM127.477 1.124V6.2C127.477 6.356 127.429 6.404 127.249 6.404C127.081 6.416 126.493 6.428 125.773 6.404C125.857 6.56 125.941 6.764 125.977 6.92C126.829 6.92 127.357 6.92 127.645 6.824C127.933 6.728 128.017 6.572 128.017 6.212V1.124H127.477ZM120.949 0.991999V7.016H121.477V0.991999H120.949ZM123.253 4.496V6.02C123.253 6.116 123.229 6.152 123.121 6.164C123.013 6.176 122.689 6.176 122.221 6.164C122.293 6.296 122.389 6.464 122.401 6.596C122.953 6.596 123.301 6.596 123.505 6.5C123.733 6.428 123.769 6.284 123.769 6.02V4.496H123.253ZM118.801 4.496V6.68H119.293V4.952H123.517V4.496H118.801ZM118.093 3.26V3.728H124.165V3.26H118.093ZM119.293 1.892L119.101 2.372H123.697V1.892H119.293ZM119.353 1.04C119.125 1.724 118.801 2.42 118.369 2.936C118.501 2.984 118.741 3.092 118.837 3.164C119.221 2.66 119.605 1.88 119.857 1.16L119.353 1.04ZM120.277 11.876C120.493 11.744 120.841 11.648 124.201 10.832C124.189 10.724 124.189 10.532 124.201 10.376L120.577 11.168L120.265 11.42L120.277 11.876ZM120.289 11.864C120.289 11.624 121.093 11.156 121.093 11.156V9.296H120.517V10.58C120.517 11.072 120.205 11.276 120.025 11.384C120.121 11.492 120.241 11.732 120.289 11.864ZM122.953 6.752C123.169 7.112 123.433 7.616 123.529 7.916L124.081 7.724C123.973 7.436 123.721 6.944 123.481 6.596L122.953 6.752ZM130.069 5.684V6.164H140.833V5.684H130.069ZM131.041 8.516V9.008H139.873V8.516H131.041ZM130.249 9.956V10.46H140.653V9.956H130.249ZM131.509 4.316V4.796H138.949V7.136H131.425V7.628H139.525V4.316H131.509ZM135.109 3.596V11.888H135.697V3.596H135.109ZM131.569 1.736V2.24H135.409V1.736H131.569ZM136.393 1.736V2.252H140.869V1.736H136.393ZM131.917 0.908C131.497 1.808 130.801 2.672 130.033 3.26C130.177 3.356 130.393 3.548 130.477 3.644C131.209 3.008 131.977 2.048 132.445 1.052L131.917 0.908ZM136.657 0.92C136.333 1.736 135.721 2.492 135.049 3.008C135.181 3.092 135.409 3.284 135.505 3.38C136.177 2.816 136.849 1.964 137.209 1.052L136.657 0.92ZM132.481 2.684C132.841 3.044 133.297 3.536 133.525 3.848L133.945 3.524C133.717 3.236 133.249 2.768 132.889 2.42L132.481 2.684ZM137.725 2.708C138.109 3.056 138.565 3.548 138.781 3.848L139.201 3.524C138.973 3.224 138.505 2.768 138.133 2.432L137.725 2.708ZM149.353 2.3V8.912H149.905V2.3H149.353ZM151.777 1.22V11C151.777 11.204 151.729 11.252 151.537 11.264C151.309 11.276 150.613 11.288 149.857 11.264C149.953 11.444 150.037 11.72 150.073 11.888C150.949 11.888 151.585 11.876 151.909 11.78C152.209 11.672 152.353 11.48 152.353 10.988V1.22H151.777ZM145.717 4.592V11.864H146.245V4.592H145.717ZM147.829 6.02V9.764C147.829 9.872 147.805 9.908 147.661 9.92C147.541 9.932 147.145 9.932 146.593 9.92C146.677 10.064 146.761 10.268 146.785 10.424C147.421 10.424 147.829 10.424 148.069 10.328C148.297 10.232 148.345 10.052 148.345 9.752V6.02H147.829ZM142.837 1.712V5.816C142.837 7.484 142.765 9.728 141.865 11.324C142.009 11.384 142.237 11.564 142.321 11.672C143.257 9.992 143.377 7.556 143.377 5.816V1.712H142.837ZM143.161 1.712V2.252H147.769V4.1H143.161V4.652H148.333V1.712H143.161ZM143.761 6.02V10.544H144.253V6.548H148.081V6.02H143.761Z" fill="#007282"/>
</svg>
