<svg width="106" height="26" viewBox="0 0 106 26" fill="none" xmlns="http://www.w3.org/2000/svg">
<path d="M0.576 8.624V9.128H11.424V8.624H0.576ZM0.936 2.012V2.516H10.896V2.012H0.936ZM7.872 7.796V11.168C7.872 11.324 7.824 11.384 7.62 11.396C7.428 11.408 6.768 11.408 5.952 11.384C6.036 11.54 6.132 11.756 6.156 11.888C7.152 11.888 7.728 11.9 8.04 11.804C8.352 11.72 8.436 11.54 8.436 11.18V7.796H7.872ZM5.688 1.016V7.436H6.264V1.016H5.688ZM2.496 9.692C3.252 10.124 4.128 10.784 4.56 11.264L4.98 10.844C4.536 10.388 3.636 9.752 2.904 9.344L2.496 9.692ZM2.4 5.144H9.6V6.068H2.4V5.144ZM2.4 3.8H9.6V4.7H2.4V3.8ZM1.848 3.344V6.524H10.176V3.344H1.848ZM7.824 6.812C8.82 7.088 10.008 7.7 10.608 8.18L10.956 7.796C10.344 7.34 9.144 6.752 8.16 6.464L7.824 6.812ZM1.032 7.364L1.068 7.868C3.324 7.832 6.708 7.76 9.912 7.676L9.936 7.232C6.672 7.304 3.204 7.352 1.032 7.364ZM17.676 7.172V11.888H18.264V7.172H17.676ZM13.02 1.94V3.608H13.572V2.468H22.476V3.608H23.04V1.94H13.02ZM12.828 4.028V4.532H23.22V4.028H12.828ZM12.672 8.276V8.804H23.34V8.276H12.672ZM20.676 3.128C19.824 5.684 17.52 6.704 12.852 6.944C12.948 7.088 13.032 7.292 13.08 7.472C17.832 7.16 20.34 6.044 21.24 3.308L20.676 3.128ZM14.412 5.828C17.664 6.332 20.628 6.98 22.392 7.604L22.98 7.208C21.084 6.584 17.988 5.9 14.916 5.444L14.412 5.828ZM17.34 1.124C17.604 1.472 17.928 1.964 18.072 2.288L18.612 2.06C18.468 1.772 18.144 1.292 17.868 0.956L17.34 1.124ZM14.412 5.828H15.12C15.912 5.144 17.076 3.956 17.772 2.936L17.172 2.744C16.5 3.752 15.312 5.024 14.412 5.828ZM15.912 9.212C15.228 9.944 14.028 10.604 12.936 11.024C13.068 11.132 13.296 11.324 13.392 11.444C14.46 10.964 15.72 10.208 16.476 9.404L15.912 9.212ZM19.416 9.512C20.556 10.028 21.936 10.844 22.632 11.444L23.028 11C22.32 10.424 20.916 9.62 19.776 9.128L19.416 9.512ZM26.196 5.612V6.176H33.288V5.612H26.196ZM33.072 5.612V5.732C32.892 9.428 32.688 10.808 32.34 11.144C32.22 11.264 32.064 11.288 31.812 11.288C31.536 11.288 30.732 11.276 29.868 11.204C29.976 11.372 30.048 11.6 30.06 11.792C30.84 11.84 31.632 11.852 32.016 11.828C32.412 11.816 32.64 11.744 32.844 11.504C33.276 11.06 33.456 9.704 33.648 5.936C33.66 5.852 33.672 5.612 33.672 5.612H33.072ZM28.944 5.768C28.692 8.108 28.092 10.436 24.984 11.468C25.116 11.588 25.284 11.804 25.356 11.936C28.572 10.808 29.256 8.348 29.568 5.768H28.944ZM27.72 1.376C27.12 3.308 26.004 4.904 24.54 5.912C24.684 6.008 24.936 6.212 25.032 6.332C26.472 5.24 27.648 3.584 28.308 1.52L27.72 1.376ZM29.46 1.208V1.772H32.004V1.208H29.46ZM31.464 1.208V1.568H31.668C32.328 3.56 33.66 5.36 35.136 6.32C35.232 6.164 35.424 5.936 35.556 5.816C34.116 4.952 32.772 3.176 32.136 1.208H31.464ZM36.684 8.96V9.5H47.328V8.96H36.684ZM37.788 6.728V7.244H45.588V6.728H37.788ZM41.676 8.132V11.204C41.676 11.384 41.628 11.432 41.412 11.444C41.196 11.444 40.452 11.456 39.564 11.432C39.648 11.588 39.732 11.768 39.78 11.924C40.872 11.924 41.496 11.936 41.832 11.84C42.168 11.756 42.276 11.6 42.276 11.216V8.132H41.676ZM45.456 6.728V6.86C44.592 7.364 43.02 7.856 41.676 8.132C41.784 8.228 41.94 8.384 42.012 8.504C43.416 8.204 45.072 7.688 46.164 7.052L45.744 6.704L45.612 6.728H45.456ZM38.928 4.052H45.096V5.372H38.928V4.052ZM38.364 3.56V5.864H45.696V3.56H38.364ZM36.768 2.132V2.66H47.208V2.132H36.768ZM41.316 1.04C41.592 1.496 41.88 2.108 42.012 2.492L42.588 2.336C42.468 1.952 42.168 1.352 41.88 0.908L41.316 1.04ZM48.108 13.136H48.684L52.632 1.568H52.068L48.108 13.136ZM54.9187 5.612V6.176H62.0107V5.612H54.9187ZM61.7947 5.612V5.732C61.6147 9.428 61.4107 10.808 61.0627 11.144C60.9427 11.264 60.7867 11.288 60.5347 11.288C60.2587 11.288 59.4547 11.276 58.5907 11.204C58.6987 11.372 58.7707 11.6 58.7827 11.792C59.5627 11.84 60.3547 11.852 60.7387 11.828C61.1347 11.816 61.3627 11.744 61.5667 11.504C61.9987 11.06 62.1787 9.704 62.3707 5.936C62.3827 5.852 62.3947 5.612 62.3947 5.612H61.7947ZM57.6667 5.768C57.4147 8.108 56.8147 10.436 53.7067 11.468C53.8387 11.588 54.0067 11.804 54.0787 11.936C57.2947 10.808 57.9787 8.348 58.2907 5.768H57.6667ZM56.4427 1.376C55.8427 3.308 54.7267 4.904 53.2627 5.912C53.4067 6.008 53.6587 6.212 53.7547 6.332C55.1947 5.24 56.3707 3.584 57.0307 1.52L56.4427 1.376ZM58.1827 1.208V1.772H60.7267V1.208H58.1827ZM60.1867 1.208V1.568H60.3907C61.0507 3.56 62.3827 5.36 63.8587 6.32C63.9547 6.164 64.1467 5.936 64.2787 5.816C62.8387 4.952 61.4947 3.176 60.8587 1.208H60.1867ZM70.0387 1.976V2.468H75.9307V1.976H70.0387ZM69.6787 4.148V4.664H76.1827V4.148H69.6787ZM71.1427 2.768C71.3827 3.272 71.6227 3.944 71.7067 4.376L72.2347 4.22C72.1387 3.8 71.8867 3.14 71.6347 2.648L71.1427 2.768ZM74.2507 2.684C74.1067 3.14 73.8307 3.836 73.5907 4.268L74.0707 4.412C74.2987 4.004 74.5747 3.392 74.8027 2.852L74.2507 2.684ZM70.9027 7.304H75.0187V8.276H70.9027V7.304ZM70.9027 5.9H75.0187V6.86H70.9027V5.9ZM70.3747 5.432V8.744H75.5587V5.432H70.3747ZM71.6347 8.612C71.5387 10.436 71.0347 11.072 68.8987 11.48C69.0187 11.588 69.1747 11.804 69.2347 11.936C71.4907 11.468 72.0907 10.664 72.1987 8.612H71.6347ZM66.0667 3.956V4.484H69.3907V3.956H66.0667ZM65.3947 5.996V6.536H69.7987V5.996H65.3947ZM65.7427 7.388C66.0187 8.156 66.2107 9.128 66.2227 9.788L66.7147 9.668C66.6787 9.02 66.4747 8.048 66.1987 7.28L65.7427 7.388ZM65.2867 10.904L65.4187 11.456C66.6547 11.192 68.3107 10.82 69.9067 10.46L69.8707 9.956C68.1787 10.328 66.4387 10.688 65.2867 10.904ZM69.0907 7.172C68.9827 7.832 68.7307 8.852 68.5387 9.452L68.9587 9.596C69.1747 8.996 69.4027 8.06 69.5947 7.304L69.0907 7.172ZM67.4107 4.136V10.784L67.9507 10.712V4.136H67.4107ZM73.4467 8.612V10.808C73.4467 11.408 73.5067 11.564 73.6867 11.684C73.8547 11.804 74.1427 11.84 74.3707 11.84C74.5027 11.84 74.9707 11.84 75.1147 11.84C75.3187 11.84 75.6067 11.816 75.7507 11.768C75.9187 11.696 76.0627 11.588 76.1227 11.396C76.1947 11.216 76.2307 10.688 76.2547 10.196C76.0747 10.148 75.8707 10.052 75.7387 9.956C75.7387 10.46 75.7267 10.856 75.6907 11.036C75.6547 11.18 75.5827 11.276 75.4867 11.312C75.4027 11.348 75.2227 11.36 75.0667 11.36C74.8747 11.36 74.5987 11.36 74.4547 11.36C74.2987 11.36 74.1787 11.348 74.1067 11.312C74.0227 11.264 74.0107 11.144 74.0107 10.916V8.612H73.4467ZM67.6867 0.931999C67.0987 2.156 66.0907 3.308 65.1067 4.04C65.2027 4.172 65.3707 4.472 65.4187 4.604C66.4507 3.764 67.5307 2.48 68.1787 1.136L67.6867 0.931999ZM67.2907 1.904C68.1787 2.456 69.1387 3.2 69.6907 3.824L70.0147 3.356C69.4507 2.732 68.5027 2.012 67.5667 1.484L67.2907 1.904ZM72.1867 1.112C72.4987 1.484 72.8347 2.012 72.9787 2.36L73.5067 2.156C73.3507 1.808 73.0147 1.304 72.6907 0.943999L72.1867 1.112ZM83.0107 3.356V3.824H86.3587V3.356H83.0107ZM82.4467 9.572V10.028H86.8867V9.572H82.4467ZM82.4467 11.06V11.516H86.8867V11.06H82.4467ZM82.2907 5.084H87.1387V6.992H82.2907V5.084ZM81.7867 4.628V7.46H87.6547V4.628H81.7867ZM82.1587 8.132V11.936H82.6867V8.588H86.7307V11.864H87.2827V8.132H82.1587ZM84.4147 4.88V7.16H84.9187V4.88H84.4147ZM82.8187 5.48C83.0707 5.864 83.3107 6.368 83.4067 6.716L83.7547 6.548C83.6827 6.224 83.4307 5.732 83.1667 5.36L82.8187 5.48ZM86.1427 5.36C86.0107 5.72 85.7467 6.284 85.5427 6.62L85.8667 6.764C86.0707 6.44 86.3227 5.972 86.5387 5.528L86.1427 5.36ZM80.0947 5.636C80.3947 6.476 80.6827 7.592 80.7667 8.252L81.2707 8.108C81.1747 7.472 80.8747 6.38 80.5627 5.54L80.0947 5.636ZM79.0027 8.612C79.1707 9.536 79.3147 10.724 79.3507 11.528L79.8307 11.444C79.7947 10.652 79.6267 9.464 79.4707 8.54L79.0027 8.612ZM77.8267 8.6C77.6827 9.632 77.4787 10.784 77.1787 11.588C77.3227 11.624 77.5627 11.72 77.6707 11.78C77.9347 10.988 78.1747 9.776 78.3547 8.684L77.8267 8.6ZM77.4307 5.324C77.4307 5.18 77.8507 5 77.8507 5V4.976C78.6787 4.004 79.5067 2.612 80.1787 1.22L79.6387 0.98C79.0867 2.312 78.1747 3.728 77.8987 4.076C77.6467 4.46 77.4307 4.712 77.2387 4.76C77.2987 4.916 77.3947 5.192 77.4307 5.324ZM77.4307 5.324C77.5987 5.24 77.8987 5.192 79.8547 4.952C79.8427 4.832 79.8547 4.616 79.8787 4.472L77.7547 4.664L77.4187 4.856L77.4307 5.324ZM77.5027 7.988C77.5027 7.844 77.9227 7.664 77.9227 7.664V7.652C79.0387 6.512 80.1787 4.868 81.1147 3.248L80.5987 2.96C79.7947 4.544 78.5467 6.212 78.1627 6.632C77.8027 7.064 77.5267 7.376 77.3107 7.424C77.3827 7.58 77.4667 7.856 77.5027 7.988ZM77.5027 7.988C77.6947 7.88 78.0307 7.808 80.7307 7.4C80.7187 7.28 80.7067 7.064 80.7307 6.92L77.8267 7.316L77.4907 7.52L77.5027 7.988ZM80.1067 8.396C80.3827 9.164 80.6947 10.172 80.8267 10.832L81.2827 10.688C81.1627 10.052 80.8387 9.044 80.5387 8.288L80.1067 8.396ZM84.5227 0.883999C83.7547 1.964 82.3387 3.02 80.9947 3.608C81.1387 3.716 81.2827 3.896 81.3667 4.028C82.7467 3.38 84.1747 2.264 85.0027 1.076L84.5227 0.883999ZM84.6907 1.34L84.2227 1.544C85.2907 2.648 86.5507 3.344 87.9427 3.92C88.0267 3.764 88.1947 3.572 88.3387 3.452C86.9707 2.96 85.6867 2.348 84.6907 1.34ZM94.4227 7.748C93.2827 8.72 91.0387 9.584 89.2267 9.968C89.3467 10.076 89.5027 10.28 89.5867 10.424C91.3867 10.004 93.6787 9.056 94.9027 7.988L94.4227 7.748ZM95.1067 7.724L94.6147 7.868C95.4787 9.92 97.3147 11.228 99.7987 11.744C99.8827 11.588 100.027 11.372 100.147 11.252C97.7107 10.82 95.8867 9.596 95.1067 7.724ZM98.8747 8.336C98.2267 8.804 97.1107 9.416 96.2827 9.8L96.6667 10.1C97.5067 9.728 98.5507 9.188 99.3187 8.648L98.8747 8.336ZM89.4307 7.58V8.096H100.027V7.58H89.4307ZM96.5107 1.616V5.54H97.0507V1.616H96.5107ZM98.7547 1.124V6.2C98.7547 6.356 98.7067 6.404 98.5267 6.404C98.3587 6.416 97.7707 6.428 97.0507 6.404C97.1347 6.56 97.2187 6.764 97.2547 6.92C98.1067 6.92 98.6347 6.92 98.9227 6.824C99.2107 6.728 99.2947 6.572 99.2947 6.212V1.124H98.7547ZM92.2267 0.991999V7.016H92.7547V0.991999H92.2267ZM94.5307 4.496V6.02C94.5307 6.116 94.5067 6.152 94.3987 6.164C94.2907 6.176 93.9667 6.176 93.4987 6.164C93.5707 6.296 93.6667 6.464 93.6787 6.596C94.2307 6.596 94.5787 6.596 94.7827 6.5C95.0107 6.428 95.0467 6.284 95.0467 6.02V4.496H94.5307ZM90.0787 4.496V6.68H90.5707V4.952H94.7947V4.496H90.0787ZM89.3707 3.26V3.728H95.4427V3.26H89.3707ZM90.5707 1.892L90.3787 2.372H94.9747V1.892H90.5707ZM90.6307 1.04C90.4027 1.724 90.0787 2.42 89.6467 2.936C89.7787 2.984 90.0187 3.092 90.1147 3.164C90.4987 2.66 90.8827 1.88 91.1347 1.16L90.6307 1.04ZM91.5547 11.876C91.7707 11.744 92.1187 11.648 95.4787 10.832C95.4667 10.724 95.4667 10.532 95.4787 10.376L91.8547 11.168L91.5427 11.42L91.5547 11.876ZM91.5667 11.864C91.5667 11.624 92.3707 11.156 92.3707 11.156V9.296H91.7947V10.58C91.7947 11.072 91.4827 11.276 91.3027 11.384C91.3987 11.492 91.5187 11.732 91.5667 11.864ZM94.2307 6.752C94.4467 7.112 94.7107 7.616 94.8067 7.916L95.3587 7.724C95.2507 7.436 94.9987 6.944 94.7587 6.596L94.2307 6.752ZM100.831 13.136H101.407L105.355 1.568H104.791L100.831 13.136ZM0.9 22.876V23.368H6.3V22.876H0.9ZM0.552 17.056V17.548H6.54V17.056H0.552ZM3.276 15.82V24.784H3.828V15.82H3.276ZM0.576 24.904L0.672 25.444C2.184 25.264 4.344 25 6.384 24.736L6.372 24.256C4.236 24.52 2.016 24.76 0.576 24.904ZM1.44 20.452H5.76V21.532H1.44V20.452ZM1.44 18.94H5.76V19.996H1.44V18.94ZM0.924 18.472V21.988H6.288V18.472H0.924ZM5.94 15.148C4.752 15.436 2.508 15.652 0.732 15.736C0.792 15.88 0.864 16.072 0.888 16.204C2.688 16.132 4.944 15.916 6.288 15.616L5.94 15.148ZM6.396 17.848V18.4H10.836V17.848H6.396ZM10.62 17.848V18.004C10.476 22.996 10.308 24.748 9.996 25.132C9.888 25.276 9.768 25.3 9.576 25.3C9.348 25.3 8.76 25.3 8.136 25.252C8.232 25.396 8.292 25.648 8.304 25.816C8.856 25.84 9.432 25.852 9.756 25.828C10.092 25.816 10.308 25.732 10.488 25.468C10.896 24.976 11.028 23.332 11.172 18.196C11.172 18.112 11.184 17.848 11.184 17.848H10.62ZM8.028 15.112C8.016 19.504 8.028 23.572 5.16 25.552C5.316 25.636 5.532 25.816 5.64 25.936C8.568 23.824 8.568 19.672 8.592 15.112H8.028ZM15.42 23.236V24.856C15.42 25.576 15.732 25.72 16.872 25.72C17.112 25.72 19.428 25.72 19.692 25.72C20.628 25.72 20.82 25.42 20.904 24.148C20.748 24.112 20.52 24.04 20.376 23.932C20.328 25.06 20.232 25.204 19.632 25.204C19.164 25.204 17.208 25.204 16.86 25.204C16.116 25.204 15.996 25.144 15.996 24.856V23.236H15.42ZM17.364 22.876C17.832 23.344 18.408 24.004 18.708 24.4L19.104 24.076C18.816 23.704 18.228 23.068 17.76 22.612L17.364 22.876ZM21.432 23.224C21.828 23.92 22.26 24.868 22.44 25.432L22.98 25.24C22.788 24.688 22.344 23.764 21.948 23.068L21.432 23.224ZM13.776 23.128C13.572 23.8 13.2 24.712 12.792 25.264L13.284 25.516C13.692 24.94 14.04 24.016 14.256 23.332L13.776 23.128ZM18.948 18.976V21.604C18.948 22.3 19.2 22.444 20.112 22.444C20.304 22.444 21.96 22.444 22.164 22.444C22.884 22.444 23.064 22.204 23.136 21.184C22.98 21.148 22.752 21.088 22.632 20.992C22.584 21.82 22.512 21.94 22.116 21.94C21.768 21.94 20.376 21.94 20.124 21.94C19.596 21.94 19.512 21.88 19.512 21.604V18.976H18.948ZM16.128 15.88C16.752 16.468 17.46 17.296 17.784 17.824L18.24 17.536C17.892 17.02 17.172 16.216 16.56 15.652L16.128 15.88ZM16.86 18.1V22C16.86 22.12 16.824 22.156 16.68 22.168C16.536 22.168 16.068 22.168 15.48 22.168C15.552 22.3 15.648 22.48 15.672 22.624C16.392 22.624 16.836 22.624 17.088 22.54C17.328 22.444 17.4 22.3 17.4 22V18.1H16.86ZM13.824 18.1V18.592H17.112V18.1H13.824ZM12.96 17.644C12.96 17.512 13.38 17.344 13.38 17.344V17.332C14.124 16.804 14.916 16.012 15.636 15.148L15.096 14.932C14.52 15.724 13.656 16.54 13.404 16.732C13.164 16.936 12.948 17.068 12.78 17.08C12.852 17.236 12.924 17.524 12.96 17.644ZM12.96 17.644C13.188 17.56 13.608 17.512 17.556 17.2C17.52 17.092 17.472 16.888 17.448 16.744L13.32 17.02L12.948 17.224L12.96 17.644ZM19.26 16.072V16.576H22.488V16.072H19.26ZM19.248 20.056V20.56H22.476V20.056H19.248ZM13.476 18.1V20.056C13.476 20.824 13.416 21.76 12.876 22.492C12.984 22.552 13.188 22.744 13.272 22.852C13.896 22.06 14.004 20.932 14.004 20.068V18.1H13.476ZM14.052 21.04L14.268 21.52C15.096 21.292 16.08 21.016 17.052 20.728L17.016 20.344C15.9 20.608 14.82 20.884 14.052 21.04ZM14.292 19.396C15.012 19.624 15.936 19.996 16.44 20.236L16.668 19.864C16.164 19.624 15.24 19.288 14.532 19.072L14.292 19.396ZM18.96 15.088V17.332C18.96 18.052 19.152 18.292 19.884 18.292C20.088 18.292 21.732 18.292 22.056 18.292C22.416 18.292 22.776 18.292 22.944 18.244C22.92 18.124 22.896 17.896 22.884 17.752C22.68 17.788 22.272 17.8 22.044 17.8C21.744 17.8 20.196 17.8 19.896 17.8C19.584 17.8 19.524 17.692 19.524 17.344V15.088H18.96ZM25.032 16.096V17.896H25.584V16.6H34.428V17.896H34.992V16.096H25.032ZM29.832 17.476C29.796 18.208 29.712 19.144 29.616 19.756H30.144C30.228 19.168 30.3 18.232 30.36 17.476H29.832ZM26.832 22.048H33.24V22.708H26.832V22.048ZM26.832 23.128H33.24V23.812H26.832V23.128ZM26.832 20.98H33.24V21.628H26.832V20.98ZM26.268 20.548V24.232H33.828V20.548H26.268ZM30.912 24.736C32.328 25.132 33.732 25.588 34.62 25.912L35.004 25.504C34.056 25.168 32.616 24.736 31.212 24.376L30.912 24.736ZM27.228 17.692H33.012L32.88 19.516H26.988L27.228 17.692ZM26.748 17.272L26.4 19.948H33.384L33.612 17.272H26.748ZM28.572 24.364C27.828 24.796 26.196 25.24 24.936 25.468C25.044 25.588 25.2 25.792 25.272 25.9C26.556 25.672 28.14 25.216 29.124 24.676L28.572 24.364ZM24.612 18.34V18.832H27.084V18.796H32.928V18.832H35.412V18.34H32.928V18.364H27.084V18.34H24.612ZM29.196 15.1C29.544 15.508 29.892 16.084 30.024 16.468L30.564 16.264C30.408 15.88 30.048 15.316 29.7 14.908L29.196 15.1ZM41.808 17.032L41.532 17.596H47.46V17.032H41.808ZM43.248 19.612V20.152H47.208V19.612H43.248ZM43.248 22.252V22.816H47.376V22.252H43.248ZM42.972 17.212V25.888H43.56V17.212H42.972ZM42.372 15.16C41.76 16.936 40.776 18.688 39.672 19.84C39.804 19.936 40.044 20.128 40.128 20.224C41.232 19 42.252 17.188 42.936 15.292L42.372 15.16ZM39.66 15.04C38.94 16.924 37.776 18.784 36.528 19.984C36.648 20.104 36.828 20.404 36.9 20.524C38.196 19.204 39.408 17.236 40.212 15.208L39.66 15.04ZM38.34 17.992V25.876H38.928V17.44L38.904 17.416L38.34 17.992Z" fill="#007282"/>
</svg>
