<svg width="106" height="26" viewBox="0 0 106 26" fill="none" xmlns="http://www.w3.org/2000/svg">
<path d="M7.2 6.056V10.868C7.2 11.684 7.44 11.888 8.364 11.888C8.556 11.888 10.068 11.888 10.284 11.888C11.196 11.888 11.364 11.396 11.448 9.512C11.28 9.464 11.028 9.356 10.896 9.248C10.848 11.036 10.764 11.336 10.248 11.336C9.912 11.336 8.64 11.336 8.388 11.336C7.872 11.336 7.764 11.24 7.764 10.868V6.056H7.2ZM4.068 6.116C3.864 8.66 3.36 10.52 0.48 11.408C0.612 11.516 0.792 11.756 0.864 11.888C3.84 10.916 4.452 8.9 4.668 6.116H4.068ZM1.776 1.808C2.424 2.756 3.072 4.04 3.3 4.832L3.852 4.616C3.612 3.8 2.94 2.552 2.292 1.628L1.776 1.808ZM9.732 1.472C9.36 2.42 8.652 3.788 8.124 4.616L8.604 4.82C9.144 4.016 9.816 2.732 10.308 1.7L9.732 1.472ZM0.684 5.684V6.248H11.34V5.684H0.684ZM5.676 0.991999V5.912H6.264V0.991999H5.676ZM22.26 1.256C21.54 2.216 20.268 3.26 19.188 3.872C19.344 3.98 19.524 4.148 19.632 4.268C20.724 3.608 21.996 2.528 22.8 1.472L22.26 1.256ZM22.716 4.484C21.9 5.528 20.448 6.62 19.188 7.244C19.332 7.364 19.512 7.532 19.596 7.664C20.904 6.98 22.368 5.852 23.244 4.712L22.716 4.484ZM22.968 8.024C22.104 9.38 20.448 10.688 18.768 11.408C18.912 11.516 19.068 11.708 19.176 11.84C20.892 11.06 22.56 9.704 23.508 8.228L22.968 8.024ZM12.792 5.48V5.984H19.008V5.48H12.792ZM14.016 7.196H17.916V8.42H14.016V7.196ZM13.464 6.716V8.9H18.48V6.716H13.464ZM17.1 9.488C17.556 10.028 18.036 10.736 18.264 11.204L18.72 10.928C18.48 10.496 17.976 9.788 17.544 9.272L17.1 9.488ZM13.968 3.212H18.024V4.112H13.968V3.212ZM13.968 1.868H18.024V2.768H13.968V1.868ZM13.416 1.424V4.58H18.588V1.424H13.416ZM15.672 8.672V11.144C15.672 11.252 15.648 11.3 15.504 11.3C15.36 11.3 14.94 11.3 14.364 11.288C14.448 11.444 14.532 11.648 14.568 11.804C15.252 11.804 15.684 11.804 15.936 11.708C16.176 11.612 16.236 11.468 16.236 11.132V8.672H15.672ZM13.98 9.308C13.692 9.956 13.248 10.58 12.744 11.036C12.876 11.12 13.092 11.276 13.176 11.36C13.68 10.88 14.196 10.136 14.496 9.44L13.98 9.308ZM15.312 4.808C15.516 5.12 15.732 5.552 15.828 5.828L16.38 5.66C16.26 5.372 16.044 4.952 15.84 4.664L15.312 4.808ZM26.196 5.612V6.176H33.288V5.612H26.196ZM33.072 5.612V5.732C32.892 9.428 32.688 10.808 32.34 11.144C32.22 11.264 32.064 11.288 31.812 11.288C31.536 11.288 30.732 11.276 29.868 11.204C29.976 11.372 30.048 11.6 30.06 11.792C30.84 11.84 31.632 11.852 32.016 11.828C32.412 11.816 32.64 11.744 32.844 11.504C33.276 11.06 33.456 9.704 33.648 5.936C33.66 5.852 33.672 5.612 33.672 5.612H33.072ZM28.944 5.768C28.692 8.108 28.092 10.436 24.984 11.468C25.116 11.588 25.284 11.804 25.356 11.936C28.572 10.808 29.256 8.348 29.568 5.768H28.944ZM27.72 1.376C27.12 3.308 26.004 4.904 24.54 5.912C24.684 6.008 24.936 6.212 25.032 6.332C26.472 5.24 27.648 3.584 28.308 1.52L27.72 1.376ZM29.46 1.208V1.772H32.004V1.208H29.46ZM31.464 1.208V1.568H31.668C32.328 3.56 33.66 5.36 35.136 6.32C35.232 6.164 35.424 5.936 35.556 5.816C34.116 4.952 32.772 3.176 32.136 1.208H31.464ZM42.096 5.144V5.696H47.388V5.144H42.096ZM46.152 1.136C45.168 1.568 43.368 2.012 41.808 2.312C41.892 2.432 41.976 2.648 42.012 2.78C43.608 2.504 45.456 2.072 46.656 1.58L46.152 1.136ZM44.928 5.336V11.9H45.504V5.336H44.928ZM36.78 3.62V4.184H41.112V3.62H36.78ZM38.7 0.991999V11.876H39.264V0.991999H38.7ZM38.688 3.932C38.292 5.768 37.344 7.952 36.468 9.056C36.576 9.176 36.732 9.404 36.816 9.548C37.74 8.36 38.688 5.996 39.12 4.064L38.688 3.932ZM39.18 4.82L38.844 5.108C39.216 5.564 40.248 7.088 40.548 7.652L40.968 7.172C40.704 6.776 39.504 5.18 39.18 4.82ZM41.808 2.312V6.092C41.808 7.76 41.7 9.968 40.608 11.564C40.752 11.624 40.992 11.78 41.1 11.876C42.216 10.232 42.372 7.832 42.372 6.092V2.312H41.808ZM48.108 13.136H48.684L52.632 1.568H52.068L48.108 13.136ZM57.5347 5.684V10.376H58.0867V6.224H63.2707V5.684H57.5347ZM63.0307 5.684V9.476C63.0307 9.608 63.0067 9.656 62.8387 9.668C62.6707 9.68 62.1907 9.68 61.5427 9.656C61.6147 9.824 61.7107 10.052 61.7227 10.196C62.5027 10.196 62.9827 10.196 63.2467 10.1C63.5347 10.004 63.5947 9.824 63.5947 9.476V5.684H63.0307ZM56.1547 2.888V3.428H64.2067V2.888H56.1547ZM60.1987 4.004V11.888H60.7747V4.004H60.1987ZM59.3707 0.956C58.6627 3.524 57.4387 5.744 55.6987 7.136C55.8427 7.244 56.0587 7.46 56.1427 7.568C57.8827 6.068 59.1547 3.788 59.9227 1.076L59.3707 0.956ZM56.0707 1.04C55.3747 2.924 54.1987 4.784 52.9627 5.984C53.0707 6.104 53.2507 6.392 53.3107 6.524C54.6187 5.192 55.8307 3.236 56.6347 1.196L56.0707 1.04ZM54.7867 3.992V11.876H55.3387V3.464L55.3147 3.452L54.7867 3.992ZM71.9227 6.056V10.868C71.9227 11.684 72.1627 11.888 73.0867 11.888C73.2787 11.888 74.7907 11.888 75.0067 11.888C75.9187 11.888 76.0867 11.396 76.1707 9.512C76.0027 9.464 75.7507 9.356 75.6187 9.248C75.5707 11.036 75.4867 11.336 74.9707 11.336C74.6347 11.336 73.3627 11.336 73.1107 11.336C72.5947 11.336 72.4867 11.24 72.4867 10.868V6.056H71.9227ZM68.7907 6.116C68.5867 8.66 68.0827 10.52 65.2027 11.408C65.3347 11.516 65.5147 11.756 65.5867 11.888C68.5627 10.916 69.1747 8.9 69.3907 6.116H68.7907ZM66.4987 1.808C67.1467 2.756 67.7947 4.04 68.0227 4.832L68.5747 4.616C68.3347 3.8 67.6627 2.552 67.0147 1.628L66.4987 1.808ZM74.4547 1.472C74.0827 2.42 73.3747 3.788 72.8467 4.616L73.3267 4.82C73.8667 4.016 74.5387 2.732 75.0307 1.7L74.4547 1.472ZM65.4067 5.684V6.248H76.0627V5.684H65.4067ZM70.3987 0.991999V5.912H70.9867V0.991999H70.3987ZM81.1987 2.984V3.536H87.7507V2.984H81.1987ZM81.4627 5.564V6.104H86.8507V5.564H81.4627ZM84.1627 0.991999V5.888H84.7507V0.991999H84.1627ZM82.3867 5.912L81.8707 6.068C82.8787 8.96 84.8947 11.036 87.7747 11.9C87.8707 11.756 88.0267 11.528 88.1707 11.408C85.3147 10.628 83.3227 8.612 82.3867 5.912ZM86.8147 5.564V5.672C85.8667 8.732 83.1667 10.64 80.5147 11.372C80.6227 11.504 80.7667 11.744 80.8267 11.9C83.6107 11.048 86.3467 9.08 87.4147 5.708L87.0547 5.528L86.9347 5.564H86.8147ZM77.2267 7.496L77.4187 8.06C78.4627 7.736 79.8307 7.304 81.1267 6.884L81.0547 6.368C79.6507 6.788 78.1987 7.232 77.2267 7.496ZM77.3707 3.5V4.052H81.0067V3.5H77.3707ZM79.0147 1.004V11.108C79.0147 11.288 78.9427 11.348 78.7867 11.348C78.6307 11.36 78.1027 11.36 77.4787 11.348C77.5627 11.504 77.6587 11.744 77.6827 11.876C78.4867 11.888 78.9427 11.876 79.2067 11.78C79.4707 11.684 79.5907 11.504 79.5907 11.096V1.004H79.0147ZM89.2747 2.6V3.164H93.5947V2.6H89.2747ZM93.6307 1.748V2.324H100.171V1.748H93.6307ZM91.2187 2.768V9.02H91.7947V2.768H91.2187ZM89.1907 9.236L89.3107 9.824C90.4987 9.524 92.1787 9.14 93.7867 8.756L93.7267 8.192C92.0467 8.6 90.3187 8.996 89.1907 9.236ZM95.6347 2.012C95.3587 3.404 94.9027 5.36 94.5427 6.5H95.1667C95.4787 5.384 95.9227 3.452 96.2347 2.012H95.6347ZM99.2827 5.924V6.044C99.0187 9.368 98.7787 10.688 98.3587 11.048C98.2387 11.168 98.0587 11.192 97.7707 11.192C97.4347 11.192 96.5107 11.18 95.5507 11.084C95.6707 11.252 95.7547 11.504 95.7787 11.672C96.6667 11.732 97.5187 11.756 97.9267 11.744C98.3707 11.72 98.6107 11.66 98.8507 11.408C99.3427 10.952 99.5827 9.656 99.8467 6.248C99.8587 6.152 99.8707 5.924 99.8707 5.924H99.2827ZM94.9747 5.924L94.8187 6.5H99.4987V5.924H94.9747ZM100.831 13.136H101.407L105.355 1.568H104.791L100.831 13.136ZM6.732 19.804C6.084 21.112 4.956 22.3 3.78 23.068C3.912 23.176 4.104 23.392 4.2 23.512C5.376 22.66 6.552 21.376 7.272 19.96L6.732 19.804ZM8.784 18.256C9.552 19.072 10.44 20.2 10.848 20.908L11.328 20.608C10.908 19.912 10.008 18.808 9.24 18.016L8.784 18.256ZM4.848 21.172L4.368 21.364C5.604 23.62 8.076 25.24 10.92 25.9C10.992 25.744 11.16 25.528 11.28 25.396C8.46 24.808 6.012 23.272 4.848 21.172ZM6.24 21.136L5.796 21.664H9.972V21.136H6.24ZM9.756 21.136V21.244C8.736 23.488 6 24.88 3.456 25.396C3.576 25.528 3.72 25.768 3.768 25.912C6.42 25.3 9.216 23.86 10.368 21.316L9.996 21.112L9.888 21.136H9.756ZM3.408 17.356C2.7 18.676 1.584 19.984 0.504 20.86C0.624 20.968 0.816 21.22 0.888 21.328C1.992 20.392 3.168 18.964 3.948 17.536L3.408 17.356ZM3.084 15.004C2.568 15.88 1.548 16.912 0.636 17.584C0.732 17.68 0.9 17.884 0.972 18.004C1.944 17.284 3 16.18 3.624 15.196L3.084 15.004ZM2.256 19.384V25.948H2.82V18.988L2.688 18.928L2.256 19.384ZM4.344 18.34C4.344 18.184 4.776 18.028 4.776 18.028V18.016C5.76 17.392 6.768 16.456 7.716 15.436L7.164 15.16C6.384 16.132 5.268 17.08 4.944 17.32C4.62 17.56 4.368 17.728 4.152 17.764C4.224 17.92 4.32 18.196 4.344 18.34ZM4.344 18.34C4.548 18.256 4.884 18.208 7.644 18.088C7.692 17.968 7.8 17.74 7.884 17.584L4.716 17.716L4.344 17.896V18.34ZM4.068 20.356C4.068 20.224 4.512 20.08 4.512 20.08V20.056C6.312 19.204 8.172 18.004 9.996 16.516L9.468 16.216C7.908 17.572 5.82 18.868 5.208 19.204C4.644 19.528 4.188 19.756 3.888 19.78C3.948 19.936 4.044 20.224 4.068 20.356ZM4.068 20.356C4.368 20.248 4.848 20.212 10.368 19.888C10.344 19.768 10.296 19.552 10.296 19.408L4.476 19.732L4.056 19.936L4.068 20.356ZM17.7 21.748C16.56 22.72 14.316 23.584 12.504 23.968C12.624 24.076 12.78 24.28 12.864 24.424C14.664 24.004 16.956 23.056 18.18 21.988L17.7 21.748ZM18.384 21.724L17.892 21.868C18.756 23.92 20.592 25.228 23.076 25.744C23.16 25.588 23.304 25.372 23.424 25.252C20.988 24.82 19.164 23.596 18.384 21.724ZM22.152 22.336C21.504 22.804 20.388 23.416 19.56 23.8L19.944 24.1C20.784 23.728 21.828 23.188 22.596 22.648L22.152 22.336ZM12.708 21.58V22.096H23.304V21.58H12.708ZM19.788 15.616V19.54H20.328V15.616H19.788ZM22.032 15.124V20.2C22.032 20.356 21.984 20.404 21.804 20.404C21.636 20.416 21.048 20.428 20.328 20.404C20.412 20.56 20.496 20.764 20.532 20.92C21.384 20.92 21.912 20.92 22.2 20.824C22.488 20.728 22.572 20.572 22.572 20.212V15.124H22.032ZM15.504 14.992V21.016H16.032V14.992H15.504ZM17.808 18.496V20.02C17.808 20.116 17.784 20.152 17.676 20.164C17.568 20.176 17.244 20.176 16.776 20.164C16.848 20.296 16.944 20.464 16.956 20.596C17.508 20.596 17.856 20.596 18.06 20.5C18.288 20.428 18.324 20.284 18.324 20.02V18.496H17.808ZM13.356 18.496V20.68H13.848V18.952H18.072V18.496H13.356ZM12.648 17.26V17.728H18.72V17.26H12.648ZM13.848 15.892L13.656 16.372H18.252V15.892H13.848ZM13.908 15.04C13.68 15.724 13.356 16.42 12.924 16.936C13.056 16.984 13.296 17.092 13.392 17.164C13.776 16.66 14.16 15.88 14.412 15.16L13.908 15.04ZM14.832 25.876C15.048 25.744 15.396 25.648 18.756 24.832C18.744 24.724 18.744 24.532 18.756 24.376L15.132 25.168L14.82 25.42L14.832 25.876ZM14.844 25.864C14.844 25.624 15.648 25.156 15.648 25.156V23.296H15.072V24.58C15.072 25.072 14.76 25.276 14.58 25.384C14.676 25.492 14.796 25.732 14.844 25.864ZM17.508 20.752C17.724 21.112 17.988 21.616 18.084 21.916L18.636 21.724C18.528 21.436 18.276 20.944 18.036 20.596L17.508 20.752ZM32.412 20.392C31.74 21.064 30.504 21.664 29.388 22.024C29.508 22.12 29.664 22.276 29.76 22.396C30.9 22.012 32.172 21.352 32.88 20.584L32.412 20.392ZM33.552 21.58C32.724 22.468 31.14 23.188 29.604 23.572C29.724 23.68 29.856 23.86 29.94 23.98C31.524 23.536 33.132 22.768 34.02 21.784L33.552 21.58ZM34.812 22.864C33.72 24.148 31.452 24.976 28.92 25.36C29.04 25.492 29.184 25.708 29.244 25.84C31.836 25.396 34.164 24.508 35.328 23.104L34.812 22.864ZM30.84 14.992C30.3 16.312 29.388 17.608 28.404 18.448C28.548 18.532 28.764 18.724 28.872 18.808C29.844 17.908 30.78 16.552 31.392 15.124L30.84 14.992ZM30.42 16.348L30.108 16.876H35.34V16.348H30.42ZM33.888 16.456C33 18.544 30.948 19.768 28.476 20.416C28.584 20.536 28.764 20.788 28.836 20.908C31.332 20.14 33.456 18.844 34.452 16.6L33.888 16.456ZM30.3 16.708L29.94 17.08C30.708 18.556 32.508 20.14 35.388 20.8C35.46 20.656 35.604 20.44 35.712 20.32C32.832 19.744 31.008 18.208 30.3 16.708ZM27.792 16.348V23.908H28.32V16.348H27.792ZM26.964 15.088C26.352 16.996 25.356 18.892 24.252 20.14C24.372 20.272 24.54 20.548 24.6 20.68C25.764 19.3 26.82 17.296 27.504 15.22L26.964 15.088ZM25.98 17.812V25.9H26.544V17.296L26.52 17.272L25.98 17.812ZM40.128 17.152H43.848V18.124H40.128V17.152ZM39.612 16.732V18.568H44.376V16.732H39.612ZM39.744 20.716H44.232V23.608H39.744V20.716ZM39.24 20.284V24.052H44.748V20.284H39.24ZM41.112 21.724H42.828V22.612H41.112V21.724ZM40.668 21.328V23.008H43.284V21.328H40.668ZM38.268 19.228V19.66H45.744V19.228H38.268ZM41.7 18.268V19.432H42.228V18.268H41.7ZM37.056 15.532V25.876H37.62V16.048H46.38V25.876H46.944V15.532H37.056ZM37.392 24.856V25.372H46.692V24.856H37.392Z" fill="#007282"/>
</svg>
