<svg width="153" height="14" viewBox="0 0 153 14" fill="none" xmlns="http://www.w3.org/2000/svg">
<path d="M7.2 6.056V10.868C7.2 11.684 7.44 11.888 8.364 11.888C8.556 11.888 10.068 11.888 10.284 11.888C11.196 11.888 11.364 11.396 11.448 9.512C11.28 9.464 11.028 9.356 10.896 9.248C10.848 11.036 10.764 11.336 10.248 11.336C9.912 11.336 8.64 11.336 8.388 11.336C7.872 11.336 7.764 11.24 7.764 10.868V6.056H7.2ZM4.068 6.116C3.864 8.66 3.36 10.52 0.48 11.408C0.612 11.516 0.792 11.756 0.864 11.888C3.84 10.916 4.452 8.9 4.668 6.116H4.068ZM1.776 1.808C2.424 2.756 3.072 4.04 3.3 4.832L3.852 4.616C3.612 3.8 2.94 2.552 2.292 1.628L1.776 1.808ZM9.732 1.472C9.36 2.42 8.652 3.788 8.124 4.616L8.604 4.82C9.144 4.016 9.816 2.732 10.308 1.7L9.732 1.472ZM0.684 5.684V6.248H11.34V5.684H0.684ZM5.676 0.991999V5.912H6.264V0.991999H5.676ZM22.26 1.256C21.54 2.216 20.268 3.26 19.188 3.872C19.344 3.98 19.524 4.148 19.632 4.268C20.724 3.608 21.996 2.528 22.8 1.472L22.26 1.256ZM22.716 4.484C21.9 5.528 20.448 6.62 19.188 7.244C19.332 7.364 19.512 7.532 19.596 7.664C20.904 6.98 22.368 5.852 23.244 4.712L22.716 4.484ZM22.968 8.024C22.104 9.38 20.448 10.688 18.768 11.408C18.912 11.516 19.068 11.708 19.176 11.84C20.892 11.06 22.56 9.704 23.508 8.228L22.968 8.024ZM12.792 5.48V5.984H19.008V5.48H12.792ZM14.016 7.196H17.916V8.42H14.016V7.196ZM13.464 6.716V8.9H18.48V6.716H13.464ZM17.1 9.488C17.556 10.028 18.036 10.736 18.264 11.204L18.72 10.928C18.48 10.496 17.976 9.788 17.544 9.272L17.1 9.488ZM13.968 3.212H18.024V4.112H13.968V3.212ZM13.968 1.868H18.024V2.768H13.968V1.868ZM13.416 1.424V4.58H18.588V1.424H13.416ZM15.672 8.672V11.144C15.672 11.252 15.648 11.3 15.504 11.3C15.36 11.3 14.94 11.3 14.364 11.288C14.448 11.444 14.532 11.648 14.568 11.804C15.252 11.804 15.684 11.804 15.936 11.708C16.176 11.612 16.236 11.468 16.236 11.132V8.672H15.672ZM13.98 9.308C13.692 9.956 13.248 10.58 12.744 11.036C12.876 11.12 13.092 11.276 13.176 11.36C13.68 10.88 14.196 10.136 14.496 9.44L13.98 9.308ZM15.312 4.808C15.516 5.12 15.732 5.552 15.828 5.828L16.38 5.66C16.26 5.372 16.044 4.952 15.84 4.664L15.312 4.808ZM26.196 5.612V6.176H33.288V5.612H26.196ZM33.072 5.612V5.732C32.892 9.428 32.688 10.808 32.34 11.144C32.22 11.264 32.064 11.288 31.812 11.288C31.536 11.288 30.732 11.276 29.868 11.204C29.976 11.372 30.048 11.6 30.06 11.792C30.84 11.84 31.632 11.852 32.016 11.828C32.412 11.816 32.64 11.744 32.844 11.504C33.276 11.06 33.456 9.704 33.648 5.936C33.66 5.852 33.672 5.612 33.672 5.612H33.072ZM28.944 5.768C28.692 8.108 28.092 10.436 24.984 11.468C25.116 11.588 25.284 11.804 25.356 11.936C28.572 10.808 29.256 8.348 29.568 5.768H28.944ZM27.72 1.376C27.12 3.308 26.004 4.904 24.54 5.912C24.684 6.008 24.936 6.212 25.032 6.332C26.472 5.24 27.648 3.584 28.308 1.52L27.72 1.376ZM29.46 1.208V1.772H32.004V1.208H29.46ZM31.464 1.208V1.568H31.668C32.328 3.56 33.66 5.36 35.136 6.32C35.232 6.164 35.424 5.936 35.556 5.816C34.116 4.952 32.772 3.176 32.136 1.208H31.464ZM42.096 5.144V5.696H47.388V5.144H42.096ZM46.152 1.136C45.168 1.568 43.368 2.012 41.808 2.312C41.892 2.432 41.976 2.648 42.012 2.78C43.608 2.504 45.456 2.072 46.656 1.58L46.152 1.136ZM44.928 5.336V11.9H45.504V5.336H44.928ZM36.78 3.62V4.184H41.112V3.62H36.78ZM38.7 0.991999V11.876H39.264V0.991999H38.7ZM38.688 3.932C38.292 5.768 37.344 7.952 36.468 9.056C36.576 9.176 36.732 9.404 36.816 9.548C37.74 8.36 38.688 5.996 39.12 4.064L38.688 3.932ZM39.18 4.82L38.844 5.108C39.216 5.564 40.248 7.088 40.548 7.652L40.968 7.172C40.704 6.776 39.504 5.18 39.18 4.82ZM41.808 2.312V6.092C41.808 7.76 41.7 9.968 40.608 11.564C40.752 11.624 40.992 11.78 41.1 11.876C42.216 10.232 42.372 7.832 42.372 6.092V2.312H41.808ZM48.108 13.136H48.684L52.632 1.568H52.068L48.108 13.136ZM57.5347 5.684V10.376H58.0867V6.224H63.2707V5.684H57.5347ZM63.0307 5.684V9.476C63.0307 9.608 63.0067 9.656 62.8387 9.668C62.6707 9.68 62.1907 9.68 61.5427 9.656C61.6147 9.824 61.7107 10.052 61.7227 10.196C62.5027 10.196 62.9827 10.196 63.2467 10.1C63.5347 10.004 63.5947 9.824 63.5947 9.476V5.684H63.0307ZM56.1547 2.888V3.428H64.2067V2.888H56.1547ZM60.1987 4.004V11.888H60.7747V4.004H60.1987ZM59.3707 0.956C58.6627 3.524 57.4387 5.744 55.6987 7.136C55.8427 7.244 56.0587 7.46 56.1427 7.568C57.8827 6.068 59.1547 3.788 59.9227 1.076L59.3707 0.956ZM56.0707 1.04C55.3747 2.924 54.1987 4.784 52.9627 5.984C53.0707 6.104 53.2507 6.392 53.3107 6.524C54.6187 5.192 55.8307 3.236 56.6347 1.196L56.0707 1.04ZM54.7867 3.992V11.876H55.3387V3.464L55.3147 3.452L54.7867 3.992ZM71.9227 6.056V10.868C71.9227 11.684 72.1627 11.888 73.0867 11.888C73.2787 11.888 74.7907 11.888 75.0067 11.888C75.9187 11.888 76.0867 11.396 76.1707 9.512C76.0027 9.464 75.7507 9.356 75.6187 9.248C75.5707 11.036 75.4867 11.336 74.9707 11.336C74.6347 11.336 73.3627 11.336 73.1107 11.336C72.5947 11.336 72.4867 11.24 72.4867 10.868V6.056H71.9227ZM68.7907 6.116C68.5867 8.66 68.0827 10.52 65.2027 11.408C65.3347 11.516 65.5147 11.756 65.5867 11.888C68.5627 10.916 69.1747 8.9 69.3907 6.116H68.7907ZM66.4987 1.808C67.1467 2.756 67.7947 4.04 68.0227 4.832L68.5747 4.616C68.3347 3.8 67.6627 2.552 67.0147 1.628L66.4987 1.808ZM74.4547 1.472C74.0827 2.42 73.3747 3.788 72.8467 4.616L73.3267 4.82C73.8667 4.016 74.5387 2.732 75.0307 1.7L74.4547 1.472ZM65.4067 5.684V6.248H76.0627V5.684H65.4067ZM70.3987 0.991999V5.912H70.9867V0.991999H70.3987ZM81.1987 2.984V3.536H87.7507V2.984H81.1987ZM81.4627 5.564V6.104H86.8507V5.564H81.4627ZM84.1627 0.991999V5.888H84.7507V0.991999H84.1627ZM82.3867 5.912L81.8707 6.068C82.8787 8.96 84.8947 11.036 87.7747 11.9C87.8707 11.756 88.0267 11.528 88.1707 11.408C85.3147 10.628 83.3227 8.612 82.3867 5.912ZM86.8147 5.564V5.672C85.8667 8.732 83.1667 10.64 80.5147 11.372C80.6227 11.504 80.7667 11.744 80.8267 11.9C83.6107 11.048 86.3467 9.08 87.4147 5.708L87.0547 5.528L86.9347 5.564H86.8147ZM77.2267 7.496L77.4187 8.06C78.4627 7.736 79.8307 7.304 81.1267 6.884L81.0547 6.368C79.6507 6.788 78.1987 7.232 77.2267 7.496ZM77.3707 3.5V4.052H81.0067V3.5H77.3707ZM79.0147 1.004V11.108C79.0147 11.288 78.9427 11.348 78.7867 11.348C78.6307 11.36 78.1027 11.36 77.4787 11.348C77.5627 11.504 77.6587 11.744 77.6827 11.876C78.4867 11.888 78.9427 11.876 79.2067 11.78C79.4707 11.684 79.5907 11.504 79.5907 11.096V1.004H79.0147ZM89.2747 2.6V3.164H93.5947V2.6H89.2747ZM93.6307 1.748V2.324H100.171V1.748H93.6307ZM91.2187 2.768V9.02H91.7947V2.768H91.2187ZM89.1907 9.236L89.3107 9.824C90.4987 9.524 92.1787 9.14 93.7867 8.756L93.7267 8.192C92.0467 8.6 90.3187 8.996 89.1907 9.236ZM95.6347 2.012C95.3587 3.404 94.9027 5.36 94.5427 6.5H95.1667C95.4787 5.384 95.9227 3.452 96.2347 2.012H95.6347ZM99.2827 5.924V6.044C99.0187 9.368 98.7787 10.688 98.3587 11.048C98.2387 11.168 98.0587 11.192 97.7707 11.192C97.4347 11.192 96.5107 11.18 95.5507 11.084C95.6707 11.252 95.7547 11.504 95.7787 11.672C96.6667 11.732 97.5187 11.756 97.9267 11.744C98.3707 11.72 98.6107 11.66 98.8507 11.408C99.3427 10.952 99.5827 9.656 99.8467 6.248C99.8587 6.152 99.8707 5.924 99.8707 5.924H99.2827ZM94.9747 5.924L94.8187 6.5H99.4987V5.924H94.9747ZM100.831 13.136H101.407L105.355 1.568H104.791L100.831 13.136ZM112.177 5.804C111.529 7.112 110.401 8.3 109.225 9.068C109.357 9.176 109.549 9.392 109.645 9.512C110.821 8.66 111.997 7.376 112.717 5.96L112.177 5.804ZM114.229 4.256C114.997 5.072 115.885 6.2 116.293 6.908L116.773 6.608C116.353 5.912 115.453 4.808 114.685 4.016L114.229 4.256ZM110.293 7.172L109.813 7.364C111.049 9.62 113.521 11.24 116.365 11.9C116.437 11.744 116.605 11.528 116.725 11.396C113.905 10.808 111.457 9.272 110.293 7.172ZM111.685 7.136L111.241 7.664H115.417V7.136H111.685ZM115.201 7.136V7.244C114.181 9.488 111.445 10.88 108.901 11.396C109.021 11.528 109.165 11.768 109.213 11.912C111.865 11.3 114.661 9.86 115.813 7.316L115.441 7.112L115.333 7.136H115.201ZM108.853 3.356C108.145 4.676 107.029 5.984 105.949 6.86C106.069 6.968 106.261 7.22 106.333 7.328C107.437 6.392 108.613 4.964 109.393 3.536L108.853 3.356ZM108.529 1.004C108.013 1.88 106.993 2.912 106.081 3.584C106.177 3.68 106.345 3.884 106.417 4.004C107.389 3.284 108.445 2.18 109.069 1.196L108.529 1.004ZM107.701 5.384V11.948H108.265V4.988L108.133 4.928L107.701 5.384ZM109.789 4.34C109.789 4.184 110.221 4.028 110.221 4.028V4.016C111.205 3.392 112.213 2.456 113.161 1.436L112.609 1.16C111.829 2.132 110.713 3.08 110.389 3.32C110.065 3.56 109.813 3.728 109.597 3.764C109.669 3.92 109.765 4.196 109.789 4.34ZM109.789 4.34C109.993 4.256 110.329 4.208 113.089 4.088C113.137 3.968 113.245 3.74 113.329 3.584L110.161 3.716L109.789 3.896V4.34ZM109.513 6.356C109.513 6.224 109.957 6.08 109.957 6.08V6.056C111.757 5.204 113.617 4.004 115.441 2.516L114.913 2.216C113.353 3.572 111.265 4.868 110.653 5.204C110.089 5.528 109.633 5.756 109.333 5.78C109.393 5.936 109.489 6.224 109.513 6.356ZM109.513 6.356C109.813 6.248 110.293 6.212 115.813 5.888C115.789 5.768 115.741 5.552 115.741 5.408L109.921 5.732L109.501 5.936L109.513 6.356ZM123.145 7.748C122.005 8.72 119.761 9.584 117.949 9.968C118.069 10.076 118.225 10.28 118.309 10.424C120.109 10.004 122.401 9.056 123.625 7.988L123.145 7.748ZM123.829 7.724L123.337 7.868C124.201 9.92 126.037 11.228 128.521 11.744C128.605 11.588 128.749 11.372 128.869 11.252C126.433 10.82 124.609 9.596 123.829 7.724ZM127.597 8.336C126.949 8.804 125.833 9.416 125.005 9.8L125.389 10.1C126.229 9.728 127.273 9.188 128.041 8.648L127.597 8.336ZM118.153 7.58V8.096H128.749V7.58H118.153ZM125.233 1.616V5.54H125.773V1.616H125.233ZM127.477 1.124V6.2C127.477 6.356 127.429 6.404 127.249 6.404C127.081 6.416 126.493 6.428 125.773 6.404C125.857 6.56 125.941 6.764 125.977 6.92C126.829 6.92 127.357 6.92 127.645 6.824C127.933 6.728 128.017 6.572 128.017 6.212V1.124H127.477ZM120.949 0.991999V7.016H121.477V0.991999H120.949ZM123.253 4.496V6.02C123.253 6.116 123.229 6.152 123.121 6.164C123.013 6.176 122.689 6.176 122.221 6.164C122.293 6.296 122.389 6.464 122.401 6.596C122.953 6.596 123.301 6.596 123.505 6.5C123.733 6.428 123.769 6.284 123.769 6.02V4.496H123.253ZM118.801 4.496V6.68H119.293V4.952H123.517V4.496H118.801ZM118.093 3.26V3.728H124.165V3.26H118.093ZM119.293 1.892L119.101 2.372H123.697V1.892H119.293ZM119.353 1.04C119.125 1.724 118.801 2.42 118.369 2.936C118.501 2.984 118.741 3.092 118.837 3.164C119.221 2.66 119.605 1.88 119.857 1.16L119.353 1.04ZM120.277 11.876C120.493 11.744 120.841 11.648 124.201 10.832C124.189 10.724 124.189 10.532 124.201 10.376L120.577 11.168L120.265 11.42L120.277 11.876ZM120.289 11.864C120.289 11.624 121.093 11.156 121.093 11.156V9.296H120.517V10.58C120.517 11.072 120.205 11.276 120.025 11.384C120.121 11.492 120.241 11.732 120.289 11.864ZM122.953 6.752C123.169 7.112 123.433 7.616 123.529 7.916L124.081 7.724C123.973 7.436 123.721 6.944 123.481 6.596L122.953 6.752ZM137.857 6.392C137.185 7.064 135.949 7.664 134.833 8.024C134.953 8.12 135.109 8.276 135.205 8.396C136.345 8.012 137.617 7.352 138.325 6.584L137.857 6.392ZM138.997 7.58C138.169 8.468 136.585 9.188 135.049 9.572C135.169 9.68 135.301 9.86 135.385 9.98C136.969 9.536 138.577 8.768 139.465 7.784L138.997 7.58ZM140.257 8.864C139.165 10.148 136.897 10.976 134.365 11.36C134.485 11.492 134.629 11.708 134.689 11.84C137.281 11.396 139.609 10.508 140.773 9.104L140.257 8.864ZM136.285 0.991999C135.745 2.312 134.833 3.608 133.849 4.448C133.993 4.532 134.209 4.724 134.317 4.808C135.289 3.908 136.225 2.552 136.837 1.124L136.285 0.991999ZM135.865 2.348L135.553 2.876H140.785V2.348H135.865ZM139.333 2.456C138.445 4.544 136.393 5.768 133.921 6.416C134.029 6.536 134.209 6.788 134.281 6.908C136.777 6.14 138.901 4.844 139.897 2.6L139.333 2.456ZM135.745 2.708L135.385 3.08C136.153 4.556 137.953 6.14 140.833 6.8C140.905 6.656 141.049 6.44 141.157 6.32C138.277 5.744 136.453 4.208 135.745 2.708ZM133.237 2.348V9.908H133.765V2.348H133.237ZM132.409 1.088C131.797 2.996 130.801 4.892 129.697 6.14C129.817 6.272 129.985 6.548 130.045 6.68C131.209 5.3 132.265 3.296 132.949 1.22L132.409 1.088ZM131.425 3.812V11.9H131.989V3.296L131.965 3.272L131.425 3.812ZM145.573 3.152H149.293V4.124H145.573V3.152ZM145.057 2.732V4.568H149.821V2.732H145.057ZM145.189 6.716H149.677V9.608H145.189V6.716ZM144.685 6.284V10.052H150.193V6.284H144.685ZM146.557 7.724H148.273V8.612H146.557V7.724ZM146.113 7.328V9.008H148.729V7.328H146.113ZM143.713 5.228V5.66H151.189V5.228H143.713ZM147.145 4.268V5.432H147.673V4.268H147.145ZM142.501 1.532V11.876H143.065V2.048H151.825V11.876H152.389V1.532H142.501ZM142.837 10.856V11.372H152.137V10.856H142.837Z" fill="#007282"/>
</svg>
