<svg width="106" height="26" viewBox="0 0 106 26" fill="none" xmlns="http://www.w3.org/2000/svg">
<path d="M5.736 1.052C5.7 2.78 5.688 8.924 0.612 11.396C0.768 11.516 0.96 11.696 1.068 11.84C6.216 9.248 6.312 2.972 6.36 1.052H5.736ZM6.252 2.54L5.712 2.588C5.868 3.548 6.42 9.656 11.064 11.804C11.16 11.648 11.34 11.444 11.496 11.324C6.924 9.284 6.372 3.332 6.252 2.54ZM17.592 1.856V2.348H20.52V1.856H17.592ZM16.824 4.016H22.128V5.504H16.824V4.016ZM16.296 3.524V5.984H22.68V3.524H16.296ZM18.3 6.392C20.172 7.772 20.328 10.484 19.596 11.096C19.404 11.3 19.188 11.312 18.924 11.312C18.72 11.312 18.42 11.3 18.108 11.264C18.192 11.408 18.24 11.636 18.252 11.792C18.54 11.804 18.816 11.816 19.032 11.816C19.44 11.816 19.704 11.756 20.004 11.468C20.928 10.676 20.748 7.628 18.696 6.128L18.3 6.392ZM19.2 7.232C18.348 8.06 16.704 8.924 15.456 9.308C15.564 9.404 15.72 9.584 15.804 9.716C17.04 9.26 18.72 8.324 19.596 7.436L19.2 7.232ZM19.8 8.42C18.84 9.488 16.956 10.532 15.384 11C15.504 11.096 15.66 11.288 15.744 11.42C17.292 10.904 19.212 9.788 20.208 8.624L19.8 8.42ZM17.94 1.004C17.424 2.036 16.44 3.392 15.084 4.364C15.216 4.448 15.384 4.616 15.468 4.736C16.884 3.656 17.88 2.276 18.504 1.1L17.94 1.004ZM20.328 1.856V1.964C20.076 2.492 19.62 3.188 19.212 3.62C19.308 3.692 19.464 3.836 19.536 3.944C20.004 3.464 20.556 2.744 20.904 2.072L20.556 1.82L20.448 1.856H20.328ZM15.348 1.04C14.676 2.912 13.608 4.772 12.444 5.984C12.564 6.116 12.744 6.392 12.816 6.524C14.028 5.18 15.156 3.224 15.9 1.196L15.348 1.04ZM14.052 4.136V11.852H14.604V3.608L14.592 3.596L14.052 4.136ZM19.212 3.728V5.72H19.752V3.728H19.212ZM18.864 5.648C18.06 6.452 16.476 7.304 15.264 7.688C15.384 7.784 15.528 7.964 15.612 8.096C16.8 7.664 18.408 6.728 19.26 5.864L18.864 5.648ZM22.308 6.344C21.66 6.8 20.532 7.448 19.728 7.808L20.052 8.144C20.856 7.784 21.948 7.232 22.716 6.716L22.308 6.344ZM21.216 7.4L20.736 7.544C21.192 8.96 22.056 10.34 23.064 11.024C23.148 10.88 23.328 10.676 23.46 10.58C22.488 9.992 21.624 8.708 21.216 7.4ZM28.812 5.684V10.376H29.364V6.224H34.548V5.684H28.812ZM34.308 5.684V9.476C34.308 9.608 34.284 9.656 34.116 9.668C33.948 9.68 33.468 9.68 32.82 9.656C32.892 9.824 32.988 10.052 33 10.196C33.78 10.196 34.26 10.196 34.524 10.1C34.812 10.004 34.872 9.824 34.872 9.476V5.684H34.308ZM27.432 2.888V3.428H35.484V2.888H27.432ZM31.476 4.004V11.888H32.052V4.004H31.476ZM30.648 0.956C29.94 3.524 28.716 5.744 26.976 7.136C27.12 7.244 27.336 7.46 27.42 7.568C29.16 6.068 30.432 3.788 31.2 1.076L30.648 0.956ZM27.348 1.04C26.652 2.924 25.476 4.784 24.24 5.984C24.348 6.104 24.528 6.392 24.588 6.524C25.896 5.192 27.108 3.236 27.912 1.196L27.348 1.04ZM26.064 3.992V11.876H26.616V3.464L26.592 3.452L26.064 3.992ZM43.2 6.056V10.868C43.2 11.684 43.44 11.888 44.364 11.888C44.556 11.888 46.068 11.888 46.284 11.888C47.196 11.888 47.364 11.396 47.448 9.512C47.28 9.464 47.028 9.356 46.896 9.248C46.848 11.036 46.764 11.336 46.248 11.336C45.912 11.336 44.64 11.336 44.388 11.336C43.872 11.336 43.764 11.24 43.764 10.868V6.056H43.2ZM40.068 6.116C39.864 8.66 39.36 10.52 36.48 11.408C36.612 11.516 36.792 11.756 36.864 11.888C39.84 10.916 40.452 8.9 40.668 6.116H40.068ZM37.776 1.808C38.424 2.756 39.072 4.04 39.3 4.832L39.852 4.616C39.612 3.8 38.94 2.552 38.292 1.628L37.776 1.808ZM45.732 1.472C45.36 2.42 44.652 3.788 44.124 4.616L44.604 4.82C45.144 4.016 45.816 2.732 46.308 1.7L45.732 1.472ZM36.684 5.684V6.248H47.34V5.684H36.684ZM41.676 0.991999V5.912H42.264V0.991999H41.676ZM48.108 13.136H48.684L52.632 1.568H52.068L48.108 13.136ZM58.4587 1.052C58.4227 2.78 58.4107 8.924 53.3347 11.396C53.4907 11.516 53.6827 11.696 53.7907 11.84C58.9387 9.248 59.0347 2.972 59.0827 1.052H58.4587ZM58.9747 2.54L58.4347 2.588C58.5907 3.548 59.1427 9.656 63.7867 11.804C63.8827 11.648 64.0627 11.444 64.2187 11.324C59.6467 9.284 59.0947 3.332 58.9747 2.54ZM70.3147 1.856V2.348H73.2427V1.856H70.3147ZM69.5467 4.016H74.8507V5.504H69.5467V4.016ZM69.0187 3.524V5.984H75.4027V3.524H69.0187ZM71.0227 6.392C72.8947 7.772 73.0507 10.484 72.3187 11.096C72.1267 11.3 71.9107 11.312 71.6467 11.312C71.4427 11.312 71.1427 11.3 70.8307 11.264C70.9147 11.408 70.9627 11.636 70.9747 11.792C71.2627 11.804 71.5387 11.816 71.7547 11.816C72.1627 11.816 72.4267 11.756 72.7267 11.468C73.6507 10.676 73.4707 7.628 71.4187 6.128L71.0227 6.392ZM71.9227 7.232C71.0707 8.06 69.4267 8.924 68.1787 9.308C68.2867 9.404 68.4427 9.584 68.5267 9.716C69.7627 9.26 71.4427 8.324 72.3187 7.436L71.9227 7.232ZM72.5227 8.42C71.5627 9.488 69.6787 10.532 68.1067 11C68.2267 11.096 68.3827 11.288 68.4667 11.42C70.0147 10.904 71.9347 9.788 72.9307 8.624L72.5227 8.42ZM70.6627 1.004C70.1467 2.036 69.1627 3.392 67.8067 4.364C67.9387 4.448 68.1067 4.616 68.1907 4.736C69.6067 3.656 70.6027 2.276 71.2267 1.1L70.6627 1.004ZM73.0507 1.856V1.964C72.7987 2.492 72.3427 3.188 71.9347 3.62C72.0307 3.692 72.1867 3.836 72.2587 3.944C72.7267 3.464 73.2787 2.744 73.6267 2.072L73.2787 1.82L73.1707 1.856H73.0507ZM68.0707 1.04C67.3987 2.912 66.3307 4.772 65.1667 5.984C65.2867 6.116 65.4667 6.392 65.5387 6.524C66.7507 5.18 67.8787 3.224 68.6227 1.196L68.0707 1.04ZM66.7747 4.136V11.852H67.3267V3.608L67.3147 3.596L66.7747 4.136ZM71.9347 3.728V5.72H72.4747V3.728H71.9347ZM71.5867 5.648C70.7827 6.452 69.1987 7.304 67.9867 7.688C68.1067 7.784 68.2507 7.964 68.3347 8.096C69.5227 7.664 71.1307 6.728 71.9827 5.864L71.5867 5.648ZM75.0307 6.344C74.3827 6.8 73.2547 7.448 72.4507 7.808L72.7747 8.144C73.5787 7.784 74.6707 7.232 75.4387 6.716L75.0307 6.344ZM73.9387 7.4L73.4587 7.544C73.9147 8.96 74.7787 10.34 75.7867 11.024C75.8707 10.88 76.0507 10.676 76.1827 10.58C75.2107 9.992 74.3467 8.708 73.9387 7.4ZM77.2627 7.496L77.5147 8.036C78.3307 7.496 79.3507 6.812 80.3107 6.152L80.1307 5.624C79.0747 6.344 77.9827 7.052 77.2627 7.496ZM77.3707 3.5V4.052H80.4547V3.5H77.3707ZM78.7867 1.004V11.06C78.7867 11.216 78.7267 11.252 78.5827 11.252C78.4507 11.264 78.0187 11.264 77.5027 11.24C77.5867 11.408 77.6707 11.66 77.6827 11.804C78.3667 11.804 78.7627 11.792 78.9907 11.696C79.2307 11.588 79.3387 11.42 79.3387 11.048V1.004H78.7867ZM81.1027 1.496V1.976H87.7987V1.496H81.1027ZM80.5987 6.38V6.86H84.2107V6.38H80.5987ZM82.3027 1.664V5.324L82.8427 5.3V1.664H82.3027ZM81.2347 6.572V10.46L81.7387 10.424V6.572H81.2347ZM80.4067 10.268L80.4787 10.76C81.3667 10.688 82.4587 10.58 83.6107 10.46V10.028C82.3987 10.124 81.2587 10.208 80.4067 10.268ZM85.9507 1.7V6.092H86.5147V1.7H85.9507ZM82.6147 2.672V3.092H86.1907V2.672H82.6147ZM81.4747 7.616V8.048H83.4427V7.616H81.4747ZM81.4747 8.864V9.296H83.4907V8.864H81.4747ZM84.4267 6.38V6.86H88.1707V6.38H84.4267ZM84.9787 6.572V10.46L85.4827 10.376V6.572H84.9787ZM82.6147 3.824V4.244H86.1787V3.824H82.6147ZM83.2387 6.572V11.876H83.7307V6.572H83.2387ZM85.2547 7.616V8.048H87.2947V7.616H85.2547ZM85.2547 8.852V9.284H87.3067V8.852H85.2547ZM87.0547 6.572V11.876H87.5587V6.572H87.0547ZM80.7667 5.012V5.492H88.0987V5.012H80.7667ZM84.3427 10.136V10.616H88.1707V10.136H84.3427ZM98.9827 1.256C98.2627 2.216 96.9907 3.26 95.9107 3.872C96.0667 3.98 96.2467 4.148 96.3547 4.268C97.4467 3.608 98.7187 2.528 99.5227 1.472L98.9827 1.256ZM99.4387 4.484C98.6227 5.528 97.1707 6.62 95.9107 7.244C96.0547 7.364 96.2347 7.532 96.3187 7.664C97.6267 6.98 99.0907 5.852 99.9667 4.712L99.4387 4.484ZM99.6907 8.024C98.8267 9.38 97.1707 10.688 95.4907 11.408C95.6347 11.516 95.7907 11.708 95.8987 11.84C97.6147 11.06 99.2827 9.704 100.231 8.228L99.6907 8.024ZM89.5147 5.48V5.984H95.7307V5.48H89.5147ZM90.7387 7.196H94.6387V8.42H90.7387V7.196ZM90.1867 6.716V8.9H95.2027V6.716H90.1867ZM93.8227 9.488C94.2787 10.028 94.7587 10.736 94.9867 11.204L95.4427 10.928C95.2027 10.496 94.6987 9.788 94.2667 9.272L93.8227 9.488ZM90.6907 3.212H94.7467V4.112H90.6907V3.212ZM90.6907 1.868H94.7467V2.768H90.6907V1.868ZM90.1387 1.424V4.58H95.3107V1.424H90.1387ZM92.3947 8.672V11.144C92.3947 11.252 92.3707 11.3 92.2267 11.3C92.0827 11.3 91.6627 11.3 91.0867 11.288C91.1707 11.444 91.2547 11.648 91.2907 11.804C91.9747 11.804 92.4067 11.804 92.6587 11.708C92.8987 11.612 92.9587 11.468 92.9587 11.132V8.672H92.3947ZM90.7027 9.308C90.4147 9.956 89.9707 10.58 89.4667 11.036C89.5987 11.12 89.8147 11.276 89.8987 11.36C90.4027 10.88 90.9187 10.136 91.2187 9.44L90.7027 9.308ZM92.0347 4.808C92.2387 5.12 92.4547 5.552 92.5507 5.828L93.1027 5.66C92.9827 5.372 92.7667 4.952 92.5627 4.664L92.0347 4.808ZM100.831 13.136H101.407L105.355 1.568H104.791L100.831 13.136ZM2.304 22.24V22.696H9.72V22.24H2.304ZM2.34 20.764V21.244H9.492V23.704H2.34V24.184H10.056V20.764H2.34ZM5.652 20.968V24.736C5.652 25.564 6 25.732 7.164 25.732C7.428 25.732 9.828 25.732 10.104 25.732C11.136 25.732 11.34 25.36 11.436 23.896C11.268 23.872 11.04 23.776 10.908 23.68C10.848 25.012 10.74 25.228 10.08 25.228C9.576 25.228 7.536 25.228 7.152 25.228C6.372 25.228 6.228 25.132 6.228 24.748V20.968H5.652ZM2.028 20.764V24.856H2.58V20.764H2.028ZM1.548 15.496V15.964H10.44V15.496H1.548ZM5.664 15.628V20.248H6.24V15.628H5.664ZM1.02 16.9V19.408H1.596V17.368H10.392V19.408H10.98V16.9H1.02ZM1.98 19.696L2.196 20.212C2.988 20.068 3.912 19.9 4.86 19.72L4.848 19.288C3.78 19.456 2.748 19.612 1.98 19.696ZM2.232 18.112C3.084 18.28 4.152 18.604 4.716 18.868L4.908 18.46C4.344 18.196 3.276 17.908 2.436 17.752L2.232 18.112ZM9.468 17.716C8.856 17.956 7.776 18.328 7.044 18.508L7.284 18.844C8.028 18.688 9.06 18.412 9.768 18.112L9.468 17.716ZM6.912 19.648C7.872 19.78 9.084 20.056 9.756 20.296L9.912 19.84C9.24 19.6 8.04 19.348 7.092 19.24L6.912 19.648ZM22.26 15.256C21.54 16.216 20.268 17.26 19.188 17.872C19.344 17.98 19.524 18.148 19.632 18.268C20.724 17.608 21.996 16.528 22.8 15.472L22.26 15.256ZM22.716 18.484C21.9 19.528 20.448 20.62 19.188 21.244C19.332 21.364 19.512 21.532 19.596 21.664C20.904 20.98 22.368 19.852 23.244 18.712L22.716 18.484ZM22.968 22.024C22.104 23.38 20.448 24.688 18.768 25.408C18.912 25.516 19.068 25.708 19.176 25.84C20.892 25.06 22.56 23.704 23.508 22.228L22.968 22.024ZM12.792 19.48V19.984H19.008V19.48H12.792ZM14.016 21.196H17.916V22.42H14.016V21.196ZM13.464 20.716V22.9H18.48V20.716H13.464ZM17.1 23.488C17.556 24.028 18.036 24.736 18.264 25.204L18.72 24.928C18.48 24.496 17.976 23.788 17.544 23.272L17.1 23.488ZM13.968 17.212H18.024V18.112H13.968V17.212ZM13.968 15.868H18.024V16.768H13.968V15.868ZM13.416 15.424V18.58H18.588V15.424H13.416ZM15.672 22.672V25.144C15.672 25.252 15.648 25.3 15.504 25.3C15.36 25.3 14.94 25.3 14.364 25.288C14.448 25.444 14.532 25.648 14.568 25.804C15.252 25.804 15.684 25.804 15.936 25.708C16.176 25.612 16.236 25.468 16.236 25.132V22.672H15.672ZM13.98 23.308C13.692 23.956 13.248 24.58 12.744 25.036C12.876 25.12 13.092 25.276 13.176 25.36C13.68 24.88 14.196 24.136 14.496 23.44L13.98 23.308ZM15.312 18.808C15.516 19.12 15.732 19.552 15.828 19.828L16.38 19.66C16.26 19.372 16.044 18.952 15.84 18.664L15.312 18.808ZM32.976 15.196C33.468 15.484 34.104 15.916 34.428 16.192L34.788 15.844C34.452 15.592 33.828 15.172 33.348 14.908L32.976 15.196ZM25.788 16.288V16.804H35.304V16.288H25.788ZM26.724 17.848V18.316H31.308V17.848H26.724ZM34.272 17.608C33.588 19.528 32.388 21.172 30.888 22.216C31.02 22.3 31.248 22.504 31.332 22.6C32.784 21.484 34.044 19.792 34.788 17.752L34.272 17.608ZM32.04 14.992C32.136 20.776 33.252 25.864 34.716 25.864C35.352 25.864 35.568 25.264 35.664 23.476C35.52 23.428 35.304 23.308 35.184 23.188C35.136 24.64 35.004 25.3 34.776 25.3C33.876 25.3 32.628 20.836 32.604 14.992H32.04ZM25.5 16.288V18.94C25.5 20.836 25.404 23.56 24.456 25.576C24.588 25.636 24.828 25.804 24.936 25.9C25.896 23.824 26.04 20.896 26.04 18.94V16.288H25.5ZM27.528 22.78V24.976C27.528 25.612 27.744 25.756 28.536 25.756C28.704 25.756 30.024 25.756 30.204 25.756C30.9 25.756 31.056 25.432 31.116 24.04C30.972 24.004 30.768 23.932 30.648 23.836C30.612 25.108 30.552 25.276 30.156 25.276C29.868 25.276 28.764 25.276 28.572 25.276C28.128 25.276 28.056 25.228 28.056 24.976V22.78H27.528ZM28.524 22.276C28.932 22.84 29.424 23.608 29.664 24.052L30.108 23.836C29.856 23.392 29.352 22.648 28.932 22.096L28.524 22.276ZM31.14 23.044C31.548 23.8 32.028 24.808 32.256 25.396L32.736 25.192C32.508 24.628 32.016 23.632 31.596 22.888L31.14 23.044ZM26.616 22.936C26.472 23.632 26.208 24.616 25.896 25.204L26.34 25.42C26.64 24.808 26.892 23.8 27.036 23.092L26.616 22.936ZM27.54 19.756H30.516V21.412H27.54V19.756ZM27.024 19.288V21.88H31.02V19.288H27.024ZM42.912 15.748V16.204H46.512V15.748H42.912ZM40.14 16.972V17.464H46.932V16.972H40.14ZM39.924 16.972V19.6C39.924 21.328 39.792 23.74 38.712 25.516C38.844 25.576 39.072 25.744 39.156 25.852C40.284 24.004 40.464 21.4 40.464 19.6V16.972H39.924ZM42.264 23.74V24.976C42.264 25.576 42.444 25.696 43.236 25.696C43.404 25.696 44.736 25.696 44.904 25.696C45.492 25.696 45.66 25.468 45.708 24.556C45.552 24.52 45.36 24.46 45.252 24.364C45.216 25.132 45.156 25.24 44.832 25.24C44.568 25.24 43.476 25.24 43.272 25.24C42.852 25.24 42.768 25.192 42.768 24.976V23.74H42.264ZM46.752 16.972V17.068C46.644 17.536 46.5 18.1 46.368 18.472L46.836 18.58C47.004 18.184 47.16 17.572 47.304 17.068L46.944 16.948L46.848 16.972H46.752ZM41.772 21.892H45.816V22.72H41.772V21.892ZM41.772 20.68H45.816V21.484H41.772V20.68ZM41.256 20.26V23.14H46.344V20.26H41.256ZM37.068 15.544C37.716 15.94 38.556 16.516 38.988 16.876L39.336 16.42C38.892 16.084 38.064 15.532 37.428 15.148L37.068 15.544ZM42.912 23.44C43.464 23.668 44.1 24.052 44.424 24.376L44.736 23.98C44.4 23.68 43.764 23.32 43.2 23.104L42.912 23.44ZM45.576 23.8C46.152 24.28 46.764 24.988 47.028 25.468L47.436 25.192C47.172 24.688 46.548 24.016 45.96 23.548L45.576 23.8ZM36.516 18.796C37.212 19.144 38.1 19.684 38.556 20.008L38.88 19.528C38.424 19.216 37.536 18.712 36.852 18.376L36.516 18.796ZM36.792 25.408L37.308 25.732C37.848 24.664 38.508 23.14 38.976 21.904L38.52 21.58C38.016 22.888 37.296 24.484 36.792 25.408ZM42.672 14.992V17.284H43.224V14.992H42.672ZM43.5 20.368V22.912H44.016V20.368H43.5ZM41.184 23.632C41.016 24.268 40.668 24.964 40.14 25.312L40.524 25.66C41.124 25.216 41.448 24.472 41.64 23.8L41.184 23.632ZM40.956 18.184L40.992 18.652L42.984 18.484L42.948 18.028L40.956 18.184ZM42.636 17.272V18.772C42.636 19.408 42.792 19.66 43.428 19.66C43.62 19.66 45.084 19.66 45.384 19.66C45.708 19.66 46.056 19.648 46.212 19.6C46.188 19.48 46.164 19.3 46.14 19.156C45.96 19.204 45.576 19.204 45.36 19.204C45.084 19.204 43.764 19.204 43.512 19.204C43.212 19.204 43.176 19.108 43.176 18.784V17.272H42.636ZM42.876 18.028L42.912 18.448L45.504 18.22L45.468 17.8L42.876 18.028ZM53.316 15.976V16.468H59.208V15.976H53.316ZM52.956 18.148V18.664H59.46V18.148H52.956ZM54.42 16.768C54.66 17.272 54.9 17.944 54.984 18.376L55.512 18.22C55.416 17.8 55.164 17.14 54.912 16.648L54.42 16.768ZM57.528 16.684C57.384 17.14 57.108 17.836 56.868 18.268L57.348 18.412C57.576 18.004 57.852 17.392 58.08 16.852L57.528 16.684ZM54.18 21.304H58.296V22.276H54.18V21.304ZM54.18 19.9H58.296V20.86H54.18V19.9ZM53.652 19.432V22.744H58.836V19.432H53.652ZM54.912 22.612C54.816 24.436 54.312 25.072 52.176 25.48C52.296 25.588 52.452 25.804 52.512 25.936C54.768 25.468 55.368 24.664 55.476 22.612H54.912ZM49.344 17.956V18.484H52.668V17.956H49.344ZM48.672 19.996V20.536H53.076V19.996H48.672ZM49.02 21.388C49.296 22.156 49.488 23.128 49.5 23.788L49.992 23.668C49.956 23.02 49.752 22.048 49.476 21.28L49.02 21.388ZM48.564 24.904L48.696 25.456C49.932 25.192 51.588 24.82 53.184 24.46L53.148 23.956C51.456 24.328 49.716 24.688 48.564 24.904ZM52.368 21.172C52.26 21.832 52.008 22.852 51.816 23.452L52.236 23.596C52.452 22.996 52.68 22.06 52.872 21.304L52.368 21.172ZM50.688 18.136V24.784L51.228 24.712V18.136H50.688ZM56.724 22.612V24.808C56.724 25.408 56.784 25.564 56.964 25.684C57.132 25.804 57.42 25.84 57.648 25.84C57.78 25.84 58.248 25.84 58.392 25.84C58.596 25.84 58.884 25.816 59.028 25.768C59.196 25.696 59.34 25.588 59.4 25.396C59.472 25.216 59.508 24.688 59.532 24.196C59.352 24.148 59.148 24.052 59.016 23.956C59.016 24.46 59.004 24.856 58.968 25.036C58.932 25.18 58.86 25.276 58.764 25.312C58.68 25.348 58.5 25.36 58.344 25.36C58.152 25.36 57.876 25.36 57.732 25.36C57.576 25.36 57.456 25.348 57.384 25.312C57.3 25.264 57.288 25.144 57.288 24.916V22.612H56.724ZM50.964 14.932C50.376 16.156 49.368 17.308 48.384 18.04C48.48 18.172 48.648 18.472 48.696 18.604C49.728 17.764 50.808 16.48 51.456 15.136L50.964 14.932ZM50.568 15.904C51.456 16.456 52.416 17.2 52.968 17.824L53.292 17.356C52.728 16.732 51.78 16.012 50.844 15.484L50.568 15.904ZM55.464 15.112C55.776 15.484 56.112 16.012 56.256 16.36L56.784 16.156C56.628 15.808 56.292 15.304 55.968 14.944L55.464 15.112Z" fill="#007282"/>
</svg>
