<svg width="165" height="14" viewBox="0 0 165 14" fill="none" xmlns="http://www.w3.org/2000/svg">
<path d="M5.736 1.052C5.7 2.78 5.688 8.924 0.612 11.396C0.768 11.516 0.96 11.696 1.068 11.84C6.216 9.248 6.312 2.972 6.36 1.052H5.736ZM6.252 2.54L5.712 2.588C5.868 3.548 6.42 9.656 11.064 11.804C11.16 11.648 11.34 11.444 11.496 11.324C6.924 9.284 6.372 3.332 6.252 2.54ZM17.592 1.856V2.348H20.52V1.856H17.592ZM16.824 4.016H22.128V5.504H16.824V4.016ZM16.296 3.524V5.984H22.68V3.524H16.296ZM18.3 6.392C20.172 7.772 20.328 10.484 19.596 11.096C19.404 11.3 19.188 11.312 18.924 11.312C18.72 11.312 18.42 11.3 18.108 11.264C18.192 11.408 18.24 11.636 18.252 11.792C18.54 11.804 18.816 11.816 19.032 11.816C19.44 11.816 19.704 11.756 20.004 11.468C20.928 10.676 20.748 7.628 18.696 6.128L18.3 6.392ZM19.2 7.232C18.348 8.06 16.704 8.924 15.456 9.308C15.564 9.404 15.72 9.584 15.804 9.716C17.04 9.26 18.72 8.324 19.596 7.436L19.2 7.232ZM19.8 8.42C18.84 9.488 16.956 10.532 15.384 11C15.504 11.096 15.66 11.288 15.744 11.42C17.292 10.904 19.212 9.788 20.208 8.624L19.8 8.42ZM17.94 1.004C17.424 2.036 16.44 3.392 15.084 4.364C15.216 4.448 15.384 4.616 15.468 4.736C16.884 3.656 17.88 2.276 18.504 1.1L17.94 1.004ZM20.328 1.856V1.964C20.076 2.492 19.62 3.188 19.212 3.62C19.308 3.692 19.464 3.836 19.536 3.944C20.004 3.464 20.556 2.744 20.904 2.072L20.556 1.82L20.448 1.856H20.328ZM15.348 1.04C14.676 2.912 13.608 4.772 12.444 5.984C12.564 6.116 12.744 6.392 12.816 6.524C14.028 5.18 15.156 3.224 15.9 1.196L15.348 1.04ZM14.052 4.136V11.852H14.604V3.608L14.592 3.596L14.052 4.136ZM19.212 3.728V5.72H19.752V3.728H19.212ZM18.864 5.648C18.06 6.452 16.476 7.304 15.264 7.688C15.384 7.784 15.528 7.964 15.612 8.096C16.8 7.664 18.408 6.728 19.26 5.864L18.864 5.648ZM22.308 6.344C21.66 6.8 20.532 7.448 19.728 7.808L20.052 8.144C20.856 7.784 21.948 7.232 22.716 6.716L22.308 6.344ZM21.216 7.4L20.736 7.544C21.192 8.96 22.056 10.34 23.064 11.024C23.148 10.88 23.328 10.676 23.46 10.58C22.488 9.992 21.624 8.708 21.216 7.4ZM28.812 5.684V10.376H29.364V6.224H34.548V5.684H28.812ZM34.308 5.684V9.476C34.308 9.608 34.284 9.656 34.116 9.668C33.948 9.68 33.468 9.68 32.82 9.656C32.892 9.824 32.988 10.052 33 10.196C33.78 10.196 34.26 10.196 34.524 10.1C34.812 10.004 34.872 9.824 34.872 9.476V5.684H34.308ZM27.432 2.888V3.428H35.484V2.888H27.432ZM31.476 4.004V11.888H32.052V4.004H31.476ZM30.648 0.956C29.94 3.524 28.716 5.744 26.976 7.136C27.12 7.244 27.336 7.46 27.42 7.568C29.16 6.068 30.432 3.788 31.2 1.076L30.648 0.956ZM27.348 1.04C26.652 2.924 25.476 4.784 24.24 5.984C24.348 6.104 24.528 6.392 24.588 6.524C25.896 5.192 27.108 3.236 27.912 1.196L27.348 1.04ZM26.064 3.992V11.876H26.616V3.464L26.592 3.452L26.064 3.992ZM43.2 6.056V10.868C43.2 11.684 43.44 11.888 44.364 11.888C44.556 11.888 46.068 11.888 46.284 11.888C47.196 11.888 47.364 11.396 47.448 9.512C47.28 9.464 47.028 9.356 46.896 9.248C46.848 11.036 46.764 11.336 46.248 11.336C45.912 11.336 44.64 11.336 44.388 11.336C43.872 11.336 43.764 11.24 43.764 10.868V6.056H43.2ZM40.068 6.116C39.864 8.66 39.36 10.52 36.48 11.408C36.612 11.516 36.792 11.756 36.864 11.888C39.84 10.916 40.452 8.9 40.668 6.116H40.068ZM37.776 1.808C38.424 2.756 39.072 4.04 39.3 4.832L39.852 4.616C39.612 3.8 38.94 2.552 38.292 1.628L37.776 1.808ZM45.732 1.472C45.36 2.42 44.652 3.788 44.124 4.616L44.604 4.82C45.144 4.016 45.816 2.732 46.308 1.7L45.732 1.472ZM36.684 5.684V6.248H47.34V5.684H36.684ZM41.676 0.991999V5.912H42.264V0.991999H41.676ZM48.108 13.136H48.684L52.632 1.568H52.068L48.108 13.136ZM58.4587 1.052C58.4227 2.78 58.4107 8.924 53.3347 11.396C53.4907 11.516 53.6827 11.696 53.7907 11.84C58.9387 9.248 59.0347 2.972 59.0827 1.052H58.4587ZM58.9747 2.54L58.4347 2.588C58.5907 3.548 59.1427 9.656 63.7867 11.804C63.8827 11.648 64.0627 11.444 64.2187 11.324C59.6467 9.284 59.0947 3.332 58.9747 2.54ZM70.3147 1.856V2.348H73.2427V1.856H70.3147ZM69.5467 4.016H74.8507V5.504H69.5467V4.016ZM69.0187 3.524V5.984H75.4027V3.524H69.0187ZM71.0227 6.392C72.8947 7.772 73.0507 10.484 72.3187 11.096C72.1267 11.3 71.9107 11.312 71.6467 11.312C71.4427 11.312 71.1427 11.3 70.8307 11.264C70.9147 11.408 70.9627 11.636 70.9747 11.792C71.2627 11.804 71.5387 11.816 71.7547 11.816C72.1627 11.816 72.4267 11.756 72.7267 11.468C73.6507 10.676 73.4707 7.628 71.4187 6.128L71.0227 6.392ZM71.9227 7.232C71.0707 8.06 69.4267 8.924 68.1787 9.308C68.2867 9.404 68.4427 9.584 68.5267 9.716C69.7627 9.26 71.4427 8.324 72.3187 7.436L71.9227 7.232ZM72.5227 8.42C71.5627 9.488 69.6787 10.532 68.1067 11C68.2267 11.096 68.3827 11.288 68.4667 11.42C70.0147 10.904 71.9347 9.788 72.9307 8.624L72.5227 8.42ZM70.6627 1.004C70.1467 2.036 69.1627 3.392 67.8067 4.364C67.9387 4.448 68.1067 4.616 68.1907 4.736C69.6067 3.656 70.6027 2.276 71.2267 1.1L70.6627 1.004ZM73.0507 1.856V1.964C72.7987 2.492 72.3427 3.188 71.9347 3.62C72.0307 3.692 72.1867 3.836 72.2587 3.944C72.7267 3.464 73.2787 2.744 73.6267 2.072L73.2787 1.82L73.1707 1.856H73.0507ZM68.0707 1.04C67.3987 2.912 66.3307 4.772 65.1667 5.984C65.2867 6.116 65.4667 6.392 65.5387 6.524C66.7507 5.18 67.8787 3.224 68.6227 1.196L68.0707 1.04ZM66.7747 4.136V11.852H67.3267V3.608L67.3147 3.596L66.7747 4.136ZM71.9347 3.728V5.72H72.4747V3.728H71.9347ZM71.5867 5.648C70.7827 6.452 69.1987 7.304 67.9867 7.688C68.1067 7.784 68.2507 7.964 68.3347 8.096C69.5227 7.664 71.1307 6.728 71.9827 5.864L71.5867 5.648ZM75.0307 6.344C74.3827 6.8 73.2547 7.448 72.4507 7.808L72.7747 8.144C73.5787 7.784 74.6707 7.232 75.4387 6.716L75.0307 6.344ZM73.9387 7.4L73.4587 7.544C73.9147 8.96 74.7787 10.34 75.7867 11.024C75.8707 10.88 76.0507 10.676 76.1827 10.58C75.2107 9.992 74.3467 8.708 73.9387 7.4ZM77.2627 7.496L77.5147 8.036C78.3307 7.496 79.3507 6.812 80.3107 6.152L80.1307 5.624C79.0747 6.344 77.9827 7.052 77.2627 7.496ZM77.3707 3.5V4.052H80.4547V3.5H77.3707ZM78.7867 1.004V11.06C78.7867 11.216 78.7267 11.252 78.5827 11.252C78.4507 11.264 78.0187 11.264 77.5027 11.24C77.5867 11.408 77.6707 11.66 77.6827 11.804C78.3667 11.804 78.7627 11.792 78.9907 11.696C79.2307 11.588 79.3387 11.42 79.3387 11.048V1.004H78.7867ZM81.1027 1.496V1.976H87.7987V1.496H81.1027ZM80.5987 6.38V6.86H84.2107V6.38H80.5987ZM82.3027 1.664V5.324L82.8427 5.3V1.664H82.3027ZM81.2347 6.572V10.46L81.7387 10.424V6.572H81.2347ZM80.4067 10.268L80.4787 10.76C81.3667 10.688 82.4587 10.58 83.6107 10.46V10.028C82.3987 10.124 81.2587 10.208 80.4067 10.268ZM85.9507 1.7V6.092H86.5147V1.7H85.9507ZM82.6147 2.672V3.092H86.1907V2.672H82.6147ZM81.4747 7.616V8.048H83.4427V7.616H81.4747ZM81.4747 8.864V9.296H83.4907V8.864H81.4747ZM84.4267 6.38V6.86H88.1707V6.38H84.4267ZM84.9787 6.572V10.46L85.4827 10.376V6.572H84.9787ZM82.6147 3.824V4.244H86.1787V3.824H82.6147ZM83.2387 6.572V11.876H83.7307V6.572H83.2387ZM85.2547 7.616V8.048H87.2947V7.616H85.2547ZM85.2547 8.852V9.284H87.3067V8.852H85.2547ZM87.0547 6.572V11.876H87.5587V6.572H87.0547ZM80.7667 5.012V5.492H88.0987V5.012H80.7667ZM84.3427 10.136V10.616H88.1707V10.136H84.3427ZM98.9827 1.256C98.2627 2.216 96.9907 3.26 95.9107 3.872C96.0667 3.98 96.2467 4.148 96.3547 4.268C97.4467 3.608 98.7187 2.528 99.5227 1.472L98.9827 1.256ZM99.4387 4.484C98.6227 5.528 97.1707 6.62 95.9107 7.244C96.0547 7.364 96.2347 7.532 96.3187 7.664C97.6267 6.98 99.0907 5.852 99.9667 4.712L99.4387 4.484ZM99.6907 8.024C98.8267 9.38 97.1707 10.688 95.4907 11.408C95.6347 11.516 95.7907 11.708 95.8987 11.84C97.6147 11.06 99.2827 9.704 100.231 8.228L99.6907 8.024ZM89.5147 5.48V5.984H95.7307V5.48H89.5147ZM90.7387 7.196H94.6387V8.42H90.7387V7.196ZM90.1867 6.716V8.9H95.2027V6.716H90.1867ZM93.8227 9.488C94.2787 10.028 94.7587 10.736 94.9867 11.204L95.4427 10.928C95.2027 10.496 94.6987 9.788 94.2667 9.272L93.8227 9.488ZM90.6907 3.212H94.7467V4.112H90.6907V3.212ZM90.6907 1.868H94.7467V2.768H90.6907V1.868ZM90.1387 1.424V4.58H95.3107V1.424H90.1387ZM92.3947 8.672V11.144C92.3947 11.252 92.3707 11.3 92.2267 11.3C92.0827 11.3 91.6627 11.3 91.0867 11.288C91.1707 11.444 91.2547 11.648 91.2907 11.804C91.9747 11.804 92.4067 11.804 92.6587 11.708C92.8987 11.612 92.9587 11.468 92.9587 11.132V8.672H92.3947ZM90.7027 9.308C90.4147 9.956 89.9707 10.58 89.4667 11.036C89.5987 11.12 89.8147 11.276 89.8987 11.36C90.4027 10.88 90.9187 10.136 91.2187 9.44L90.7027 9.308ZM92.0347 4.808C92.2387 5.12 92.4547 5.552 92.5507 5.828L93.1027 5.66C92.9827 5.372 92.7667 4.952 92.5627 4.664L92.0347 4.808ZM100.831 13.136H101.407L105.355 1.568H104.791L100.831 13.136ZM107.749 8.24V8.696H115.165V8.24H107.749ZM107.785 6.764V7.244H114.937V9.704H107.785V10.184H115.501V6.764H107.785ZM111.097 6.968V10.736C111.097 11.564 111.445 11.732 112.609 11.732C112.873 11.732 115.273 11.732 115.549 11.732C116.581 11.732 116.785 11.36 116.881 9.896C116.713 9.872 116.485 9.776 116.353 9.68C116.293 11.012 116.185 11.228 115.525 11.228C115.021 11.228 112.981 11.228 112.597 11.228C111.817 11.228 111.673 11.132 111.673 10.748V6.968H111.097ZM107.473 6.764V10.856H108.025V6.764H107.473ZM106.993 1.496V1.964H115.885V1.496H106.993ZM111.109 1.628V6.248H111.685V1.628H111.109ZM106.465 2.9V5.408H107.041V3.368H115.837V5.408H116.425V2.9H106.465ZM107.425 5.696L107.641 6.212C108.433 6.068 109.357 5.9 110.305 5.72L110.293 5.288C109.225 5.456 108.193 5.612 107.425 5.696ZM107.677 4.112C108.529 4.28 109.597 4.604 110.161 4.868L110.353 4.46C109.789 4.196 108.721 3.908 107.881 3.752L107.677 4.112ZM114.913 3.716C114.301 3.956 113.221 4.328 112.489 4.508L112.729 4.844C113.473 4.688 114.505 4.412 115.213 4.112L114.913 3.716ZM112.357 5.648C113.317 5.78 114.529 6.056 115.201 6.296L115.357 5.84C114.685 5.6 113.485 5.348 112.537 5.24L112.357 5.648ZM127.705 1.256C126.985 2.216 125.713 3.26 124.633 3.872C124.789 3.98 124.969 4.148 125.077 4.268C126.169 3.608 127.441 2.528 128.245 1.472L127.705 1.256ZM128.161 4.484C127.345 5.528 125.893 6.62 124.633 7.244C124.777 7.364 124.957 7.532 125.041 7.664C126.349 6.98 127.813 5.852 128.689 4.712L128.161 4.484ZM128.413 8.024C127.549 9.38 125.893 10.688 124.213 11.408C124.357 11.516 124.513 11.708 124.621 11.84C126.337 11.06 128.005 9.704 128.953 8.228L128.413 8.024ZM118.237 5.48V5.984H124.453V5.48H118.237ZM119.461 7.196H123.361V8.42H119.461V7.196ZM118.909 6.716V8.9H123.925V6.716H118.909ZM122.545 9.488C123.001 10.028 123.481 10.736 123.709 11.204L124.165 10.928C123.925 10.496 123.421 9.788 122.989 9.272L122.545 9.488ZM119.413 3.212H123.469V4.112H119.413V3.212ZM119.413 1.868H123.469V2.768H119.413V1.868ZM118.861 1.424V4.58H124.033V1.424H118.861ZM121.117 8.672V11.144C121.117 11.252 121.093 11.3 120.949 11.3C120.805 11.3 120.385 11.3 119.809 11.288C119.893 11.444 119.977 11.648 120.013 11.804C120.697 11.804 121.129 11.804 121.381 11.708C121.621 11.612 121.681 11.468 121.681 11.132V8.672H121.117ZM119.425 9.308C119.137 9.956 118.693 10.58 118.189 11.036C118.321 11.12 118.537 11.276 118.621 11.36C119.125 10.88 119.641 10.136 119.941 9.44L119.425 9.308ZM120.757 4.808C120.961 5.12 121.177 5.552 121.273 5.828L121.825 5.66C121.705 5.372 121.489 4.952 121.285 4.664L120.757 4.808ZM138.421 1.196C138.913 1.484 139.549 1.916 139.873 2.192L140.233 1.844C139.897 1.592 139.273 1.172 138.793 0.908L138.421 1.196ZM131.233 2.288V2.804H140.749V2.288H131.233ZM132.169 3.848V4.316H136.753V3.848H132.169ZM139.717 3.608C139.033 5.528 137.833 7.172 136.333 8.216C136.465 8.3 136.693 8.504 136.777 8.6C138.229 7.484 139.489 5.792 140.233 3.752L139.717 3.608ZM137.485 0.991999C137.581 6.776 138.697 11.864 140.161 11.864C140.797 11.864 141.013 11.264 141.109 9.476C140.965 9.428 140.749 9.308 140.629 9.188C140.581 10.64 140.449 11.3 140.221 11.3C139.321 11.3 138.073 6.836 138.049 0.991999H137.485ZM130.945 2.288V4.94C130.945 6.836 130.849 9.56 129.901 11.576C130.033 11.636 130.273 11.804 130.381 11.9C131.341 9.824 131.485 6.896 131.485 4.94V2.288H130.945ZM132.973 8.78V10.976C132.973 11.612 133.189 11.756 133.981 11.756C134.149 11.756 135.469 11.756 135.649 11.756C136.345 11.756 136.501 11.432 136.561 10.04C136.417 10.004 136.213 9.932 136.093 9.836C136.057 11.108 135.997 11.276 135.601 11.276C135.313 11.276 134.209 11.276 134.017 11.276C133.573 11.276 133.501 11.228 133.501 10.976V8.78H132.973ZM133.969 8.276C134.377 8.84 134.869 9.608 135.109 10.052L135.553 9.836C135.301 9.392 134.797 8.648 134.377 8.096L133.969 8.276ZM136.585 9.044C136.993 9.8 137.473 10.808 137.701 11.396L138.181 11.192C137.953 10.628 137.461 9.632 137.041 8.888L136.585 9.044ZM132.061 8.936C131.917 9.632 131.653 10.616 131.341 11.204L131.785 11.42C132.085 10.808 132.337 9.8 132.481 9.092L132.061 8.936ZM132.985 5.756H135.961V7.412H132.985V5.756ZM132.469 5.288V7.88H136.465V5.288H132.469ZM148.357 1.748V2.204H151.957V1.748H148.357ZM145.585 2.972V3.464H152.377V2.972H145.585ZM145.369 2.972V5.6C145.369 7.328 145.237 9.74 144.157 11.516C144.289 11.576 144.517 11.744 144.601 11.852C145.729 10.004 145.909 7.4 145.909 5.6V2.972H145.369ZM147.709 9.74V10.976C147.709 11.576 147.889 11.696 148.681 11.696C148.849 11.696 150.181 11.696 150.349 11.696C150.937 11.696 151.105 11.468 151.153 10.556C150.997 10.52 150.805 10.46 150.697 10.364C150.661 11.132 150.601 11.24 150.277 11.24C150.013 11.24 148.921 11.24 148.717 11.24C148.297 11.24 148.213 11.192 148.213 10.976V9.74H147.709ZM152.197 2.972V3.068C152.089 3.536 151.945 4.1 151.813 4.472L152.281 4.58C152.449 4.184 152.605 3.572 152.749 3.068L152.389 2.948L152.293 2.972H152.197ZM147.217 7.892H151.261V8.72H147.217V7.892ZM147.217 6.68H151.261V7.484H147.217V6.68ZM146.701 6.26V9.14H151.789V6.26H146.701ZM142.513 1.544C143.161 1.94 144.001 2.516 144.433 2.876L144.781 2.42C144.337 2.084 143.509 1.532 142.873 1.148L142.513 1.544ZM148.357 9.44C148.909 9.668 149.545 10.052 149.869 10.376L150.181 9.98C149.845 9.68 149.209 9.32 148.645 9.104L148.357 9.44ZM151.021 9.8C151.597 10.28 152.209 10.988 152.473 11.468L152.881 11.192C152.617 10.688 151.993 10.016 151.405 9.548L151.021 9.8ZM141.961 4.796C142.657 5.144 143.545 5.684 144.001 6.008L144.325 5.528C143.869 5.216 142.981 4.712 142.297 4.376L141.961 4.796ZM142.237 11.408L142.753 11.732C143.293 10.664 143.953 9.14 144.421 7.904L143.965 7.58C143.461 8.888 142.741 10.484 142.237 11.408ZM148.117 0.991999V3.284H148.669V0.991999H148.117ZM148.945 6.368V8.912H149.461V6.368H148.945ZM146.629 9.632C146.461 10.268 146.113 10.964 145.585 11.312L145.969 11.66C146.569 11.216 146.893 10.472 147.085 9.8L146.629 9.632ZM146.401 4.184L146.437 4.652L148.429 4.484L148.393 4.028L146.401 4.184ZM148.081 3.272V4.772C148.081 5.408 148.237 5.66 148.873 5.66C149.065 5.66 150.529 5.66 150.829 5.66C151.153 5.66 151.501 5.648 151.657 5.6C151.633 5.48 151.609 5.3 151.585 5.156C151.405 5.204 151.021 5.204 150.805 5.204C150.529 5.204 149.209 5.204 148.957 5.204C148.657 5.204 148.621 5.108 148.621 4.784V3.272H148.081ZM148.321 4.028L148.357 4.448L150.949 4.22L150.913 3.8L148.321 4.028ZM158.761 1.976V2.468H164.653V1.976H158.761ZM158.401 4.148V4.664H164.905V4.148H158.401ZM159.865 2.768C160.105 3.272 160.345 3.944 160.429 4.376L160.957 4.22C160.861 3.8 160.609 3.14 160.357 2.648L159.865 2.768ZM162.973 2.684C162.829 3.14 162.553 3.836 162.313 4.268L162.793 4.412C163.021 4.004 163.297 3.392 163.525 2.852L162.973 2.684ZM159.625 7.304H163.741V8.276H159.625V7.304ZM159.625 5.9H163.741V6.86H159.625V5.9ZM159.097 5.432V8.744H164.281V5.432H159.097ZM160.357 8.612C160.261 10.436 159.757 11.072 157.621 11.48C157.741 11.588 157.897 11.804 157.957 11.936C160.213 11.468 160.813 10.664 160.921 8.612H160.357ZM154.789 3.956V4.484H158.113V3.956H154.789ZM154.117 5.996V6.536H158.521V5.996H154.117ZM154.465 7.388C154.741 8.156 154.933 9.128 154.945 9.788L155.437 9.668C155.401 9.02 155.197 8.048 154.921 7.28L154.465 7.388ZM154.009 10.904L154.141 11.456C155.377 11.192 157.033 10.82 158.629 10.46L158.593 9.956C156.901 10.328 155.161 10.688 154.009 10.904ZM157.813 7.172C157.705 7.832 157.453 8.852 157.261 9.452L157.681 9.596C157.897 8.996 158.125 8.06 158.317 7.304L157.813 7.172ZM156.133 4.136V10.784L156.673 10.712V4.136H156.133ZM162.169 8.612V10.808C162.169 11.408 162.229 11.564 162.409 11.684C162.577 11.804 162.865 11.84 163.093 11.84C163.225 11.84 163.693 11.84 163.837 11.84C164.041 11.84 164.329 11.816 164.473 11.768C164.641 11.696 164.785 11.588 164.845 11.396C164.917 11.216 164.953 10.688 164.977 10.196C164.797 10.148 164.593 10.052 164.461 9.956C164.461 10.46 164.449 10.856 164.413 11.036C164.377 11.18 164.305 11.276 164.209 11.312C164.125 11.348 163.945 11.36 163.789 11.36C163.597 11.36 163.321 11.36 163.177 11.36C163.021 11.36 162.901 11.348 162.829 11.312C162.745 11.264 162.733 11.144 162.733 10.916V8.612H162.169ZM156.409 0.931999C155.821 2.156 154.813 3.308 153.829 4.04C153.925 4.172 154.093 4.472 154.141 4.604C155.173 3.764 156.253 2.48 156.901 1.136L156.409 0.931999ZM156.013 1.904C156.901 2.456 157.861 3.2 158.413 3.824L158.737 3.356C158.173 2.732 157.225 2.012 156.289 1.484L156.013 1.904ZM160.909 1.112C161.221 1.484 161.557 2.012 161.701 2.36L162.229 2.156C162.073 1.808 161.737 1.304 161.413 0.943999L160.909 1.112Z" fill="#007282"/>
</svg>
