<svg width="106" height="26" viewBox="0 0 106 26" fill="none" xmlns="http://www.w3.org/2000/svg">
<path d="M5.7 7.748C4.56 8.72 2.316 9.584 0.504 9.968C0.624 10.076 0.78 10.28 0.864 10.424C2.664 10.004 4.956 9.056 6.18 7.988L5.7 7.748ZM6.384 7.724L5.892 7.868C6.756 9.92 8.592 11.228 11.076 11.744C11.16 11.588 11.304 11.372 11.424 11.252C8.988 10.82 7.164 9.596 6.384 7.724ZM10.152 8.336C9.504 8.804 8.388 9.416 7.56 9.8L7.944 10.1C8.784 9.728 9.828 9.188 10.596 8.648L10.152 8.336ZM0.708 7.58V8.096H11.304V7.58H0.708ZM7.788 1.616V5.54H8.328V1.616H7.788ZM10.032 1.124V6.2C10.032 6.356 9.984 6.404 9.804 6.404C9.636 6.416 9.048 6.428 8.328 6.404C8.412 6.56 8.496 6.764 8.532 6.92C9.384 6.92 9.912 6.92 10.2 6.824C10.488 6.728 10.572 6.572 10.572 6.212V1.124H10.032ZM3.504 0.991999V7.016H4.032V0.991999H3.504ZM5.808 4.496V6.02C5.808 6.116 5.784 6.152 5.676 6.164C5.568 6.176 5.244 6.176 4.776 6.164C4.848 6.296 4.944 6.464 4.956 6.596C5.508 6.596 5.856 6.596 6.06 6.5C6.288 6.428 6.324 6.284 6.324 6.02V4.496H5.808ZM1.356 4.496V6.68H1.848V4.952H6.072V4.496H1.356ZM0.648 3.26V3.728H6.72V3.26H0.648ZM1.848 1.892L1.656 2.372H6.252V1.892H1.848ZM1.908 1.04C1.68 1.724 1.356 2.42 0.924 2.936C1.056 2.984 1.296 3.092 1.392 3.164C1.776 2.66 2.16 1.88 2.412 1.16L1.908 1.04ZM2.832 11.876C3.048 11.744 3.396 11.648 6.756 10.832C6.744 10.724 6.744 10.532 6.756 10.376L3.132 11.168L2.82 11.42L2.832 11.876ZM2.844 11.864C2.844 11.624 3.648 11.156 3.648 11.156V9.296H3.072V10.58C3.072 11.072 2.76 11.276 2.58 11.384C2.676 11.492 2.796 11.732 2.844 11.864ZM5.508 6.752C5.724 7.112 5.988 7.616 6.084 7.916L6.636 7.724C6.528 7.436 6.276 6.944 6.036 6.596L5.508 6.752ZM17.808 3.032L17.532 3.596H23.46V3.032H17.808ZM19.248 5.612V6.152H23.208V5.612H19.248ZM19.248 8.252V8.816H23.376V8.252H19.248ZM18.972 3.212V11.888H19.56V3.212H18.972ZM18.372 1.16C17.76 2.936 16.776 4.688 15.672 5.84C15.804 5.936 16.044 6.128 16.128 6.224C17.232 5 18.252 3.188 18.936 1.292L18.372 1.16ZM15.66 1.04C14.94 2.924 13.776 4.784 12.528 5.984C12.648 6.104 12.828 6.404 12.9 6.524C14.196 5.204 15.408 3.236 16.212 1.208L15.66 1.04ZM14.34 3.992V11.876H14.928V3.44L14.904 3.416L14.34 3.992ZM27.684 2.636V3.164H35.232V2.636H27.684ZM31.032 6.644V11.384H31.572V6.644H31.032ZM28.848 6.596V7.904C28.848 9.056 28.704 10.424 27.288 11.468C27.42 11.54 27.612 11.732 27.708 11.84C29.208 10.712 29.388 9.224 29.388 7.916V6.596H28.848ZM32.604 3.812C33.348 4.676 34.296 5.84 34.764 6.512L35.232 6.2C34.764 5.528 33.816 4.4 33.06 3.56L32.604 3.812ZM28.14 6.056C28.452 5.948 28.956 5.912 34.332 5.54C34.284 5.42 34.212 5.192 34.176 5.036L28.572 5.372L28.128 5.6L28.14 6.056ZM25.104 1.544C25.836 1.988 26.676 2.684 27.06 3.164L27.444 2.72C27.036 2.252 26.196 1.592 25.464 1.148L25.104 1.544ZM24.54 4.844C25.32 5.192 26.232 5.768 26.7 6.188L27.024 5.708C26.568 5.288 25.632 4.748 24.864 4.412L24.54 4.844ZM24.888 11.336L25.38 11.732C26.076 10.64 26.964 9.068 27.6 7.796L27.18 7.412C26.496 8.768 25.536 10.4 24.888 11.336ZM33.252 6.584V10.748C33.252 11.42 33.372 11.636 33.972 11.636C34.092 11.636 34.716 11.636 34.872 11.636C35.076 11.636 35.28 11.636 35.4 11.6C35.388 11.48 35.364 11.264 35.352 11.132C35.22 11.156 35.004 11.168 34.86 11.168C34.716 11.168 34.152 11.168 34.008 11.168C33.84 11.168 33.804 11.084 33.804 10.76V6.584H33.252ZM28.14 6.056C28.14 5.924 28.596 5.732 28.596 5.732V5.708C29.724 4.58 30.9 2.96 31.908 1.304L31.332 1.064C30.48 2.636 29.196 4.28 28.812 4.7C28.452 5.132 28.164 5.432 27.936 5.48C28.008 5.636 28.104 5.936 28.14 6.056ZM43.74 6.536V11.372H44.304V6.536H43.74ZM40.572 11.036V11.564H47.436V11.036H40.572ZM41.268 8.588V9.116H46.908V8.588H41.268ZM41.964 2.168H46.164V4.748H41.964V2.168ZM41.412 1.652V5.288H46.716V1.652H41.412ZM46.452 5.888C45.264 6.26 42.924 6.5 41.052 6.62C41.124 6.764 41.184 6.968 41.208 7.1C43.128 6.992 45.504 6.74 46.896 6.332L46.452 5.888ZM38.736 1.916V11.864H39.312V1.916H38.736ZM36.636 4.376V4.928H40.956V4.376H36.636ZM38.76 4.58C38.304 6.152 37.284 8.096 36.396 9.056C36.504 9.176 36.672 9.404 36.732 9.56C37.644 8.492 38.676 6.416 39.168 4.736L38.76 4.58ZM40.476 1.196C39.624 1.592 37.98 1.94 36.612 2.156C36.684 2.3 36.768 2.48 36.792 2.612C38.184 2.42 39.876 2.072 40.92 1.64L40.476 1.196ZM39.264 5.852L38.964 6.092C39.336 6.452 40.344 7.64 40.632 8.072L41.004 7.604C40.74 7.304 39.576 6.116 39.264 5.852ZM48.108 13.136H48.684L52.632 1.568H52.068L48.108 13.136ZM62.9827 1.256C62.2627 2.216 60.9907 3.26 59.9107 3.872C60.0667 3.98 60.2467 4.148 60.3547 4.268C61.4467 3.608 62.7187 2.528 63.5227 1.472L62.9827 1.256ZM63.4387 4.484C62.6227 5.528 61.1707 6.62 59.9107 7.244C60.0547 7.364 60.2347 7.532 60.3187 7.664C61.6267 6.98 63.0907 5.852 63.9667 4.712L63.4387 4.484ZM63.6907 8.024C62.8267 9.38 61.1707 10.688 59.4907 11.408C59.6347 11.516 59.7907 11.708 59.8987 11.84C61.6147 11.06 63.2827 9.704 64.2307 8.228L63.6907 8.024ZM53.5147 5.48V5.984H59.7307V5.48H53.5147ZM54.7387 7.196H58.6387V8.42H54.7387V7.196ZM54.1867 6.716V8.9H59.2027V6.716H54.1867ZM57.8227 9.488C58.2787 10.028 58.7587 10.736 58.9867 11.204L59.4427 10.928C59.2027 10.496 58.6987 9.788 58.2667 9.272L57.8227 9.488ZM54.6907 3.212H58.7467V4.112H54.6907V3.212ZM54.6907 1.868H58.7467V2.768H54.6907V1.868ZM54.1387 1.424V4.58H59.3107V1.424H54.1387ZM56.3947 8.672V11.144C56.3947 11.252 56.3707 11.3 56.2267 11.3C56.0827 11.3 55.6627 11.3 55.0867 11.288C55.1707 11.444 55.2547 11.648 55.2907 11.804C55.9747 11.804 56.4067 11.804 56.6587 11.708C56.8987 11.612 56.9587 11.468 56.9587 11.132V8.672H56.3947ZM54.7027 9.308C54.4147 9.956 53.9707 10.58 53.4667 11.036C53.5987 11.12 53.8147 11.276 53.8987 11.36C54.4027 10.88 54.9187 10.136 55.2187 9.44L54.7027 9.308ZM56.0347 4.808C56.2387 5.12 56.4547 5.552 56.5507 5.828L57.1027 5.66C56.9827 5.372 56.7667 4.952 56.5627 4.664L56.0347 4.808ZM67.4707 4.112V4.7H73.3627V4.112H67.4707ZM72.7747 1.004V4.484H73.3627V1.004H72.7747ZM67.3027 1.076V5.168C67.3027 7.412 67.1347 9.716 65.5867 11.528C65.7187 11.624 65.9227 11.804 66.0187 11.936C67.6867 10.004 67.8787 7.592 67.8787 5.168V1.076H67.3027ZM67.4347 6.848V7.424H73.2187V11.9H73.8067V6.848H67.4347ZM82.2547 1.928V2.432H88.0627V1.928H82.2547ZM82.1107 8.6V9.092H88.1947V8.6H82.1107ZM84.8347 1.004V7.472H85.3747V1.004H84.8347ZM83.0947 4.952H87.2227V5.852H83.0947V4.952ZM83.0947 3.644H87.2227V4.532H83.0947V3.644ZM82.5787 3.2V6.296H87.7507V3.2H82.5787ZM82.1347 7.268L82.1827 7.76C83.5507 7.736 85.5667 7.7 87.5467 7.652L87.5587 7.172C85.4947 7.22 83.4547 7.256 82.1347 7.268ZM86.1187 7.856V11.228C86.1187 11.36 86.0707 11.408 85.9027 11.42C85.7467 11.432 85.2307 11.432 84.5707 11.408C84.6427 11.564 84.7267 11.756 84.7627 11.912C85.5667 11.912 86.0347 11.912 86.3227 11.816C86.5987 11.744 86.6587 11.588 86.6587 11.24V7.856H86.1187ZM82.9027 9.644C83.3827 10.064 83.8867 10.676 84.1027 11.108L84.5587 10.796C84.3187 10.388 83.8027 9.8 83.3107 9.404L82.9027 9.644ZM86.2987 6.56C86.8867 7.028 87.5347 7.712 87.8347 8.168L88.2667 7.868C87.9427 7.436 87.2947 6.788 86.6827 6.32L86.2987 6.56ZM77.4067 2.384V2.924H82.0027V2.384H77.4067ZM77.2507 9.152V9.692H82.1827V9.152H77.2507ZM79.4947 0.991999V4.148H80.0347V0.991999H79.4947ZM79.5307 4.196V7.784H79.4947V11.924H80.0347V7.784H80.0107V4.196H79.5307ZM78.1867 6.212H81.3667V7.544H78.1867V6.212ZM78.1867 4.436H81.3667V5.744H78.1867V4.436ZM77.6947 3.956V8.024H81.8587V3.956H77.6947ZM92.6347 5.972V6.512H100.171V5.972H92.6347ZM94.0267 7.508V8.012H99.4267V7.508H94.0267ZM94.6747 6.188C94.0987 7.388 93.0787 8.456 91.9747 9.152C92.1067 9.236 92.3107 9.428 92.3827 9.524C93.4747 8.78 94.5787 7.628 95.2027 6.32L94.6747 6.188ZM99.2947 7.508V7.616C99.1027 10.088 98.9107 11.024 98.6467 11.276C98.5627 11.384 98.4547 11.396 98.2867 11.396C98.1067 11.396 97.6627 11.384 97.1587 11.336C97.2427 11.48 97.3027 11.696 97.3027 11.852C97.7707 11.876 98.2267 11.876 98.4787 11.876C98.7547 11.852 98.9347 11.804 99.1147 11.624C99.4387 11.288 99.6307 10.364 99.8227 7.796C99.8347 7.688 99.8467 7.508 99.8467 7.508H99.2947ZM94.4467 3.512H98.7547V4.688H94.4467V3.512ZM94.4467 1.868H98.7547V3.032H94.4467V1.868ZM93.8947 1.388V5.18H99.2947V1.388H93.8947ZM89.4067 3.632V4.196H92.8987V3.632H89.4067ZM90.9307 1.052V8.384H91.4827V1.052H90.9307ZM89.2027 8.996L89.4427 9.56C90.4267 9.08 91.7587 8.432 92.9947 7.82L92.8627 7.292C91.5067 7.94 90.1147 8.6 89.2027 8.996ZM97.6627 7.592C97.2307 9.128 96.2107 10.82 95.0947 11.6C95.2627 11.672 95.4547 11.816 95.5507 11.936C96.6547 11.108 97.6507 9.392 98.0947 7.82L97.6627 7.592ZM95.7547 7.628C95.1547 8.948 93.8827 10.376 92.7067 11.048C92.8507 11.144 93.0187 11.3 93.1147 11.432C94.3027 10.676 95.5507 9.224 96.1747 7.868L95.7547 7.628ZM100.831 13.136H101.407L105.355 1.568H104.791L100.831 13.136ZM2.304 22.24V22.696H9.72V22.24H2.304ZM2.34 20.764V21.244H9.492V23.704H2.34V24.184H10.056V20.764H2.34ZM5.652 20.968V24.736C5.652 25.564 6 25.732 7.164 25.732C7.428 25.732 9.828 25.732 10.104 25.732C11.136 25.732 11.34 25.36 11.436 23.896C11.268 23.872 11.04 23.776 10.908 23.68C10.848 25.012 10.74 25.228 10.08 25.228C9.576 25.228 7.536 25.228 7.152 25.228C6.372 25.228 6.228 25.132 6.228 24.748V20.968H5.652ZM2.028 20.764V24.856H2.58V20.764H2.028ZM1.548 15.496V15.964H10.44V15.496H1.548ZM5.664 15.628V20.248H6.24V15.628H5.664ZM1.02 16.9V19.408H1.596V17.368H10.392V19.408H10.98V16.9H1.02ZM1.98 19.696L2.196 20.212C2.988 20.068 3.912 19.9 4.86 19.72L4.848 19.288C3.78 19.456 2.748 19.612 1.98 19.696ZM2.232 18.112C3.084 18.28 4.152 18.604 4.716 18.868L4.908 18.46C4.344 18.196 3.276 17.908 2.436 17.752L2.232 18.112ZM9.468 17.716C8.856 17.956 7.776 18.328 7.044 18.508L7.284 18.844C8.028 18.688 9.06 18.412 9.768 18.112L9.468 17.716ZM6.912 19.648C7.872 19.78 9.084 20.056 9.756 20.296L9.912 19.84C9.24 19.6 8.04 19.348 7.092 19.24L6.912 19.648ZM22.26 15.256C21.54 16.216 20.268 17.26 19.188 17.872C19.344 17.98 19.524 18.148 19.632 18.268C20.724 17.608 21.996 16.528 22.8 15.472L22.26 15.256ZM22.716 18.484C21.9 19.528 20.448 20.62 19.188 21.244C19.332 21.364 19.512 21.532 19.596 21.664C20.904 20.98 22.368 19.852 23.244 18.712L22.716 18.484ZM22.968 22.024C22.104 23.38 20.448 24.688 18.768 25.408C18.912 25.516 19.068 25.708 19.176 25.84C20.892 25.06 22.56 23.704 23.508 22.228L22.968 22.024ZM12.792 19.48V19.984H19.008V19.48H12.792ZM14.016 21.196H17.916V22.42H14.016V21.196ZM13.464 20.716V22.9H18.48V20.716H13.464ZM17.1 23.488C17.556 24.028 18.036 24.736 18.264 25.204L18.72 24.928C18.48 24.496 17.976 23.788 17.544 23.272L17.1 23.488ZM13.968 17.212H18.024V18.112H13.968V17.212ZM13.968 15.868H18.024V16.768H13.968V15.868ZM13.416 15.424V18.58H18.588V15.424H13.416ZM15.672 22.672V25.144C15.672 25.252 15.648 25.3 15.504 25.3C15.36 25.3 14.94 25.3 14.364 25.288C14.448 25.444 14.532 25.648 14.568 25.804C15.252 25.804 15.684 25.804 15.936 25.708C16.176 25.612 16.236 25.468 16.236 25.132V22.672H15.672ZM13.98 23.308C13.692 23.956 13.248 24.58 12.744 25.036C12.876 25.12 13.092 25.276 13.176 25.36C13.68 24.88 14.196 24.136 14.496 23.44L13.98 23.308ZM15.312 18.808C15.516 19.12 15.732 19.552 15.828 19.828L16.38 19.66C16.26 19.372 16.044 18.952 15.84 18.664L15.312 18.808ZM32.976 15.196C33.468 15.484 34.104 15.916 34.428 16.192L34.788 15.844C34.452 15.592 33.828 15.172 33.348 14.908L32.976 15.196ZM25.788 16.288V16.804H35.304V16.288H25.788ZM26.724 17.848V18.316H31.308V17.848H26.724ZM34.272 17.608C33.588 19.528 32.388 21.172 30.888 22.216C31.02 22.3 31.248 22.504 31.332 22.6C32.784 21.484 34.044 19.792 34.788 17.752L34.272 17.608ZM32.04 14.992C32.136 20.776 33.252 25.864 34.716 25.864C35.352 25.864 35.568 25.264 35.664 23.476C35.52 23.428 35.304 23.308 35.184 23.188C35.136 24.64 35.004 25.3 34.776 25.3C33.876 25.3 32.628 20.836 32.604 14.992H32.04ZM25.5 16.288V18.94C25.5 20.836 25.404 23.56 24.456 25.576C24.588 25.636 24.828 25.804 24.936 25.9C25.896 23.824 26.04 20.896 26.04 18.94V16.288H25.5ZM27.528 22.78V24.976C27.528 25.612 27.744 25.756 28.536 25.756C28.704 25.756 30.024 25.756 30.204 25.756C30.9 25.756 31.056 25.432 31.116 24.04C30.972 24.004 30.768 23.932 30.648 23.836C30.612 25.108 30.552 25.276 30.156 25.276C29.868 25.276 28.764 25.276 28.572 25.276C28.128 25.276 28.056 25.228 28.056 24.976V22.78H27.528ZM28.524 22.276C28.932 22.84 29.424 23.608 29.664 24.052L30.108 23.836C29.856 23.392 29.352 22.648 28.932 22.096L28.524 22.276ZM31.14 23.044C31.548 23.8 32.028 24.808 32.256 25.396L32.736 25.192C32.508 24.628 32.016 23.632 31.596 22.888L31.14 23.044ZM26.616 22.936C26.472 23.632 26.208 24.616 25.896 25.204L26.34 25.42C26.64 24.808 26.892 23.8 27.036 23.092L26.616 22.936ZM27.54 19.756H30.516V21.412H27.54V19.756ZM27.024 19.288V21.88H31.02V19.288H27.024ZM36.996 18.604V19.096H40.152V18.604H36.996ZM37.272 21.712V22.24H39.636V24.616H37.272V25.144H40.14V21.712H37.272ZM37.008 21.712V25.732H37.524V21.712H37.008ZM36.996 20.152V20.644H40.152V20.152H36.996ZM36.552 17.056V17.572H40.512V17.056H36.552ZM37.86 15.22C38.184 15.712 38.58 16.372 38.76 16.78L39.228 16.516C39.036 16.132 38.64 15.496 38.292 15.004L37.86 15.22ZM41.328 15.604V19.984C41.328 21.7 41.232 23.992 40.296 25.612C40.416 25.66 40.632 25.816 40.74 25.888C41.712 24.244 41.844 21.772 41.844 19.972V15.604H41.328ZM41.556 15.604V16.132H46.86V15.604H41.556ZM46.608 15.604V25.024C46.608 25.204 46.548 25.252 46.356 25.264C46.2 25.276 45.624 25.288 44.94 25.264C45.012 25.408 45.108 25.648 45.132 25.792C45.996 25.792 46.476 25.792 46.752 25.684C47.016 25.6 47.124 25.408 47.124 25.024V15.604H46.608ZM41.7 17.68V18.196H46.74V17.68H41.7ZM41.688 19.672V20.176H46.752V19.672H41.688ZM43.944 15.892V19.936H44.472V15.892H43.944ZM42.78 21.124V21.616H45.324V23.368H42.78V23.86H45.816V21.124H42.78ZM42.504 21.124V24.424H42.996V21.124H42.504ZM53.832 18.484V21.676H54.408V18.484H53.832ZM51.924 16.12L51.648 16.648H55.836V16.12H51.924ZM55.632 16.12V16.252C55.26 16.948 54.504 17.896 53.856 18.46C53.976 18.544 54.132 18.7 54.228 18.808C54.924 18.196 55.752 17.224 56.28 16.348L55.896 16.084L55.776 16.12H55.632ZM50.172 18.316V24.232C50.172 25.432 50.712 25.72 52.428 25.72C52.812 25.72 56.94 25.72 57.36 25.72C59.028 25.72 59.316 25.192 59.496 23.38C59.316 23.344 59.088 23.248 58.92 23.14C58.788 24.796 58.596 25.156 57.396 25.156C56.52 25.156 52.992 25.156 52.332 25.156C51.012 25.156 50.748 24.964 50.748 24.256V18.316H50.172ZM52.38 14.992C51.54 16.684 50.064 18.172 48.552 19.12C48.672 19.24 48.852 19.528 48.9 19.648C50.46 18.604 51.984 16.984 52.908 15.172L52.38 14.992ZM50.52 18.316V18.868H57.672V22.516H58.26V18.316H50.52ZM50.52 21.34V21.904H57.972V21.34H50.52Z" fill="#007282"/>
</svg>
