<svg width="165" height="14" viewBox="0 0 165 14" fill="none" xmlns="http://www.w3.org/2000/svg">
<path d="M5.7 7.748C4.56 8.72 2.316 9.584 0.504 9.968C0.624 10.076 0.78 10.28 0.864 10.424C2.664 10.004 4.956 9.056 6.18 7.988L5.7 7.748ZM6.384 7.724L5.892 7.868C6.756 9.92 8.592 11.228 11.076 11.744C11.16 11.588 11.304 11.372 11.424 11.252C8.988 10.82 7.164 9.596 6.384 7.724ZM10.152 8.336C9.504 8.804 8.388 9.416 7.56 9.8L7.944 10.1C8.784 9.728 9.828 9.188 10.596 8.648L10.152 8.336ZM0.708 7.58V8.096H11.304V7.58H0.708ZM7.788 1.616V5.54H8.328V1.616H7.788ZM10.032 1.124V6.2C10.032 6.356 9.984 6.404 9.804 6.404C9.636 6.416 9.048 6.428 8.328 6.404C8.412 6.56 8.496 6.764 8.532 6.92C9.384 6.92 9.912 6.92 10.2 6.824C10.488 6.728 10.572 6.572 10.572 6.212V1.124H10.032ZM3.504 0.991999V7.016H4.032V0.991999H3.504ZM5.808 4.496V6.02C5.808 6.116 5.784 6.152 5.676 6.164C5.568 6.176 5.244 6.176 4.776 6.164C4.848 6.296 4.944 6.464 4.956 6.596C5.508 6.596 5.856 6.596 6.06 6.5C6.288 6.428 6.324 6.284 6.324 6.02V4.496H5.808ZM1.356 4.496V6.68H1.848V4.952H6.072V4.496H1.356ZM0.648 3.26V3.728H6.72V3.26H0.648ZM1.848 1.892L1.656 2.372H6.252V1.892H1.848ZM1.908 1.04C1.68 1.724 1.356 2.42 0.924 2.936C1.056 2.984 1.296 3.092 1.392 3.164C1.776 2.66 2.16 1.88 2.412 1.16L1.908 1.04ZM2.832 11.876C3.048 11.744 3.396 11.648 6.756 10.832C6.744 10.724 6.744 10.532 6.756 10.376L3.132 11.168L2.82 11.42L2.832 11.876ZM2.844 11.864C2.844 11.624 3.648 11.156 3.648 11.156V9.296H3.072V10.58C3.072 11.072 2.76 11.276 2.58 11.384C2.676 11.492 2.796 11.732 2.844 11.864ZM5.508 6.752C5.724 7.112 5.988 7.616 6.084 7.916L6.636 7.724C6.528 7.436 6.276 6.944 6.036 6.596L5.508 6.752ZM17.808 3.032L17.532 3.596H23.46V3.032H17.808ZM19.248 5.612V6.152H23.208V5.612H19.248ZM19.248 8.252V8.816H23.376V8.252H19.248ZM18.972 3.212V11.888H19.56V3.212H18.972ZM18.372 1.16C17.76 2.936 16.776 4.688 15.672 5.84C15.804 5.936 16.044 6.128 16.128 6.224C17.232 5 18.252 3.188 18.936 1.292L18.372 1.16ZM15.66 1.04C14.94 2.924 13.776 4.784 12.528 5.984C12.648 6.104 12.828 6.404 12.9 6.524C14.196 5.204 15.408 3.236 16.212 1.208L15.66 1.04ZM14.34 3.992V11.876H14.928V3.44L14.904 3.416L14.34 3.992ZM27.684 2.636V3.164H35.232V2.636H27.684ZM31.032 6.644V11.384H31.572V6.644H31.032ZM28.848 6.596V7.904C28.848 9.056 28.704 10.424 27.288 11.468C27.42 11.54 27.612 11.732 27.708 11.84C29.208 10.712 29.388 9.224 29.388 7.916V6.596H28.848ZM32.604 3.812C33.348 4.676 34.296 5.84 34.764 6.512L35.232 6.2C34.764 5.528 33.816 4.4 33.06 3.56L32.604 3.812ZM28.14 6.056C28.452 5.948 28.956 5.912 34.332 5.54C34.284 5.42 34.212 5.192 34.176 5.036L28.572 5.372L28.128 5.6L28.14 6.056ZM25.104 1.544C25.836 1.988 26.676 2.684 27.06 3.164L27.444 2.72C27.036 2.252 26.196 1.592 25.464 1.148L25.104 1.544ZM24.54 4.844C25.32 5.192 26.232 5.768 26.7 6.188L27.024 5.708C26.568 5.288 25.632 4.748 24.864 4.412L24.54 4.844ZM24.888 11.336L25.38 11.732C26.076 10.64 26.964 9.068 27.6 7.796L27.18 7.412C26.496 8.768 25.536 10.4 24.888 11.336ZM33.252 6.584V10.748C33.252 11.42 33.372 11.636 33.972 11.636C34.092 11.636 34.716 11.636 34.872 11.636C35.076 11.636 35.28 11.636 35.4 11.6C35.388 11.48 35.364 11.264 35.352 11.132C35.22 11.156 35.004 11.168 34.86 11.168C34.716 11.168 34.152 11.168 34.008 11.168C33.84 11.168 33.804 11.084 33.804 10.76V6.584H33.252ZM28.14 6.056C28.14 5.924 28.596 5.732 28.596 5.732V5.708C29.724 4.58 30.9 2.96 31.908 1.304L31.332 1.064C30.48 2.636 29.196 4.28 28.812 4.7C28.452 5.132 28.164 5.432 27.936 5.48C28.008 5.636 28.104 5.936 28.14 6.056ZM43.74 6.536V11.372H44.304V6.536H43.74ZM40.572 11.036V11.564H47.436V11.036H40.572ZM41.268 8.588V9.116H46.908V8.588H41.268ZM41.964 2.168H46.164V4.748H41.964V2.168ZM41.412 1.652V5.288H46.716V1.652H41.412ZM46.452 5.888C45.264 6.26 42.924 6.5 41.052 6.62C41.124 6.764 41.184 6.968 41.208 7.1C43.128 6.992 45.504 6.74 46.896 6.332L46.452 5.888ZM38.736 1.916V11.864H39.312V1.916H38.736ZM36.636 4.376V4.928H40.956V4.376H36.636ZM38.76 4.58C38.304 6.152 37.284 8.096 36.396 9.056C36.504 9.176 36.672 9.404 36.732 9.56C37.644 8.492 38.676 6.416 39.168 4.736L38.76 4.58ZM40.476 1.196C39.624 1.592 37.98 1.94 36.612 2.156C36.684 2.3 36.768 2.48 36.792 2.612C38.184 2.42 39.876 2.072 40.92 1.64L40.476 1.196ZM39.264 5.852L38.964 6.092C39.336 6.452 40.344 7.64 40.632 8.072L41.004 7.604C40.74 7.304 39.576 6.116 39.264 5.852ZM48.108 13.136H48.684L52.632 1.568H52.068L48.108 13.136ZM62.9827 1.256C62.2627 2.216 60.9907 3.26 59.9107 3.872C60.0667 3.98 60.2467 4.148 60.3547 4.268C61.4467 3.608 62.7187 2.528 63.5227 1.472L62.9827 1.256ZM63.4387 4.484C62.6227 5.528 61.1707 6.62 59.9107 7.244C60.0547 7.364 60.2347 7.532 60.3187 7.664C61.6267 6.98 63.0907 5.852 63.9667 4.712L63.4387 4.484ZM63.6907 8.024C62.8267 9.38 61.1707 10.688 59.4907 11.408C59.6347 11.516 59.7907 11.708 59.8987 11.84C61.6147 11.06 63.2827 9.704 64.2307 8.228L63.6907 8.024ZM53.5147 5.48V5.984H59.7307V5.48H53.5147ZM54.7387 7.196H58.6387V8.42H54.7387V7.196ZM54.1867 6.716V8.9H59.2027V6.716H54.1867ZM57.8227 9.488C58.2787 10.028 58.7587 10.736 58.9867 11.204L59.4427 10.928C59.2027 10.496 58.6987 9.788 58.2667 9.272L57.8227 9.488ZM54.6907 3.212H58.7467V4.112H54.6907V3.212ZM54.6907 1.868H58.7467V2.768H54.6907V1.868ZM54.1387 1.424V4.58H59.3107V1.424H54.1387ZM56.3947 8.672V11.144C56.3947 11.252 56.3707 11.3 56.2267 11.3C56.0827 11.3 55.6627 11.3 55.0867 11.288C55.1707 11.444 55.2547 11.648 55.2907 11.804C55.9747 11.804 56.4067 11.804 56.6587 11.708C56.8987 11.612 56.9587 11.468 56.9587 11.132V8.672H56.3947ZM54.7027 9.308C54.4147 9.956 53.9707 10.58 53.4667 11.036C53.5987 11.12 53.8147 11.276 53.8987 11.36C54.4027 10.88 54.9187 10.136 55.2187 9.44L54.7027 9.308ZM56.0347 4.808C56.2387 5.12 56.4547 5.552 56.5507 5.828L57.1027 5.66C56.9827 5.372 56.7667 4.952 56.5627 4.664L56.0347 4.808ZM67.4707 4.112V4.7H73.3627V4.112H67.4707ZM72.7747 1.004V4.484H73.3627V1.004H72.7747ZM67.3027 1.076V5.168C67.3027 7.412 67.1347 9.716 65.5867 11.528C65.7187 11.624 65.9227 11.804 66.0187 11.936C67.6867 10.004 67.8787 7.592 67.8787 5.168V1.076H67.3027ZM67.4347 6.848V7.424H73.2187V11.9H73.8067V6.848H67.4347ZM82.2547 1.928V2.432H88.0627V1.928H82.2547ZM82.1107 8.6V9.092H88.1947V8.6H82.1107ZM84.8347 1.004V7.472H85.3747V1.004H84.8347ZM83.0947 4.952H87.2227V5.852H83.0947V4.952ZM83.0947 3.644H87.2227V4.532H83.0947V3.644ZM82.5787 3.2V6.296H87.7507V3.2H82.5787ZM82.1347 7.268L82.1827 7.76C83.5507 7.736 85.5667 7.7 87.5467 7.652L87.5587 7.172C85.4947 7.22 83.4547 7.256 82.1347 7.268ZM86.1187 7.856V11.228C86.1187 11.36 86.0707 11.408 85.9027 11.42C85.7467 11.432 85.2307 11.432 84.5707 11.408C84.6427 11.564 84.7267 11.756 84.7627 11.912C85.5667 11.912 86.0347 11.912 86.3227 11.816C86.5987 11.744 86.6587 11.588 86.6587 11.24V7.856H86.1187ZM82.9027 9.644C83.3827 10.064 83.8867 10.676 84.1027 11.108L84.5587 10.796C84.3187 10.388 83.8027 9.8 83.3107 9.404L82.9027 9.644ZM86.2987 6.56C86.8867 7.028 87.5347 7.712 87.8347 8.168L88.2667 7.868C87.9427 7.436 87.2947 6.788 86.6827 6.32L86.2987 6.56ZM77.4067 2.384V2.924H82.0027V2.384H77.4067ZM77.2507 9.152V9.692H82.1827V9.152H77.2507ZM79.4947 0.991999V4.148H80.0347V0.991999H79.4947ZM79.5307 4.196V7.784H79.4947V11.924H80.0347V7.784H80.0107V4.196H79.5307ZM78.1867 6.212H81.3667V7.544H78.1867V6.212ZM78.1867 4.436H81.3667V5.744H78.1867V4.436ZM77.6947 3.956V8.024H81.8587V3.956H77.6947ZM92.6347 5.972V6.512H100.171V5.972H92.6347ZM94.0267 7.508V8.012H99.4267V7.508H94.0267ZM94.6747 6.188C94.0987 7.388 93.0787 8.456 91.9747 9.152C92.1067 9.236 92.3107 9.428 92.3827 9.524C93.4747 8.78 94.5787 7.628 95.2027 6.32L94.6747 6.188ZM99.2947 7.508V7.616C99.1027 10.088 98.9107 11.024 98.6467 11.276C98.5627 11.384 98.4547 11.396 98.2867 11.396C98.1067 11.396 97.6627 11.384 97.1587 11.336C97.2427 11.48 97.3027 11.696 97.3027 11.852C97.7707 11.876 98.2267 11.876 98.4787 11.876C98.7547 11.852 98.9347 11.804 99.1147 11.624C99.4387 11.288 99.6307 10.364 99.8227 7.796C99.8347 7.688 99.8467 7.508 99.8467 7.508H99.2947ZM94.4467 3.512H98.7547V4.688H94.4467V3.512ZM94.4467 1.868H98.7547V3.032H94.4467V1.868ZM93.8947 1.388V5.18H99.2947V1.388H93.8947ZM89.4067 3.632V4.196H92.8987V3.632H89.4067ZM90.9307 1.052V8.384H91.4827V1.052H90.9307ZM89.2027 8.996L89.4427 9.56C90.4267 9.08 91.7587 8.432 92.9947 7.82L92.8627 7.292C91.5067 7.94 90.1147 8.6 89.2027 8.996ZM97.6627 7.592C97.2307 9.128 96.2107 10.82 95.0947 11.6C95.2627 11.672 95.4547 11.816 95.5507 11.936C96.6547 11.108 97.6507 9.392 98.0947 7.82L97.6627 7.592ZM95.7547 7.628C95.1547 8.948 93.8827 10.376 92.7067 11.048C92.8507 11.144 93.0187 11.3 93.1147 11.432C94.3027 10.676 95.5507 9.224 96.1747 7.868L95.7547 7.628ZM100.831 13.136H101.407L105.355 1.568H104.791L100.831 13.136ZM107.749 8.24V8.696H115.165V8.24H107.749ZM107.785 6.764V7.244H114.937V9.704H107.785V10.184H115.501V6.764H107.785ZM111.097 6.968V10.736C111.097 11.564 111.445 11.732 112.609 11.732C112.873 11.732 115.273 11.732 115.549 11.732C116.581 11.732 116.785 11.36 116.881 9.896C116.713 9.872 116.485 9.776 116.353 9.68C116.293 11.012 116.185 11.228 115.525 11.228C115.021 11.228 112.981 11.228 112.597 11.228C111.817 11.228 111.673 11.132 111.673 10.748V6.968H111.097ZM107.473 6.764V10.856H108.025V6.764H107.473ZM106.993 1.496V1.964H115.885V1.496H106.993ZM111.109 1.628V6.248H111.685V1.628H111.109ZM106.465 2.9V5.408H107.041V3.368H115.837V5.408H116.425V2.9H106.465ZM107.425 5.696L107.641 6.212C108.433 6.068 109.357 5.9 110.305 5.72L110.293 5.288C109.225 5.456 108.193 5.612 107.425 5.696ZM107.677 4.112C108.529 4.28 109.597 4.604 110.161 4.868L110.353 4.46C109.789 4.196 108.721 3.908 107.881 3.752L107.677 4.112ZM114.913 3.716C114.301 3.956 113.221 4.328 112.489 4.508L112.729 4.844C113.473 4.688 114.505 4.412 115.213 4.112L114.913 3.716ZM112.357 5.648C113.317 5.78 114.529 6.056 115.201 6.296L115.357 5.84C114.685 5.6 113.485 5.348 112.537 5.24L112.357 5.648ZM127.705 1.256C126.985 2.216 125.713 3.26 124.633 3.872C124.789 3.98 124.969 4.148 125.077 4.268C126.169 3.608 127.441 2.528 128.245 1.472L127.705 1.256ZM128.161 4.484C127.345 5.528 125.893 6.62 124.633 7.244C124.777 7.364 124.957 7.532 125.041 7.664C126.349 6.98 127.813 5.852 128.689 4.712L128.161 4.484ZM128.413 8.024C127.549 9.38 125.893 10.688 124.213 11.408C124.357 11.516 124.513 11.708 124.621 11.84C126.337 11.06 128.005 9.704 128.953 8.228L128.413 8.024ZM118.237 5.48V5.984H124.453V5.48H118.237ZM119.461 7.196H123.361V8.42H119.461V7.196ZM118.909 6.716V8.9H123.925V6.716H118.909ZM122.545 9.488C123.001 10.028 123.481 10.736 123.709 11.204L124.165 10.928C123.925 10.496 123.421 9.788 122.989 9.272L122.545 9.488ZM119.413 3.212H123.469V4.112H119.413V3.212ZM119.413 1.868H123.469V2.768H119.413V1.868ZM118.861 1.424V4.58H124.033V1.424H118.861ZM121.117 8.672V11.144C121.117 11.252 121.093 11.3 120.949 11.3C120.805 11.3 120.385 11.3 119.809 11.288C119.893 11.444 119.977 11.648 120.013 11.804C120.697 11.804 121.129 11.804 121.381 11.708C121.621 11.612 121.681 11.468 121.681 11.132V8.672H121.117ZM119.425 9.308C119.137 9.956 118.693 10.58 118.189 11.036C118.321 11.12 118.537 11.276 118.621 11.36C119.125 10.88 119.641 10.136 119.941 9.44L119.425 9.308ZM120.757 4.808C120.961 5.12 121.177 5.552 121.273 5.828L121.825 5.66C121.705 5.372 121.489 4.952 121.285 4.664L120.757 4.808ZM138.421 1.196C138.913 1.484 139.549 1.916 139.873 2.192L140.233 1.844C139.897 1.592 139.273 1.172 138.793 0.908L138.421 1.196ZM131.233 2.288V2.804H140.749V2.288H131.233ZM132.169 3.848V4.316H136.753V3.848H132.169ZM139.717 3.608C139.033 5.528 137.833 7.172 136.333 8.216C136.465 8.3 136.693 8.504 136.777 8.6C138.229 7.484 139.489 5.792 140.233 3.752L139.717 3.608ZM137.485 0.991999C137.581 6.776 138.697 11.864 140.161 11.864C140.797 11.864 141.013 11.264 141.109 9.476C140.965 9.428 140.749 9.308 140.629 9.188C140.581 10.64 140.449 11.3 140.221 11.3C139.321 11.3 138.073 6.836 138.049 0.991999H137.485ZM130.945 2.288V4.94C130.945 6.836 130.849 9.56 129.901 11.576C130.033 11.636 130.273 11.804 130.381 11.9C131.341 9.824 131.485 6.896 131.485 4.94V2.288H130.945ZM132.973 8.78V10.976C132.973 11.612 133.189 11.756 133.981 11.756C134.149 11.756 135.469 11.756 135.649 11.756C136.345 11.756 136.501 11.432 136.561 10.04C136.417 10.004 136.213 9.932 136.093 9.836C136.057 11.108 135.997 11.276 135.601 11.276C135.313 11.276 134.209 11.276 134.017 11.276C133.573 11.276 133.501 11.228 133.501 10.976V8.78H132.973ZM133.969 8.276C134.377 8.84 134.869 9.608 135.109 10.052L135.553 9.836C135.301 9.392 134.797 8.648 134.377 8.096L133.969 8.276ZM136.585 9.044C136.993 9.8 137.473 10.808 137.701 11.396L138.181 11.192C137.953 10.628 137.461 9.632 137.041 8.888L136.585 9.044ZM132.061 8.936C131.917 9.632 131.653 10.616 131.341 11.204L131.785 11.42C132.085 10.808 132.337 9.8 132.481 9.092L132.061 8.936ZM132.985 5.756H135.961V7.412H132.985V5.756ZM132.469 5.288V7.88H136.465V5.288H132.469ZM142.441 4.604V5.096H145.597V4.604H142.441ZM142.717 7.712V8.24H145.081V10.616H142.717V11.144H145.585V7.712H142.717ZM142.453 7.712V11.732H142.969V7.712H142.453ZM142.441 6.152V6.644H145.597V6.152H142.441ZM141.997 3.056V3.572H145.957V3.056H141.997ZM143.305 1.22C143.629 1.712 144.025 2.372 144.205 2.78L144.673 2.516C144.481 2.132 144.085 1.496 143.737 1.004L143.305 1.22ZM146.773 1.604V5.984C146.773 7.7 146.677 9.992 145.741 11.612C145.861 11.66 146.077 11.816 146.185 11.888C147.157 10.244 147.289 7.772 147.289 5.972V1.604H146.773ZM147.001 1.604V2.132H152.305V1.604H147.001ZM152.053 1.604V11.024C152.053 11.204 151.993 11.252 151.801 11.264C151.645 11.276 151.069 11.288 150.385 11.264C150.457 11.408 150.553 11.648 150.577 11.792C151.441 11.792 151.921 11.792 152.197 11.684C152.461 11.6 152.569 11.408 152.569 11.024V1.604H152.053ZM147.145 3.68V4.196H152.185V3.68H147.145ZM147.133 5.672V6.176H152.197V5.672H147.133ZM149.389 1.892V5.936H149.917V1.892H149.389ZM148.225 7.124V7.616H150.769V9.368H148.225V9.86H151.261V7.124H148.225ZM147.949 7.124V10.424H148.441V7.124H147.949ZM159.277 4.484V7.676H159.853V4.484H159.277ZM157.369 2.12L157.093 2.648H161.281V2.12H157.369ZM161.077 2.12V2.252C160.705 2.948 159.949 3.896 159.301 4.46C159.421 4.544 159.577 4.7 159.673 4.808C160.369 4.196 161.197 3.224 161.725 2.348L161.341 2.084L161.221 2.12H161.077ZM155.617 4.316V10.232C155.617 11.432 156.157 11.72 157.873 11.72C158.257 11.72 162.385 11.72 162.805 11.72C164.473 11.72 164.761 11.192 164.941 9.38C164.761 9.344 164.533 9.248 164.365 9.14C164.233 10.796 164.041 11.156 162.841 11.156C161.965 11.156 158.437 11.156 157.777 11.156C156.457 11.156 156.193 10.964 156.193 10.256V4.316H155.617ZM157.825 0.991999C156.985 2.684 155.509 4.172 153.997 5.12C154.117 5.24 154.297 5.528 154.345 5.648C155.905 4.604 157.429 2.984 158.353 1.172L157.825 0.991999ZM155.965 4.316V4.868H163.117V8.516H163.705V4.316H155.965ZM155.965 7.34V7.904H163.417V7.34H155.965Z" fill="#007282"/>
</svg>
