<svg width="153" height="14" viewBox="0 0 153 14" fill="none" xmlns="http://www.w3.org/2000/svg">
<path d="M0.576 8.624V9.128H11.424V8.624H0.576ZM0.936 2.012V2.516H10.896V2.012H0.936ZM7.872 7.796V11.168C7.872 11.324 7.824 11.384 7.62 11.396C7.428 11.408 6.768 11.408 5.952 11.384C6.036 11.54 6.132 11.756 6.156 11.888C7.152 11.888 7.728 11.9 8.04 11.804C8.352 11.72 8.436 11.54 8.436 11.18V7.796H7.872ZM5.688 1.016V7.436H6.264V1.016H5.688ZM2.496 9.692C3.252 10.124 4.128 10.784 4.56 11.264L4.98 10.844C4.536 10.388 3.636 9.752 2.904 9.344L2.496 9.692ZM2.4 5.144H9.6V6.068H2.4V5.144ZM2.4 3.8H9.6V4.7H2.4V3.8ZM1.848 3.344V6.524H10.176V3.344H1.848ZM7.824 6.812C8.82 7.088 10.008 7.7 10.608 8.18L10.956 7.796C10.344 7.34 9.144 6.752 8.16 6.464L7.824 6.812ZM1.032 7.364L1.068 7.868C3.324 7.832 6.708 7.76 9.912 7.676L9.936 7.232C6.672 7.304 3.204 7.352 1.032 7.364ZM17.676 7.172V11.888H18.264V7.172H17.676ZM13.02 1.94V3.608H13.572V2.468H22.476V3.608H23.04V1.94H13.02ZM12.828 4.028V4.532H23.22V4.028H12.828ZM12.672 8.276V8.804H23.34V8.276H12.672ZM20.676 3.128C19.824 5.684 17.52 6.704 12.852 6.944C12.948 7.088 13.032 7.292 13.08 7.472C17.832 7.16 20.34 6.044 21.24 3.308L20.676 3.128ZM14.412 5.828C17.664 6.332 20.628 6.98 22.392 7.604L22.98 7.208C21.084 6.584 17.988 5.9 14.916 5.444L14.412 5.828ZM17.34 1.124C17.604 1.472 17.928 1.964 18.072 2.288L18.612 2.06C18.468 1.772 18.144 1.292 17.868 0.956L17.34 1.124ZM14.412 5.828H15.12C15.912 5.144 17.076 3.956 17.772 2.936L17.172 2.744C16.5 3.752 15.312 5.024 14.412 5.828ZM15.912 9.212C15.228 9.944 14.028 10.604 12.936 11.024C13.068 11.132 13.296 11.324 13.392 11.444C14.46 10.964 15.72 10.208 16.476 9.404L15.912 9.212ZM19.416 9.512C20.556 10.028 21.936 10.844 22.632 11.444L23.028 11C22.32 10.424 20.916 9.62 19.776 9.128L19.416 9.512ZM26.196 5.612V6.176H33.288V5.612H26.196ZM33.072 5.612V5.732C32.892 9.428 32.688 10.808 32.34 11.144C32.22 11.264 32.064 11.288 31.812 11.288C31.536 11.288 30.732 11.276 29.868 11.204C29.976 11.372 30.048 11.6 30.06 11.792C30.84 11.84 31.632 11.852 32.016 11.828C32.412 11.816 32.64 11.744 32.844 11.504C33.276 11.06 33.456 9.704 33.648 5.936C33.66 5.852 33.672 5.612 33.672 5.612H33.072ZM28.944 5.768C28.692 8.108 28.092 10.436 24.984 11.468C25.116 11.588 25.284 11.804 25.356 11.936C28.572 10.808 29.256 8.348 29.568 5.768H28.944ZM27.72 1.376C27.12 3.308 26.004 4.904 24.54 5.912C24.684 6.008 24.936 6.212 25.032 6.332C26.472 5.24 27.648 3.584 28.308 1.52L27.72 1.376ZM29.46 1.208V1.772H32.004V1.208H29.46ZM31.464 1.208V1.568H31.668C32.328 3.56 33.66 5.36 35.136 6.32C35.232 6.164 35.424 5.936 35.556 5.816C34.116 4.952 32.772 3.176 32.136 1.208H31.464ZM36.684 8.96V9.5H47.328V8.96H36.684ZM37.788 6.728V7.244H45.588V6.728H37.788ZM41.676 8.132V11.204C41.676 11.384 41.628 11.432 41.412 11.444C41.196 11.444 40.452 11.456 39.564 11.432C39.648 11.588 39.732 11.768 39.78 11.924C40.872 11.924 41.496 11.936 41.832 11.84C42.168 11.756 42.276 11.6 42.276 11.216V8.132H41.676ZM45.456 6.728V6.86C44.592 7.364 43.02 7.856 41.676 8.132C41.784 8.228 41.94 8.384 42.012 8.504C43.416 8.204 45.072 7.688 46.164 7.052L45.744 6.704L45.612 6.728H45.456ZM38.928 4.052H45.096V5.372H38.928V4.052ZM38.364 3.56V5.864H45.696V3.56H38.364ZM36.768 2.132V2.66H47.208V2.132H36.768ZM41.316 1.04C41.592 1.496 41.88 2.108 42.012 2.492L42.588 2.336C42.468 1.952 42.168 1.352 41.88 0.908L41.316 1.04ZM48.108 13.136H48.684L52.632 1.568H52.068L48.108 13.136ZM61.6507 3.416C60.1867 7.568 57.5227 9.98 53.2267 11.312C53.3467 11.456 53.5387 11.72 53.6107 11.864C57.9307 10.4 60.6667 7.94 62.2387 3.608L61.6507 3.416ZM55.7107 3.452L55.1827 3.62C56.7067 7.676 59.5867 10.64 63.8227 11.828C63.9307 11.66 64.0987 11.42 64.2307 11.288C60.0547 10.196 57.1507 7.28 55.7107 3.452ZM53.3587 3.164V3.728H64.1227V3.164H53.3587ZM57.8707 1.124C58.2667 1.712 58.6867 2.516 58.8547 3.008L59.4667 2.792C59.2747 2.3 58.8427 1.52 58.4467 0.943999L57.8707 1.124ZM67.5067 4.472V5.012H73.4947V4.472H67.5067ZM65.5867 7.496V8.06H75.8227V7.496H65.5867ZM70.4227 6.68V11.096C70.4227 11.264 70.3627 11.324 70.1587 11.336C69.9547 11.348 69.2587 11.348 68.3947 11.336C68.5027 11.492 68.6107 11.732 68.6587 11.888C69.6787 11.888 70.2427 11.888 70.5667 11.792C70.9147 11.696 71.0227 11.504 71.0227 11.096V6.68H70.4227ZM73.3267 4.472V4.592C72.6787 5.3 71.4667 6.188 70.4227 6.68C70.5187 6.764 70.6867 6.932 70.7707 7.028C71.8747 6.488 73.1827 5.588 74.0107 4.724L73.6147 4.436L73.4827 4.472H73.3267ZM65.7667 2.324V4.616H66.3427V2.888H75.0787V4.616H75.6667V2.324H65.7667ZM69.9427 1.1C70.3027 1.568 70.6507 2.216 70.7827 2.636L71.3587 2.408C71.2027 2 70.8427 1.376 70.4827 0.908L69.9427 1.1ZM77.3227 7.892L77.5027 8.468C78.5947 8.192 80.0467 7.796 81.4147 7.412L81.3667 6.884C79.8667 7.268 78.3307 7.652 77.3227 7.892ZM79.4587 1.004V11.888H80.0347V1.004H79.4587ZM78.0907 1.832C77.9227 3.368 77.6347 4.904 77.1307 5.948C77.2627 5.996 77.5027 6.104 77.6107 6.152C78.0787 5.096 78.3907 3.524 78.5947 1.916L78.0907 1.832ZM78.0307 3.536L77.9107 4.1H81.3547V3.536H78.0307ZM81.8707 2.432V2.984H87.8467V2.432H81.8707ZM82.4227 4.796V5.348H87.5587V4.796H82.4227ZM81.6907 7.028V7.58H88.1107V7.028H81.6907ZM84.5587 0.991999V5.084H85.1347V0.991999H84.5587ZM86.0107 5.732V11.06C86.0107 11.228 85.9747 11.276 85.7947 11.288C85.6027 11.3 85.0147 11.3 84.2707 11.276C84.3667 11.456 84.4507 11.696 84.4987 11.852C85.3387 11.852 85.8907 11.852 86.1907 11.756C86.5027 11.66 86.5867 11.468 86.5867 11.072V5.732H86.0107ZM82.5547 8.384C83.1427 8.996 83.8267 9.872 84.1267 10.4L84.6187 10.112C84.2827 9.572 83.5987 8.744 83.0227 8.132L82.5547 8.384ZM89.4907 2.792V3.332H94.7947V2.792H89.4907ZM90.8827 3.824C90.4867 4.736 89.8867 5.684 89.2507 6.344C89.3827 6.428 89.6107 6.608 89.6947 6.68C90.3067 6.008 90.9667 4.952 91.3987 3.968L90.8827 3.824ZM93.0907 5.816C92.3947 8.144 91.0867 10.004 89.2747 11.156C89.4067 11.252 89.6227 11.468 89.7067 11.564C91.5307 10.316 92.8747 8.408 93.6547 5.924L93.0907 5.816ZM92.8507 4.052C93.3547 4.664 93.9067 5.48 94.1347 6.008L94.6027 5.732C94.3747 5.216 93.8107 4.4 93.2947 3.812L92.8507 4.052ZM90.4747 6.584C91.7347 7.796 93.1387 9.512 93.7267 10.628L94.1947 10.268C93.5947 9.152 92.1787 7.484 90.9187 6.272L90.4747 6.584ZM96.1387 3.236V3.776H100.123V3.236H96.1387ZM96.5587 0.98C96.1747 3.104 95.5507 5.144 94.5907 6.476C94.7227 6.572 94.9387 6.764 95.0347 6.872C95.9947 5.444 96.6787 3.332 97.1107 1.064L96.5587 0.98ZM98.8387 3.524C98.2747 7.508 97.0267 10.04 94.0747 11.468C94.2067 11.576 94.3987 11.804 94.4827 11.924C97.4587 10.34 98.7787 7.772 99.4147 3.596L98.8387 3.524ZM96.1147 4.568L95.6107 4.688C96.2827 7.952 97.5907 10.652 99.8107 11.864C99.9187 11.732 100.099 11.516 100.231 11.408C98.0467 10.328 96.7267 7.664 96.1147 4.568ZM91.1947 1.22C91.5907 1.7 92.0107 2.348 92.2027 2.768L92.6947 2.504C92.5027 2.096 92.0587 1.46 91.6507 1.004L91.1947 1.22ZM100.831 13.136H101.407L105.355 1.568H104.791L100.831 13.136ZM111.385 4.7V5.24H115.657V4.7H111.385ZM110.209 6.836V7.376H116.677V6.836H110.209ZM110.461 2.576V4.412H111.001V3.092H116.053V4.412H116.605V2.576H110.461ZM111.721 8.408C111.265 9.212 110.617 10.1 110.017 10.724C110.149 10.808 110.377 11 110.485 11.096C111.061 10.436 111.769 9.44 112.273 8.588L111.721 8.408ZM114.757 8.6C115.321 9.368 116.005 10.412 116.305 11.036L116.833 10.772C116.509 10.148 115.825 9.14 115.249 8.384L114.757 8.6ZM112.765 1.16C113.029 1.688 113.329 2.408 113.449 2.876L114.013 2.672C113.869 2.228 113.569 1.532 113.281 0.991999L112.765 1.16ZM113.185 7.076V11.852H113.749V7.076H113.185ZM108.673 5.684C108.937 6.464 109.189 7.496 109.273 8.096L109.753 7.964C109.669 7.376 109.405 6.368 109.129 5.588L108.673 5.684ZM107.629 8.696C107.785 9.512 107.917 10.592 107.953 11.288L108.433 11.204C108.397 10.496 108.265 9.44 108.109 8.612L107.629 8.696ZM106.537 8.6C106.393 9.572 106.201 10.652 105.901 11.408C106.033 11.456 106.273 11.54 106.381 11.588C106.633 10.844 106.885 9.704 107.041 8.684L106.537 8.6ZM106.105 5.324C106.105 5.18 106.537 4.976 106.537 4.976V4.964C107.257 3.992 108.001 2.576 108.565 1.22L108.013 0.98C107.557 2.312 106.765 3.716 106.513 4.076C106.297 4.46 106.105 4.712 105.913 4.76C105.985 4.904 106.069 5.192 106.105 5.324ZM106.105 5.324C106.261 5.24 106.561 5.168 108.421 4.916C108.421 4.808 108.421 4.592 108.445 4.448L106.429 4.664L106.093 4.868L106.105 5.324ZM106.177 7.988C106.177 7.844 106.597 7.664 106.597 7.664V7.652C107.665 6.464 108.733 4.784 109.621 3.104L109.093 2.852C108.349 4.472 107.161 6.176 106.813 6.62C106.465 7.064 106.213 7.388 105.997 7.424C106.057 7.58 106.153 7.856 106.177 7.988ZM106.177 7.988C106.381 7.88 106.705 7.796 109.321 7.316C109.309 7.208 109.297 6.992 109.309 6.836L106.489 7.304L106.165 7.52L106.177 7.988ZM108.721 8.504C108.985 9.14 109.297 9.992 109.429 10.544L109.897 10.376C109.765 9.848 109.453 9.008 109.165 8.36L108.721 8.504ZM118.105 9.56V10.016H128.785V9.56H118.105ZM119.605 8.384V8.84H127.333V8.384H119.605ZM125.005 10.46C126.049 10.88 127.309 11.612 127.945 12.152L128.353 11.804C127.705 11.288 126.445 10.556 125.401 10.148L125.005 10.46ZM119.065 11.924C119.065 11.804 119.533 11.66 119.533 11.66V11.648C120.589 11.228 121.705 10.604 122.797 9.812L122.233 9.572C121.309 10.304 120.109 10.976 119.737 11.12C119.401 11.288 119.113 11.396 118.897 11.408C118.969 11.552 119.041 11.804 119.065 11.924ZM119.065 11.924C119.437 11.816 120.025 11.78 127.093 11.396C127.057 11.288 127.009 11.096 126.997 10.952L119.545 11.324L119.065 11.552V11.924ZM118.933 3.476V3.908H122.857V3.476H118.933ZM123.745 4.016V4.496H127.213V4.016H123.745ZM118.777 6.356V6.776H123.085V6.356H118.777ZM118.333 4.484V4.904H123.409V4.484H118.333ZM121.129 0.991999V2.996H121.693V0.991999H121.129ZM120.649 3.032V4.76H121.177V3.032H120.649ZM120.649 5.732V7.712H121.177V5.732H120.649ZM125.161 0.991999V2.996H125.725V0.991999H125.161ZM118.285 7.628L118.357 8.084C119.665 8 121.561 7.844 123.385 7.7V7.28C121.477 7.424 119.533 7.556 118.285 7.628ZM119.821 4.7C119.701 5.372 119.281 5.672 118.225 5.864C118.321 5.948 118.453 6.128 118.513 6.236C119.665 5.984 120.145 5.564 120.289 4.7H119.821ZM126.925 4.016V6.92C126.925 7.52 126.961 7.652 127.105 7.772C127.225 7.88 127.417 7.928 127.609 7.928C127.705 7.928 127.981 7.928 128.089 7.928C128.245 7.928 128.425 7.904 128.521 7.832C128.641 7.772 128.737 7.664 128.785 7.508C128.833 7.34 128.857 6.836 128.869 6.404C128.737 6.368 128.581 6.284 128.461 6.188C128.449 6.668 128.437 7.016 128.413 7.172C128.401 7.316 128.353 7.4 128.293 7.436C128.257 7.472 128.149 7.484 128.041 7.484C127.933 7.484 127.777 7.484 127.693 7.484C127.609 7.484 127.537 7.472 127.501 7.436C127.453 7.4 127.441 7.244 127.441 7.004V4.016H126.925ZM123.685 5.372C124.609 5.792 125.641 6.476 126.145 7.004L126.481 6.608C125.977 6.08 124.921 5.42 124.021 5.024L123.685 5.372ZM125.221 3.152V4.232C125.221 5.276 125.005 6.74 123.181 7.82C123.313 7.916 123.481 8.072 123.565 8.168C125.485 7.004 125.713 5.456 125.713 4.232V3.152H125.221ZM121.321 4.652V5.228C121.321 5.78 121.417 5.96 121.909 5.96C122.029 5.96 122.665 5.96 122.833 5.96C123.013 5.96 123.229 5.96 123.349 5.924C123.337 5.828 123.313 5.648 123.301 5.528C123.157 5.564 122.965 5.564 122.821 5.564C122.677 5.564 122.089 5.564 121.957 5.564C121.789 5.564 121.777 5.504 121.777 5.24V4.652H121.321ZM118.225 1.868V2.36H123.253V1.868H118.225ZM123.673 1.868V2.36H128.689V1.868H123.673ZM130.213 2.792V3.332H135.517V2.792H130.213ZM131.605 3.824C131.209 4.736 130.609 5.684 129.973 6.344C130.105 6.428 130.333 6.608 130.417 6.68C131.029 6.008 131.689 4.952 132.121 3.968L131.605 3.824ZM133.813 5.816C133.117 8.144 131.809 10.004 129.997 11.156C130.129 11.252 130.345 11.468 130.429 11.564C132.253 10.316 133.597 8.408 134.377 5.924L133.813 5.816ZM133.573 4.052C134.077 4.664 134.629 5.48 134.857 6.008L135.325 5.732C135.097 5.216 134.533 4.4 134.017 3.812L133.573 4.052ZM131.197 6.584C132.457 7.796 133.861 9.512 134.449 10.628L134.917 10.268C134.317 9.152 132.901 7.484 131.641 6.272L131.197 6.584ZM136.861 3.236V3.776H140.845V3.236H136.861ZM137.281 0.98C136.897 3.104 136.273 5.144 135.313 6.476C135.445 6.572 135.661 6.764 135.757 6.872C136.717 5.444 137.401 3.332 137.833 1.064L137.281 0.98ZM139.561 3.524C138.997 7.508 137.749 10.04 134.797 11.468C134.929 11.576 135.121 11.804 135.205 11.924C138.181 10.34 139.501 7.772 140.137 3.596L139.561 3.524ZM136.837 4.568L136.333 4.688C137.005 7.952 138.313 10.652 140.533 11.864C140.641 11.732 140.821 11.516 140.953 11.408C138.769 10.328 137.449 7.664 136.837 4.568ZM131.917 1.22C132.313 1.7 132.733 2.348 132.925 2.768L133.417 2.504C133.225 2.096 132.781 1.46 132.373 1.004L131.917 1.22ZM142.237 7.4V7.94H152.641V7.4H142.237ZM147.121 1.76V11.888H147.721V1.76H147.121ZM146.845 7.58C145.801 8.996 143.749 10.364 141.961 10.988C142.093 11.096 142.285 11.312 142.369 11.456C144.145 10.76 146.221 9.356 147.337 7.796L146.845 7.58ZM147.997 7.568L147.529 7.784C148.681 9.272 150.793 10.712 152.521 11.408C152.617 11.264 152.809 11.048 152.941 10.928C151.189 10.316 149.077 8.936 147.997 7.568ZM143.977 4.136H150.949V5.672H143.977V4.136ZM143.977 2.108H150.949V3.62H143.977V2.108ZM143.401 1.592V6.188H151.549V1.592H143.401Z" fill="#007282"/>
</svg>
