<svg width="106" height="27" viewBox="0 0 106 27" fill="none" xmlns="http://www.w3.org/2000/svg">
<path d="M0.576 8.624V9.128H11.424V8.624H0.576ZM0.936 2.012V2.516H10.896V2.012H0.936ZM7.872 7.796V11.168C7.872 11.324 7.824 11.384 7.62 11.396C7.428 11.408 6.768 11.408 5.952 11.384C6.036 11.54 6.132 11.756 6.156 11.888C7.152 11.888 7.728 11.9 8.04 11.804C8.352 11.72 8.436 11.54 8.436 11.18V7.796H7.872ZM5.688 1.016V7.436H6.264V1.016H5.688ZM2.496 9.692C3.252 10.124 4.128 10.784 4.56 11.264L4.98 10.844C4.536 10.388 3.636 9.752 2.904 9.344L2.496 9.692ZM2.4 5.144H9.6V6.068H2.4V5.144ZM2.4 3.8H9.6V4.7H2.4V3.8ZM1.848 3.344V6.524H10.176V3.344H1.848ZM7.824 6.812C8.82 7.088 10.008 7.7 10.608 8.18L10.956 7.796C10.344 7.34 9.144 6.752 8.16 6.464L7.824 6.812ZM1.032 7.364L1.068 7.868C3.324 7.832 6.708 7.76 9.912 7.676L9.936 7.232C6.672 7.304 3.204 7.352 1.032 7.364ZM17.676 7.172V11.888H18.264V7.172H17.676ZM13.02 1.94V3.608H13.572V2.468H22.476V3.608H23.04V1.94H13.02ZM12.828 4.028V4.532H23.22V4.028H12.828ZM12.672 8.276V8.804H23.34V8.276H12.672ZM20.676 3.128C19.824 5.684 17.52 6.704 12.852 6.944C12.948 7.088 13.032 7.292 13.08 7.472C17.832 7.16 20.34 6.044 21.24 3.308L20.676 3.128ZM14.412 5.828C17.664 6.332 20.628 6.98 22.392 7.604L22.98 7.208C21.084 6.584 17.988 5.9 14.916 5.444L14.412 5.828ZM17.34 1.124C17.604 1.472 17.928 1.964 18.072 2.288L18.612 2.06C18.468 1.772 18.144 1.292 17.868 0.956L17.34 1.124ZM14.412 5.828H15.12C15.912 5.144 17.076 3.956 17.772 2.936L17.172 2.744C16.5 3.752 15.312 5.024 14.412 5.828ZM15.912 9.212C15.228 9.944 14.028 10.604 12.936 11.024C13.068 11.132 13.296 11.324 13.392 11.444C14.46 10.964 15.72 10.208 16.476 9.404L15.912 9.212ZM19.416 9.512C20.556 10.028 21.936 10.844 22.632 11.444L23.028 11C22.32 10.424 20.916 9.62 19.776 9.128L19.416 9.512ZM26.196 5.612V6.176H33.288V5.612H26.196ZM33.072 5.612V5.732C32.892 9.428 32.688 10.808 32.34 11.144C32.22 11.264 32.064 11.288 31.812 11.288C31.536 11.288 30.732 11.276 29.868 11.204C29.976 11.372 30.048 11.6 30.06 11.792C30.84 11.84 31.632 11.852 32.016 11.828C32.412 11.816 32.64 11.744 32.844 11.504C33.276 11.06 33.456 9.704 33.648 5.936C33.66 5.852 33.672 5.612 33.672 5.612H33.072ZM28.944 5.768C28.692 8.108 28.092 10.436 24.984 11.468C25.116 11.588 25.284 11.804 25.356 11.936C28.572 10.808 29.256 8.348 29.568 5.768H28.944ZM27.72 1.376C27.12 3.308 26.004 4.904 24.54 5.912C24.684 6.008 24.936 6.212 25.032 6.332C26.472 5.24 27.648 3.584 28.308 1.52L27.72 1.376ZM29.46 1.208V1.772H32.004V1.208H29.46ZM31.464 1.208V1.568H31.668C32.328 3.56 33.66 5.36 35.136 6.32C35.232 6.164 35.424 5.936 35.556 5.816C34.116 4.952 32.772 3.176 32.136 1.208H31.464ZM36.684 8.96V9.5H47.328V8.96H36.684ZM37.788 6.728V7.244H45.588V6.728H37.788ZM41.676 8.132V11.204C41.676 11.384 41.628 11.432 41.412 11.444C41.196 11.444 40.452 11.456 39.564 11.432C39.648 11.588 39.732 11.768 39.78 11.924C40.872 11.924 41.496 11.936 41.832 11.84C42.168 11.756 42.276 11.6 42.276 11.216V8.132H41.676ZM45.456 6.728V6.86C44.592 7.364 43.02 7.856 41.676 8.132C41.784 8.228 41.94 8.384 42.012 8.504C43.416 8.204 45.072 7.688 46.164 7.052L45.744 6.704L45.612 6.728H45.456ZM38.928 4.052H45.096V5.372H38.928V4.052ZM38.364 3.56V5.864H45.696V3.56H38.364ZM36.768 2.132V2.66H47.208V2.132H36.768ZM41.316 1.04C41.592 1.496 41.88 2.108 42.012 2.492L42.588 2.336C42.468 1.952 42.168 1.352 41.88 0.908L41.316 1.04ZM48.108 13.136H48.684L52.632 1.568H52.068L48.108 13.136ZM61.6507 3.416C60.1867 7.568 57.5227 9.98 53.2267 11.312C53.3467 11.456 53.5387 11.72 53.6107 11.864C57.9307 10.4 60.6667 7.94 62.2387 3.608L61.6507 3.416ZM55.7107 3.452L55.1827 3.62C56.7067 7.676 59.5867 10.64 63.8227 11.828C63.9307 11.66 64.0987 11.42 64.2307 11.288C60.0547 10.196 57.1507 7.28 55.7107 3.452ZM53.3587 3.164V3.728H64.1227V3.164H53.3587ZM57.8707 1.124C58.2667 1.712 58.6867 2.516 58.8547 3.008L59.4667 2.792C59.2747 2.3 58.8427 1.52 58.4467 0.943999L57.8707 1.124ZM67.5067 4.472V5.012H73.4947V4.472H67.5067ZM65.5867 7.496V8.06H75.8227V7.496H65.5867ZM70.4227 6.68V11.096C70.4227 11.264 70.3627 11.324 70.1587 11.336C69.9547 11.348 69.2587 11.348 68.3947 11.336C68.5027 11.492 68.6107 11.732 68.6587 11.888C69.6787 11.888 70.2427 11.888 70.5667 11.792C70.9147 11.696 71.0227 11.504 71.0227 11.096V6.68H70.4227ZM73.3267 4.472V4.592C72.6787 5.3 71.4667 6.188 70.4227 6.68C70.5187 6.764 70.6867 6.932 70.7707 7.028C71.8747 6.488 73.1827 5.588 74.0107 4.724L73.6147 4.436L73.4827 4.472H73.3267ZM65.7667 2.324V4.616H66.3427V2.888H75.0787V4.616H75.6667V2.324H65.7667ZM69.9427 1.1C70.3027 1.568 70.6507 2.216 70.7827 2.636L71.3587 2.408C71.2027 2 70.8427 1.376 70.4827 0.908L69.9427 1.1ZM77.3227 7.892L77.5027 8.468C78.5947 8.192 80.0467 7.796 81.4147 7.412L81.3667 6.884C79.8667 7.268 78.3307 7.652 77.3227 7.892ZM79.4587 1.004V11.888H80.0347V1.004H79.4587ZM78.0907 1.832C77.9227 3.368 77.6347 4.904 77.1307 5.948C77.2627 5.996 77.5027 6.104 77.6107 6.152C78.0787 5.096 78.3907 3.524 78.5947 1.916L78.0907 1.832ZM78.0307 3.536L77.9107 4.1H81.3547V3.536H78.0307ZM81.8707 2.432V2.984H87.8467V2.432H81.8707ZM82.4227 4.796V5.348H87.5587V4.796H82.4227ZM81.6907 7.028V7.58H88.1107V7.028H81.6907ZM84.5587 0.991999V5.084H85.1347V0.991999H84.5587ZM86.0107 5.732V11.06C86.0107 11.228 85.9747 11.276 85.7947 11.288C85.6027 11.3 85.0147 11.3 84.2707 11.276C84.3667 11.456 84.4507 11.696 84.4987 11.852C85.3387 11.852 85.8907 11.852 86.1907 11.756C86.5027 11.66 86.5867 11.468 86.5867 11.072V5.732H86.0107ZM82.5547 8.384C83.1427 8.996 83.8267 9.872 84.1267 10.4L84.6187 10.112C84.2827 9.572 83.5987 8.744 83.0227 8.132L82.5547 8.384ZM89.4907 2.792V3.332H94.7947V2.792H89.4907ZM90.8827 3.824C90.4867 4.736 89.8867 5.684 89.2507 6.344C89.3827 6.428 89.6107 6.608 89.6947 6.68C90.3067 6.008 90.9667 4.952 91.3987 3.968L90.8827 3.824ZM93.0907 5.816C92.3947 8.144 91.0867 10.004 89.2747 11.156C89.4067 11.252 89.6227 11.468 89.7067 11.564C91.5307 10.316 92.8747 8.408 93.6547 5.924L93.0907 5.816ZM92.8507 4.052C93.3547 4.664 93.9067 5.48 94.1347 6.008L94.6027 5.732C94.3747 5.216 93.8107 4.4 93.2947 3.812L92.8507 4.052ZM90.4747 6.584C91.7347 7.796 93.1387 9.512 93.7267 10.628L94.1947 10.268C93.5947 9.152 92.1787 7.484 90.9187 6.272L90.4747 6.584ZM96.1387 3.236V3.776H100.123V3.236H96.1387ZM96.5587 0.98C96.1747 3.104 95.5507 5.144 94.5907 6.476C94.7227 6.572 94.9387 6.764 95.0347 6.872C95.9947 5.444 96.6787 3.332 97.1107 1.064L96.5587 0.98ZM98.8387 3.524C98.2747 7.508 97.0267 10.04 94.0747 11.468C94.2067 11.576 94.3987 11.804 94.4827 11.924C97.4587 10.34 98.7787 7.772 99.4147 3.596L98.8387 3.524ZM96.1147 4.568L95.6107 4.688C96.2827 7.952 97.5907 10.652 99.8107 11.864C99.9187 11.732 100.099 11.516 100.231 11.408C98.0467 10.328 96.7267 7.664 96.1147 4.568ZM91.1947 1.22C91.5907 1.7 92.0107 2.348 92.2027 2.768L92.6947 2.504C92.5027 2.096 92.0587 1.46 91.6507 1.004L91.1947 1.22ZM100.831 13.136H101.407L105.355 1.568H104.791L100.831 13.136ZM5.94 18.7V19.24H10.212V18.7H5.94ZM4.764 20.836V21.376H11.232V20.836H4.764ZM5.016 16.576V18.412H5.556V17.092H10.608V18.412H11.16V16.576H5.016ZM6.276 22.408C5.82 23.212 5.172 24.1 4.572 24.724C4.704 24.808 4.932 25 5.04 25.096C5.616 24.436 6.324 23.44 6.828 22.588L6.276 22.408ZM9.312 22.6C9.876 23.368 10.56 24.412 10.86 25.036L11.388 24.772C11.064 24.148 10.38 23.14 9.804 22.384L9.312 22.6ZM7.32 15.16C7.584 15.688 7.884 16.408 8.004 16.876L8.568 16.672C8.424 16.228 8.124 15.532 7.836 14.992L7.32 15.16ZM7.74 21.076V25.852H8.304V21.076H7.74ZM3.228 19.684C3.492 20.464 3.744 21.496 3.828 22.096L4.308 21.964C4.224 21.376 3.96 20.368 3.684 19.588L3.228 19.684ZM2.184 22.696C2.34 23.512 2.472 24.592 2.508 25.288L2.988 25.204C2.952 24.496 2.82 23.44 2.664 22.612L2.184 22.696ZM1.092 22.6C0.948 23.572 0.756 24.652 0.456 25.408C0.588 25.456 0.828 25.54 0.936 25.588C1.188 24.844 1.44 23.704 1.596 22.684L1.092 22.6ZM0.66 19.324C0.66 19.18 1.092 18.976 1.092 18.976V18.964C1.812 17.992 2.556 16.576 3.12 15.22L2.568 14.98C2.112 16.312 1.32 17.716 1.068 18.076C0.852 18.46 0.66 18.712 0.468 18.76C0.54 18.904 0.624 19.192 0.66 19.324ZM0.66 19.324C0.816 19.24 1.116 19.168 2.976 18.916C2.976 18.808 2.976 18.592 3 18.448L0.984 18.664L0.648 18.868L0.66 19.324ZM0.732 21.988C0.732 21.844 1.152 21.664 1.152 21.664V21.652C2.22 20.464 3.288 18.784 4.176 17.104L3.648 16.852C2.904 18.472 1.716 20.176 1.368 20.62C1.02 21.064 0.768 21.388 0.552 21.424C0.612 21.58 0.708 21.856 0.732 21.988ZM0.732 21.988C0.936 21.88 1.26 21.796 3.876 21.316C3.864 21.208 3.852 20.992 3.864 20.836L1.044 21.304L0.72 21.52L0.732 21.988ZM3.276 22.504C3.54 23.14 3.852 23.992 3.984 24.544L4.452 24.376C4.32 23.848 4.008 23.008 3.72 22.36L3.276 22.504ZM12.66 23.56V24.016H23.34V23.56H12.66ZM14.16 22.384V22.84H21.888V22.384H14.16ZM19.56 24.46C20.604 24.88 21.864 25.612 22.5 26.152L22.908 25.804C22.26 25.288 21 24.556 19.956 24.148L19.56 24.46ZM13.62 25.924C13.62 25.804 14.088 25.66 14.088 25.66V25.648C15.144 25.228 16.26 24.604 17.352 23.812L16.788 23.572C15.864 24.304 14.664 24.976 14.292 25.12C13.956 25.288 13.668 25.396 13.452 25.408C13.524 25.552 13.596 25.804 13.62 25.924ZM13.62 25.924C13.992 25.816 14.58 25.78 21.648 25.396C21.612 25.288 21.564 25.096 21.552 24.952L14.1 25.324L13.62 25.552V25.924ZM13.488 17.476V17.908H17.412V17.476H13.488ZM18.3 18.016V18.496H21.768V18.016H18.3ZM13.332 20.356V20.776H17.64V20.356H13.332ZM12.888 18.484V18.904H17.964V18.484H12.888ZM15.684 14.992V16.996H16.248V14.992H15.684ZM15.204 17.032V18.76H15.732V17.032H15.204ZM15.204 19.732V21.712H15.732V19.732H15.204ZM19.716 14.992V16.996H20.28V14.992H19.716ZM12.84 21.628L12.912 22.084C14.22 22 16.116 21.844 17.94 21.7V21.28C16.032 21.424 14.088 21.556 12.84 21.628ZM14.376 18.7C14.256 19.372 13.836 19.672 12.78 19.864C12.876 19.948 13.008 20.128 13.068 20.236C14.22 19.984 14.7 19.564 14.844 18.7H14.376ZM21.48 18.016V20.92C21.48 21.52 21.516 21.652 21.66 21.772C21.78 21.88 21.972 21.928 22.164 21.928C22.26 21.928 22.536 21.928 22.644 21.928C22.8 21.928 22.98 21.904 23.076 21.832C23.196 21.772 23.292 21.664 23.34 21.508C23.388 21.34 23.412 20.836 23.424 20.404C23.292 20.368 23.136 20.284 23.016 20.188C23.004 20.668 22.992 21.016 22.968 21.172C22.956 21.316 22.908 21.4 22.848 21.436C22.812 21.472 22.704 21.484 22.596 21.484C22.488 21.484 22.332 21.484 22.248 21.484C22.164 21.484 22.092 21.472 22.056 21.436C22.008 21.4 21.996 21.244 21.996 21.004V18.016H21.48ZM18.24 19.372C19.164 19.792 20.196 20.476 20.7 21.004L21.036 20.608C20.532 20.08 19.476 19.42 18.576 19.024L18.24 19.372ZM19.776 17.152V18.232C19.776 19.276 19.56 20.74 17.736 21.82C17.868 21.916 18.036 22.072 18.12 22.168C20.04 21.004 20.268 19.456 20.268 18.232V17.152H19.776ZM15.876 18.652V19.228C15.876 19.78 15.972 19.96 16.464 19.96C16.584 19.96 17.22 19.96 17.388 19.96C17.568 19.96 17.784 19.96 17.904 19.924C17.892 19.828 17.868 19.648 17.856 19.528C17.712 19.564 17.52 19.564 17.376 19.564C17.232 19.564 16.644 19.564 16.512 19.564C16.344 19.564 16.332 19.504 16.332 19.24V18.652H15.876ZM12.78 15.868V16.36H17.808V15.868H12.78ZM18.228 15.868V16.36H23.244V15.868H18.228ZM24.768 16.792V17.332H30.072V16.792H24.768ZM26.16 17.824C25.764 18.736 25.164 19.684 24.528 20.344C24.66 20.428 24.888 20.608 24.972 20.68C25.584 20.008 26.244 18.952 26.676 17.968L26.16 17.824ZM28.368 19.816C27.672 22.144 26.364 24.004 24.552 25.156C24.684 25.252 24.9 25.468 24.984 25.564C26.808 24.316 28.152 22.408 28.932 19.924L28.368 19.816ZM28.128 18.052C28.632 18.664 29.184 19.48 29.412 20.008L29.88 19.732C29.652 19.216 29.088 18.4 28.572 17.812L28.128 18.052ZM25.752 20.584C27.012 21.796 28.416 23.512 29.004 24.628L29.472 24.268C28.872 23.152 27.456 21.484 26.196 20.272L25.752 20.584ZM31.416 17.236V17.776H35.4V17.236H31.416ZM31.836 14.98C31.452 17.104 30.828 19.144 29.868 20.476C30 20.572 30.216 20.764 30.312 20.872C31.272 19.444 31.956 17.332 32.388 15.064L31.836 14.98ZM34.116 17.524C33.552 21.508 32.304 24.04 29.352 25.468C29.484 25.576 29.676 25.804 29.76 25.924C32.736 24.34 34.056 21.772 34.692 17.596L34.116 17.524ZM31.392 18.568L30.888 18.688C31.56 21.952 32.868 24.652 35.088 25.864C35.196 25.732 35.376 25.516 35.508 25.408C33.324 24.328 32.004 21.664 31.392 18.568ZM26.472 15.22C26.868 15.7 27.288 16.348 27.48 16.768L27.972 16.504C27.78 16.096 27.336 15.46 26.928 15.004L26.472 15.22ZM36.792 21.4V21.94H47.196V21.4H36.792ZM41.676 15.76V25.888H42.276V15.76H41.676ZM41.4 21.58C40.356 22.996 38.304 24.364 36.516 24.988C36.648 25.096 36.84 25.312 36.924 25.456C38.7 24.76 40.776 23.356 41.892 21.796L41.4 21.58ZM42.552 21.568L42.084 21.784C43.236 23.272 45.348 24.712 47.076 25.408C47.172 25.264 47.364 25.048 47.496 24.928C45.744 24.316 43.632 22.936 42.552 21.568ZM38.532 18.136H45.504V19.672H38.532V18.136ZM38.532 16.108H45.504V17.62H38.532V16.108ZM37.956 15.592V20.188H46.104V15.592H37.956Z" fill="#007282"/>
</svg>
