<svg width="130" height="26" viewBox="0 0 130 26" fill="none" xmlns="http://www.w3.org/2000/svg">
<path d="M1.368 2.156V2.696H10.704V2.156H1.368ZM0.684 5.012V5.552H11.316V5.012H0.684ZM2.76 8.828V9.332H9.336V8.828H2.76ZM2.784 10.916V11.432H9.348V10.916H2.784ZM2.436 6.788V11.912H3.012V7.316H9.084V11.876H9.66V6.788H2.436ZM8.424 2.816C8.172 3.5 7.68 4.52 7.32 5.132L7.812 5.288C8.208 4.7 8.676 3.74 9.036 2.984L8.424 2.816ZM3.096 2.996C3.48 3.596 3.816 4.424 3.912 4.988L4.488 4.82C4.38 4.28 4.044 3.452 3.624 2.852L3.096 2.996ZM5.364 1.064C5.652 1.496 5.916 2.108 6 2.504L6.588 2.348C6.492 1.952 6.216 1.352 5.904 0.92L5.364 1.064ZM12.66 7.808V8.336H23.316V7.808H12.66ZM17.676 6.992V11.888H18.252V6.992H17.676ZM17.028 4.664H18.96V6.176H17.028V4.664ZM17.028 2.696H18.96V4.184H17.028V2.696ZM16.5 2.204V6.668H19.512V2.204H16.5ZM17.748 0.956C17.688 1.364 17.556 1.988 17.424 2.384L17.856 2.504C18 2.144 18.168 1.58 18.324 1.076L17.748 0.956ZM22.212 5.276C22.428 5.84 22.668 6.56 22.776 7.052L23.232 6.86C23.124 6.404 22.872 5.684 22.632 5.132L22.212 5.276ZM15.288 4.988C15.456 5.612 15.66 6.404 15.72 6.944L16.188 6.812C16.116 6.296 15.924 5.492 15.732 4.88L15.288 4.988ZM13.08 4.388C13.08 4.256 13.488 4.088 13.488 4.088V4.076C14.004 3.356 14.556 2.288 14.964 1.232L14.46 1.04C14.148 2.036 13.548 3.116 13.38 3.38C13.212 3.656 13.068 3.86 12.912 3.884C12.972 4.016 13.056 4.28 13.08 4.388ZM13.08 4.388C13.224 4.316 13.512 4.256 15.084 4.052C15.084 3.944 15.084 3.764 15.096 3.632L13.392 3.824L13.08 3.992V4.388ZM13.08 6.764C13.08 6.632 13.464 6.476 13.464 6.476V6.452C14.364 5.468 15.288 4.076 16.056 2.66L15.6 2.42C14.952 3.776 13.932 5.228 13.632 5.576C13.332 5.96 13.104 6.224 12.912 6.26C12.972 6.392 13.056 6.656 13.08 6.764ZM13.08 6.764C13.26 6.668 13.56 6.608 15.864 6.284C15.852 6.176 15.864 5.984 15.876 5.84L13.392 6.164L13.068 6.356L13.08 6.764ZM19.944 4.544C19.944 4.412 20.34 4.232 20.34 4.232V4.22C20.88 3.452 21.444 2.324 21.876 1.22L21.36 1.028C21.048 2.072 20.424 3.212 20.244 3.5C20.076 3.788 19.932 4.004 19.776 4.028C19.836 4.16 19.92 4.436 19.944 4.544ZM19.944 4.544C20.1 4.472 20.376 4.4 22.176 4.16C22.176 4.064 22.176 3.86 22.2 3.728L20.244 3.968L19.944 4.136V4.544ZM20.1 6.92C20.1 6.788 20.484 6.62 20.484 6.62V6.608C21.384 5.624 22.308 4.22 23.076 2.828L22.596 2.576C21.96 3.932 20.94 5.36 20.64 5.732C20.364 6.104 20.124 6.368 19.932 6.404C20.004 6.536 20.076 6.812 20.1 6.92ZM20.1 6.92C20.268 6.836 20.592 6.764 22.86 6.464C22.848 6.356 22.86 6.164 22.872 6.032L20.412 6.332L20.088 6.512L20.1 6.92ZM16.44 8.756C15.576 9.704 13.896 10.58 12.48 10.976C12.624 11.096 12.792 11.3 12.888 11.456C14.292 11 16.032 10.04 16.944 8.972L16.44 8.756ZM19.128 9.092C20.472 9.788 22.104 10.82 22.92 11.528L23.268 11.06C22.452 10.376 20.796 9.368 19.476 8.696L19.128 9.092ZM29.7 7.748C28.56 8.72 26.316 9.584 24.504 9.968C24.624 10.076 24.78 10.28 24.864 10.424C26.664 10.004 28.956 9.056 30.18 7.988L29.7 7.748ZM30.384 7.724L29.892 7.868C30.756 9.92 32.592 11.228 35.076 11.744C35.16 11.588 35.304 11.372 35.424 11.252C32.988 10.82 31.164 9.596 30.384 7.724ZM34.152 8.336C33.504 8.804 32.388 9.416 31.56 9.8L31.944 10.1C32.784 9.728 33.828 9.188 34.596 8.648L34.152 8.336ZM24.708 7.58V8.096H35.304V7.58H24.708ZM31.788 1.616V5.54H32.328V1.616H31.788ZM34.032 1.124V6.2C34.032 6.356 33.984 6.404 33.804 6.404C33.636 6.416 33.048 6.428 32.328 6.404C32.412 6.56 32.496 6.764 32.532 6.92C33.384 6.92 33.912 6.92 34.2 6.824C34.488 6.728 34.572 6.572 34.572 6.212V1.124H34.032ZM27.504 0.991999V7.016H28.032V0.991999H27.504ZM29.808 4.496V6.02C29.808 6.116 29.784 6.152 29.676 6.164C29.568 6.176 29.244 6.176 28.776 6.164C28.848 6.296 28.944 6.464 28.956 6.596C29.508 6.596 29.856 6.596 30.06 6.5C30.288 6.428 30.324 6.284 30.324 6.02V4.496H29.808ZM25.356 4.496V6.68H25.848V4.952H30.072V4.496H25.356ZM24.648 3.26V3.728H30.72V3.26H24.648ZM25.848 1.892L25.656 2.372H30.252V1.892H25.848ZM25.908 1.04C25.68 1.724 25.356 2.42 24.924 2.936C25.056 2.984 25.296 3.092 25.392 3.164C25.776 2.66 26.16 1.88 26.412 1.16L25.908 1.04ZM26.832 11.876C27.048 11.744 27.396 11.648 30.756 10.832C30.744 10.724 30.744 10.532 30.756 10.376L27.132 11.168L26.82 11.42L26.832 11.876ZM26.844 11.864C26.844 11.624 27.648 11.156 27.648 11.156V9.296H27.072V10.58C27.072 11.072 26.76 11.276 26.58 11.384C26.676 11.492 26.796 11.732 26.844 11.864ZM29.508 6.752C29.724 7.112 29.988 7.616 30.084 7.916L30.636 7.724C30.528 7.436 30.276 6.944 30.036 6.596L29.508 6.752ZM41.808 3.032L41.532 3.596H47.46V3.032H41.808ZM43.248 5.612V6.152H47.208V5.612H43.248ZM43.248 8.252V8.816H47.376V8.252H43.248ZM42.972 3.212V11.888H43.56V3.212H42.972ZM42.372 1.16C41.76 2.936 40.776 4.688 39.672 5.84C39.804 5.936 40.044 6.128 40.128 6.224C41.232 5 42.252 3.188 42.936 1.292L42.372 1.16ZM39.66 1.04C38.94 2.924 37.776 4.784 36.528 5.984C36.648 6.104 36.828 6.404 36.9 6.524C38.196 5.204 39.408 3.236 40.212 1.208L39.66 1.04ZM38.34 3.992V11.876H38.928V3.44L38.904 3.416L38.34 3.992ZM51.684 2.636V3.164H59.232V2.636H51.684ZM55.032 6.644V11.384H55.572V6.644H55.032ZM52.848 6.596V7.904C52.848 9.056 52.704 10.424 51.288 11.468C51.42 11.54 51.612 11.732 51.708 11.84C53.208 10.712 53.388 9.224 53.388 7.916V6.596H52.848ZM56.604 3.812C57.348 4.676 58.296 5.84 58.764 6.512L59.232 6.2C58.764 5.528 57.816 4.4 57.06 3.56L56.604 3.812ZM52.14 6.056C52.452 5.948 52.956 5.912 58.332 5.54C58.284 5.42 58.212 5.192 58.176 5.036L52.572 5.372L52.128 5.6L52.14 6.056ZM49.104 1.544C49.836 1.988 50.676 2.684 51.06 3.164L51.444 2.72C51.036 2.252 50.196 1.592 49.464 1.148L49.104 1.544ZM48.54 4.844C49.32 5.192 50.232 5.768 50.7 6.188L51.024 5.708C50.568 5.288 49.632 4.748 48.864 4.412L48.54 4.844ZM48.888 11.336L49.38 11.732C50.076 10.64 50.964 9.068 51.6 7.796L51.18 7.412C50.496 8.768 49.536 10.4 48.888 11.336ZM57.252 6.584V10.748C57.252 11.42 57.372 11.636 57.972 11.636C58.092 11.636 58.716 11.636 58.872 11.636C59.076 11.636 59.28 11.636 59.4 11.6C59.388 11.48 59.364 11.264 59.352 11.132C59.22 11.156 59.004 11.168 58.86 11.168C58.716 11.168 58.152 11.168 58.008 11.168C57.84 11.168 57.804 11.084 57.804 10.76V6.584H57.252ZM52.14 6.056C52.14 5.924 52.596 5.732 52.596 5.732V5.708C53.724 4.58 54.9 2.96 55.908 1.304L55.332 1.064C54.48 2.636 53.196 4.28 52.812 4.7C52.452 5.132 52.164 5.432 51.936 5.48C52.008 5.636 52.104 5.936 52.14 6.056ZM67.74 6.536V11.372H68.304V6.536H67.74ZM64.572 11.036V11.564H71.436V11.036H64.572ZM65.268 8.588V9.116H70.908V8.588H65.268ZM65.964 2.168H70.164V4.748H65.964V2.168ZM65.412 1.652V5.288H70.716V1.652H65.412ZM70.452 5.888C69.264 6.26 66.924 6.5 65.052 6.62C65.124 6.764 65.184 6.968 65.208 7.1C67.128 6.992 69.504 6.74 70.896 6.332L70.452 5.888ZM62.736 1.916V11.864H63.312V1.916H62.736ZM60.636 4.376V4.928H64.956V4.376H60.636ZM62.76 4.58C62.304 6.152 61.284 8.096 60.396 9.056C60.504 9.176 60.672 9.404 60.732 9.56C61.644 8.492 62.676 6.416 63.168 4.736L62.76 4.58ZM64.476 1.196C63.624 1.592 61.98 1.94 60.612 2.156C60.684 2.3 60.768 2.48 60.792 2.612C62.184 2.42 63.876 2.072 64.92 1.64L64.476 1.196ZM63.264 5.852L62.964 6.092C63.336 6.452 64.344 7.64 64.632 8.072L65.004 7.604C64.74 7.304 63.576 6.116 63.264 5.852ZM72.108 13.136H72.684L76.632 1.568H76.068L72.108 13.136ZM81.5827 1.64V2.192H87.4867V1.64H81.5827ZM81.8707 3.512V4.028H86.4427V3.512H81.8707ZM82.3987 5.252V9.884H82.9267V5.252H82.3987ZM82.6747 5.252V5.78H85.2187V8.492H82.6747V9.02H85.7587V5.252H82.6747ZM87.1867 1.64V11.024C87.1867 11.228 87.1147 11.288 86.9227 11.3C86.7067 11.312 85.9987 11.324 85.2187 11.3C85.3027 11.468 85.3867 11.744 85.4347 11.888C86.3827 11.888 86.9947 11.888 87.3067 11.792C87.6307 11.684 87.7387 11.48 87.7387 11.036V1.64H87.1867ZM77.8267 4.604V5.096H81.0667V4.604H77.8267ZM77.8267 6.152V6.644H81.0667V6.152H77.8267ZM77.3587 3.056V3.572H81.5347V3.056H77.3587ZM78.0427 7.712V8.24H80.5507V10.616H78.0427V11.132H81.0787V7.712H78.0427ZM77.8147 7.712V11.732H78.3307V7.712H77.8147ZM78.6427 1.196C78.9547 1.676 79.3387 2.336 79.4947 2.756L79.9507 2.456C79.7707 2.048 79.3987 1.424 79.0627 0.943999L78.6427 1.196ZM90.3427 10.532V11.096H99.1627V10.532H90.3427ZM90.3307 6.932V7.496H99.1987V6.932H90.3307ZM89.9827 3.416V11.912H90.5347V3.98H98.9347V11.84H99.4987V3.416H89.9827ZM92.9107 1.124V10.88H93.4867V1.124H92.9107ZM95.8507 1.124V10.856H96.4147V1.124H95.8507ZM108.571 2.372V8.936H109.123V2.372H108.571ZM110.887 1.076V11.024C110.887 11.24 110.803 11.3 110.599 11.312C110.407 11.324 109.735 11.324 108.955 11.312C109.039 11.48 109.123 11.732 109.171 11.888C110.167 11.888 110.719 11.876 111.019 11.78C111.319 11.672 111.463 11.48 111.463 11.024V1.076H110.887ZM102.631 6.08V6.536H106.651V6.08H102.631ZM103.087 10.724V11.228H106.999V10.724H103.087ZM102.295 4.676V6.428C102.295 7.772 102.163 9.644 101.203 11.06C101.347 11.12 101.587 11.252 101.683 11.36C102.667 9.896 102.859 7.856 102.859 6.428V4.676H102.295ZM102.607 4.676V5.156H106.399V7.568H102.547V8.048H106.951V4.676H102.607ZM102.871 8.72V11.792H103.387V9.2H106.711V11.792H107.239V8.72H102.871ZM104.503 1.136C103.807 2.384 102.523 3.428 101.215 4.088C101.335 4.22 101.515 4.484 101.575 4.604C102.907 3.848 104.263 2.696 105.031 1.316L104.503 1.136ZM104.311 1.88C105.331 2.492 106.651 3.404 107.311 3.968L107.647 3.512C106.987 2.96 105.655 2.096 104.647 1.484L104.311 1.88ZM103.447 3.488V3.944H106.015V3.488H103.447ZM118.531 3.032L118.255 3.596H124.183V3.032H118.531ZM119.971 5.612V6.152H123.931V5.612H119.971ZM119.971 8.252V8.816H124.099V8.252H119.971ZM119.695 3.212V11.888H120.283V3.212H119.695ZM119.095 1.16C118.483 2.936 117.499 4.688 116.395 5.84C116.527 5.936 116.767 6.128 116.851 6.224C117.955 5 118.975 3.188 119.659 1.292L119.095 1.16ZM116.383 1.04C115.663 2.924 114.499 4.784 113.251 5.984C113.371 6.104 113.551 6.404 113.623 6.524C114.919 5.204 116.131 3.236 116.935 1.208L116.383 1.04ZM115.063 3.992V11.876H115.651V3.44L115.627 3.416L115.063 3.992ZM124.831 13.136H125.407L129.355 1.568H128.791L124.831 13.136ZM1.272 18.076V18.592H4.272V18.076H1.272ZM0.696 20.164V20.692H4.668V20.164H0.696ZM0.9 21.532C1.092 22.264 1.296 23.224 1.368 23.86L1.848 23.74C1.764 23.116 1.572 22.168 1.368 21.436L0.9 21.532ZM0.492 24.904L0.66 25.432C1.788 25.216 3.384 24.88 4.896 24.568L4.86 24.064C3.216 24.4 1.548 24.712 0.492 24.904ZM4.236 21.28C4.128 21.952 3.9 22.972 3.732 23.584L4.116 23.728C4.308 23.128 4.524 22.192 4.704 21.436L4.236 21.28ZM2.592 18.304V24.844L3.108 24.772V18.304H2.592ZM2.748 15.04C2.196 16.24 1.248 17.38 0.288 18.124C0.396 18.244 0.54 18.52 0.588 18.628C1.608 17.788 2.616 16.504 3.24 15.196L2.748 15.04ZM2.58 15.748C3.348 16.456 4.308 17.44 4.8 18.028L5.148 17.608C4.656 17.056 3.684 16.12 2.928 15.412L2.58 15.748ZM10.668 20.74C10.272 21.244 9.576 21.964 9.072 22.384L9.408 22.708C9.924 22.3 10.596 21.676 11.088 21.1L10.668 20.74ZM5.376 21.076C5.892 21.556 6.516 22.264 6.816 22.696L7.224 22.36C6.924 21.94 6.3 21.268 5.772 20.788L5.376 21.076ZM6.576 16.084V16.576H9.96V16.084H6.576ZM6.096 17.956V18.46H9.648V17.956H6.096ZM4.836 19.576V20.104H11.436V19.576H4.836ZM7.92 19.816V25.204C7.92 25.336 7.884 25.372 7.74 25.384C7.596 25.384 7.152 25.384 6.612 25.372C6.696 25.528 6.768 25.756 6.804 25.9C7.464 25.9 7.908 25.888 8.148 25.804C8.4 25.72 8.472 25.552 8.472 25.192V19.816H7.92ZM4.74 24.76L5.088 25.204C5.748 24.676 6.564 24.064 7.32 23.44L7.14 23.008C6.252 23.68 5.352 24.364 4.74 24.76ZM6.66 14.992C6.42 16.072 6.036 17.572 5.736 18.46H6.324C6.588 17.596 6.972 16.156 7.224 15.052L6.66 14.992ZM9.78 16.084V16.168C9.636 16.984 9.312 18.64 9.036 19.804L9.576 19.864C9.852 18.712 10.176 17.152 10.356 16.12L9.948 16.036L9.852 16.084H9.78ZM8.844 23.2C9.636 23.788 10.584 24.628 11.052 25.156L11.4 24.736C10.932 24.22 9.972 23.404 9.18 22.852L8.844 23.2ZM13.368 16.156V16.696H22.704V16.156H13.368ZM12.684 19.012V19.552H23.316V19.012H12.684ZM14.76 22.828V23.332H21.336V22.828H14.76ZM14.784 24.916V25.432H21.348V24.916H14.784ZM14.436 20.788V25.912H15.012V21.316H21.084V25.876H21.66V20.788H14.436ZM20.424 16.816C20.172 17.5 19.68 18.52 19.32 19.132L19.812 19.288C20.208 18.7 20.676 17.74 21.036 16.984L20.424 16.816ZM15.096 16.996C15.48 17.596 15.816 18.424 15.912 18.988L16.488 18.82C16.38 18.28 16.044 17.452 15.624 16.852L15.096 16.996ZM17.364 15.064C17.652 15.496 17.916 16.108 18 16.504L18.588 16.348C18.492 15.952 18.216 15.352 17.904 14.92L17.364 15.064ZM25.152 15.544C25.92 15.952 26.904 16.528 27.432 16.9L27.756 16.408C27.228 16.072 26.232 15.52 25.476 15.148L25.152 15.544ZM24.552 18.844C25.284 19.24 26.244 19.816 26.724 20.152L27.048 19.672C26.556 19.336 25.584 18.784 24.876 18.424L24.552 18.844ZM24.936 25.336L25.416 25.732C26.112 24.64 26.988 23.068 27.612 21.796L27.204 21.412C26.532 22.768 25.572 24.4 24.936 25.336ZM28.692 21.892V22.42H31.32V21.892H28.692ZM28.824 17.884H33.9V19.264H28.824V17.884ZM28.824 16.036H33.9V17.404H28.824V16.036ZM28.236 15.544V19.78H34.5V15.544H28.236ZM31.776 20.164V24.904C31.776 25.636 31.992 25.816 32.832 25.816C33.012 25.816 34.356 25.816 34.548 25.816C35.268 25.816 35.448 25.468 35.508 24.148C35.352 24.1 35.112 24.016 34.968 23.92C34.944 25.084 34.884 25.3 34.5 25.3C34.212 25.3 33.084 25.3 32.88 25.3C32.424 25.3 32.352 25.228 32.352 24.904V20.164H31.776ZM28.152 25.948C28.38 25.816 28.716 25.708 31.404 25.036C31.356 24.916 31.32 24.688 31.296 24.532L28.476 25.216L28.14 25.456L28.152 25.948ZM28.152 25.948C28.152 25.744 28.872 25.516 28.872 25.516V20.176H28.296V24.856C28.296 25.252 28.104 25.324 27.936 25.372C28.02 25.516 28.128 25.78 28.152 25.948ZM32.124 21.88V22.408H35.16V21.88H32.124ZM37.368 16.156V16.696H46.704V16.156H37.368ZM36.684 19.012V19.552H47.316V19.012H36.684ZM38.76 22.828V23.332H45.336V22.828H38.76ZM38.784 24.916V25.432H45.348V24.916H38.784ZM38.436 20.788V25.912H39.012V21.316H45.084V25.876H45.66V20.788H38.436ZM44.424 16.816C44.172 17.5 43.68 18.52 43.32 19.132L43.812 19.288C44.208 18.7 44.676 17.74 45.036 16.984L44.424 16.816ZM39.096 16.996C39.48 17.596 39.816 18.424 39.912 18.988L40.488 18.82C40.38 18.28 40.044 17.452 39.624 16.852L39.096 16.996ZM41.364 15.064C41.652 15.496 41.916 16.108 42 16.504L42.588 16.348C42.492 15.952 42.216 15.352 41.904 14.92L41.364 15.064Z" fill="#007282"/>
</svg>
