<svg width="106" height="26" viewBox="0 0 106 26" fill="none" xmlns="http://www.w3.org/2000/svg">
<path d="M5.7 7.748C4.56 8.72 2.316 9.584 0.504 9.968C0.624 10.076 0.78 10.28 0.864 10.424C2.664 10.004 4.956 9.056 6.18 7.988L5.7 7.748ZM6.384 7.724L5.892 7.868C6.756 9.92 8.592 11.228 11.076 11.744C11.16 11.588 11.304 11.372 11.424 11.252C8.988 10.82 7.164 9.596 6.384 7.724ZM10.152 8.336C9.504 8.804 8.388 9.416 7.56 9.8L7.944 10.1C8.784 9.728 9.828 9.188 10.596 8.648L10.152 8.336ZM0.708 7.58V8.096H11.304V7.58H0.708ZM7.788 1.616V5.54H8.328V1.616H7.788ZM10.032 1.124V6.2C10.032 6.356 9.984 6.404 9.804 6.404C9.636 6.416 9.048 6.428 8.328 6.404C8.412 6.56 8.496 6.764 8.532 6.92C9.384 6.92 9.912 6.92 10.2 6.824C10.488 6.728 10.572 6.572 10.572 6.212V1.124H10.032ZM3.504 0.991999V7.016H4.032V0.991999H3.504ZM5.808 4.496V6.02C5.808 6.116 5.784 6.152 5.676 6.164C5.568 6.176 5.244 6.176 4.776 6.164C4.848 6.296 4.944 6.464 4.956 6.596C5.508 6.596 5.856 6.596 6.06 6.5C6.288 6.428 6.324 6.284 6.324 6.02V4.496H5.808ZM1.356 4.496V6.68H1.848V4.952H6.072V4.496H1.356ZM0.648 3.26V3.728H6.72V3.26H0.648ZM1.848 1.892L1.656 2.372H6.252V1.892H1.848ZM1.908 1.04C1.68 1.724 1.356 2.42 0.924 2.936C1.056 2.984 1.296 3.092 1.392 3.164C1.776 2.66 2.16 1.88 2.412 1.16L1.908 1.04ZM2.832 11.876C3.048 11.744 3.396 11.648 6.756 10.832C6.744 10.724 6.744 10.532 6.756 10.376L3.132 11.168L2.82 11.42L2.832 11.876ZM2.844 11.864C2.844 11.624 3.648 11.156 3.648 11.156V9.296H3.072V10.58C3.072 11.072 2.76 11.276 2.58 11.384C2.676 11.492 2.796 11.732 2.844 11.864ZM5.508 6.752C5.724 7.112 5.988 7.616 6.084 7.916L6.636 7.724C6.528 7.436 6.276 6.944 6.036 6.596L5.508 6.752ZM17.808 3.032L17.532 3.596H23.46V3.032H17.808ZM19.248 5.612V6.152H23.208V5.612H19.248ZM19.248 8.252V8.816H23.376V8.252H19.248ZM18.972 3.212V11.888H19.56V3.212H18.972ZM18.372 1.16C17.76 2.936 16.776 4.688 15.672 5.84C15.804 5.936 16.044 6.128 16.128 6.224C17.232 5 18.252 3.188 18.936 1.292L18.372 1.16ZM15.66 1.04C14.94 2.924 13.776 4.784 12.528 5.984C12.648 6.104 12.828 6.404 12.9 6.524C14.196 5.204 15.408 3.236 16.212 1.208L15.66 1.04ZM14.34 3.992V11.876H14.928V3.44L14.904 3.416L14.34 3.992ZM27.684 2.636V3.164H35.232V2.636H27.684ZM31.032 6.644V11.384H31.572V6.644H31.032ZM28.848 6.596V7.904C28.848 9.056 28.704 10.424 27.288 11.468C27.42 11.54 27.612 11.732 27.708 11.84C29.208 10.712 29.388 9.224 29.388 7.916V6.596H28.848ZM32.604 3.812C33.348 4.676 34.296 5.84 34.764 6.512L35.232 6.2C34.764 5.528 33.816 4.4 33.06 3.56L32.604 3.812ZM28.14 6.056C28.452 5.948 28.956 5.912 34.332 5.54C34.284 5.42 34.212 5.192 34.176 5.036L28.572 5.372L28.128 5.6L28.14 6.056ZM25.104 1.544C25.836 1.988 26.676 2.684 27.06 3.164L27.444 2.72C27.036 2.252 26.196 1.592 25.464 1.148L25.104 1.544ZM24.54 4.844C25.32 5.192 26.232 5.768 26.7 6.188L27.024 5.708C26.568 5.288 25.632 4.748 24.864 4.412L24.54 4.844ZM24.888 11.336L25.38 11.732C26.076 10.64 26.964 9.068 27.6 7.796L27.18 7.412C26.496 8.768 25.536 10.4 24.888 11.336ZM33.252 6.584V10.748C33.252 11.42 33.372 11.636 33.972 11.636C34.092 11.636 34.716 11.636 34.872 11.636C35.076 11.636 35.28 11.636 35.4 11.6C35.388 11.48 35.364 11.264 35.352 11.132C35.22 11.156 35.004 11.168 34.86 11.168C34.716 11.168 34.152 11.168 34.008 11.168C33.84 11.168 33.804 11.084 33.804 10.76V6.584H33.252ZM28.14 6.056C28.14 5.924 28.596 5.732 28.596 5.732V5.708C29.724 4.58 30.9 2.96 31.908 1.304L31.332 1.064C30.48 2.636 29.196 4.28 28.812 4.7C28.452 5.132 28.164 5.432 27.936 5.48C28.008 5.636 28.104 5.936 28.14 6.056ZM43.74 6.536V11.372H44.304V6.536H43.74ZM40.572 11.036V11.564H47.436V11.036H40.572ZM41.268 8.588V9.116H46.908V8.588H41.268ZM41.964 2.168H46.164V4.748H41.964V2.168ZM41.412 1.652V5.288H46.716V1.652H41.412ZM46.452 5.888C45.264 6.26 42.924 6.5 41.052 6.62C41.124 6.764 41.184 6.968 41.208 7.1C43.128 6.992 45.504 6.74 46.896 6.332L46.452 5.888ZM38.736 1.916V11.864H39.312V1.916H38.736ZM36.636 4.376V4.928H40.956V4.376H36.636ZM38.76 4.58C38.304 6.152 37.284 8.096 36.396 9.056C36.504 9.176 36.672 9.404 36.732 9.56C37.644 8.492 38.676 6.416 39.168 4.736L38.76 4.58ZM40.476 1.196C39.624 1.592 37.98 1.94 36.612 2.156C36.684 2.3 36.768 2.48 36.792 2.612C38.184 2.42 39.876 2.072 40.92 1.64L40.476 1.196ZM39.264 5.852L38.964 6.092C39.336 6.452 40.344 7.64 40.632 8.072L41.004 7.604C40.74 7.304 39.576 6.116 39.264 5.852ZM48.108 13.136H48.684L52.632 1.568H52.068L48.108 13.136ZM53.4067 1.676V2.192H59.2627V1.676H53.4067ZM53.2867 6.392V6.92H59.3947V6.392H53.2867ZM57.7747 6.764V11.228C57.7747 11.36 57.7387 11.396 57.5827 11.408C57.4387 11.408 56.9347 11.408 56.3347 11.396C56.4067 11.54 56.4907 11.744 56.5267 11.876C57.2707 11.876 57.7387 11.876 57.9787 11.78C58.2427 11.708 58.3147 11.564 58.3147 11.216V6.764H57.7747ZM54.2467 7.832V8.324H56.2867V9.836H54.2467V10.316H56.7907V7.832H54.2467ZM53.9827 7.832V10.892H54.4987V7.832H53.9827ZM57.7147 1.832V6.608H58.2427V1.832H57.7147ZM60.1867 3.02V3.572H63.6547V3.02H60.1867ZM60.4387 0.991999C60.1387 2.804 59.6227 4.532 58.8067 5.672C58.9627 5.744 59.2147 5.888 59.3227 5.96C60.1267 4.784 60.6787 2.996 61.0147 1.076L60.4387 0.991999ZM63.4867 3.02V3.164C63.3427 4.076 63.0907 5.228 62.8267 5.912L63.3187 6.056C63.6067 5.324 63.8947 4.124 64.0867 3.128L63.6907 2.996L63.5947 3.02H63.4867ZM61.7467 6.008L61.2427 6.104C61.6627 8.852 62.3707 10.496 63.9907 11.936C64.0747 11.768 64.2427 11.588 64.3987 11.48C62.8387 10.148 62.1547 8.636 61.7467 6.008ZM61.2427 4.376V5.156C61.2427 6.956 61.0747 9.524 58.6747 11.552C58.8067 11.648 59.0107 11.828 59.0947 11.96C61.5907 9.824 61.8067 7.1 61.8067 5.156V4.376H61.2427ZM54.6187 3.536H56.3227V4.964H54.6187V3.536ZM54.1267 3.056V5.432H56.8267V3.056H54.1267ZM65.9947 2.192V2.744H68.0467V8.12H65.9947V8.684H68.5987V2.192H65.9947ZM65.7547 2.192V9.884H66.3067V2.192H65.7547ZM69.6667 8.768V9.284H75.3667V8.768H69.6667ZM69.6667 10.856V11.372H75.3667V10.856H69.6667ZM69.4027 6.764V11.876H69.9787V7.28H75.1387V11.828H75.7387V6.764H69.4027ZM70.3747 3.896H74.6947V5.288H70.3747V3.896ZM70.3747 2.036H74.6947V3.416H70.3747V2.036ZM69.8227 1.532V5.792H75.2707V1.532H69.8227ZM81.1987 2.984V3.536H87.7507V2.984H81.1987ZM81.4627 5.564V6.104H86.8507V5.564H81.4627ZM84.1627 0.991999V5.888H84.7507V0.991999H84.1627ZM82.3867 5.912L81.8707 6.068C82.8787 8.96 84.8947 11.036 87.7747 11.9C87.8707 11.756 88.0267 11.528 88.1707 11.408C85.3147 10.628 83.3227 8.612 82.3867 5.912ZM86.8147 5.564V5.672C85.8667 8.732 83.1667 10.64 80.5147 11.372C80.6227 11.504 80.7667 11.744 80.8267 11.9C83.6107 11.048 86.3467 9.08 87.4147 5.708L87.0547 5.528L86.9347 5.564H86.8147ZM77.2267 7.496L77.4187 8.06C78.4627 7.736 79.8307 7.304 81.1267 6.884L81.0547 6.368C79.6507 6.788 78.1987 7.232 77.2267 7.496ZM77.3707 3.5V4.052H81.0067V3.5H77.3707ZM79.0147 1.004V11.108C79.0147 11.288 78.9427 11.348 78.7867 11.348C78.6307 11.36 78.1027 11.36 77.4787 11.348C77.5627 11.504 77.6587 11.744 77.6827 11.876C78.4867 11.888 78.9427 11.876 79.2067 11.78C79.4707 11.684 79.5907 11.504 79.5907 11.096V1.004H79.0147ZM89.2747 2.6V3.164H93.5947V2.6H89.2747ZM93.6307 1.748V2.324H100.171V1.748H93.6307ZM91.2187 2.768V9.02H91.7947V2.768H91.2187ZM89.1907 9.236L89.3107 9.824C90.4987 9.524 92.1787 9.14 93.7867 8.756L93.7267 8.192C92.0467 8.6 90.3187 8.996 89.1907 9.236ZM95.6347 2.012C95.3587 3.404 94.9027 5.36 94.5427 6.5H95.1667C95.4787 5.384 95.9227 3.452 96.2347 2.012H95.6347ZM99.2827 5.924V6.044C99.0187 9.368 98.7787 10.688 98.3587 11.048C98.2387 11.168 98.0587 11.192 97.7707 11.192C97.4347 11.192 96.5107 11.18 95.5507 11.084C95.6707 11.252 95.7547 11.504 95.7787 11.672C96.6667 11.732 97.5187 11.756 97.9267 11.744C98.3707 11.72 98.6107 11.66 98.8507 11.408C99.3427 10.952 99.5827 9.656 99.8467 6.248C99.8587 6.152 99.8707 5.924 99.8707 5.924H99.2827ZM94.9747 5.924L94.8187 6.5H99.4987V5.924H94.9747ZM100.831 13.136H101.407L105.355 1.568H104.791L100.831 13.136ZM2.472 19.36V19.924H9.708V19.36H2.472ZM2.472 22V22.552H9.708V22H2.472ZM2.472 24.64V25.204H9.708V24.64H2.472ZM2.088 16.684V25.924H2.664V17.236H9.516V25.84H10.104V16.684H2.088ZM5.652 14.968C5.508 15.532 5.22 16.384 4.98 16.924L5.484 17.032C5.76 16.528 6.036 15.748 6.288 15.076L5.652 14.968ZM16.572 16.348V16.876H23.316V16.348H16.572ZM16.668 21.844V22.36H23.28V21.844H16.668ZM18.06 18.208V18.7H21.816V18.208H18.06ZM17.772 14.992V20.572H22.152V14.992H21.588V20.056H18.324V14.992H17.772ZM19.68 20.5V25.888H20.244V20.5H19.68ZM12.744 21.592C14.004 22.54 15.48 23.944 16.176 24.856L16.548 24.4C15.852 23.512 14.352 22.156 13.08 21.208L12.744 21.592ZM12.744 21.592L13.248 21.712C13.716 20.068 14.316 17.152 14.556 15.04L14.04 15.016C13.824 17.068 13.236 19.972 12.744 21.592ZM15.42 16.696V18.196C15.42 20.368 15.228 23.248 12.432 25.516C12.564 25.588 12.756 25.756 12.84 25.864C15.708 23.512 15.948 20.488 15.948 18.184V16.696H15.42ZM12.48 17.752L12.552 18.316C13.656 18.244 15.156 18.172 16.62 18.076V17.548C15.072 17.632 13.536 17.716 12.48 17.752ZM18.54 22.84C18.132 23.8 17.316 24.796 16.512 25.264C16.632 25.36 16.812 25.552 16.908 25.696C17.736 25.156 18.564 24.064 18.996 22.996L18.54 22.84ZM20.94 23.044C21.648 23.86 22.476 24.976 22.896 25.648L23.352 25.396C22.944 24.736 22.08 23.644 21.384 22.852L20.94 23.044ZM29.4 20.224V20.716H35.328V20.224H29.4ZM29.244 25.132V25.624H35.448V25.132H29.244ZM31.236 14.992V16.288H31.74V14.992H31.236ZM32.82 14.992V16.288H33.336V14.992H32.82ZM30.18 17.932H34.452V19H30.18V17.932ZM30.18 16.432H34.452V17.476H30.18V16.432ZM29.676 15.952V19.468H34.968V15.952H29.676ZM30.576 21.856H34.128V23.092H30.576V21.856ZM30.048 21.4V23.548H34.668V21.4H30.048ZM33.552 23.656C33.42 24.112 33.144 24.82 32.916 25.252L33.324 25.396C33.564 24.988 33.852 24.364 34.092 23.824L33.552 23.656ZM30.684 23.836C30.888 24.328 31.14 24.976 31.236 25.384L31.728 25.228C31.62 24.832 31.368 24.184 31.152 23.704L30.684 23.836ZM31.284 16.156V19.252H31.74V16.156H31.284ZM32.832 16.156V19.252H33.3V16.156H32.832ZM25.548 20.176V20.644H28.38V20.176H25.548ZM28.032 20.176V25.156C28.032 25.288 27.984 25.336 27.852 25.336C27.72 25.348 27.276 25.348 26.724 25.336C26.796 25.468 26.88 25.672 26.904 25.804C27.624 25.804 28.02 25.804 28.26 25.72C28.488 25.624 28.56 25.468 28.56 25.168V20.176H28.032ZM25.236 15.448V18.964H25.74V15.928H28.068V18.964H28.596V15.448H25.236ZM24.72 18.724V20.368H25.212V19.204H28.608V20.368H29.112V18.724H24.72ZM26.664 16.888V18.94H27.096V17.32H28.38V16.888H26.664ZM25.32 20.176V22.42C25.32 23.392 25.236 24.64 24.564 25.588C24.696 25.648 24.9 25.816 24.984 25.936C25.704 24.904 25.836 23.476 25.836 22.42V20.176H25.32ZM25.86 23.956L26.148 24.412C26.832 24.028 27.612 23.548 28.404 23.08L28.272 22.696C27.372 23.188 26.484 23.668 25.86 23.956ZM26.064 21.52C26.556 21.844 27.144 22.336 27.444 22.66L27.804 22.276C27.492 21.976 26.904 21.544 26.376 21.196L26.064 21.52ZM37.272 25H37.944V19.768C37.944 18.892 37.896 18.076 37.86 17.224H37.908L38.892 18.988L42.456 25H43.212V16.252H42.516V21.436C42.516 22.3 42.576 23.176 42.624 24.028H42.564L41.592 22.276L38.016 16.252H37.272V25ZM45.7564 25H46.4644V20.848H49.9444V20.248H46.4644V16.876H50.5804V16.252H45.7564V25ZM54.0031 25H54.7351V16.876H57.4831V16.252H51.2551V16.876H54.0031V25Z" fill="#007282"/>
</svg>
