<svg width="163" height="14" viewBox="0 0 163 14" fill="none" xmlns="http://www.w3.org/2000/svg">
<path d="M5.7 7.748C4.56 8.72 2.316 9.584 0.504 9.968C0.624 10.076 0.78 10.28 0.864 10.424C2.664 10.004 4.956 9.056 6.18 7.988L5.7 7.748ZM6.384 7.724L5.892 7.868C6.756 9.92 8.592 11.228 11.076 11.744C11.16 11.588 11.304 11.372 11.424 11.252C8.988 10.82 7.164 9.596 6.384 7.724ZM10.152 8.336C9.504 8.804 8.388 9.416 7.56 9.8L7.944 10.1C8.784 9.728 9.828 9.188 10.596 8.648L10.152 8.336ZM0.708 7.58V8.096H11.304V7.58H0.708ZM7.788 1.616V5.54H8.328V1.616H7.788ZM10.032 1.124V6.2C10.032 6.356 9.984 6.404 9.804 6.404C9.636 6.416 9.048 6.428 8.328 6.404C8.412 6.56 8.496 6.764 8.532 6.92C9.384 6.92 9.912 6.92 10.2 6.824C10.488 6.728 10.572 6.572 10.572 6.212V1.124H10.032ZM3.504 0.991999V7.016H4.032V0.991999H3.504ZM5.808 4.496V6.02C5.808 6.116 5.784 6.152 5.676 6.164C5.568 6.176 5.244 6.176 4.776 6.164C4.848 6.296 4.944 6.464 4.956 6.596C5.508 6.596 5.856 6.596 6.06 6.5C6.288 6.428 6.324 6.284 6.324 6.02V4.496H5.808ZM1.356 4.496V6.68H1.848V4.952H6.072V4.496H1.356ZM0.648 3.26V3.728H6.72V3.26H0.648ZM1.848 1.892L1.656 2.372H6.252V1.892H1.848ZM1.908 1.04C1.68 1.724 1.356 2.42 0.924 2.936C1.056 2.984 1.296 3.092 1.392 3.164C1.776 2.66 2.16 1.88 2.412 1.16L1.908 1.04ZM2.832 11.876C3.048 11.744 3.396 11.648 6.756 10.832C6.744 10.724 6.744 10.532 6.756 10.376L3.132 11.168L2.82 11.42L2.832 11.876ZM2.844 11.864C2.844 11.624 3.648 11.156 3.648 11.156V9.296H3.072V10.58C3.072 11.072 2.76 11.276 2.58 11.384C2.676 11.492 2.796 11.732 2.844 11.864ZM5.508 6.752C5.724 7.112 5.988 7.616 6.084 7.916L6.636 7.724C6.528 7.436 6.276 6.944 6.036 6.596L5.508 6.752ZM17.808 3.032L17.532 3.596H23.46V3.032H17.808ZM19.248 5.612V6.152H23.208V5.612H19.248ZM19.248 8.252V8.816H23.376V8.252H19.248ZM18.972 3.212V11.888H19.56V3.212H18.972ZM18.372 1.16C17.76 2.936 16.776 4.688 15.672 5.84C15.804 5.936 16.044 6.128 16.128 6.224C17.232 5 18.252 3.188 18.936 1.292L18.372 1.16ZM15.66 1.04C14.94 2.924 13.776 4.784 12.528 5.984C12.648 6.104 12.828 6.404 12.9 6.524C14.196 5.204 15.408 3.236 16.212 1.208L15.66 1.04ZM14.34 3.992V11.876H14.928V3.44L14.904 3.416L14.34 3.992ZM27.684 2.636V3.164H35.232V2.636H27.684ZM31.032 6.644V11.384H31.572V6.644H31.032ZM28.848 6.596V7.904C28.848 9.056 28.704 10.424 27.288 11.468C27.42 11.54 27.612 11.732 27.708 11.84C29.208 10.712 29.388 9.224 29.388 7.916V6.596H28.848ZM32.604 3.812C33.348 4.676 34.296 5.84 34.764 6.512L35.232 6.2C34.764 5.528 33.816 4.4 33.06 3.56L32.604 3.812ZM28.14 6.056C28.452 5.948 28.956 5.912 34.332 5.54C34.284 5.42 34.212 5.192 34.176 5.036L28.572 5.372L28.128 5.6L28.14 6.056ZM25.104 1.544C25.836 1.988 26.676 2.684 27.06 3.164L27.444 2.72C27.036 2.252 26.196 1.592 25.464 1.148L25.104 1.544ZM24.54 4.844C25.32 5.192 26.232 5.768 26.7 6.188L27.024 5.708C26.568 5.288 25.632 4.748 24.864 4.412L24.54 4.844ZM24.888 11.336L25.38 11.732C26.076 10.64 26.964 9.068 27.6 7.796L27.18 7.412C26.496 8.768 25.536 10.4 24.888 11.336ZM33.252 6.584V10.748C33.252 11.42 33.372 11.636 33.972 11.636C34.092 11.636 34.716 11.636 34.872 11.636C35.076 11.636 35.28 11.636 35.4 11.6C35.388 11.48 35.364 11.264 35.352 11.132C35.22 11.156 35.004 11.168 34.86 11.168C34.716 11.168 34.152 11.168 34.008 11.168C33.84 11.168 33.804 11.084 33.804 10.76V6.584H33.252ZM28.14 6.056C28.14 5.924 28.596 5.732 28.596 5.732V5.708C29.724 4.58 30.9 2.96 31.908 1.304L31.332 1.064C30.48 2.636 29.196 4.28 28.812 4.7C28.452 5.132 28.164 5.432 27.936 5.48C28.008 5.636 28.104 5.936 28.14 6.056ZM43.74 6.536V11.372H44.304V6.536H43.74ZM40.572 11.036V11.564H47.436V11.036H40.572ZM41.268 8.588V9.116H46.908V8.588H41.268ZM41.964 2.168H46.164V4.748H41.964V2.168ZM41.412 1.652V5.288H46.716V1.652H41.412ZM46.452 5.888C45.264 6.26 42.924 6.5 41.052 6.62C41.124 6.764 41.184 6.968 41.208 7.1C43.128 6.992 45.504 6.74 46.896 6.332L46.452 5.888ZM38.736 1.916V11.864H39.312V1.916H38.736ZM36.636 4.376V4.928H40.956V4.376H36.636ZM38.76 4.58C38.304 6.152 37.284 8.096 36.396 9.056C36.504 9.176 36.672 9.404 36.732 9.56C37.644 8.492 38.676 6.416 39.168 4.736L38.76 4.58ZM40.476 1.196C39.624 1.592 37.98 1.94 36.612 2.156C36.684 2.3 36.768 2.48 36.792 2.612C38.184 2.42 39.876 2.072 40.92 1.64L40.476 1.196ZM39.264 5.852L38.964 6.092C39.336 6.452 40.344 7.64 40.632 8.072L41.004 7.604C40.74 7.304 39.576 6.116 39.264 5.852ZM48.108 13.136H48.684L52.632 1.568H52.068L48.108 13.136ZM53.4067 1.676V2.192H59.2627V1.676H53.4067ZM53.2867 6.392V6.92H59.3947V6.392H53.2867ZM57.7747 6.764V11.228C57.7747 11.36 57.7387 11.396 57.5827 11.408C57.4387 11.408 56.9347 11.408 56.3347 11.396C56.4067 11.54 56.4907 11.744 56.5267 11.876C57.2707 11.876 57.7387 11.876 57.9787 11.78C58.2427 11.708 58.3147 11.564 58.3147 11.216V6.764H57.7747ZM54.2467 7.832V8.324H56.2867V9.836H54.2467V10.316H56.7907V7.832H54.2467ZM53.9827 7.832V10.892H54.4987V7.832H53.9827ZM57.7147 1.832V6.608H58.2427V1.832H57.7147ZM60.1867 3.02V3.572H63.6547V3.02H60.1867ZM60.4387 0.991999C60.1387 2.804 59.6227 4.532 58.8067 5.672C58.9627 5.744 59.2147 5.888 59.3227 5.96C60.1267 4.784 60.6787 2.996 61.0147 1.076L60.4387 0.991999ZM63.4867 3.02V3.164C63.3427 4.076 63.0907 5.228 62.8267 5.912L63.3187 6.056C63.6067 5.324 63.8947 4.124 64.0867 3.128L63.6907 2.996L63.5947 3.02H63.4867ZM61.7467 6.008L61.2427 6.104C61.6627 8.852 62.3707 10.496 63.9907 11.936C64.0747 11.768 64.2427 11.588 64.3987 11.48C62.8387 10.148 62.1547 8.636 61.7467 6.008ZM61.2427 4.376V5.156C61.2427 6.956 61.0747 9.524 58.6747 11.552C58.8067 11.648 59.0107 11.828 59.0947 11.96C61.5907 9.824 61.8067 7.1 61.8067 5.156V4.376H61.2427ZM54.6187 3.536H56.3227V4.964H54.6187V3.536ZM54.1267 3.056V5.432H56.8267V3.056H54.1267ZM65.9947 2.192V2.744H68.0467V8.12H65.9947V8.684H68.5987V2.192H65.9947ZM65.7547 2.192V9.884H66.3067V2.192H65.7547ZM69.6667 8.768V9.284H75.3667V8.768H69.6667ZM69.6667 10.856V11.372H75.3667V10.856H69.6667ZM69.4027 6.764V11.876H69.9787V7.28H75.1387V11.828H75.7387V6.764H69.4027ZM70.3747 3.896H74.6947V5.288H70.3747V3.896ZM70.3747 2.036H74.6947V3.416H70.3747V2.036ZM69.8227 1.532V5.792H75.2707V1.532H69.8227ZM81.1987 2.984V3.536H87.7507V2.984H81.1987ZM81.4627 5.564V6.104H86.8507V5.564H81.4627ZM84.1627 0.991999V5.888H84.7507V0.991999H84.1627ZM82.3867 5.912L81.8707 6.068C82.8787 8.96 84.8947 11.036 87.7747 11.9C87.8707 11.756 88.0267 11.528 88.1707 11.408C85.3147 10.628 83.3227 8.612 82.3867 5.912ZM86.8147 5.564V5.672C85.8667 8.732 83.1667 10.64 80.5147 11.372C80.6227 11.504 80.7667 11.744 80.8267 11.9C83.6107 11.048 86.3467 9.08 87.4147 5.708L87.0547 5.528L86.9347 5.564H86.8147ZM77.2267 7.496L77.4187 8.06C78.4627 7.736 79.8307 7.304 81.1267 6.884L81.0547 6.368C79.6507 6.788 78.1987 7.232 77.2267 7.496ZM77.3707 3.5V4.052H81.0067V3.5H77.3707ZM79.0147 1.004V11.108C79.0147 11.288 78.9427 11.348 78.7867 11.348C78.6307 11.36 78.1027 11.36 77.4787 11.348C77.5627 11.504 77.6587 11.744 77.6827 11.876C78.4867 11.888 78.9427 11.876 79.2067 11.78C79.4707 11.684 79.5907 11.504 79.5907 11.096V1.004H79.0147ZM89.2747 2.6V3.164H93.5947V2.6H89.2747ZM93.6307 1.748V2.324H100.171V1.748H93.6307ZM91.2187 2.768V9.02H91.7947V2.768H91.2187ZM89.1907 9.236L89.3107 9.824C90.4987 9.524 92.1787 9.14 93.7867 8.756L93.7267 8.192C92.0467 8.6 90.3187 8.996 89.1907 9.236ZM95.6347 2.012C95.3587 3.404 94.9027 5.36 94.5427 6.5H95.1667C95.4787 5.384 95.9227 3.452 96.2347 2.012H95.6347ZM99.2827 5.924V6.044C99.0187 9.368 98.7787 10.688 98.3587 11.048C98.2387 11.168 98.0587 11.192 97.7707 11.192C97.4347 11.192 96.5107 11.18 95.5507 11.084C95.6707 11.252 95.7547 11.504 95.7787 11.672C96.6667 11.732 97.5187 11.756 97.9267 11.744C98.3707 11.72 98.6107 11.66 98.8507 11.408C99.3427 10.952 99.5827 9.656 99.8467 6.248C99.8587 6.152 99.8707 5.924 99.8707 5.924H99.2827ZM94.9747 5.924L94.8187 6.5H99.4987V5.924H94.9747ZM100.831 13.136H101.407L105.355 1.568H104.791L100.831 13.136ZM107.917 5.36V5.924H115.153V5.36H107.917ZM107.917 8V8.552H115.153V8H107.917ZM107.917 10.64V11.204H115.153V10.64H107.917ZM107.533 2.684V11.924H108.109V3.236H114.961V11.84H115.549V2.684H107.533ZM111.097 0.968C110.953 1.532 110.665 2.384 110.425 2.924L110.929 3.032C111.205 2.528 111.481 1.748 111.733 1.076L111.097 0.968ZM122.017 2.348V2.876H128.761V2.348H122.017ZM122.113 7.844V8.36H128.725V7.844H122.113ZM123.505 4.208V4.7H127.261V4.208H123.505ZM123.217 0.991999V6.572H127.597V0.991999H127.033V6.056H123.769V0.991999H123.217ZM125.125 6.5V11.888H125.689V6.5H125.125ZM118.189 7.592C119.449 8.54 120.925 9.944 121.621 10.856L121.993 10.4C121.297 9.512 119.797 8.156 118.525 7.208L118.189 7.592ZM118.189 7.592L118.693 7.712C119.161 6.068 119.761 3.152 120.001 1.04L119.485 1.016C119.269 3.068 118.681 5.972 118.189 7.592ZM120.865 2.696V4.196C120.865 6.368 120.673 9.248 117.877 11.516C118.009 11.588 118.201 11.756 118.285 11.864C121.153 9.512 121.393 6.488 121.393 4.184V2.696H120.865ZM117.925 3.752L117.997 4.316C119.101 4.244 120.601 4.172 122.065 4.076V3.548C120.517 3.632 118.981 3.716 117.925 3.752ZM123.985 8.84C123.577 9.8 122.761 10.796 121.957 11.264C122.077 11.36 122.257 11.552 122.353 11.696C123.181 11.156 124.009 10.064 124.441 8.996L123.985 8.84ZM126.385 9.044C127.093 9.86 127.921 10.976 128.341 11.648L128.797 11.396C128.389 10.736 127.525 9.644 126.829 8.852L126.385 9.044ZM134.845 6.224V6.716H140.773V6.224H134.845ZM134.689 11.132V11.624H140.893V11.132H134.689ZM136.681 0.991999V2.288H137.185V0.991999H136.681ZM138.265 0.991999V2.288H138.781V0.991999H138.265ZM135.625 3.932H139.897V5H135.625V3.932ZM135.625 2.432H139.897V3.476H135.625V2.432ZM135.121 1.952V5.468H140.413V1.952H135.121ZM136.021 7.856H139.573V9.092H136.021V7.856ZM135.493 7.4V9.548H140.113V7.4H135.493ZM138.997 9.656C138.865 10.112 138.589 10.82 138.361 11.252L138.769 11.396C139.009 10.988 139.297 10.364 139.537 9.824L138.997 9.656ZM136.129 9.836C136.333 10.328 136.585 10.976 136.681 11.384L137.173 11.228C137.065 10.832 136.813 10.184 136.597 9.704L136.129 9.836ZM136.729 2.156V5.252H137.185V2.156H136.729ZM138.277 2.156V5.252H138.745V2.156H138.277ZM130.993 6.176V6.644H133.825V6.176H130.993ZM133.477 6.176V11.156C133.477 11.288 133.429 11.336 133.297 11.336C133.165 11.348 132.721 11.348 132.169 11.336C132.241 11.468 132.325 11.672 132.349 11.804C133.069 11.804 133.465 11.804 133.705 11.72C133.933 11.624 134.005 11.468 134.005 11.168V6.176H133.477ZM130.681 1.448V4.964H131.185V1.928H133.513V4.964H134.041V1.448H130.681ZM130.165 4.724V6.368H130.657V5.204H134.053V6.368H134.557V4.724H130.165ZM132.109 2.888V4.94H132.541V3.32H133.825V2.888H132.109ZM130.765 6.176V8.42C130.765 9.392 130.681 10.64 130.009 11.588C130.141 11.648 130.345 11.816 130.429 11.936C131.149 10.904 131.281 9.476 131.281 8.42V6.176H130.765ZM131.305 9.956L131.593 10.412C132.277 10.028 133.057 9.548 133.849 9.08L133.717 8.696C132.817 9.188 131.929 9.668 131.305 9.956ZM131.509 7.52C132.001 7.844 132.589 8.336 132.889 8.66L133.249 8.276C132.937 7.976 132.349 7.544 131.821 7.196L131.509 7.52ZM142.717 11H143.389V5.768C143.389 4.892 143.341 4.076 143.305 3.224H143.353L144.337 4.988L147.901 11H148.657V2.252H147.961V7.436C147.961 8.3 148.021 9.176 148.069 10.028H148.009L147.037 8.276L143.461 2.252H142.717V11ZM151.202 11H151.91V6.848H155.39V6.248H151.91V2.876H156.026V2.252H151.202V11ZM159.448 11H160.18V2.876H162.928V2.252H156.7V2.876H159.448V11Z" fill="#007282"/>
</svg>
