<svg width="106" height="26" viewBox="0 0 106 26" fill="none" xmlns="http://www.w3.org/2000/svg">
<path d="M1.032 2.096V3.896H1.584V2.6H10.428V3.896H10.992V2.096H1.032ZM5.832 3.476C5.796 4.208 5.712 5.144 5.616 5.756H6.144C6.228 5.168 6.3 4.232 6.36 3.476H5.832ZM2.832 8.048H9.24V8.708H2.832V8.048ZM2.832 9.128H9.24V9.812H2.832V9.128ZM2.832 6.98H9.24V7.628H2.832V6.98ZM2.268 6.548V10.232H9.828V6.548H2.268ZM6.912 10.736C8.328 11.132 9.732 11.588 10.62 11.912L11.004 11.504C10.056 11.168 8.616 10.736 7.212 10.376L6.912 10.736ZM3.228 3.692H9.012L8.88 5.516H2.988L3.228 3.692ZM2.748 3.272L2.4 5.948H9.384L9.612 3.272H2.748ZM4.572 10.364C3.828 10.796 2.196 11.24 0.936 11.468C1.044 11.588 1.2 11.792 1.272 11.9C2.556 11.672 4.14 11.216 5.124 10.676L4.572 10.364ZM0.612 4.34V4.832H3.084V4.796H8.928V4.832H11.412V4.34H8.928V4.364H3.084V4.34H0.612ZM5.196 1.1C5.544 1.508 5.892 2.084 6.024 2.468L6.564 2.264C6.408 1.88 6.048 1.316 5.7 0.908L5.196 1.1ZM12.708 1.628V2.144H16.896V1.628H12.708ZM17.244 7.724V8.264H22.644V7.724H17.244ZM12.6 5.216V5.756H17.136V5.216H12.6ZM14.796 5.432V11.156C14.796 11.288 14.748 11.324 14.616 11.336C14.46 11.336 13.992 11.336 13.428 11.324C13.524 11.48 13.596 11.72 13.62 11.852C14.352 11.852 14.772 11.852 15.024 11.768C15.276 11.66 15.36 11.504 15.36 11.144V5.432H14.796ZM22.428 7.724V7.832C22.224 10.088 21.996 10.988 21.72 11.252C21.612 11.348 21.504 11.36 21.3 11.36C21.108 11.36 20.568 11.348 20.004 11.3C20.088 11.456 20.148 11.696 20.16 11.852C20.7 11.9 21.24 11.888 21.492 11.888C21.804 11.864 21.996 11.804 22.188 11.636C22.536 11.288 22.764 10.388 23.004 8.036C23.016 7.928 23.028 7.724 23.028 7.724H22.428ZM19.704 6.464C19.476 8.612 18.912 10.532 16.416 11.444C16.536 11.552 16.704 11.768 16.776 11.9C19.404 10.892 20.04 8.864 20.292 6.464H19.704ZM13.212 3.332C14.244 3.812 15.444 4.616 16.02 5.204L16.404 4.772C15.816 4.172 14.604 3.416 13.584 2.948L13.212 3.332ZM16.968 5.216V5.348C16.728 6.188 16.368 7.232 16.008 7.856L16.44 8.084C16.848 7.388 17.232 6.284 17.532 5.324L17.16 5.192L17.052 5.216H16.968ZM21.768 2.516C21.084 4.46 19.344 5.624 17.172 6.236C17.292 6.356 17.472 6.608 17.532 6.728C19.752 5.996 21.564 4.772 22.368 2.624L21.768 2.516ZM19.116 0.991999C18.624 2.168 17.772 3.26 16.812 3.968C16.968 4.064 17.208 4.232 17.304 4.34C18.228 3.572 19.14 2.408 19.68 1.136L19.116 0.991999ZM18.672 2.732L18.192 2.912C19.116 4.784 21.012 6.188 23.184 6.788C23.268 6.632 23.436 6.404 23.568 6.296C21.396 5.78 19.548 4.46 18.672 2.732ZM14.688 5.372C14.28 6.86 13.38 8.576 12.528 9.416C12.636 9.548 12.804 9.788 12.876 9.932C13.764 8.984 14.664 7.112 15.12 5.528L14.688 5.372ZM18.72 2.288L18.456 2.804H23.352V2.288H18.72ZM16.752 1.628V1.748C16.32 2.408 15.432 3.272 14.664 3.764C14.784 3.848 14.976 3.968 15.084 4.064C15.888 3.536 16.812 2.66 17.376 1.844L16.992 1.592L16.884 1.628H16.752ZM29.676 7.172V11.888H30.264V7.172H29.676ZM25.02 1.94V3.608H25.572V2.468H34.476V3.608H35.04V1.94H25.02ZM24.828 4.028V4.532H35.22V4.028H24.828ZM24.672 8.276V8.804H35.34V8.276H24.672ZM32.676 3.128C31.824 5.684 29.52 6.704 24.852 6.944C24.948 7.088 25.032 7.292 25.08 7.472C29.832 7.16 32.34 6.044 33.24 3.308L32.676 3.128ZM26.412 5.828C29.664 6.332 32.628 6.98 34.392 7.604L34.98 7.208C33.084 6.584 29.988 5.9 26.916 5.444L26.412 5.828ZM29.34 1.124C29.604 1.472 29.928 1.964 30.072 2.288L30.612 2.06C30.468 1.772 30.144 1.292 29.868 0.956L29.34 1.124ZM26.412 5.828H27.12C27.912 5.144 29.076 3.956 29.772 2.936L29.172 2.744C28.5 3.752 27.312 5.024 26.412 5.828ZM27.912 9.212C27.228 9.944 26.028 10.604 24.936 11.024C25.068 11.132 25.296 11.324 25.392 11.444C26.46 10.964 27.72 10.208 28.476 9.404L27.912 9.212ZM31.416 9.512C32.556 10.028 33.936 10.844 34.632 11.444L35.028 11C34.32 10.424 32.916 9.62 31.776 9.128L31.416 9.512ZM39.636 1.664V2.192H44.052V1.664H39.636ZM40.788 4.136L40.62 4.676H43.236V4.136H40.788ZM40.116 6.524C40.884 7.028 41.772 7.76 42.228 8.264L42.468 7.736C42.048 7.28 41.148 6.572 40.368 6.08L40.116 6.524ZM44.196 2.336V9.2H44.748V2.336H44.196ZM46.5 1.16V11.06C46.5 11.276 46.428 11.324 46.236 11.336C46.032 11.348 45.384 11.36 44.616 11.336C44.7 11.504 44.796 11.756 44.832 11.9C45.768 11.9 46.32 11.9 46.62 11.792C46.92 11.696 47.052 11.516 47.052 11.06V1.16H46.5ZM40.968 1.832C40.728 3.704 40.176 6.08 38.976 7.52C39.096 7.616 39.264 7.796 39.36 7.904C40.644 6.404 41.232 3.932 41.544 1.928L40.968 1.832ZM43.008 4.136V4.28C42.576 7.904 41.256 10.268 39.456 11.504C39.588 11.6 39.792 11.804 39.876 11.948C41.712 10.64 43.08 8.144 43.56 4.232L43.224 4.112L43.116 4.136H43.008ZM38.952 1.064C38.34 2.96 37.344 4.844 36.252 6.068C36.36 6.212 36.528 6.488 36.6 6.608C37.764 5.252 38.82 3.248 39.492 1.208L38.952 1.064ZM37.98 3.812V11.9H38.52V3.308L38.508 3.284L37.98 3.812ZM48.108 13.136H48.684L52.632 1.568H52.068L48.108 13.136ZM58.4467 3.632V4.196H64.1707V3.632H58.4467ZM62.2747 1.016V11C62.2747 11.216 62.2027 11.288 61.9747 11.288C61.7467 11.3 60.9427 11.312 60.1027 11.288C60.1747 11.468 60.2827 11.744 60.3187 11.9C61.3387 11.9 62.0107 11.9 62.3707 11.792C62.7187 11.696 62.8627 11.504 62.8627 10.976V1.016H62.2747ZM62.1907 3.872C61.3267 5.948 59.5507 8.288 57.9547 9.428C58.0867 9.548 58.2667 9.752 58.3507 9.908C59.9827 8.648 61.7467 6.284 62.6467 4.148L62.1907 3.872ZM53.5387 3.62V4.196H57.9427V3.62H53.5387ZM55.6387 0.991999V11.876H56.2147V0.991999H55.6387ZM55.6027 3.932C55.1467 5.804 54.0907 7.964 53.0947 9.056C53.2027 9.188 53.3707 9.416 53.4547 9.572C54.4747 8.384 55.5427 6.032 56.0467 4.076L55.6027 3.932ZM56.1547 4.46L55.8187 4.76C56.2267 5.252 57.4507 6.884 57.8107 7.496L58.2307 6.992C57.9067 6.56 56.5267 4.844 56.1547 4.46ZM69.8707 1.04C69.0787 1.268 67.5787 1.46 66.3307 1.58C66.3907 1.688 66.4747 1.868 66.4987 1.988C67.7827 1.904 69.3187 1.712 70.3027 1.424L69.8707 1.04ZM74.9707 1.064C74.1307 1.292 72.5347 1.472 71.1907 1.556C71.2627 1.688 71.3347 1.868 71.3707 1.976C72.7387 1.904 74.3827 1.736 75.4147 1.436L74.9707 1.064ZM66.5467 2.768V3.26H70.5187V2.768H66.5467ZM71.4427 2.768V3.26H76.0747V2.768H71.4427ZM68.5267 2.9V4.856H69.0667V2.9H68.5267ZM73.5547 2.9V4.892H74.0947V2.9H73.5547ZM67.5907 7.04H73.8187V8.072H67.5907V7.04ZM67.5907 8.516H73.8187V9.572H67.5907V8.516ZM67.5907 5.564H73.8187V6.584H67.5907V5.564ZM67.0147 5.108V10.04H74.4067V5.108H67.0147ZM71.9707 10.628C73.3267 11.024 74.7187 11.504 75.5947 11.876L75.8827 11.444C74.9947 11.072 73.5787 10.592 72.2227 10.232L71.9707 10.628ZM69.0067 10.232C68.1187 10.712 66.6307 11.156 65.4547 11.432C65.5627 11.552 65.7307 11.828 65.7787 11.948C66.9667 11.6 68.5267 11.036 69.4867 10.484L69.0067 10.232ZM66.3307 1.58V2.648C66.3307 3.32 66.1987 4.136 65.3827 4.772C65.5027 4.844 65.7067 5.048 65.7787 5.168C66.6667 4.448 66.8707 3.44 66.8707 2.648V1.58H66.3307ZM71.1907 1.556V2.456C71.1907 3.104 71.0707 3.956 70.3867 4.64C70.5067 4.688 70.7227 4.844 70.8187 4.952C71.5627 4.22 71.7307 3.2 71.7307 2.456V1.556H71.1907ZM82.5547 5.036V5.456H87.3307V5.036H82.5547ZM82.5547 6.248V6.668H87.3787V6.248H82.5547ZM82.4347 7.508V7.964H87.8947V7.508H82.4347ZM81.0187 2.696C80.4667 3.872 79.5667 5.048 78.6547 5.828C78.7747 5.9 78.9907 6.104 79.0747 6.188C79.9747 5.36 80.9107 4.112 81.5347 2.852L81.0187 2.696ZM82.9147 2.684C82.4467 3.764 81.6907 4.844 80.8987 5.576C81.0427 5.672 81.2587 5.828 81.3547 5.924C82.1107 5.156 82.9027 3.992 83.4307 2.828L82.9147 2.684ZM84.8947 4.004V7.712H85.4227V4.004H84.8947ZM81.6427 9.068V10.976C81.6427 11.648 81.8827 11.792 82.8307 11.792C83.0467 11.792 84.8107 11.792 85.0267 11.792C85.7827 11.792 85.9867 11.516 86.0347 10.364C85.8907 10.328 85.6627 10.244 85.5307 10.136C85.4947 11.156 85.4107 11.276 84.9667 11.276C84.6067 11.276 83.1307 11.276 82.8547 11.276C82.2787 11.276 82.1827 11.228 82.1827 10.976V9.068H81.6427ZM82.6747 8.672C83.4187 9.008 84.2827 9.536 84.7387 9.932L85.0987 9.524C84.6547 9.152 83.7547 8.648 83.0347 8.324L82.6747 8.672ZM85.7467 9.2C86.4787 9.896 87.2347 10.868 87.5707 11.528L88.0507 11.252C87.7147 10.604 86.9227 9.644 86.1907 8.96L85.7467 9.2ZM80.2747 9.092C79.9987 9.86 79.4947 10.76 78.7867 11.276L79.2427 11.564C79.9747 11.012 80.4307 10.088 80.7547 9.272L80.2747 9.092ZM82.7947 3.8L82.4467 4.256H87.6667V3.8H82.7947ZM82.2667 4.328V8.324H82.7827V3.848L82.2667 4.328ZM78.4027 1.976V2.504H88.1107V1.976H78.4027ZM78.0907 1.976V5.648C78.0907 7.4 78.0187 9.812 77.1427 11.564C77.2747 11.624 77.5027 11.804 77.5987 11.9C78.5107 10.076 78.6427 7.472 78.6427 5.648V1.976H78.0907ZM80.1907 4.568V8.336H80.7307V4.052H80.7187L80.1907 4.568ZM82.3747 0.943999C82.7347 1.376 83.0947 1.976 83.2627 2.396L83.7547 2.144C83.5987 1.76 83.2147 1.172 82.8547 0.74L82.3747 0.943999ZM84.2947 2.828C84.6187 3.14 84.9427 3.596 85.0987 3.92L85.5427 3.656C85.3747 3.356 85.0267 2.924 84.7027 2.6L84.2947 2.828ZM90.9667 1.856V2.42H98.9587V1.856H90.9667ZM90.9667 4.676V5.24H98.9107V4.676H90.9667ZM90.8707 7.568V8.12H98.9227V7.568H90.8707ZM90.6427 1.856V6.236C90.6427 7.928 90.4987 10.04 89.1667 11.564C89.2987 11.636 89.5267 11.828 89.6107 11.96C91.0147 10.364 91.2067 8.012 91.2067 6.236V1.856H90.6427ZM98.6827 1.856V10.952C98.6827 11.192 98.5987 11.264 98.3587 11.264C98.1307 11.276 97.2907 11.288 96.3547 11.264C96.4387 11.42 96.5467 11.684 96.5707 11.828C97.7347 11.84 98.4187 11.84 98.7667 11.744C99.1267 11.636 99.2587 11.432 99.2587 10.952V1.856H98.6827ZM94.4467 2.06V11.804H95.0347V2.06H94.4467ZM100.831 13.136H101.407L105.355 1.568H104.791L100.831 13.136ZM1.14 16.036V16.624H8.94V16.036H1.14ZM8.88 16.036C1.476 22.252 1.116 23.2 1.116 24.04C1.116 24.928 1.884 25.444 3.42 25.444H9.336C10.656 25.444 11.004 24.916 11.136 22.612C10.968 22.576 10.692 22.492 10.536 22.396C10.452 24.388 10.272 24.856 9.348 24.856H3.312C2.4 24.856 1.74 24.592 1.74 24.004C1.74 23.368 2.148 22.456 9.396 16.372C9.456 16.348 9.504 16.312 9.528 16.276L9.132 16L8.988 16.036H8.88ZM15.804 19.588C16.164 20.404 16.548 21.472 16.68 22.12L17.172 21.928C17.052 21.304 16.656 20.248 16.272 19.444L15.804 19.588ZM14.604 22.648C14.736 23.416 14.856 24.412 14.892 25.072L15.396 24.964C15.36 24.316 15.216 23.332 15.072 22.564L14.604 22.648ZM13.332 22.6C13.2 23.572 12.984 24.64 12.696 25.396C12.84 25.444 13.08 25.54 13.188 25.588C13.452 24.844 13.692 23.704 13.848 22.684L13.332 22.6ZM12.912 19.324C12.912 19.18 13.344 18.976 13.344 18.976V18.964C14.148 17.992 14.952 16.588 15.6 15.22L15.048 14.98C14.52 16.3 13.632 17.704 13.368 18.064C13.104 18.436 12.9 18.7 12.708 18.736C12.78 18.892 12.876 19.192 12.912 19.324ZM12.912 19.324C13.068 19.24 13.368 19.18 15.3 18.952C15.3 18.832 15.312 18.616 15.336 18.46L13.224 18.652L12.9 18.844L12.912 19.324ZM12.984 21.976C12.984 21.832 13.416 21.652 13.416 21.652V21.64C14.532 20.452 15.66 18.784 16.608 17.116L16.068 16.828C15.276 18.448 14.028 20.152 13.632 20.596C13.284 21.04 13.008 21.364 12.792 21.4C12.864 21.556 12.948 21.844 12.984 21.976ZM12.984 21.976C13.188 21.868 13.548 21.784 16.62 21.304C16.608 21.184 16.608 20.968 16.632 20.824L13.32 21.292L12.972 21.508L12.984 21.976ZM15.924 22.42C16.152 23.056 16.428 23.884 16.524 24.424L17.004 24.268C16.896 23.74 16.62 22.924 16.38 22.288L15.924 22.42ZM17.172 15.604V16.156H21.636V15.604H17.172ZM21.48 15.604V15.7C21.372 16.492 21.12 18.124 20.892 19.24L21.432 19.3C21.66 18.184 21.9 16.66 22.044 15.64L21.66 15.568L21.552 15.604H21.48ZM18.684 19.072L18.564 19.6H22.608V19.072H18.684ZM22.452 19.072V19.204C21.84 22.276 20.052 24.484 18.132 25.444C18.264 25.552 18.432 25.756 18.504 25.9C20.544 24.808 22.356 22.576 23.04 19.18L22.668 19.036L22.56 19.072H22.452ZM18.48 15.808C18.444 20.092 18.216 23.356 16.464 25.444C16.596 25.528 16.872 25.708 16.98 25.804C18.72 23.5 18.972 20.356 19.056 15.808H18.48ZM19.548 19.348L19.056 19.456C19.704 22.372 21 24.784 23.112 25.828C23.208 25.684 23.388 25.468 23.532 25.348C21.444 24.436 20.148 22.072 19.548 19.348ZM29.112 15.472V15.988H31.32V15.472H29.112ZM31.164 15.472V15.592C30.756 17.32 29.616 18.808 28.476 19.48C28.584 19.564 28.764 19.768 28.836 19.888C30.084 19.108 31.248 17.572 31.728 15.58L31.368 15.448L31.272 15.472H31.164ZM28.86 17.008C29.34 17.32 29.892 17.788 30.168 18.112L30.54 17.704C30.264 17.392 29.712 16.936 29.22 16.648L28.86 17.008ZM30.132 23.152C30.468 23.728 30.768 24.472 30.852 24.952L31.416 24.772C31.32 24.304 31.008 23.56 30.66 22.996L30.132 23.152ZM32.7 15.16L32.208 15.28C32.736 17.188 33.804 18.94 35.172 19.804C35.28 19.66 35.448 19.468 35.604 19.372C34.248 18.628 33.192 16.948 32.7 15.16ZM34.188 15.376C33.84 15.712 33.264 16.228 32.844 16.528L33.192 16.828C33.612 16.528 34.164 16.12 34.572 15.688L34.188 15.376ZM34.956 16.684C34.608 16.996 33.972 17.476 33.528 17.752L33.864 18.04C34.308 17.776 34.896 17.416 35.352 17.008L34.956 16.684ZM30.372 18.496V19H33.612V18.496H30.372ZM28.62 25.06V25.576H35.412V25.06H28.62ZM30.216 20.476H33.768V22.228H30.216V20.476ZM29.676 19.972V22.744H34.32V19.972H29.676ZM33.348 22.948C33.12 23.596 32.652 24.568 32.292 25.144L32.76 25.324C33.132 24.76 33.576 23.872 33.936 23.14L33.348 22.948ZM24.984 18.604V19.096H28.14V18.604H24.984ZM24.984 20.152V20.644H28.14V20.152H24.984ZM24.552 17.056V17.572H28.512V17.056H24.552ZM25.236 21.712V22.24H27.708V24.616H25.236V25.132H28.2V21.712H25.236ZM25.008 21.712V25.732H25.488V21.712H25.008ZM25.8 15.196C26.16 15.676 26.568 16.336 26.748 16.756L27.192 16.432C26.988 16.024 26.58 15.4 26.22 14.932L25.8 15.196ZM37.212 15.544V22.924H37.764V15.544H37.212ZM37.488 15.544V16.084H39.948V21.736H37.488V22.288H40.512V15.544H37.488ZM37.488 18.508V19.036H40.236V18.508H37.488ZM41.124 15.532V16.072H46.548V15.532H41.124ZM46.368 15.532V15.628C46.272 17.368 46.152 18.016 45.96 18.196C45.888 18.28 45.768 18.292 45.588 18.292C45.396 18.292 44.856 18.292 44.292 18.244C44.376 18.388 44.436 18.604 44.448 18.748C45 18.784 45.54 18.784 45.792 18.772C46.092 18.76 46.272 18.712 46.428 18.556C46.68 18.292 46.788 17.596 46.92 15.808C46.932 15.712 46.932 15.532 46.932 15.532H46.368ZM43.368 15.712C43.176 17.2 42.6 18.184 40.764 18.7C40.896 18.796 41.052 19.012 41.124 19.144C43.068 18.544 43.728 17.428 43.956 15.712H43.368ZM42.036 19.984H46.032V22.132H42.036V19.984ZM41.484 19.468V22.66H46.596V19.468H41.484ZM40.2 23.512C40.344 24.28 40.44 25.264 40.452 25.852L41.016 25.768C41.004 25.192 40.884 24.22 40.728 23.464L40.2 23.512ZM42.78 23.464C43.116 24.22 43.428 25.228 43.56 25.828L44.124 25.696C44.004 25.084 43.656 24.1 43.308 23.368L42.78 23.464ZM45.204 23.368C45.828 24.16 46.536 25.252 46.836 25.936L47.376 25.672C47.064 25 46.344 23.92 45.72 23.14L45.204 23.368ZM38.208 23.212C37.8 24.1 37.152 25.084 36.576 25.708L37.128 25.948C37.716 25.288 38.316 24.268 38.748 23.38L38.208 23.212Z" fill="#007282"/>
</svg>
