<svg width="153" height="14" viewBox="0 0 153 14" fill="none" xmlns="http://www.w3.org/2000/svg">
<path d="M1.032 2.096V3.896H1.584V2.6H10.428V3.896H10.992V2.096H1.032ZM5.832 3.476C5.796 4.208 5.712 5.144 5.616 5.756H6.144C6.228 5.168 6.3 4.232 6.36 3.476H5.832ZM2.832 8.048H9.24V8.708H2.832V8.048ZM2.832 9.128H9.24V9.812H2.832V9.128ZM2.832 6.98H9.24V7.628H2.832V6.98ZM2.268 6.548V10.232H9.828V6.548H2.268ZM6.912 10.736C8.328 11.132 9.732 11.588 10.62 11.912L11.004 11.504C10.056 11.168 8.616 10.736 7.212 10.376L6.912 10.736ZM3.228 3.692H9.012L8.88 5.516H2.988L3.228 3.692ZM2.748 3.272L2.4 5.948H9.384L9.612 3.272H2.748ZM4.572 10.364C3.828 10.796 2.196 11.24 0.936 11.468C1.044 11.588 1.2 11.792 1.272 11.9C2.556 11.672 4.14 11.216 5.124 10.676L4.572 10.364ZM0.612 4.34V4.832H3.084V4.796H8.928V4.832H11.412V4.34H8.928V4.364H3.084V4.34H0.612ZM5.196 1.1C5.544 1.508 5.892 2.084 6.024 2.468L6.564 2.264C6.408 1.88 6.048 1.316 5.7 0.908L5.196 1.1ZM12.708 1.628V2.144H16.896V1.628H12.708ZM17.244 7.724V8.264H22.644V7.724H17.244ZM12.6 5.216V5.756H17.136V5.216H12.6ZM14.796 5.432V11.156C14.796 11.288 14.748 11.324 14.616 11.336C14.46 11.336 13.992 11.336 13.428 11.324C13.524 11.48 13.596 11.72 13.62 11.852C14.352 11.852 14.772 11.852 15.024 11.768C15.276 11.66 15.36 11.504 15.36 11.144V5.432H14.796ZM22.428 7.724V7.832C22.224 10.088 21.996 10.988 21.72 11.252C21.612 11.348 21.504 11.36 21.3 11.36C21.108 11.36 20.568 11.348 20.004 11.3C20.088 11.456 20.148 11.696 20.16 11.852C20.7 11.9 21.24 11.888 21.492 11.888C21.804 11.864 21.996 11.804 22.188 11.636C22.536 11.288 22.764 10.388 23.004 8.036C23.016 7.928 23.028 7.724 23.028 7.724H22.428ZM19.704 6.464C19.476 8.612 18.912 10.532 16.416 11.444C16.536 11.552 16.704 11.768 16.776 11.9C19.404 10.892 20.04 8.864 20.292 6.464H19.704ZM13.212 3.332C14.244 3.812 15.444 4.616 16.02 5.204L16.404 4.772C15.816 4.172 14.604 3.416 13.584 2.948L13.212 3.332ZM16.968 5.216V5.348C16.728 6.188 16.368 7.232 16.008 7.856L16.44 8.084C16.848 7.388 17.232 6.284 17.532 5.324L17.16 5.192L17.052 5.216H16.968ZM21.768 2.516C21.084 4.46 19.344 5.624 17.172 6.236C17.292 6.356 17.472 6.608 17.532 6.728C19.752 5.996 21.564 4.772 22.368 2.624L21.768 2.516ZM19.116 0.991999C18.624 2.168 17.772 3.26 16.812 3.968C16.968 4.064 17.208 4.232 17.304 4.34C18.228 3.572 19.14 2.408 19.68 1.136L19.116 0.991999ZM18.672 2.732L18.192 2.912C19.116 4.784 21.012 6.188 23.184 6.788C23.268 6.632 23.436 6.404 23.568 6.296C21.396 5.78 19.548 4.46 18.672 2.732ZM14.688 5.372C14.28 6.86 13.38 8.576 12.528 9.416C12.636 9.548 12.804 9.788 12.876 9.932C13.764 8.984 14.664 7.112 15.12 5.528L14.688 5.372ZM18.72 2.288L18.456 2.804H23.352V2.288H18.72ZM16.752 1.628V1.748C16.32 2.408 15.432 3.272 14.664 3.764C14.784 3.848 14.976 3.968 15.084 4.064C15.888 3.536 16.812 2.66 17.376 1.844L16.992 1.592L16.884 1.628H16.752ZM29.676 7.172V11.888H30.264V7.172H29.676ZM25.02 1.94V3.608H25.572V2.468H34.476V3.608H35.04V1.94H25.02ZM24.828 4.028V4.532H35.22V4.028H24.828ZM24.672 8.276V8.804H35.34V8.276H24.672ZM32.676 3.128C31.824 5.684 29.52 6.704 24.852 6.944C24.948 7.088 25.032 7.292 25.08 7.472C29.832 7.16 32.34 6.044 33.24 3.308L32.676 3.128ZM26.412 5.828C29.664 6.332 32.628 6.98 34.392 7.604L34.98 7.208C33.084 6.584 29.988 5.9 26.916 5.444L26.412 5.828ZM29.34 1.124C29.604 1.472 29.928 1.964 30.072 2.288L30.612 2.06C30.468 1.772 30.144 1.292 29.868 0.956L29.34 1.124ZM26.412 5.828H27.12C27.912 5.144 29.076 3.956 29.772 2.936L29.172 2.744C28.5 3.752 27.312 5.024 26.412 5.828ZM27.912 9.212C27.228 9.944 26.028 10.604 24.936 11.024C25.068 11.132 25.296 11.324 25.392 11.444C26.46 10.964 27.72 10.208 28.476 9.404L27.912 9.212ZM31.416 9.512C32.556 10.028 33.936 10.844 34.632 11.444L35.028 11C34.32 10.424 32.916 9.62 31.776 9.128L31.416 9.512ZM39.636 1.664V2.192H44.052V1.664H39.636ZM40.788 4.136L40.62 4.676H43.236V4.136H40.788ZM40.116 6.524C40.884 7.028 41.772 7.76 42.228 8.264L42.468 7.736C42.048 7.28 41.148 6.572 40.368 6.08L40.116 6.524ZM44.196 2.336V9.2H44.748V2.336H44.196ZM46.5 1.16V11.06C46.5 11.276 46.428 11.324 46.236 11.336C46.032 11.348 45.384 11.36 44.616 11.336C44.7 11.504 44.796 11.756 44.832 11.9C45.768 11.9 46.32 11.9 46.62 11.792C46.92 11.696 47.052 11.516 47.052 11.06V1.16H46.5ZM40.968 1.832C40.728 3.704 40.176 6.08 38.976 7.52C39.096 7.616 39.264 7.796 39.36 7.904C40.644 6.404 41.232 3.932 41.544 1.928L40.968 1.832ZM43.008 4.136V4.28C42.576 7.904 41.256 10.268 39.456 11.504C39.588 11.6 39.792 11.804 39.876 11.948C41.712 10.64 43.08 8.144 43.56 4.232L43.224 4.112L43.116 4.136H43.008ZM38.952 1.064C38.34 2.96 37.344 4.844 36.252 6.068C36.36 6.212 36.528 6.488 36.6 6.608C37.764 5.252 38.82 3.248 39.492 1.208L38.952 1.064ZM37.98 3.812V11.9H38.52V3.308L38.508 3.284L37.98 3.812ZM48.108 13.136H48.684L52.632 1.568H52.068L48.108 13.136ZM58.4467 3.632V4.196H64.1707V3.632H58.4467ZM62.2747 1.016V11C62.2747 11.216 62.2027 11.288 61.9747 11.288C61.7467 11.3 60.9427 11.312 60.1027 11.288C60.1747 11.468 60.2827 11.744 60.3187 11.9C61.3387 11.9 62.0107 11.9 62.3707 11.792C62.7187 11.696 62.8627 11.504 62.8627 10.976V1.016H62.2747ZM62.1907 3.872C61.3267 5.948 59.5507 8.288 57.9547 9.428C58.0867 9.548 58.2667 9.752 58.3507 9.908C59.9827 8.648 61.7467 6.284 62.6467 4.148L62.1907 3.872ZM53.5387 3.62V4.196H57.9427V3.62H53.5387ZM55.6387 0.991999V11.876H56.2147V0.991999H55.6387ZM55.6027 3.932C55.1467 5.804 54.0907 7.964 53.0947 9.056C53.2027 9.188 53.3707 9.416 53.4547 9.572C54.4747 8.384 55.5427 6.032 56.0467 4.076L55.6027 3.932ZM56.1547 4.46L55.8187 4.76C56.2267 5.252 57.4507 6.884 57.8107 7.496L58.2307 6.992C57.9067 6.56 56.5267 4.844 56.1547 4.46ZM69.8707 1.04C69.0787 1.268 67.5787 1.46 66.3307 1.58C66.3907 1.688 66.4747 1.868 66.4987 1.988C67.7827 1.904 69.3187 1.712 70.3027 1.424L69.8707 1.04ZM74.9707 1.064C74.1307 1.292 72.5347 1.472 71.1907 1.556C71.2627 1.688 71.3347 1.868 71.3707 1.976C72.7387 1.904 74.3827 1.736 75.4147 1.436L74.9707 1.064ZM66.5467 2.768V3.26H70.5187V2.768H66.5467ZM71.4427 2.768V3.26H76.0747V2.768H71.4427ZM68.5267 2.9V4.856H69.0667V2.9H68.5267ZM73.5547 2.9V4.892H74.0947V2.9H73.5547ZM67.5907 7.04H73.8187V8.072H67.5907V7.04ZM67.5907 8.516H73.8187V9.572H67.5907V8.516ZM67.5907 5.564H73.8187V6.584H67.5907V5.564ZM67.0147 5.108V10.04H74.4067V5.108H67.0147ZM71.9707 10.628C73.3267 11.024 74.7187 11.504 75.5947 11.876L75.8827 11.444C74.9947 11.072 73.5787 10.592 72.2227 10.232L71.9707 10.628ZM69.0067 10.232C68.1187 10.712 66.6307 11.156 65.4547 11.432C65.5627 11.552 65.7307 11.828 65.7787 11.948C66.9667 11.6 68.5267 11.036 69.4867 10.484L69.0067 10.232ZM66.3307 1.58V2.648C66.3307 3.32 66.1987 4.136 65.3827 4.772C65.5027 4.844 65.7067 5.048 65.7787 5.168C66.6667 4.448 66.8707 3.44 66.8707 2.648V1.58H66.3307ZM71.1907 1.556V2.456C71.1907 3.104 71.0707 3.956 70.3867 4.64C70.5067 4.688 70.7227 4.844 70.8187 4.952C71.5627 4.22 71.7307 3.2 71.7307 2.456V1.556H71.1907ZM82.5547 5.036V5.456H87.3307V5.036H82.5547ZM82.5547 6.248V6.668H87.3787V6.248H82.5547ZM82.4347 7.508V7.964H87.8947V7.508H82.4347ZM81.0187 2.696C80.4667 3.872 79.5667 5.048 78.6547 5.828C78.7747 5.9 78.9907 6.104 79.0747 6.188C79.9747 5.36 80.9107 4.112 81.5347 2.852L81.0187 2.696ZM82.9147 2.684C82.4467 3.764 81.6907 4.844 80.8987 5.576C81.0427 5.672 81.2587 5.828 81.3547 5.924C82.1107 5.156 82.9027 3.992 83.4307 2.828L82.9147 2.684ZM84.8947 4.004V7.712H85.4227V4.004H84.8947ZM81.6427 9.068V10.976C81.6427 11.648 81.8827 11.792 82.8307 11.792C83.0467 11.792 84.8107 11.792 85.0267 11.792C85.7827 11.792 85.9867 11.516 86.0347 10.364C85.8907 10.328 85.6627 10.244 85.5307 10.136C85.4947 11.156 85.4107 11.276 84.9667 11.276C84.6067 11.276 83.1307 11.276 82.8547 11.276C82.2787 11.276 82.1827 11.228 82.1827 10.976V9.068H81.6427ZM82.6747 8.672C83.4187 9.008 84.2827 9.536 84.7387 9.932L85.0987 9.524C84.6547 9.152 83.7547 8.648 83.0347 8.324L82.6747 8.672ZM85.7467 9.2C86.4787 9.896 87.2347 10.868 87.5707 11.528L88.0507 11.252C87.7147 10.604 86.9227 9.644 86.1907 8.96L85.7467 9.2ZM80.2747 9.092C79.9987 9.86 79.4947 10.76 78.7867 11.276L79.2427 11.564C79.9747 11.012 80.4307 10.088 80.7547 9.272L80.2747 9.092ZM82.7947 3.8L82.4467 4.256H87.6667V3.8H82.7947ZM82.2667 4.328V8.324H82.7827V3.848L82.2667 4.328ZM78.4027 1.976V2.504H88.1107V1.976H78.4027ZM78.0907 1.976V5.648C78.0907 7.4 78.0187 9.812 77.1427 11.564C77.2747 11.624 77.5027 11.804 77.5987 11.9C78.5107 10.076 78.6427 7.472 78.6427 5.648V1.976H78.0907ZM80.1907 4.568V8.336H80.7307V4.052H80.7187L80.1907 4.568ZM82.3747 0.943999C82.7347 1.376 83.0947 1.976 83.2627 2.396L83.7547 2.144C83.5987 1.76 83.2147 1.172 82.8547 0.74L82.3747 0.943999ZM84.2947 2.828C84.6187 3.14 84.9427 3.596 85.0987 3.92L85.5427 3.656C85.3747 3.356 85.0267 2.924 84.7027 2.6L84.2947 2.828ZM90.9667 1.856V2.42H98.9587V1.856H90.9667ZM90.9667 4.676V5.24H98.9107V4.676H90.9667ZM90.8707 7.568V8.12H98.9227V7.568H90.8707ZM90.6427 1.856V6.236C90.6427 7.928 90.4987 10.04 89.1667 11.564C89.2987 11.636 89.5267 11.828 89.6107 11.96C91.0147 10.364 91.2067 8.012 91.2067 6.236V1.856H90.6427ZM98.6827 1.856V10.952C98.6827 11.192 98.5987 11.264 98.3587 11.264C98.1307 11.276 97.2907 11.288 96.3547 11.264C96.4387 11.42 96.5467 11.684 96.5707 11.828C97.7347 11.84 98.4187 11.84 98.7667 11.744C99.1267 11.636 99.2587 11.432 99.2587 10.952V1.856H98.6827ZM94.4467 2.06V11.804H95.0347V2.06H94.4467ZM100.831 13.136H101.407L105.355 1.568H104.791L100.831 13.136ZM106.585 2.036V2.624H114.385V2.036H106.585ZM114.325 2.036C106.921 8.252 106.561 9.2 106.561 10.04C106.561 10.928 107.329 11.444 108.865 11.444H114.781C116.101 11.444 116.449 10.916 116.581 8.612C116.413 8.576 116.137 8.492 115.981 8.396C115.897 10.388 115.717 10.856 114.793 10.856H108.757C107.845 10.856 107.185 10.592 107.185 10.004C107.185 9.368 107.593 8.456 114.841 2.372C114.901 2.348 114.949 2.312 114.973 2.276L114.577 2L114.433 2.036H114.325ZM121.249 5.588C121.609 6.404 121.993 7.472 122.125 8.12L122.617 7.928C122.497 7.304 122.101 6.248 121.717 5.444L121.249 5.588ZM120.049 8.648C120.181 9.416 120.301 10.412 120.337 11.072L120.841 10.964C120.805 10.316 120.661 9.332 120.517 8.564L120.049 8.648ZM118.777 8.6C118.645 9.572 118.429 10.64 118.141 11.396C118.285 11.444 118.525 11.54 118.633 11.588C118.897 10.844 119.137 9.704 119.293 8.684L118.777 8.6ZM118.357 5.324C118.357 5.18 118.789 4.976 118.789 4.976V4.964C119.593 3.992 120.397 2.588 121.045 1.22L120.493 0.98C119.965 2.3 119.077 3.704 118.813 4.064C118.549 4.436 118.345 4.7 118.153 4.736C118.225 4.892 118.321 5.192 118.357 5.324ZM118.357 5.324C118.513 5.24 118.813 5.18 120.745 4.952C120.745 4.832 120.757 4.616 120.781 4.46L118.669 4.652L118.345 4.844L118.357 5.324ZM118.429 7.976C118.429 7.832 118.861 7.652 118.861 7.652V7.64C119.977 6.452 121.105 4.784 122.053 3.116L121.513 2.828C120.721 4.448 119.473 6.152 119.077 6.596C118.729 7.04 118.453 7.364 118.237 7.4C118.309 7.556 118.393 7.844 118.429 7.976ZM118.429 7.976C118.633 7.868 118.993 7.784 122.065 7.304C122.053 7.184 122.053 6.968 122.077 6.824L118.765 7.292L118.417 7.508L118.429 7.976ZM121.369 8.42C121.597 9.056 121.873 9.884 121.969 10.424L122.449 10.268C122.341 9.74 122.065 8.924 121.825 8.288L121.369 8.42ZM122.617 1.604V2.156H127.081V1.604H122.617ZM126.925 1.604V1.7C126.817 2.492 126.565 4.124 126.337 5.24L126.877 5.3C127.105 4.184 127.345 2.66 127.489 1.64L127.105 1.568L126.997 1.604H126.925ZM124.129 5.072L124.009 5.6H128.053V5.072H124.129ZM127.897 5.072V5.204C127.285 8.276 125.497 10.484 123.577 11.444C123.709 11.552 123.877 11.756 123.949 11.9C125.989 10.808 127.801 8.576 128.485 5.18L128.113 5.036L128.005 5.072H127.897ZM123.925 1.808C123.889 6.092 123.661 9.356 121.909 11.444C122.041 11.528 122.317 11.708 122.425 11.804C124.165 9.5 124.417 6.356 124.501 1.808H123.925ZM124.993 5.348L124.501 5.456C125.149 8.372 126.445 10.784 128.557 11.828C128.653 11.684 128.833 11.468 128.977 11.348C126.889 10.436 125.593 8.072 124.993 5.348ZM134.557 1.472V1.988H136.765V1.472H134.557ZM136.609 1.472V1.592C136.201 3.32 135.061 4.808 133.921 5.48C134.029 5.564 134.209 5.768 134.281 5.888C135.529 5.108 136.693 3.572 137.173 1.58L136.813 1.448L136.717 1.472H136.609ZM134.305 3.008C134.785 3.32 135.337 3.788 135.613 4.112L135.985 3.704C135.709 3.392 135.157 2.936 134.665 2.648L134.305 3.008ZM135.577 9.152C135.913 9.728 136.213 10.472 136.297 10.952L136.861 10.772C136.765 10.304 136.453 9.56 136.105 8.996L135.577 9.152ZM138.145 1.16L137.653 1.28C138.181 3.188 139.249 4.94 140.617 5.804C140.725 5.66 140.893 5.468 141.049 5.372C139.693 4.628 138.637 2.948 138.145 1.16ZM139.633 1.376C139.285 1.712 138.709 2.228 138.289 2.528L138.637 2.828C139.057 2.528 139.609 2.12 140.017 1.688L139.633 1.376ZM140.401 2.684C140.053 2.996 139.417 3.476 138.973 3.752L139.309 4.04C139.753 3.776 140.341 3.416 140.797 3.008L140.401 2.684ZM135.817 4.496V5H139.057V4.496H135.817ZM134.065 11.06V11.576H140.857V11.06H134.065ZM135.661 6.476H139.213V8.228H135.661V6.476ZM135.121 5.972V8.744H139.765V5.972H135.121ZM138.793 8.948C138.565 9.596 138.097 10.568 137.737 11.144L138.205 11.324C138.577 10.76 139.021 9.872 139.381 9.14L138.793 8.948ZM130.429 4.604V5.096H133.585V4.604H130.429ZM130.429 6.152V6.644H133.585V6.152H130.429ZM129.997 3.056V3.572H133.957V3.056H129.997ZM130.681 7.712V8.24H133.153V10.616H130.681V11.132H133.645V7.712H130.681ZM130.453 7.712V11.732H130.933V7.712H130.453ZM131.245 1.196C131.605 1.676 132.013 2.336 132.193 2.756L132.637 2.432C132.433 2.024 132.025 1.4 131.665 0.931999L131.245 1.196ZM142.657 1.544V8.924H143.209V1.544H142.657ZM142.933 1.544V2.084H145.393V7.736H142.933V8.288H145.957V1.544H142.933ZM142.933 4.508V5.036H145.681V4.508H142.933ZM146.569 1.532V2.072H151.993V1.532H146.569ZM151.813 1.532V1.628C151.717 3.368 151.597 4.016 151.405 4.196C151.333 4.28 151.213 4.292 151.033 4.292C150.841 4.292 150.301 4.292 149.737 4.244C149.821 4.388 149.881 4.604 149.893 4.748C150.445 4.784 150.985 4.784 151.237 4.772C151.537 4.76 151.717 4.712 151.873 4.556C152.125 4.292 152.233 3.596 152.365 1.808C152.377 1.712 152.377 1.532 152.377 1.532H151.813ZM148.813 1.712C148.621 3.2 148.045 4.184 146.209 4.7C146.341 4.796 146.497 5.012 146.569 5.144C148.513 4.544 149.173 3.428 149.401 1.712H148.813ZM147.481 5.984H151.477V8.132H147.481V5.984ZM146.929 5.468V8.66H152.041V5.468H146.929ZM145.645 9.512C145.789 10.28 145.885 11.264 145.897 11.852L146.461 11.768C146.449 11.192 146.329 10.22 146.173 9.464L145.645 9.512ZM148.225 9.464C148.561 10.22 148.873 11.228 149.005 11.828L149.569 11.696C149.449 11.084 149.101 10.1 148.753 9.368L148.225 9.464ZM150.649 9.368C151.273 10.16 151.981 11.252 152.281 11.936L152.821 11.672C152.509 11 151.789 9.92 151.165 9.14L150.649 9.368ZM143.653 9.212C143.245 10.1 142.597 11.084 142.021 11.708L142.573 11.948C143.161 11.288 143.761 10.268 144.193 9.38L143.653 9.212Z" fill="#007282"/>
</svg>
