<svg width="156" height="14" viewBox="0 0 156 14" fill="none" xmlns="http://www.w3.org/2000/svg">
<path d="M1.284 1.832V2.42H10.668V1.832H1.284ZM0.672 6.944V7.52H11.34V6.944H0.672ZM2.184 3.272C2.7 4.208 3.216 5.432 3.408 6.188L3.96 5.984C3.768 5.252 3.228 4.04 2.712 3.104L2.184 3.272ZM9.228 3.044C8.892 3.956 8.268 5.288 7.776 6.08L8.268 6.26C8.772 5.48 9.384 4.232 9.84 3.224L9.228 3.044ZM5.664 2.036V11.888H6.264V2.036H5.664ZM16.224 6.356V6.86H19.644V6.356H16.224ZM16.224 8.492V8.996H19.68V8.492H16.224ZM13.668 10.7V11.252H22.368V10.7H13.668ZM13.32 4.172V11.9H13.896V4.736H22.08V11.9H22.656V4.172H13.32ZM15.912 4.496V10.976H16.464V4.496H15.912ZM19.416 4.496V10.916H19.968V4.496H19.416ZM17.592 2.12C17.484 2.78 17.22 3.776 17.016 4.388L17.532 4.544C17.772 3.968 18.024 3.044 18.252 2.288L17.592 2.12ZM12.756 1.856V2.42H23.268V1.856H12.756ZM28.128 3.152H31.848V4.124H28.128V3.152ZM27.612 2.732V4.568H32.376V2.732H27.612ZM27.744 6.716H32.232V9.608H27.744V6.716ZM27.24 6.284V10.052H32.748V6.284H27.24ZM29.112 7.724H30.828V8.612H29.112V7.724ZM28.668 7.328V9.008H31.284V7.328H28.668ZM26.268 5.228V5.66H33.744V5.228H26.268ZM29.7 4.268V5.432H30.228V4.268H29.7ZM25.056 1.532V11.876H25.62V2.048H34.38V11.876H34.944V1.532H25.056ZM25.392 10.856V11.372H34.692V10.856H25.392ZM37.128 4.604V5.096H40.608V4.604H37.128ZM37.128 6.152V6.644H40.608V6.152H37.128ZM36.624 3.056V3.572H41.112V3.056H36.624ZM37.368 7.712V8.24H40.068V10.616H37.368V11.132H40.608V7.712H37.368ZM37.116 7.712V11.732H37.644V7.712H37.116ZM37.992 1.196C38.328 1.676 38.724 2.336 38.916 2.756L39.396 2.456C39.204 2.048 38.808 1.424 38.448 0.943999L37.992 1.196ZM42.384 1.46V2.012H45.444V1.46H42.384ZM41.028 6.344V6.896H46.332V6.344H41.028ZM46.116 6.344V6.464C45.264 9.068 42.924 10.748 40.584 11.396C40.704 11.528 40.848 11.768 40.92 11.924C43.356 11.156 45.768 9.428 46.716 6.488L46.344 6.32L46.236 6.344H46.116ZM42.132 6.848L41.628 7.028C42.6 9.44 44.532 11.192 47.124 11.888C47.208 11.732 47.376 11.492 47.508 11.372C44.94 10.76 43.008 9.08 42.132 6.848ZM42.264 1.46V2.792C42.264 3.68 42.036 4.736 40.752 5.528C40.86 5.624 41.064 5.84 41.136 5.96C42.516 5.084 42.828 3.824 42.828 2.804V1.46H42.264ZM45.156 1.46V4.316C45.156 5.06 45.288 5.3 45.888 5.3C46.008 5.3 46.62 5.3 46.776 5.3C46.98 5.3 47.196 5.288 47.316 5.252C47.292 5.12 47.268 4.868 47.256 4.724C47.112 4.748 46.908 4.772 46.776 4.772C46.632 4.772 46.044 4.772 45.9 4.772C45.744 4.772 45.72 4.676 45.72 4.34V1.46H45.156ZM49.344 4.604V5.096H53.196V4.604H49.344ZM49.344 6.152V6.644H53.172V6.152H49.344ZM48.816 3.056V3.572H53.712V3.056H48.816ZM49.704 7.712V8.24H52.656V10.616H49.704V11.132H53.184V7.712H49.704ZM49.464 7.712V11.732H49.992V7.712H49.464ZM50.28 1.196C50.628 1.676 51.024 2.336 51.228 2.756L51.696 2.456C51.504 2.048 51.108 1.424 50.748 0.943999L50.28 1.196ZM53.712 5.24V5.816H59.412V5.24H53.712ZM56.208 1.22V11.888H56.796V1.22H56.208ZM60.108 13.136H60.684L64.632 1.568H64.068L60.108 13.136ZM67.8067 11.168C69.2947 11.168 70.4587 10.22 70.4587 8.696C70.4587 7.46 69.5827 6.656 68.5387 6.428V6.38C69.4627 6.068 70.1467 5.348 70.1467 4.208C70.1467 2.888 69.1147 2.096 67.7707 2.096C66.7747 2.096 66.0427 2.564 65.4427 3.128L65.8507 3.596C66.3307 3.08 67.0027 2.696 67.7587 2.696C68.7667 2.696 69.4147 3.332 69.4147 4.256C69.4147 5.3 68.7547 6.128 66.8227 6.128V6.728C68.9227 6.728 69.7267 7.52 69.7267 8.684C69.7267 9.824 68.9227 10.556 67.7827 10.556C66.6667 10.556 65.9947 10.028 65.4787 9.488L65.0947 9.968C65.6467 10.556 66.4507 11.168 67.8067 11.168ZM72.4165 11H74.4925C77.1685 11 78.4765 9.284 78.4765 6.608C78.4765 3.92 77.1685 2.252 74.4685 2.252H72.4165V11ZM73.1245 10.4V2.864H74.3965C76.7005 2.864 77.7325 4.328 77.7325 6.608C77.7325 8.876 76.7005 10.4 74.3965 10.4H73.1245ZM83.035 2.42V4.292H83.587V2.948H89.815V4.292H90.367V2.42H83.035ZM84.091 4.088V4.616H89.191V4.088H84.091ZM82.735 11.048V11.588H90.691V11.048H82.735ZM84.523 8.012H88.807V9.404H84.523V8.012ZM84.523 6.152H88.807V7.544H84.523V6.152ZM83.983 5.66V9.908H89.371V5.66H83.983ZM86.071 1.088C86.299 1.556 86.491 2.168 86.539 2.564L87.127 2.408C87.079 2.024 86.863 1.424 86.635 0.968L86.071 1.088ZM80.335 1.544C81.067 1.928 81.943 2.528 82.375 2.96L82.723 2.504C82.303 2.084 81.415 1.508 80.695 1.16L80.335 1.544ZM79.735 4.796C80.479 5.144 81.391 5.696 81.847 6.092L82.183 5.636C81.727 5.24 80.815 4.712 80.083 4.388L79.735 4.796ZM80.131 11.336L80.623 11.708C81.271 10.616 82.087 9.044 82.663 7.772L82.219 7.412C81.595 8.768 80.731 10.388 80.131 11.336ZM91.903 7.568V8.108H102.523V7.568H91.903ZM95.311 2.36V2.912H100.183V2.36H95.311ZM96.907 6.176V11.888H97.495V6.176H96.907ZM91.819 3.26C92.527 3.488 93.391 3.86 93.859 4.148L94.135 3.668C93.667 3.404 92.803 3.044 92.107 2.852L91.819 3.26ZM92.599 1.508C93.295 1.748 94.171 2.144 94.615 2.444L94.903 1.988C94.447 1.7 93.559 1.316 92.875 1.1L92.599 1.508ZM92.155 6.488L92.575 6.932C93.235 6.26 93.991 5.42 94.615 4.688L94.267 4.304C93.571 5.108 92.743 5.972 92.155 6.488ZM99.847 2.36V5.348C99.847 6.008 99.907 6.176 100.087 6.308C100.267 6.428 100.543 6.464 100.771 6.464C100.891 6.464 101.323 6.464 101.467 6.464C101.683 6.464 101.947 6.44 102.103 6.368C102.259 6.296 102.391 6.176 102.451 5.948C102.523 5.756 102.559 5.156 102.571 4.616C102.391 4.556 102.175 4.46 102.055 4.34C102.043 4.94 102.031 5.372 101.995 5.588C101.959 5.768 101.887 5.852 101.803 5.9C101.731 5.948 101.563 5.972 101.407 5.972C101.239 5.972 100.975 5.972 100.843 5.972C100.699 5.972 100.603 5.96 100.531 5.924C100.447 5.876 100.423 5.708 100.423 5.432V2.36H99.847ZM97.483 0.991999C97.411 3.98 96.631 5.516 94.351 6.356C94.483 6.452 94.699 6.692 94.759 6.812C97.087 5.816 97.975 4.208 98.083 0.991999H97.483ZM95.647 8.54C94.783 9.584 93.091 10.556 91.651 11.024C91.783 11.132 91.963 11.36 92.059 11.516C93.487 10.988 95.227 9.92 96.139 8.768L95.647 8.54ZM98.299 8.876C99.655 9.644 101.275 10.82 102.067 11.624L102.427 11.144C101.647 10.352 100.003 9.224 98.647 8.456L98.299 8.876ZM103.315 13.136H103.891L107.839 1.568H107.275L103.315 13.136ZM108.314 7.544L108.494 8.12C109.49 7.772 110.798 7.316 112.07 6.872L111.974 6.32C110.618 6.788 109.214 7.256 108.314 7.544ZM108.458 3.5V4.052H112.202V3.5H108.458ZM110.15 1.004V11.132C110.15 11.288 110.09 11.336 109.946 11.336C109.802 11.348 109.334 11.348 108.77 11.336C108.854 11.504 108.926 11.744 108.95 11.876C109.694 11.888 110.114 11.864 110.354 11.78C110.606 11.684 110.714 11.516 110.714 11.12V1.004H110.15ZM112.73 2.36V2.9H119.054V2.36H112.73ZM112.406 5.192V5.732H119.294V5.192H112.406ZM113.654 3.38C114.05 3.884 114.458 4.568 114.65 5L115.13 4.724C114.95 4.304 114.518 3.644 114.134 3.152L113.654 3.38ZM117.542 3.164C117.29 3.788 116.822 4.712 116.438 5.276L116.93 5.444C117.314 4.88 117.758 4.04 118.118 3.332L117.542 3.164ZM112.238 7.196V7.736H119.414V7.196H112.238ZM117.794 6.476C117.302 9.32 115.91 10.784 112.346 11.348C112.454 11.492 112.586 11.696 112.634 11.852C116.342 11.204 117.854 9.62 118.37 6.608L117.794 6.476ZM115.25 1.052C115.526 1.556 115.838 2.228 115.934 2.672L116.546 2.528C116.426 2.096 116.114 1.436 115.814 0.943999L115.25 1.052ZM113.054 9.2L113.666 9.248C114.266 8.468 115.106 7.148 115.598 6.044L115.034 5.924C114.566 7.004 113.726 8.348 113.054 9.2ZM113.054 9.2C115.01 9.896 117.482 11.048 118.694 11.852L119.174 11.456C117.83 10.616 115.394 9.512 113.498 8.852L113.054 9.2ZM125.606 7.172V11.888H126.194V7.172H125.606ZM120.95 1.94V3.608H121.502V2.468H130.406V3.608H130.97V1.94H120.95ZM120.758 4.028V4.532H131.15V4.028H120.758ZM120.602 8.276V8.804H131.27V8.276H120.602ZM128.606 3.128C127.754 5.684 125.45 6.704 120.782 6.944C120.878 7.088 120.962 7.292 121.01 7.472C125.762 7.16 128.27 6.044 129.17 3.308L128.606 3.128ZM122.342 5.828C125.594 6.332 128.558 6.98 130.322 7.604L130.91 7.208C129.014 6.584 125.918 5.9 122.846 5.444L122.342 5.828ZM125.27 1.124C125.534 1.472 125.858 1.964 126.002 2.288L126.542 2.06C126.398 1.772 126.074 1.292 125.798 0.956L125.27 1.124ZM122.342 5.828H123.05C123.842 5.144 125.006 3.956 125.702 2.936L125.102 2.744C124.43 3.752 123.242 5.024 122.342 5.828ZM123.842 9.212C123.158 9.944 121.958 10.604 120.866 11.024C120.998 11.132 121.226 11.324 121.322 11.444C122.39 10.964 123.65 10.208 124.406 9.404L123.842 9.212ZM127.346 9.512C128.486 10.028 129.866 10.844 130.562 11.444L130.958 11C130.25 10.424 128.846 9.62 127.706 9.128L127.346 9.512ZM138.53 5.624V6.128H142.61V5.624H138.53ZM138.242 1.58V11.876H138.794V2.12H142.43V1.58H138.242ZM142.202 1.58V3.932C142.202 4.064 142.154 4.1 141.962 4.112C141.758 4.136 141.158 4.136 140.306 4.112C140.402 4.28 140.486 4.484 140.522 4.64C141.47 4.64 142.046 4.64 142.358 4.544C142.67 4.448 142.742 4.268 142.742 3.92V1.58H142.202ZM139.502 5.84L139.01 5.972C139.742 8.528 141.158 10.784 143.054 11.828C143.162 11.672 143.354 11.444 143.486 11.324C141.614 10.424 140.174 8.24 139.502 5.84ZM142.43 5.624V5.78C141.986 7.988 140.69 10.34 138.686 11.528C138.83 11.636 138.998 11.78 139.094 11.912C141.182 10.64 142.514 8.252 143.03 5.732L142.646 5.588L142.538 5.624H142.43ZM132.926 2.324V2.852H137.39V2.324H132.926ZM132.554 8.768V9.284H137.726V8.768H132.554ZM132.566 4.28V4.82H137.702V4.28H132.566ZM132.794 6.704V7.232H137.498V6.704H132.794ZM134.906 0.991999V4.448H135.458V0.991999H134.906ZM134.906 6.908V11.852H135.458V6.908H134.906ZM136.466 4.892C136.226 5.468 135.77 6.32 135.398 6.848L135.854 7.004C136.238 6.488 136.646 5.708 137.006 5.048L136.466 4.892ZM133.43 5.084C133.706 5.576 133.982 6.224 134.066 6.644L134.546 6.464C134.45 6.068 134.162 5.42 133.874 4.952L133.43 5.084ZM147.566 1.64V2.132H155.258V1.64H147.566ZM148.43 3.416H154.346V4.76H148.43V3.416ZM147.89 2.948V5.216H154.898V2.948H147.89ZM150.026 1.784V4.928H150.53V1.784H150.026ZM152.186 1.784V4.928H152.69V1.784H152.186ZM148.73 7.58H154.178V8.42H148.73V7.58ZM148.73 8.864H154.178V9.716H148.73V8.864ZM148.73 6.332H154.178V7.148H148.73V6.332ZM148.19 5.888V10.148H154.73V5.888H148.19ZM152.174 10.712C153.23 11.084 154.31 11.552 154.946 11.924L155.45 11.564C154.754 11.18 153.602 10.724 152.558 10.364L152.174 10.712ZM150.086 10.352C149.474 10.772 148.286 11.252 147.242 11.528C147.35 11.624 147.494 11.804 147.59 11.912C148.658 11.624 149.834 11.168 150.53 10.664L150.086 10.352ZM146.882 1.076C146.27 2.996 145.274 4.892 144.182 6.128C144.29 6.272 144.458 6.548 144.518 6.668C145.694 5.3 146.75 3.284 147.422 1.22L146.882 1.076ZM145.91 3.812V11.9H146.462V3.296L146.438 3.272L145.91 3.812Z" fill="#007282"/>
</svg>
