<svg width="108" height="26" viewBox="0 0 108 26" fill="none" xmlns="http://www.w3.org/2000/svg">
<path d="M1.284 1.832V2.42H10.668V1.832H1.284ZM0.672 6.944V7.52H11.34V6.944H0.672ZM2.184 3.272C2.7 4.208 3.216 5.432 3.408 6.188L3.96 5.984C3.768 5.252 3.228 4.04 2.712 3.104L2.184 3.272ZM9.228 3.044C8.892 3.956 8.268 5.288 7.776 6.08L8.268 6.26C8.772 5.48 9.384 4.232 9.84 3.224L9.228 3.044ZM5.664 2.036V11.888H6.264V2.036H5.664ZM16.224 6.356V6.86H19.644V6.356H16.224ZM16.224 8.492V8.996H19.68V8.492H16.224ZM13.668 10.7V11.252H22.368V10.7H13.668ZM13.32 4.172V11.9H13.896V4.736H22.08V11.9H22.656V4.172H13.32ZM15.912 4.496V10.976H16.464V4.496H15.912ZM19.416 4.496V10.916H19.968V4.496H19.416ZM17.592 2.12C17.484 2.78 17.22 3.776 17.016 4.388L17.532 4.544C17.772 3.968 18.024 3.044 18.252 2.288L17.592 2.12ZM12.756 1.856V2.42H23.268V1.856H12.756ZM28.128 3.152H31.848V4.124H28.128V3.152ZM27.612 2.732V4.568H32.376V2.732H27.612ZM27.744 6.716H32.232V9.608H27.744V6.716ZM27.24 6.284V10.052H32.748V6.284H27.24ZM29.112 7.724H30.828V8.612H29.112V7.724ZM28.668 7.328V9.008H31.284V7.328H28.668ZM26.268 5.228V5.66H33.744V5.228H26.268ZM29.7 4.268V5.432H30.228V4.268H29.7ZM25.056 1.532V11.876H25.62V2.048H34.38V11.876H34.944V1.532H25.056ZM25.392 10.856V11.372H34.692V10.856H25.392ZM37.128 4.604V5.096H40.608V4.604H37.128ZM37.128 6.152V6.644H40.608V6.152H37.128ZM36.624 3.056V3.572H41.112V3.056H36.624ZM37.368 7.712V8.24H40.068V10.616H37.368V11.132H40.608V7.712H37.368ZM37.116 7.712V11.732H37.644V7.712H37.116ZM37.992 1.196C38.328 1.676 38.724 2.336 38.916 2.756L39.396 2.456C39.204 2.048 38.808 1.424 38.448 0.943999L37.992 1.196ZM42.384 1.46V2.012H45.444V1.46H42.384ZM41.028 6.344V6.896H46.332V6.344H41.028ZM46.116 6.344V6.464C45.264 9.068 42.924 10.748 40.584 11.396C40.704 11.528 40.848 11.768 40.92 11.924C43.356 11.156 45.768 9.428 46.716 6.488L46.344 6.32L46.236 6.344H46.116ZM42.132 6.848L41.628 7.028C42.6 9.44 44.532 11.192 47.124 11.888C47.208 11.732 47.376 11.492 47.508 11.372C44.94 10.76 43.008 9.08 42.132 6.848ZM42.264 1.46V2.792C42.264 3.68 42.036 4.736 40.752 5.528C40.86 5.624 41.064 5.84 41.136 5.96C42.516 5.084 42.828 3.824 42.828 2.804V1.46H42.264ZM45.156 1.46V4.316C45.156 5.06 45.288 5.3 45.888 5.3C46.008 5.3 46.62 5.3 46.776 5.3C46.98 5.3 47.196 5.288 47.316 5.252C47.292 5.12 47.268 4.868 47.256 4.724C47.112 4.748 46.908 4.772 46.776 4.772C46.632 4.772 46.044 4.772 45.9 4.772C45.744 4.772 45.72 4.676 45.72 4.34V1.46H45.156ZM49.344 4.604V5.096H53.196V4.604H49.344ZM49.344 6.152V6.644H53.172V6.152H49.344ZM48.816 3.056V3.572H53.712V3.056H48.816ZM49.704 7.712V8.24H52.656V10.616H49.704V11.132H53.184V7.712H49.704ZM49.464 7.712V11.732H49.992V7.712H49.464ZM50.28 1.196C50.628 1.676 51.024 2.336 51.228 2.756L51.696 2.456C51.504 2.048 51.108 1.424 50.748 0.943999L50.28 1.196ZM53.712 5.24V5.816H59.412V5.24H53.712ZM56.208 1.22V11.888H56.796V1.22H56.208ZM60.108 13.136H60.684L64.632 1.568H64.068L60.108 13.136ZM67.8067 11.168C69.2947 11.168 70.4587 10.22 70.4587 8.696C70.4587 7.46 69.5827 6.656 68.5387 6.428V6.38C69.4627 6.068 70.1467 5.348 70.1467 4.208C70.1467 2.888 69.1147 2.096 67.7707 2.096C66.7747 2.096 66.0427 2.564 65.4427 3.128L65.8507 3.596C66.3307 3.08 67.0027 2.696 67.7587 2.696C68.7667 2.696 69.4147 3.332 69.4147 4.256C69.4147 5.3 68.7547 6.128 66.8227 6.128V6.728C68.9227 6.728 69.7267 7.52 69.7267 8.684C69.7267 9.824 68.9227 10.556 67.7827 10.556C66.6667 10.556 65.9947 10.028 65.4787 9.488L65.0947 9.968C65.6467 10.556 66.4507 11.168 67.8067 11.168ZM72.4165 11H74.4925C77.1685 11 78.4765 9.284 78.4765 6.608C78.4765 3.92 77.1685 2.252 74.4685 2.252H72.4165V11ZM73.1245 10.4V2.864H74.3965C76.7005 2.864 77.7325 4.328 77.7325 6.608C77.7325 8.876 76.7005 10.4 74.3965 10.4H73.1245ZM83.035 2.42V4.292H83.587V2.948H89.815V4.292H90.367V2.42H83.035ZM84.091 4.088V4.616H89.191V4.088H84.091ZM82.735 11.048V11.588H90.691V11.048H82.735ZM84.523 8.012H88.807V9.404H84.523V8.012ZM84.523 6.152H88.807V7.544H84.523V6.152ZM83.983 5.66V9.908H89.371V5.66H83.983ZM86.071 1.088C86.299 1.556 86.491 2.168 86.539 2.564L87.127 2.408C87.079 2.024 86.863 1.424 86.635 0.968L86.071 1.088ZM80.335 1.544C81.067 1.928 81.943 2.528 82.375 2.96L82.723 2.504C82.303 2.084 81.415 1.508 80.695 1.16L80.335 1.544ZM79.735 4.796C80.479 5.144 81.391 5.696 81.847 6.092L82.183 5.636C81.727 5.24 80.815 4.712 80.083 4.388L79.735 4.796ZM80.131 11.336L80.623 11.708C81.271 10.616 82.087 9.044 82.663 7.772L82.219 7.412C81.595 8.768 80.731 10.388 80.131 11.336ZM91.903 7.568V8.108H102.523V7.568H91.903ZM95.311 2.36V2.912H100.183V2.36H95.311ZM96.907 6.176V11.888H97.495V6.176H96.907ZM91.819 3.26C92.527 3.488 93.391 3.86 93.859 4.148L94.135 3.668C93.667 3.404 92.803 3.044 92.107 2.852L91.819 3.26ZM92.599 1.508C93.295 1.748 94.171 2.144 94.615 2.444L94.903 1.988C94.447 1.7 93.559 1.316 92.875 1.1L92.599 1.508ZM92.155 6.488L92.575 6.932C93.235 6.26 93.991 5.42 94.615 4.688L94.267 4.304C93.571 5.108 92.743 5.972 92.155 6.488ZM99.847 2.36V5.348C99.847 6.008 99.907 6.176 100.087 6.308C100.267 6.428 100.543 6.464 100.771 6.464C100.891 6.464 101.323 6.464 101.467 6.464C101.683 6.464 101.947 6.44 102.103 6.368C102.259 6.296 102.391 6.176 102.451 5.948C102.523 5.756 102.559 5.156 102.571 4.616C102.391 4.556 102.175 4.46 102.055 4.34C102.043 4.94 102.031 5.372 101.995 5.588C101.959 5.768 101.887 5.852 101.803 5.9C101.731 5.948 101.563 5.972 101.407 5.972C101.239 5.972 100.975 5.972 100.843 5.972C100.699 5.972 100.603 5.96 100.531 5.924C100.447 5.876 100.423 5.708 100.423 5.432V2.36H99.847ZM97.483 0.991999C97.411 3.98 96.631 5.516 94.351 6.356C94.483 6.452 94.699 6.692 94.759 6.812C97.087 5.816 97.975 4.208 98.083 0.991999H97.483ZM95.647 8.54C94.783 9.584 93.091 10.556 91.651 11.024C91.783 11.132 91.963 11.36 92.059 11.516C93.487 10.988 95.227 9.92 96.139 8.768L95.647 8.54ZM98.299 8.876C99.655 9.644 101.275 10.82 102.067 11.624L102.427 11.144C101.647 10.352 100.003 9.224 98.647 8.456L98.299 8.876ZM103.315 13.136H103.891L107.839 1.568H107.275L103.315 13.136ZM0.384 21.544L0.564 22.12C1.56 21.772 2.868 21.316 4.14 20.872L4.044 20.32C2.688 20.788 1.284 21.256 0.384 21.544ZM0.528 17.5V18.052H4.272V17.5H0.528ZM2.22 15.004V25.132C2.22 25.288 2.16 25.336 2.016 25.336C1.872 25.348 1.404 25.348 0.84 25.336C0.924 25.504 0.996 25.744 1.02 25.876C1.764 25.888 2.184 25.864 2.424 25.78C2.676 25.684 2.784 25.516 2.784 25.12V15.004H2.22ZM4.8 16.36V16.9H11.124V16.36H4.8ZM4.476 19.192V19.732H11.364V19.192H4.476ZM5.724 17.38C6.12 17.884 6.528 18.568 6.72 19L7.2 18.724C7.02 18.304 6.588 17.644 6.204 17.152L5.724 17.38ZM9.612 17.164C9.36 17.788 8.892 18.712 8.508 19.276L9 19.444C9.384 18.88 9.828 18.04 10.188 17.332L9.612 17.164ZM4.308 21.196V21.736H11.484V21.196H4.308ZM9.864 20.476C9.372 23.32 7.98 24.784 4.416 25.348C4.524 25.492 4.656 25.696 4.704 25.852C8.412 25.204 9.924 23.62 10.44 20.608L9.864 20.476ZM7.32 15.052C7.596 15.556 7.908 16.228 8.004 16.672L8.616 16.528C8.496 16.096 8.184 15.436 7.884 14.944L7.32 15.052ZM5.124 23.2L5.736 23.248C6.336 22.468 7.176 21.148 7.668 20.044L7.104 19.924C6.636 21.004 5.796 22.348 5.124 23.2ZM5.124 23.2C7.08 23.896 9.552 25.048 10.764 25.852L11.244 25.456C9.9 24.616 7.464 23.512 5.568 22.852L5.124 23.2ZM17.676 21.172V25.888H18.264V21.172H17.676ZM13.02 15.94V17.608H13.572V16.468H22.476V17.608H23.04V15.94H13.02ZM12.828 18.028V18.532H23.22V18.028H12.828ZM12.672 22.276V22.804H23.34V22.276H12.672ZM20.676 17.128C19.824 19.684 17.52 20.704 12.852 20.944C12.948 21.088 13.032 21.292 13.08 21.472C17.832 21.16 20.34 20.044 21.24 17.308L20.676 17.128ZM14.412 19.828C17.664 20.332 20.628 20.98 22.392 21.604L22.98 21.208C21.084 20.584 17.988 19.9 14.916 19.444L14.412 19.828ZM17.34 15.124C17.604 15.472 17.928 15.964 18.072 16.288L18.612 16.06C18.468 15.772 18.144 15.292 17.868 14.956L17.34 15.124ZM14.412 19.828H15.12C15.912 19.144 17.076 17.956 17.772 16.936L17.172 16.744C16.5 17.752 15.312 19.024 14.412 19.828ZM15.912 23.212C15.228 23.944 14.028 24.604 12.936 25.024C13.068 25.132 13.296 25.324 13.392 25.444C14.46 24.964 15.72 24.208 16.476 23.404L15.912 23.212ZM19.416 23.512C20.556 24.028 21.936 24.844 22.632 25.444L23.028 25C22.32 24.424 20.916 23.62 19.776 23.128L19.416 23.512ZM30.6 19.624V20.128H34.68V19.624H30.6ZM30.312 15.58V25.876H30.864V16.12H34.5V15.58H30.312ZM34.272 15.58V17.932C34.272 18.064 34.224 18.1 34.032 18.112C33.828 18.136 33.228 18.136 32.376 18.112C32.472 18.28 32.556 18.484 32.592 18.64C33.54 18.64 34.116 18.64 34.428 18.544C34.74 18.448 34.812 18.268 34.812 17.92V15.58H34.272ZM31.572 19.84L31.08 19.972C31.812 22.528 33.228 24.784 35.124 25.828C35.232 25.672 35.424 25.444 35.556 25.324C33.684 24.424 32.244 22.24 31.572 19.84ZM34.5 19.624V19.78C34.056 21.988 32.76 24.34 30.756 25.528C30.9 25.636 31.068 25.78 31.164 25.912C33.252 24.64 34.584 22.252 35.1 19.732L34.716 19.588L34.608 19.624H34.5ZM24.996 16.324V16.852H29.46V16.324H24.996ZM24.624 22.768V23.284H29.796V22.768H24.624ZM24.636 18.28V18.82H29.772V18.28H24.636ZM24.864 20.704V21.232H29.568V20.704H24.864ZM26.976 14.992V18.448H27.528V14.992H26.976ZM26.976 20.908V25.852H27.528V20.908H26.976ZM28.536 18.892C28.296 19.468 27.84 20.32 27.468 20.848L27.924 21.004C28.308 20.488 28.716 19.708 29.076 19.048L28.536 18.892ZM25.5 19.084C25.776 19.576 26.052 20.224 26.136 20.644L26.616 20.464C26.52 20.068 26.232 19.42 25.944 18.952L25.5 19.084ZM39.636 15.64V16.132H47.328V15.64H39.636ZM40.5 17.416H46.416V18.76H40.5V17.416ZM39.96 16.948V19.216H46.968V16.948H39.96ZM42.096 15.784V18.928H42.6V15.784H42.096ZM44.256 15.784V18.928H44.76V15.784H44.256ZM40.8 21.58H46.248V22.42H40.8V21.58ZM40.8 22.864H46.248V23.716H40.8V22.864ZM40.8 20.332H46.248V21.148H40.8V20.332ZM40.26 19.888V24.148H46.8V19.888H40.26ZM44.244 24.712C45.3 25.084 46.38 25.552 47.016 25.924L47.52 25.564C46.824 25.18 45.672 24.724 44.628 24.364L44.244 24.712ZM42.156 24.352C41.544 24.772 40.356 25.252 39.312 25.528C39.42 25.624 39.564 25.804 39.66 25.912C40.728 25.624 41.904 25.168 42.6 24.664L42.156 24.352ZM38.952 15.076C38.34 16.996 37.344 18.892 36.252 20.128C36.36 20.272 36.528 20.548 36.588 20.668C37.764 19.3 38.82 17.284 39.492 15.22L38.952 15.076ZM37.98 17.812V25.9H38.532V17.296L38.508 17.272L37.98 17.812Z" fill="#007282"/>
</svg>
